999
dxfrw 0.6.3
  0
SECTION
  2
HEADER
  9
$ACADVER
  1
AC1021
  9
$DWGCODEPAGE
  3
ANSI_1251
  9
$INSBASE
 10
0
 20
0
 30
0
  9
$EXTMIN
 10
-297.189
 20
-22.9102
 30
0
  9
$EXTMAX
 10
204.5209
 20
1037.5989
 30
0
  9
$LIMMIN
 10
0
 20
0
  9
$LIMMAX
 10
12
 20
9
  9
$ORTHOMODE
 70
    0
  9
$REGENMODE
 70
    1
  9
$FILLMODE
 70
    1
  9
$QTEXTMODE
 70
    0
  9
$MIRRTEXT
 70
    1
  9
$LTSCALE
 40
1
  9
$ATTMODE
 70
    1
  9
$TEXTSIZE
 40
0.2
  9
$TRACEWID
 40
0.05
  9
$TEXTSTYLE
  7
Standard
  9
$CLAYER
  8
0
  9
$CELTYPE
  6
ByLayer
  9
$CECOLOR
 62
  256
  9
$CELTSCALE
 40
1
  9
$DISPSILH
 70
    0
  9
$DIMSCALE
 40
1
  9
$DIMASZ
 40
0.18
  9
$DIMEXO
 40
0.0625
  9
$DIMDLI
 40
0.38
  9
$DIMRND
 40
0
  9
$DIMDLE
 40
0
  9
$DIMEXE
 40
0.18
  9
$DIMTP
 40
0
  9
$DIMTM
 40
0
  9
$DIMTXT
 40
0.18
  9
$DIMCEN
 40
0.09
  9
$DIMTSZ
 40
0
  9
$DIMTOL
 70
    0
  9
$DIMLIM
 70
    0
  9
$DIMTIH
 70
    1
  9
$DIMTOH
 70
    1
  9
$DIMSE1
 70
    0
  9
$DIMSE2
 70
    0
  9
$DIMTAD
 70
    0
  9
$DIMZIN
 70
    0
  9
$DIMBLK
  1

  9
$DIMASO
 70
    1
  9
$DIMSHO
 70
    1
  9
$DIMPOST
  1

  9
$DIMAPOST
  1

  9
$DIMALT
 70
    0
  9
$DIMALTD
 70
    2
  9
$DIMALTF
 40
25.4
  9
$DIMLFAC
 40
1
  9
$DIMTOFL
 70
    0
  9
$DIMTVP
 40
0
  9
$DIMTIX
 70
    0
  9
$DIMSOXD
 70
    0
  9
$DIMSAH
 70
    0
  9
$DIMBLK1
  1

  9
$DIMBLK2
  1

  9
$DIMSTYLE
  2
Standard
  9
$DIMCLRD
 70
    0
  9
$DIMCLRE
 70
    0
  9
$DIMCLRT
 70
    0
  9
$DIMTFAC
 40
1
  9
$DIMGAP
 40
0.09
  9
$DIMJUST
 70
    0
  9
$DIMSD1
 70
    0
  9
$DIMSD2
 70
    0
  9
$DIMTOLJ
 70
    1
  9
$DIMTZIN
 70
    0
  9
$DIMALTZ
 70
    0
  9
$DIMALTTZ
 70
    0
  9
$DIMUPT
 70
    0
  9
$DIMDEC
 70
    4
  9
$DIMTDEC
 70
    4
  9
$DIMALTU
 70
    2
  9
$DIMALTTD
 70
    2
  9
$DIMTXSTY
  7
Standard
  9
$DIMAUNIT
 70
    0
  9
$DIMADEC
 70
    0
  9
$DIMALTRND
 40
0
  9
$DIMAZIN
 70
    0
  9
$DIMDSEP
 70
   46
  9
$DIMATFIT
 70
    3
  9
$DIMFRAC
 70
    0
  9
$DIMLDRBLK
  1

  9
$DIMLUNIT
 70
    2
  9
$DIMLWD
 70
   -2
  9
$DIMLWE
 70
   -2
  9
$DIMTMOVE
 70
    0
  9
$DIMFXL
 40
1
  9
$DIMFXLON
 70
    0
  9
$DIMJOGANG
 40
0.7853981633974483
  9
$DIMTFILL
 70
    0
  9
$DIMTFILLCLR
 70
    0
  9
$DIMARCSYM
 70
    0
  9
$DIMLTYPE
  6

  9
$DIMLTEX1
  6

  9
$DIMLTEX2
  6

  9
$LUNITS
 70
    2
  9
$LUPREC
 70
    4
  9
$SKETCHINC
 40
0.1
  9
$FILLETRAD
 40
0.5
  9
$AUNITS
 70
    0
  9
$AUPREC
 70
    0
  9
$MENU
  1
.
  9
$ELEVATION
 40
0
  9
$PELEVATION
 40
0
  9
$THICKNESS
 40
0
  9
$LIMCHECK
 70
    0
  9
$CHAMFERA
 40
0
  9
$CHAMFERB
 40
0
  9
$CHAMFERC
 40
0
  9
$CHAMFERD
 40
0
  9
$SKPOLY
 70
    0
  9
$USRTIMER
 70
    1
  9
$ANGBASE
 50
0
  9
$ANGDIR
 70
    0
  9
$PDMODE
 70
    0
  9
$PDSIZE
 40
0
  9
$PLINEWID
 40
0
  9
$SPLFRAME
 70
    0
  9
$SPLINETYPE
 70
    6
  9
$SPLINESEGS
 70
    8
  9
$HANDSEED
  5
20000
  9
$SURFTAB1
 70
    6
  9
$SURFTAB2
 70
    6
  9
$SURFTYPE
 70
    6
  9
$SURFU
 70
    6
  9
$SURFV
 70
    6
  9
$UCSBASE
  2

  9
$UCSNAME
  2

  9
$UCSORG
 10
0
 20
0
 30
0
  9
$UCSXDIR
 10
1
 20
0
 30
0
  9
$UCSYDIR
 10
0
 20
1
 30
0
  9
$UCSORTHOREF
  2

  9
$UCSORTHOVIEW
 70
    0
  9
$UCSORGTOP
 10
0
 20
0
 30
0
  9
$UCSORGBOTTOM
 10
0
 20
0
 30
0
  9
$UCSORGLEFT
 10
0
 20
0
 30
0
  9
$UCSORGRIGHT
 10
0
 20
0
 30
0
  9
$UCSORGFRONT
 10
0
 20
0
 30
0
  9
$UCSORGBACK
 10
0
 20
0
 30
0
  9
$PUCSBASE
  2

  9
$PUCSNAME
  2

  9
$PUCSORG
 10
0
 20
0
 30
0
  9
$PUCSXDIR
 10
1
 20
0
 30
0
  9
$PUCSYDIR
 10
0
 20
1
 30
0
  9
$PUCSORTHOREF
  2

  9
$PUCSORTHOVIEW
 70
    0
  9
$PUCSORGTOP
 10
0
 20
0
 30
0
  9
$PUCSORGBOTTOM
 10
0
 20
0
 30
0
  9
$PUCSORGLEFT
 10
0
 20
0
 30
0
  9
$PUCSORGRIGHT
 10
0
 20
0
 30
0
  9
$PUCSORGFRONT
 10
0
 20
0
 30
0
  9
$PUCSORGBACK
 10
0
 20
0
 30
0
  9
$USERI1
 70
    0
  9
$USERI2
 70
    0
  9
$USERI3
 70
    0
  9
$USERI4
 70
    0
  9
$USERI5
 70
    0
  9
$USERR1
 40
0
  9
$USERR2
 40
0
  9
$USERR3
 40
0
  9
$USERR4
 40
0
  9
$USERR5
 40
0
  9
$WORLDVIEW
 70
    1
  9
$SHADEDGE
 70
    3
  9
$SHADEDIF
 70
   70
  9
$TILEMODE
 70
    1
  9
$MAXACTVP
 70
   64
  9
$PINSBASE
 10
0
 20
0
 30
0
  9
$PLIMCHECK
 70
    0
  9
$PEXTMIN
 10
1e+20
 20
1e+20
 30
1e+20
  9
$PEXTMAX
 10
-1e+20
 20
-1e+20
 30
-1e+20
  9
$GRIDMODE
 70
    0
  9
$SNAPSTYLE
 70
    0
  9
$PLIMMIN
 10
0
 20
0
  9
$PLIMMAX
 10
12
 20
9
  9
$UNITMODE
 70
    0
  9
$VISRETAIN
 70
    1
  9
$PLINEGEN
 70
    0
  9
$PSLTSCALE
 70
    1
  9
$TREEDEPTH
 70
 3020
  9
$CMLSTYLE
  2
Standard
  9
$CMLJUST
 70
    0
  9
$CMLSCALE
 40
1
  9
$PROXYGRAPHICS
 70
    1
  9
$MEASUREMENT
 70
    0
  9
$CELWEIGHT
370
   -1
  9
$ENDCAPS
280
    0
  9
$JOINSTYLE
280
    0
  9
$LWDISPLAY
290
    0
  9
$INSUNITS
 70
    4
  9
$HYPERLINKBASE
  1

  9
$STYLESHEET
  1

  9
$XEDIT
290
    1
  9
$CEPSNTYPE
380
    0
  9
$PSTYLEMODE
290
    1
  9
$EXTNAMES
290
    1
  9
$PSVPSCALE
 40
0
  9
$OLESTARTUP
290
    0
  9
$SORTENTS
280
  127
  9
$INDEXCTL
280
    0
  9
$HIDETEXT
280
    1
  9
$XCLIPFRAME
290
    0
  9
$HALOGAP
280
    0
  9
$OBSCOLOR
 70
  257
  9
$OBSLTYPE
280
    0
  9
$INTERSECTIONDISPLAY
280
    0
  9
$INTERSECTIONCOLOR
 70
  257
  9
$DIMASSOC
280
    2
  9
$PROJECTNAME
  1

  9
$CAMERADISPLAY
290
    0
  9
$LENSLENGTH
 40
50
  9
$CAMERAHEIGHT
 40
0
  9
$STEPSPERSEC
 40
2
  9
$STEPSIZE
 40
6
  9
$3DDWFPREC
 40
2
  9
$PSOLWIDTH
 40
0.25
  9
$PSOLHEIGHT
 40
4
  9
$LOFTANG1
 40
1.570796326794897
  9
$LOFTANG2
 40
1.570796326794897
  9
$LOFTMAG1
 40
0
  9
$LOFTMAG2
 40
0
  9
$LOFTPARAM
 70
    7
  9
$LOFTNORMALS
280
    1
  9
$LATITUDE
 40
37.795
  9
$LONGITUDE
 40
-122.394
  9
$NORTHDIRECTION
 40
0
  9
$TIMEZONE
 70
-8000
  9
$LIGHTGLYPHDISPLAY
280
    1
  9
$TILEMODELIGHTSYNCH
280
    1
  9
$SOLIDHIST
280
    0
  9
$SHOWHIST
280
    1
  9
$DWFFRAME
280
    2
  9
$DGNFRAME
280
    2
  9
$REALWORLDSCALE
290
    1
  9
$INTERFERECOLOR
 62
  256
  9
$CSHADOW
280
    0
  9
$SHADOWPLANELOCATION
 40
0
  0
ENDSEC
  0
SECTION
  2
CLASSES
  0
ENDSEC
  0
SECTION
  2
TABLES
  0
TABLE
  2
VPORT
  5
8
330
0
100
AcDbSymbolTable
 70
    1
  0
VPORT
  5
31
330
2
100
AcDbSymbolTableRecord
100
AcDbViewportTableRecord
  2
*ACTIVE
 70
    0
 10
0
 20
0
 11
1
 21
1
 12
1902.481619098774
 22
2054.191885699684
 13
0
 23
0
 14
10
 24
10
 15
10
 25
10
 16
0
 26
0
 36
1
 17
0
 27
0
 37
0
 40
4160.697656434165
 41
1.851634534786253
 42
50
 43
0
 44
0
 50
0
 51
0
 71
    0
 72
  100
 73
    1
 74
    3
 75
    0
 76
    0
 77
    0
 78
    0
281
    0
 65
    1
110
0
120
0
130
0
111
1
121
0
131
0
112
0
122
1
132
0
 79
    0
146
0
348
10020
 60
    7
 61
    5
292
1
282
    1
141
0
142
0
 63
  250
421
3358443
  0
ENDTAB
  0
TABLE
  2
LTYPE
  5
5
330
0
100
AcDbSymbolTable
 70
    4
  0
LTYPE
  5
14
330
5
100
AcDbSymbolTableRecord
100
AcDbLinetypeTableRecord
  2
ByBlock
 70
    0
  3

 72
   65
 73
    0
 40
0
  0
LTYPE
  5
15
330
5
100
AcDbSymbolTableRecord
100
AcDbLinetypeTableRecord
  2
ByLayer
 70
    0
  3

 72
   65
 73
    0
 40
0
  0
LTYPE
  5
16
330
5
100
AcDbSymbolTableRecord
100
AcDbLinetypeTableRecord
  2
Continuous
 70
    0
  3
Solid line
 72
   65
 73
    0
 40
0
  0
LTYPE
  5
32
330
5
100
AcDbSymbolTableRecord
100
AcDbLinetypeTableRecord
  2
DOT
 70
    0
  3
Dot . . . . . . . . . . . . . . . . . . . . . .
 72
   65
 73
    2
 40
6.35
 49
0
 74
    0
 49
-6.35
 74
    0
  0
LTYPE
  5
33
330
5
100
AcDbSymbolTableRecord
100
AcDbLinetypeTableRecord
  2
DOTTINY
 70
    0
  3
Dot (.15x) .....................................
 72
   65
 73
    2
 40
0.9525
 49
0
 74
    0
 49
-0.9525
 74
    0
  0
LTYPE
  5
34
330
5
100
AcDbSymbolTableRecord
100
AcDbLinetypeTableRecord
  2
DOT2
 70
    0
  3
Dot (.5x) .....................................
 72
   65
 73
    2
 40
3.175
 49
0
 74
    0
 49
-3.175
 74
    0
  0
LTYPE
  5
35
330
5
100
AcDbSymbolTableRecord
100
AcDbLinetypeTableRecord
  2
DOTX2
 70
    0
  3
Dot (2x) .  .  .  .  .  .  .  .  .  .  .  .  .
 72
   65
 73
    2
 40
12.7
 49
0
 74
    0
 49
-12.7
 74
    0
  0
LTYPE
  5
36
330
5
100
AcDbSymbolTableRecord
100
AcDbLinetypeTableRecord
  2
DASHED
 70
    0
  3
Dashed _ _ _ _ _ _ _ _ _ _ _ _ _ _ _ _ _
 72
   65
 73
    2
 40
19.05
 49
12.7
 74
    0
 49
-6.35
 74
    0
  0
LTYPE
  5
37
330
5
100
AcDbSymbolTableRecord
100
AcDbLinetypeTableRecord
  2
DASHEDTINY
 70
    0
  3
Dashed (.15x) _ _ _ _ _ _ _ _ _ _ _ _ _ _ _ _ _
 72
   65
 73
    2
 40
2.8575
 49
1.905
 74
    0
 49
-0.9525
 74
    0
  0
LTYPE
  5
38
330
5
100
AcDbSymbolTableRecord
100
AcDbLinetypeTableRecord
  2
DASHED2
 70
    0
  3
Dashed (.5x) _ _ _ _ _ _ _ _ _ _ _ _ _ _ _ _ _
 72
   65
 73
    2
 40
9.524999999999999
 49
6.35
 74
    0
 49
-3.175
 74
    0
  0
LTYPE
  5
39
330
5
100
AcDbSymbolTableRecord
100
AcDbLinetypeTableRecord
  2
DASHEDX2
 70
    0
  3
Dashed (2x) ____  ____  ____  ____  ____  ___
 72
   65
 73
    2
 40
38.09999999999999
 49
25.4
 74
    0
 49
-12.7
 74
    0
  0
LTYPE
  5
3A
330
5
100
AcDbSymbolTableRecord
100
AcDbLinetypeTableRecord
  2
DASHDOT
 70
    0
  3
Dash dot __ . __ . __ . __ . __ . __ . __ . __
 72
   65
 73
    4
 40
25.4
 49
12.7
 74
    0
 49
-6.35
 74
    0
 49
0
 74
    0
 49
-6.35
 74
    0
  0
LTYPE
  5
3B
330
5
100
AcDbSymbolTableRecord
100
AcDbLinetypeTableRecord
  2
DASHDOTTINY
 70
    0
  3
Dash dot (.15x) _._._._._._._._._._._._._._._.
 72
   65
 73
    4
 40
3.81
 49
1.905
 74
    0
 49
-0.9525
 74
    0
 49
0
 74
    0
 49
-0.9525
 74
    0
  0
LTYPE
  5
3C
330
5
100
AcDbSymbolTableRecord
100
AcDbLinetypeTableRecord
  2
DASHDOT2
 70
    0
  3
Dash dot (.5x) _._._._._._._._._._._._._._._.
 72
   65
 73
    4
 40
12.7
 49
6.35
 74
    0
 49
-3.175
 74
    0
 49
0
 74
    0
 49
-3.175
 74
    0
  0
LTYPE
  5
3D
330
5
100
AcDbSymbolTableRecord
100
AcDbLinetypeTableRecord
  2
DASHDOTX2
 70
    0
  3
Dash dot (2x) ____  .  ____  .  ____  .  ___
 72
   65
 73
    4
 40
50.8
 49
25.4
 74
    0
 49
-12.7
 74
    0
 49
0
 74
    0
 49
-12.7
 74
    0
  0
LTYPE
  5
3E
330
5
100
AcDbSymbolTableRecord
100
AcDbLinetypeTableRecord
  2
DIVIDE
 70
    0
  3
Divide ____ . . ____ . . ____ . . ____ . . ____
 72
   65
 73
    6
 40
31.75
 49
12.7
 74
    0
 49
-6.35
 74
    0
 49
0
 74
    0
 49
-6.35
 74
    0
 49
0
 74
    0
 49
-6.35
 74
    0
  0
LTYPE
  5
3F
330
5
100
AcDbSymbolTableRecord
100
AcDbLinetypeTableRecord
  2
DIVIDETINY
 70
    0
  3
Divide (.15x) __..__..__..__..__..__..__..__.._
 72
   65
 73
    6
 40
4.7625
 49
1.905
 74
    0
 49
-0.9525
 74
    0
 49
0
 74
    0
 49
-0.9525
 74
    0
 49
0
 74
    0
 49
-0.9525
 74
    0
  0
LTYPE
  5
40
330
5
100
AcDbSymbolTableRecord
100
AcDbLinetypeTableRecord
  2
DIVIDE2
 70
    0
  3
Divide (.5x) __..__..__..__..__..__..__..__.._
 72
   65
 73
    6
 40
15.875
 49
6.35
 74
    0
 49
-3.175
 74
    0
 49
0
 74
    0
 49
-3.175
 74
    0
 49
0
 74
    0
 49
-3.175
 74
    0
  0
LTYPE
  5
41
330
5
100
AcDbSymbolTableRecord
100
AcDbLinetypeTableRecord
  2
DIVIDEX2
 70
    0
  3
Divide (2x) ________  .  .  ________  .  .  _
 72
   65
 73
    6
 40
63.5
 49
25.4
 74
    0
 49
-12.7
 74
    0
 49
0
 74
    0
 49
-12.7
 74
    0
 49
0
 74
    0
 49
-12.7
 74
    0
  0
LTYPE
  5
42
330
5
100
AcDbSymbolTableRecord
100
AcDbLinetypeTableRecord
  2
BORDER
 70
    0
  3
Border __ __ . __ __ . __ __ . __ __ . __ __ .
 72
   65
 73
    6
 40
44.45
 49
12.7
 74
    0
 49
-6.35
 74
    0
 49
12.7
 74
    0
 49
-6.35
 74
    0
 49
0
 74
    0
 49
-6.35
 74
    0
  0
LTYPE
  5
43
330
5
100
AcDbSymbolTableRecord
100
AcDbLinetypeTableRecord
  2
BORDERTINY
 70
    0
  3
Border (.15x) __.__.__.__.__.__.__.__.__.__.__.
 72
   65
 73
    6
 40
6.6675
 49
1.905
 74
    0
 49
-0.9525
 74
    0
 49
1.905
 74
    0
 49
-0.9525
 74
    0
 49
0
 74
    0
 49
-0.9525
 74
    0
  0
LTYPE
  5
44
330
5
100
AcDbSymbolTableRecord
100
AcDbLinetypeTableRecord
  2
BORDER2
 70
    0
  3
Border (.5x) __.__.__.__.__.__.__.__.__.__.__.
 72
   65
 73
    6
 40
22.225
 49
6.35
 74
    0
 49
-3.175
 74
    0
 49
6.35
 74
    0
 49
-3.175
 74
    0
 49
0
 74
    0
 49
-3.175
 74
    0
  0
LTYPE
  5
45
330
5
100
AcDbSymbolTableRecord
100
AcDbLinetypeTableRecord
  2
BORDERX2
 70
    0
  3
Border (2x) ____  ____  .  ____  ____  .  ___
 72
   65
 73
    6
 40
88.89999999999999
 49
25.4
 74
    0
 49
-12.7
 74
    0
 49
25.4
 74
    0
 49
-12.7
 74
    0
 49
0
 74
    0
 49
-12.7
 74
    0
  0
LTYPE
  5
46
330
5
100
AcDbSymbolTableRecord
100
AcDbLinetypeTableRecord
  2
CENTER
 70
    0
  3
Center ____ _ ____ _ ____ _ ____ _ ____ _ ____
 72
   65
 73
    4
 40
50.8
 49
31.75
 74
    0
 49
-6.35
 74
    0
 49
6.35
 74
    0
 49
-6.35
 74
    0
  0
LTYPE
  5
47
330
5
100
AcDbSymbolTableRecord
100
AcDbLinetypeTableRecord
  2
CENTERTINY
 70
    0
  3
Center (.15x) ___ _ ___ _ ___ _ ___ _ ___ _ ___
 72
   65
 73
    4
 40
7.619999999999999
 49
4.7625
 74
    0
 49
-0.9525
 74
    0
 49
0.9525
 74
    0
 49
-0.9525
 74
    0
  0
LTYPE
  5
48
330
5
100
AcDbSymbolTableRecord
100
AcDbLinetypeTableRecord
  2
CENTER2
 70
    0
  3
Center (.5x) ___ _ ___ _ ___ _ ___ _ ___ _ ___
 72
   65
 73
    4
 40
28.575
 49
19.05
 74
    0
 49
-3.175
 74
    0
 49
3.175
 74
    0
 49
-3.175
 74
    0
  0
LTYPE
  5
49
330
5
100
AcDbSymbolTableRecord
100
AcDbLinetypeTableRecord
  2
CENTERX2
 70
    0
  3
Center (2x) ________  __  ________  __  _____
 72
   65
 73
    4
 40
101.6
 49
63.5
 74
    0
 49
-12.7
 74
    0
 49
12.7
 74
    0
 49
-12.7
 74
    0
  0
ENDTAB
  0
TABLE
  2
LAYER
  5
2
330
0
100
AcDbSymbolTable
 70
    1
  0
LAYER
  5
10
330
2
100
AcDbSymbolTableRecord
100
AcDbLayerTableRecord
  2
0
 70
    0
 62
    7
  6
CONTINUOUS
370
   -3
390
F
  0
LAYER
  5
4A
330
2
100
AcDbSymbolTableRecord
100
AcDbLayerTableRecord
  2
layer 1
 70
    0
 62
    7
  6
CONTINUOUS
370
   -3
390
F
  0
ENDTAB
  0
TABLE
  2
STYLE
  5
3
330
0
100
AcDbSymbolTable
 70
    3
  0
STYLE
  5
4B
330
2
100
AcDbSymbolTableRecord
100
AcDbTextStyleTableRecord
  2
Standard
 70
    0
 40
0
 41
1
 50
0
 71
    0
 42
1
  3
txt
  4

  0
ENDTAB
  0
TABLE
  2
VIEW
  5
6
330
0
100
AcDbSymbolTable
 70
    0
  0
ENDTAB
  0
TABLE
  2
UCS
  5
7
330
0
100
AcDbSymbolTable
 70
    0
  0
ENDTAB
  0
TABLE
  2
APPID
  5
9
330
0
100
AcDbSymbolTable
 70
    1
  0
APPID
  5
12
330
9
100
AcDbSymbolTableRecord
100
AcDbRegAppTableRecord
  2
ACAD
 70
    0
  0
APPID
  5
4C
330
9
100
AcDbSymbolTableRecord
100
AcDbRegAppTableRecord
  2
LibreCad
 70
    0
  0
ENDTAB
  0
TABLE
  2
DIMSTYLE
  5
A
330
0
100
AcDbSymbolTable
 70
    1
100
AcDbDimStyleTable
 71
    1
  0
DIMSTYLE
105
4D
330
A
100
AcDbSymbolTableRecord
100
AcDbDimStyleTableRecord
  2
Standard
 70
    0
 40
1
 41
0.18
 42
0.0625
 43
0.38
 44
0.18
 45
0
 46
0
 47
0
 48
0
 49
1
140
0.18
141
0.09
142
0
143
25.4
144
1
145
0
146
1
147
0.09
148
0
 71
    0
 72
    0
 73
    1
 74
    1
 75
    0
 76
    0
 77
    0
 78
    0
 79
    0
170
    0
171
    2
172
    0
173
    0
174
    0
175
    0
176
    0
177
    0
178
    0
179
    0
271
    4
272
    4
273
    2
274
    2
275
    0
276
    0
277
    2
278
   46
279
    0
280
    0
281
    0
282
    0
283
    1
284
    0
285
    0
286
    0
288
    0
289
    3
340
Standard
341

371
   -2
372
   -2
  0
ENDTAB
  0
TABLE
  2
BLOCK_RECORD
  5
1
330
0
100
AcDbSymbolTable
 70
    2
  0
BLOCK_RECORD
  5
1F
330
1
100
AcDbSymbolTableRecord
100
AcDbBlockTableRecord
  2
*Model_Space
 70
    0
280
    1
281
    0
  0
BLOCK_RECORD
  5
1E
330
1
100
AcDbSymbolTableRecord
100
AcDbBlockTableRecord
  2
*Paper_Space
 70
    0
280
    1
281
    0
  0
ENDTAB
  0
ENDSEC
  0
SECTION
  2
BLOCKS
  0
BLOCK
  5
20
330
1F
100
AcDbEntity
  8
0
100
AcDbBlockBegin
  2
*Model_Space
 70
    0
 10
0
 20
0
 30
0
  3
*Model_Space
  1

  0
ENDBLK
  5
21
330
1F
100
AcDbEntity
  8
0
100
AcDbBlockEnd
  0
BLOCK
  5
1C
330
1B
100
AcDbEntity
  8
0
100
AcDbBlockBegin
  2
*Paper_Space
 70
    0
 10
0
 20
0
 30
0
  3
*Paper_Space
  1

  0
ENDBLK
  5
1D
330
1F
100
AcDbEntity
  8
0
100
AcDbBlockEnd
  0
ENDSEC
  0
SECTION
  2
ENTITIES
  0
LWPOLYLINE
  5
4E
100
AcDbEntity
  8
layer 1
  6
ByLayer
 62
    1
370
   20
100
AcDbPolyline
 90
    5
 70
    1
 43
0
 10
-297.1883
 20
191.3702
 10
204.5209
 20
191.3702
 10
204.5209
 20
241.549
 10
-297.1883
 20
241.549
 10
-297.1883
 20
191.3702
  0
LWPOLYLINE
  5
4F
100
AcDbEntity
  8
layer 1
  6
ByLayer
 62
    1
370
   20
100
AcDbPolyline
 90
    5
 70
    1
 43
0
 10
-297.189
 20
887.2751
 10
204.2916
 20
887.2751
 10
204.2916
 20
1037.5989
 10
-297.189
 20
1037.5989
 10
-297.189
 20
887.2751
  0
SPLINE
  5
50
100
AcDbEntity
  8
layer 1
  6
ByLayer
 62
    1
370
   20
100
AcDbSpline
210
0
220
0
230
0
 70
   11
 71
    3
 72
   20
 73
   16
 74
    0
 42
1e-07
 43
1e-07
 40
0
 40
0
 40
0
 40
0
 40
0.2
 40
0.2
 40
0.2
 40
0.2
 40
0.4
 40
0.4
 40
0.4
 40
0.4
 40
0.6
 40
0.6
 40
0.6
 40
0.6
 40
1
 40
1
 40
1
 40
1
 10
-297.1888
 20
827.9783
 30
0
 10
-297.1888
 20
827.9783
 30
0
 10
204.2916
 20
827.9783
 30
0
 10
204.2916
 20
827.9783
 30
0
 10
204.2916
 20
827.9783
 30
0
 10
204.2916
 20
827.9783
 30
0
 10
204.5214
 20
296.7686
 30
0
 10
204.5214
 20
296.7686
 30
0
 10
204.5214
 20
296.7686
 30
0
 10
204.5214
 20
296.7686
 30
0
 10
-297.1888
 20
296.7686
 30
0
 10
-297.1888
 20
296.7686
 30
0
 10
-297.1888
 20
296.7686
 30
0
 10
-297.1888
 20
296.7686
 30
0
 10
-297.1888
 20
827.9783
 30
0
 10
-297.1888
 20
827.9783
 30
0
  0
LWPOLYLINE
  5
51
100
AcDbEntity
  8
layer 1
  6
ByLayer
 62
    1
370
   20
100
AcDbPolyline
 90
    5
 70
    1
 43
0
 10
-297.189
 20
-22.9102
 10
204.2918
 20
-22.9102
 10
204.2918
 20
47.3292
 10
-297.189
 20
47.3292
 10
-297.189
 20
-22.9102
  0
SPLINE
  5
52
100
AcDbEntity
  8
layer 1
  6
ByLayer
 62
    1
370
   20
100
AcDbSpline
210
0
220
0
230
0
 70
   11
 71
    3
 72
   36
 73
   32
 74
    0
 42
1e-07
 43
1e-07
 40
0
 40
0
 40
0
 40
0
 40
0.1111111111111111
 40
0.1111111111111111
 40
0.1111111111111111
 40
0.1111111111111111
 40
0.2222222222222222
 40
0.2222222222222222
 40
0.2222222222222222
 40
0.2222222222222222
 40
0.3333333333333333
 40
0.3333333333333333
 40
0.3333333333333333
 40
0.3333333333333333
 40
0.4444444444444444
 40
0.4444444444444444
 40
0.4444444444444444
 40
0.4444444444444444
 40
0.5555555555555556
 40
0.5555555555555556
 40
0.5555555555555556
 40
0.5555555555555556
 40
0.6666666666666666
 40
0.6666666666666666
 40
0.6666666666666666
 40
0.6666666666666666
 40
0.7777777777777778
 40
0.7777777777777778
 40
0.7777777777777778
 40
0.7777777777777778
 40
1
 40
1
 40
1
 40
1
 10
1054.6697
 20
1222.4924
 30
0
 10
1054.6697
 20
1222.4924
 30
0
 10
1233.8431
 20
855.4188
 30
0
 10
1233.8431
 20
855.4188
 30
0
 10
1233.8431
 20
855.4188
 30
0
 10
1233.8431
 20
855.4188
 30
0
 10
1280.8181
 20
855.4188
 30
0
 10
1280.8181
 20
855.4188
 30
0
 10
1280.8181
 20
855.4188
 30
0
 10
1280.8181
 20
855.4188
 30
0
 10
1152.6455
 20
1307.7207
 30
0
 10
1152.6455
 20
1307.7207
 30
0
 10
1152.6455
 20
1307.7207
 30
0
 10
1152.6455
 20
1307.7207
 30
0
 10
1134.1013
 20
1309.3171
 30
0
 10
1134.1013
 20
1309.3171
 30
0
 10
1134.1013
 20
1309.3171
 30
0
 10
1134.1013
 20
1309.3171
 30
0
 10
1132.4366
 20
1289.3862
 30
0
 10
1132.4366
 20
1289.3862
 30
0
 10
1132.4366
 20
1289.3862
 30
0
 10
1132.4366
 20
1289.3862
 30
0
 10
603.0963
 20
1333.6139
 30
0
 10
603.0963
 20
1333.6139
 30
0
 10
603.0963
 20
1333.6139
 30
0
 10
603.0963
 20
1333.6139
 30
0
 10
587.4269
 20
1303.8856
 30
0
 10
587.4269
 20
1303.8856
 30
0
 10
587.4269
 20
1303.8856
 30
0
 10
587.4269
 20
1303.8856
 30
0
 10
1054.6697
 20
1222.4924
 30
0
 10
1054.6697
 20
1222.4924
 30
0
  0
SPLINE
  5
53
100
AcDbEntity
  8
layer 1
  6
ByLayer
 62
    1
370
   20
100
AcDbSpline
210
0
220
0
230
0
 70
   11
 71
    3
 72
   60
 73
   56
 74
    0
 42
1e-07
 43
1e-07
 40
0
 40
0
 40
0
 40
0
 40
0.06666666666666669
 40
0.06666666666666669
 40
0.06666666666666669
 40
0.06666666666666669
 40
0.1333333333333333
 40
0.1333333333333333
 40
0.1333333333333333
 40
0.1333333333333333
 40
0.2
 40
0.2
 40
0.2
 40
0.2
 40
0.2666666666666667
 40
0.2666666666666667
 40
0.2666666666666667
 40
0.2666666666666667
 40
0.3333333333333333
 40
0.3333333333333333
 40
0.3333333333333333
 40
0.3333333333333333
 40
0.4
 40
0.4
 40
0.4
 40
0.4
 40
0.4666666666666667
 40
0.4666666666666667
 40
0.4666666666666667
 40
0.4666666666666667
 40
0.5333333333333333
 40
0.5333333333333333
 40
0.5333333333333333
 40
0.5333333333333333
 40
0.6
 40
0.6
 40
0.6
 40
0.6
 40
0.6666666666666666
 40
0.6666666666666666
 40
0.6666666666666666
 40
0.6666666666666666
 40
0.7333333333333333
 40
0.7333333333333333
 40
0.7333333333333333
 40
0.7333333333333333
 40
0.8
 40
0.8
 40
0.8
 40
0.8
 40
0.8666666666666667
 40
0.8666666666666667
 40
0.8666666666666667
 40
0.8666666666666667
 40
1
 40
1
 40
1
 40
1
 10
1180.7201
 20
1615.6066
 30
0
 10
1180.7201
 20
1615.6066
 30
0
 10
499.1532
 20
1561.0808
 30
0
 10
499.1532
 20
1561.0808
 30
0
 10
499.1532
 20
1561.0808
 30
0
 10
499.1532
 20
1561.0808
 30
0
 10
254.2127
 20
798.0744999999999
 30
0
 10
254.2127
 20
798.0744999999999
 30
0
 10
254.2127
 20
798.0744999999999
 30
0
 10
254.2127
 20
798.0744999999999
 30
0
 10
296.4887
 20
798.0744999999999
 30
0
 10
296.4887
 20
798.0744999999999
 30
0
 10
296.4887
 20
798.0744999999999
 30
0
 10
296.4887
 20
798.0744999999999
 30
0
 10
516.0768
 20
1235.8468
 30
0
 10
516.0768
 20
1235.8468
 30
0
 10
516.0768
 20
1235.8468
 30
0
 10
516.0768
 20
1235.8468
 30
0
 10
454.6837
 20
1246.5413
 30
0
 10
454.6837
 20
1246.5413
 30
0
 10
454.6837
 20
1246.5413
 30
0
 10
454.6837
 20
1246.5413
 30
0
 10
470.353
 20
1276.2696
 30
0
 10
470.353
 20
1276.2696
 30
0
 10
470.353
 20
1276.2696
 30
0
 10
470.353
 20
1276.2696
 30
0
 10
472.0247
 20
1296.2687
 30
0
 10
472.0247
 20
1296.2687
 30
0
 10
472.0247
 20
1296.2687
 30
0
 10
472.0247
 20
1296.2687
 30
0
 10
472.1311
 20
1297.542
 30
0
 10
472.1311
 20
1297.542
 30
0
 10
472.1311
 20
1297.542
 30
0
 10
472.1311
 20
1297.542
 30
0
 10
543.9227
 20
1291.36
 30
0
 10
543.9227
 20
1291.36
 30
0
 10
543.9227
 20
1291.36
 30
0
 10
543.9227
 20
1291.36
 30
0
 10
611.8922
 20
1426.8656
 30
0
 10
611.8922
 20
1426.8656
 30
0
 10
611.8922
 20
1426.8656
 30
0
 10
611.8922
 20
1426.8656
 30
0
 10
1114.4995
 20
1475.713
 30
0
 10
1114.4995
 20
1475.713
 30
0
 10
1114.4995
 20
1475.713
 30
0
 10
1114.4995
 20
1475.713
 30
0
 10
1132.6413
 20
1467.1298
 30
0
 10
1132.6413
 20
1467.1298
 30
0
 10
1132.6413
 20
1467.1298
 30
0
 10
1132.6413
 20
1467.1298
 30
0
 10
1198.8368
 20
1607.0183
 30
0
 10
1198.8368
 20
1607.0183
 30
0
 10
1198.8368
 20
1607.0183
 30
0
 10
1198.8368
 20
1607.0183
 30
0
 10
1180.7201
 20
1615.6066
 30
0
 10
1180.7201
 20
1615.6066
 30
0
  0
SPLINE
  5
54
100
AcDbEntity
  8
layer 1
  6
ByLayer
 62
    1
370
   20
100
AcDbSpline
210
0
220
0
230
0
 70
   11
 71
    3
 72
   32
 73
   28
 74
    0
 42
1e-07
 43
1e-07
 40
0
 40
0
 40
0
 40
0
 40
0.125
 40
0.125
 40
0.125
 40
0.125
 40
0.25
 40
0.25
 40
0.25
 40
0.25
 40
0.375
 40
0.375
 40
0.375
 40
0.375
 40
0.5
 40
0.5
 40
0.5
 40
0.5
 40
0.625
 40
0.625
 40
0.625
 40
0.625
 40
0.75
 40
0.75
 40
0.75
 40
0.75
 40
1
 40
1
 40
1
 40
1
 10
1495.9811
 20
1373.1285
 30
0
 10
1495.9811
 20
1373.1285
 30
0
 10
948.21
 20
1420.2942
 30
0
 10
948.21
 20
1420.2942
 30
0
 10
948.21
 20
1420.2942
 30
0
 10
948.21
 20
1420.2942
 30
0
 10
946.4319
 20
1399.0217
 30
0
 10
946.4319
 20
1399.0217
 30
0
 10
946.4319
 20
1399.0217
 30
0
 10
946.4319
 20
1399.0217
 30
0
 10
930.7626
 20
1369.2935
 30
0
 10
930.7626
 20
1369.2935
 30
0
 10
930.7626
 20
1369.2935
 30
0
 10
930.7626
 20
1369.2935
 30
0
 10
1398.0054
 20
1287.9002
 30
0
 10
1398.0054
 20
1287.9002
 30
0
 10
1398.0054
 20
1287.9002
 30
0
 10
1398.0054
 20
1287.9002
 30
0
 10
1577.1788
 20
920.8266
 30
0
 10
1577.1788
 20
920.8266
 30
0
 10
1577.1788
 20
920.8266
 30
0
 10
1577.1788
 20
920.8266
 30
0
 10
1624.1538
 20
920.8266
 30
0
 10
1624.1538
 20
920.8266
 30
0
 10
1624.1538
 20
920.8266
 30
0
 10
1624.1538
 20
920.8266
 30
0
 10
1495.9811
 20
1373.1285
 30
0
 10
1495.9811
 20
1373.1285
 30
0
  0
SPLINE
  5
55
100
AcDbEntity
  8
layer 1
  6
ByLayer
 62
    1
370
   20
100
AcDbSpline
210
0
220
0
230
0
 70
   11
 71
    3
 72
   60
 73
   56
 74
    0
 42
1e-07
 43
1e-07
 40
0
 40
0
 40
0
 40
0
 40
0.06666666666666669
 40
0.06666666666666669
 40
0.06666666666666669
 40
0.06666666666666669
 40
0.1333333333333333
 40
0.1333333333333333
 40
0.1333333333333333
 40
0.1333333333333333
 40
0.2
 40
0.2
 40
0.2
 40
0.2
 40
0.2666666666666667
 40
0.2666666666666667
 40
0.2666666666666667
 40
0.2666666666666667
 40
0.3333333333333333
 40
0.3333333333333333
 40
0.3333333333333333
 40
0.3333333333333333
 40
0.4
 40
0.4
 40
0.4
 40
0.4
 40
0.4666666666666667
 40
0.4666666666666667
 40
0.4666666666666667
 40
0.4666666666666667
 40
0.5333333333333333
 40
0.5333333333333333
 40
0.5333333333333333
 40
0.5333333333333333
 40
0.6
 40
0.6
 40
0.6
 40
0.6
 40
0.6666666666666666
 40
0.6666666666666666
 40
0.6666666666666666
 40
0.6666666666666666
 40
0.7333333333333333
 40
0.7333333333333333
 40
0.7333333333333333
 40
0.7333333333333333
 40
0.8
 40
0.8
 40
0.8
 40
0.8
 40
0.8666666666666667
 40
0.8666666666666667
 40
0.8666666666666667
 40
0.8666666666666667
 40
1
 40
1
 40
1
 40
1
 10
-1303.472
 20
1617.1609
 30
0
 10
-1303.472
 20
1617.1609
 30
0
 10
-621.905
 20
1562.6351
 30
0
 10
-621.905
 20
1562.6351
 30
0
 10
-621.905
 20
1562.6351
 30
0
 10
-621.905
 20
1562.6351
 30
0
 10
-376.9646
 20
799.6287
 30
0
 10
-376.9646
 20
799.6287
 30
0
 10
-376.9646
 20
799.6287
 30
0
 10
-376.9646
 20
799.6287
 30
0
 10
-419.2406
 20
799.6287
 30
0
 10
-419.2406
 20
799.6287
 30
0
 10
-419.2406
 20
799.6287
 30
0
 10
-419.2406
 20
799.6287
 30
0
 10
-638.8287
 20
1237.4011
 30
0
 10
-638.8287
 20
1237.4011
 30
0
 10
-638.8287
 20
1237.4011
 30
0
 10
-638.8287
 20
1237.4011
 30
0
 10
-577.4355
 20
1248.0956
 30
0
 10
-577.4355
 20
1248.0956
 30
0
 10
-577.4355
 20
1248.0956
 30
0
 10
-577.4355
 20
1248.0956
 30
0
 10
-593.1049
 20
1277.8239
 30
0
 10
-593.1049
 20
1277.8239
 30
0
 10
-593.1049
 20
1277.8239
 30
0
 10
-593.1049
 20
1277.8239
 30
0
 10
-594.7766
 20
1297.823
 30
0
 10
-594.7766
 20
1297.823
 30
0
 10
-594.7766
 20
1297.823
 30
0
 10
-594.7766
 20
1297.823
 30
0
 10
-594.883
 20
1299.0963
 30
0
 10
-594.883
 20
1299.0963
 30
0
 10
-594.883
 20
1299.0963
 30
0
 10
-594.883
 20
1299.0963
 30
0
 10
-666.6746000000001
 20
1292.9143
 30
0
 10
-666.6746000000001
 20
1292.9143
 30
0
 10
-666.6746000000001
 20
1292.9143
 30
0
 10
-666.6746000000001
 20
1292.9143
 30
0
 10
-734.6441
 20
1428.4199
 30
0
 10
-734.6441
 20
1428.4199
 30
0
 10
-734.6441
 20
1428.4199
 30
0
 10
-734.6441
 20
1428.4199
 30
0
 10
-1237.2514
 20
1477.2673
 30
0
 10
-1237.2514
 20
1477.2673
 30
0
 10
-1237.2514
 20
1477.2673
 30
0
 10
-1237.2514
 20
1477.2673
 30
0
 10
-1255.3932
 20
1468.6841
 30
0
 10
-1255.3932
 20
1468.6841
 30
0
 10
-1255.3932
 20
1468.6841
 30
0
 10
-1255.3932
 20
1468.6841
 30
0
 10
-1321.5887
 20
1608.5726
 30
0
 10
-1321.5887
 20
1608.5726
 30
0
 10
-1321.5887
 20
1608.5726
 30
0
 10
-1321.5887
 20
1608.5726
 30
0
 10
-1303.472
 20
1617.1609
 30
0
 10
-1303.472
 20
1617.1609
 30
0
  0
SPLINE
  5
56
100
AcDbEntity
  8
layer 1
  6
ByLayer
 62
    1
370
   20
100
AcDbSpline
210
0
220
0
230
0
 70
   11
 71
    3
 72
   36
 73
   32
 74
    0
 42
1e-07
 43
1e-07
 40
0
 40
0
 40
0
 40
0
 40
0.1111111111111111
 40
0.1111111111111111
 40
0.1111111111111111
 40
0.1111111111111111
 40
0.2222222222222222
 40
0.2222222222222222
 40
0.2222222222222222
 40
0.2222222222222222
 40
0.3333333333333333
 40
0.3333333333333333
 40
0.3333333333333333
 40
0.3333333333333333
 40
0.4444444444444444
 40
0.4444444444444444
 40
0.4444444444444444
 40
0.4444444444444444
 40
0.5555555555555556
 40
0.5555555555555556
 40
0.5555555555555556
 40
0.5555555555555556
 40
0.6666666666666666
 40
0.6666666666666666
 40
0.6666666666666666
 40
0.6666666666666666
 40
0.7777777777777778
 40
0.7777777777777778
 40
0.7777777777777778
 40
0.7777777777777778
 40
1
 40
1
 40
1
 40
1
 10
-1178.425
 20
1207.5344
 30
0
 10
-1178.425
 20
1207.5344
 30
0
 10
-1357.5984
 20
840.4609
 30
0
 10
-1357.5984
 20
840.4609
 30
0
 10
-1357.5984
 20
840.4609
 30
0
 10
-1357.5984
 20
840.4609
 30
0
 10
-1404.5734
 20
840.4609
 30
0
 10
-1404.5734
 20
840.4609
 30
0
 10
-1404.5734
 20
840.4609
 30
0
 10
-1404.5734
 20
840.4609
 30
0
 10
-1276.4008
 20
1292.7627
 30
0
 10
-1276.4008
 20
1292.7627
 30
0
 10
-1276.4008
 20
1292.7627
 30
0
 10
-1276.4008
 20
1292.7627
 30
0
 10
-1257.8566
 20
1294.3592
 30
0
 10
-1257.8566
 20
1294.3592
 30
0
 10
-1257.8566
 20
1294.3592
 30
0
 10
-1257.8566
 20
1294.3592
 30
0
 10
-1256.1919
 20
1274.4283
 30
0
 10
-1256.1919
 20
1274.4283
 30
0
 10
-1256.1919
 20
1274.4283
 30
0
 10
-1256.1919
 20
1274.4283
 30
0
 10
-726.8516
 20
1318.656
 30
0
 10
-726.8516
 20
1318.656
 30
0
 10
-726.8516
 20
1318.656
 30
0
 10
-726.8516
 20
1318.656
 30
0
 10
-711.1822
 20
1288.9277
 30
0
 10
-711.1822
 20
1288.9277
 30
0
 10
-711.1822
 20
1288.9277
 30
0
 10
-711.1822
 20
1288.9277
 30
0
 10
-1178.425
 20
1207.5344
 30
0
 10
-1178.425
 20
1207.5344
 30
0
  0
SPLINE
  5
57
100
AcDbEntity
  8
layer 1
  6
ByLayer
 62
    1
370
   20
100
AcDbSpline
210
0
220
0
230
0
 70
   11
 71
    3
 72
   32
 73
   28
 74
    0
 42
1e-07
 43
1e-07
 40
0
 40
0
 40
0
 40
0
 40
0.125
 40
0.125
 40
0.125
 40
0.125
 40
0.25
 40
0.25
 40
0.25
 40
0.25
 40
0.375
 40
0.375
 40
0.375
 40
0.375
 40
0.5
 40
0.5
 40
0.5
 40
0.5
 40
0.625
 40
0.625
 40
0.625
 40
0.625
 40
0.75
 40
0.75
 40
0.75
 40
0.75
 40
1
 40
1
 40
1
 40
1
 10
-1619.7364
 20
1358.1706
 30
0
 10
-1619.7364
 20
1358.1706
 30
0
 10
-1071.9653
 20
1405.3363
 30
0
 10
-1071.9653
 20
1405.3363
 30
0
 10
-1071.9653
 20
1405.3363
 30
0
 10
-1071.9653
 20
1405.3363
 30
0
 10
-1070.1872
 20
1384.0638
 30
0
 10
-1070.1872
 20
1384.0638
 30
0
 10
-1070.1872
 20
1384.0638
 30
0
 10
-1070.1872
 20
1384.0638
 30
0
 10
-1054.5178
 20
1354.3355
 30
0
 10
-1054.5178
 20
1354.3355
 30
0
 10
-1054.5178
 20
1354.3355
 30
0
 10
-1054.5178
 20
1354.3355
 30
0
 10
-1521.7606
 20
1272.9422
 30
0
 10
-1521.7606
 20
1272.9422
 30
0
 10
-1521.7606
 20
1272.9422
 30
0
 10
-1521.7606
 20
1272.9422
 30
0
 10
-1700.934
 20
905.8687
 30
0
 10
-1700.934
 20
905.8687
 30
0
 10
-1700.934
 20
905.8687
 30
0
 10
-1700.934
 20
905.8687
 30
0
 10
-1747.9091
 20
905.8687
 30
0
 10
-1747.9091
 20
905.8687
 30
0
 10
-1747.9091
 20
905.8687
 30
0
 10
-1747.9091
 20
905.8687
 30
0
 10
-1619.7364
 20
1358.1706
 30
0
 10
-1619.7364
 20
1358.1706
 30
0
  0
SPLINE
  5
58
100
AcDbEntity
  8
layer 1
  6
ByLayer
 62
    1
370
   20
100
AcDbSpline
210
0
220
0
230
0
 70
   11
 71
    3
 72
   36
 73
   32
 74
    0
 42
1e-07
 43
1e-07
 40
0
 40
0
 40
0
 40
0
 40
0.1111111111111111
 40
0.1111111111111111
 40
0.1111111111111111
 40
0.1111111111111111
 40
0.2222222222222222
 40
0.2222222222222222
 40
0.2222222222222222
 40
0.2222222222222222
 40
0.3333333333333333
 40
0.3333333333333333
 40
0.3333333333333333
 40
0.3333333333333333
 40
0.4444444444444444
 40
0.4444444444444444
 40
0.4444444444444444
 40
0.4444444444444444
 40
0.5555555555555556
 40
0.5555555555555556
 40
0.5555555555555556
 40
0.5555555555555556
 40
0.6666666666666666
 40
0.6666666666666666
 40
0.6666666666666666
 40
0.6666666666666666
 40
0.7777777777777778
 40
0.7777777777777778
 40
0.7777777777777778
 40
0.7777777777777778
 40
1
 40
1
 40
1
 40
1
 10
-1223.6964
 20
1937.2009
 30
0
 10
-1223.6964
 20
1937.2009
 30
0
 10
-542.1294
 20
1882.6751
 30
0
 10
-542.1294
 20
1882.6751
 30
0
 10
-542.1294
 20
1882.6751
 30
0
 10
-542.1294
 20
1882.6751
 30
0
 10
-297.189
 20
1119.6687
 30
0
 10
-297.189
 20
1119.6687
 30
0
 10
-297.189
 20
1119.6687
 30
0
 10
-297.189
 20
1119.6687
 30
0
 10
-339.465
 20
1119.6687
 30
0
 10
-339.465
 20
1119.6687
 30
0
 10
-339.465
 20
1119.6687
 30
0
 10
-339.465
 20
1119.6687
 30
0
 10
-654.8685
 20
1748.4599
 30
0
 10
-654.8685
 20
1748.4599
 30
0
 10
-654.8685
 20
1748.4599
 30
0
 10
-654.8685
 20
1748.4599
 30
0
 10
-1157.4758
 20
1797.3073
 30
0
 10
-1157.4758
 20
1797.3073
 30
0
 10
-1157.4758
 20
1797.3073
 30
0
 10
-1157.4758
 20
1797.3073
 30
0
 10
-1175.6176
 20
1788.7241
 30
0
 10
-1175.6176
 20
1788.7241
 30
0
 10
-1175.6176
 20
1788.7241
 30
0
 10
-1175.6176
 20
1788.7241
 30
0
 10
-1241.8131
 20
1928.6126
 30
0
 10
-1241.8131
 20
1928.6126
 30
0
 10
-1241.8131
 20
1928.6126
 30
0
 10
-1241.8131
 20
1928.6126
 30
0
 10
-1223.6964
 20
1937.2009
 30
0
 10
-1223.6964
 20
1937.2009
 30
0
  0
SPLINE
  5
59
100
AcDbEntity
  8
layer 1
  6
ByLayer
 62
    1
370
   20
100
AcDbSpline
210
0
220
0
230
0
 70
   11
 71
    3
 72
   36
 73
   32
 74
    0
 42
1e-07
 43
1e-07
 40
0
 40
0
 40
0
 40
0
 40
0.1111111111111111
 40
0.1111111111111111
 40
0.1111111111111111
 40
0.1111111111111111
 40
0.2222222222222222
 40
0.2222222222222222
 40
0.2222222222222222
 40
0.2222222222222222
 40
0.3333333333333333
 40
0.3333333333333333
 40
0.3333333333333333
 40
0.3333333333333333
 40
0.4444444444444444
 40
0.4444444444444444
 40
0.4444444444444444
 40
0.4444444444444444
 40
0.5555555555555556
 40
0.5555555555555556
 40
0.5555555555555556
 40
0.5555555555555556
 40
0.6666666666666666
 40
0.6666666666666666
 40
0.6666666666666666
 40
0.6666666666666666
 40
0.7777777777777778
 40
0.7777777777777778
 40
0.7777777777777778
 40
0.7777777777777778
 40
1
 40
1
 40
1
 40
1
 10
1130.7991
 20
1971.7559
 30
0
 10
1130.7991
 20
1971.7559
 30
0
 10
449.2321
 20
1917.2301
 30
0
 10
449.2321
 20
1917.2301
 30
0
 10
449.2321
 20
1917.2301
 30
0
 10
449.2321
 20
1917.2301
 30
0
 10
204.2917
 20
1154.2237
 30
0
 10
204.2917
 20
1154.2237
 30
0
 10
204.2917
 20
1154.2237
 30
0
 10
204.2917
 20
1154.2237
 30
0
 10
246.5677
 20
1154.2237
 30
0
 10
246.5677
 20
1154.2237
 30
0
 10
246.5677
 20
1154.2237
 30
0
 10
246.5677
 20
1154.2237
 30
0
 10
561.9712
 20
1783.0149
 30
0
 10
561.9712
 20
1783.0149
 30
0
 10
561.9712
 20
1783.0149
 30
0
 10
561.9712
 20
1783.0149
 30
0
 10
1064.5785
 20
1831.8623
 30
0
 10
1064.5785
 20
1831.8623
 30
0
 10
1064.5785
 20
1831.8623
 30
0
 10
1064.5785
 20
1831.8623
 30
0
 10
1082.7203
 20
1823.2791
 30
0
 10
1082.7203
 20
1823.2791
 30
0
 10
1082.7203
 20
1823.2791
 30
0
 10
1082.7203
 20
1823.2791
 30
0
 10
1148.9158
 20
1963.1676
 30
0
 10
1148.9158
 20
1963.1676
 30
0
 10
1148.9158
 20
1963.1676
 30
0
 10
1148.9158
 20
1963.1676
 30
0
 10
1130.7991
 20
1971.7559
 30
0
 10
1130.7991
 20
1971.7559
 30
0
  0
ENDSEC
  0
SECTION
  2
OBJECTS
  0
DICTIONARY
  5
C
330
0
100
AcDbDictionary
281
    1
  3
ACAD_GROUP
350
D
  0
DICTIONARY
  5
D
330
C
100
AcDbDictionary
281
    1
  0
ENDSEC
  0
EOF
