<?xml version="1.0" encoding="UTF-8"?>
<!DOCTYPE svg PUBLIC "-//W3C//DTD SVG 1.0//EN" "http://www.w3.org/TR/2001/REC-SVG-20010904/DTD/svg10.dtd">
<!-- Creator: CorelDRAW 2018 (64-Bit) -->
<svg xmlns="http://www.w3.org/2000/svg" xml:space="preserve" width="3372.33mm" height="1994.87mm" version="1.0" style="shape-rendering:geometricPrecision; text-rendering:geometricPrecision; image-rendering:optimizeQuality; fill-rule:evenodd; clip-rule:evenodd"
viewBox="0 0 325295.29 192425.31"
 xmlns:xlink="http://www.w3.org/1999/xlink">
 <defs>
  <style type="text/css">
   <![CDATA[
    .str1 {stroke:#2B2A29;stroke-width:19.29;stroke-miterlimit:22.9256}
    .str0 {stroke:red;stroke-width:19.29;stroke-miterlimit:22.9256}
    .fil0 {fill:red}
   ]]>
  </style>
 </defs>
 <g id="Слой_x0020_1">
  <metadata id="CorelCorpID_0Corel-Layer"/>
  <polygon class="fil0 str0" points="139949.54,166905.88 188344.51,166905.88 188344.51,171746.14 139949.54,171746.14 "/>
  <polygon class="fil0 str0" points="139949.47,90118.77 188322.39,90118.77 188322.39,104619.02 139949.47,104619.02 "/>
  <polygon class="fil0 str0" points="139949.49,110338.8 188322.38,110338.8 188344.54,161579.38 139949.49,161579.38 "/>
  <polygon class="fil0 str0" points="139949.47,185640.35 188322.4,185640.35 188322.4,192415.67 139949.47,192415.67 "/>
  <polygon class="fil0 str1" points="270350,72283.91 287633.09,107691.89 292164.31,107691.89 279800.76,64062.77 278011.98,63908.78 277851.4,65831.32 226791.15,61565.11 225279.68,64432.7 "/>
  <polygon class="fil0 str1" points="282508.84,34364.04 216764.78,39623.61 193137.78,113223.33 197215.73,113223.33 218397.23,70995.74 212475.24,69964.15 213986.71,67096.55 214147.96,65167.43 214158.22,65044.61 221083.25,65640.93 227639.6,52570.03 276121.19,47858.2 277871.15,48686.14 284256.38,35192.47 "/>
  <polygon class="fil0 str1" points="312918.97,57753.52 260080.88,53203.91 259909.36,55255.86 258397.9,58123.45 303468.22,65974.66 320751.31,101382.64 325282.53,101382.64 "/>
  <polygon class="fil0 str1" points="42883.24,34214.11 108627.31,39473.68 132254.3,113073.41 128176.35,113073.41 106994.85,70845.81 112916.85,69814.22 111405.37,66946.62 111244.12,65017.5 111233.86,64894.68 104308.83,65491 97752.48,52420.1 49270.89,47708.28 47520.93,48536.21 41135.7,35042.54 "/>
  <polygon class="fil0 str1" points="54945.3,73726.76 37662.2,109134.73 33130.98,109134.73 45494.53,65505.62 47283.31,65351.62 47443.89,67274.16 98504.14,63007.95 100015.62,65875.55 "/>
  <polygon class="fil0 str1" points="12376.32,59196.36 65214.42,54646.75 65385.93,56698.7 66897.41,59566.3 21827.09,67417.51 4543.99,102825.48 12.76,102825.48 "/>
  <polygon class="fil0 str1" points="50578.41,3343 116322.48,8602.57 139949.47,82202.3 135871.52,82202.3 105447.65,21548.99 56966.06,16837.16 55216.1,17665.1 48830.87,4171.43 "/>
  <polygon class="fil0 str1" points="277693.45,9.82 211949.38,5269.39 188322.39,78869.12 192400.34,78869.12 222824.21,18215.81 271305.8,13503.98 273055.76,14331.92 279440.99,838.25 "/>
 </g>
</svg>
