0
SECTION
2
ENTITIES
0
LINE
8
Outside Cut
10
0.0
20
-50.0
30
0
11
100.0
21
-50.0
31
0
0
LINE
8
Outside Cut
10
100.0
20
-50.0
30
0
11
100.0
21
-74.5
31
0
0
ARC
8
Outside Cut
10
105.0
20
-74.5
30
0
40
5.0
50
180.0
51
360.0
0
ARC
8
Outside Cut
10
115.0
20
-74.5
30
0
40
5.0
50
90.0
51
180.0
0
LINE
8
Outside Cut
10
115.0
20
-69.5
30
0
11
1025.0
21
-69.5
31
0
0
ARC
8
Outside Cut
10
1025.0
20
-74.5
30
0
40
5.0
50
0.0
51
90.0
0
ARC
8
Outside Cut
10
1035.0
20
-74.5
30
0
40
5.0
50
180.0
51
360.0
0
LINE
8
Outside Cut
10
1040.0
20
-74.5
30
0
11
1040.0
21
-50.0
31
0
0
LINE
8
Outside Cut
10
1040.0
20
-50.0
30
0
11
1140.0
21
-50.0
31
0
0
LINE
8
Outside Cut
10
1140.0
20
-50.0
30
0
11
1140.0
21
-150.0
31
0
0
LINE
8
Outside Cut
10
1140.0
20
-150.0
30
0
11
1115.5
21
-150.0
31
0
0
ARC
8
Outside Cut
10
1115.5
20
-155.0
30
0
40
5.0
50
90.0
51
270.0
0
ARC
8
Outside Cut
10
1115.5
20
-165.0
30
0
40
5.0
50
0.0
51
90.0
0
LINE
8
Outside Cut
10
1120.5
20
-165.0
30
0
11
1120.5
21
-335.0
31
0
0
ARC
8
Outside Cut
10
1115.5
20
-335.0
30
0
40
5.0
50
-90.0
51
0.0
0
ARC
8
Outside Cut
10
1115.5
20
-345.0
30
0
40
5.0
50
90.0
51
270.0
0
LINE
8
Outside Cut
10
1115.5
20
-350.0
30
0
11
1140.0
21
-350.0
31
0
0
LINE
8
Outside Cut
10
1140.0
20
-350.0
30
0
11
1140.0
21
-450.0
31
0
0
LINE
8
Outside Cut
10
1140.0
20
-450.0
30
0
11
0.0
21
-450.0
31
0
0
LINE
8
Outside Cut
10
0.0
20
-450.0
30
0
11
0.0
21
-350.0
31
0
0
LINE
8
Outside Cut
10
0.0
20
-350.0
30
0
11
24.5
21
-350.0
31
0
0
ARC
8
Outside Cut
10
24.5
20
-345.0
30
0
40
5.0
50
-90.0
51
90.0
0
ARC
8
Outside Cut
10
24.5
20
-335.0
30
0
40
5.0
50
180.0
51
270.0
0
LINE
8
Outside Cut
10
19.5
20
-335.0
30
0
11
19.5
21
-165.0
31
0
0
ARC
8
Outside Cut
10
24.5
20
-165.0
30
0
40
5.0
50
90.0
51
180.0
0
ARC
8
Outside Cut
10
24.5
20
-155.0
30
0
40
5.0
50
-90.0
51
90.0
0
LINE
8
Outside Cut
10
24.5
20
-150.0
30
0
11
0.0
21
-150.0
31
0
0
LINE
8
Outside Cut
10
0.0
20
-150.0
30
0
11
0.0
21
-50.0
31
0
0
LINE
8
Pocket Cut
10
81.4
20
-100.0
30
0
11
104.4
21
-100.0
31
0
0
ARC
8
Pocket Cut
10
104.4
20
-105.0
30
0
40
5.0
50
-90.0
51
90.0
0
ARC
8
Pocket Cut
10
104.4
20
-115.0
30
0
40
5.0
50
90.0
51
180.0
0
LINE
8
Pocket Cut
10
99.4
20
-115.0
30
0
11
99.4
21
-385.0
31
0
0
ARC
8
Pocket Cut
10
104.4
20
-385.0
30
0
40
5.0
50
180.0
51
270.0
0
ARC
8
Pocket Cut
10
104.4
20
-395.0
30
0
40
5.0
50
-90.0
51
90.0
0
LINE
8
Pocket Cut
10
104.4
20
-400.0
30
0
11
81.4
21
-400.0
31
0
0
ARC
8
Pocket Cut
10
81.4
20
-395.0
30
0
40
5.0
50
90.0
51
270.0
0
ARC
8
Pocket Cut
10
81.4
20
-385.0
30
0
40
5.0
50
-90.0
51
0.0
0
LINE
8
Pocket Cut
10
86.4
20
-115.0
30
0
11
86.4
21
-385.0
31
0
0
ARC
8
Pocket Cut
10
81.4
20
-115.0
30
0
40
5.0
50
0.0
51
90.0
0
ARC
8
Pocket Cut
10
81.4
20
-105.0
30
0
40
5.0
50
90.0
51
270.0
0
LINE
8
Pocket Cut
10
228.20001
20
-100.0
30
0
11
251.20001
21
-100.0
31
0
0
ARC
8
Pocket Cut
10
251.20001
20
-105.0
30
0
40
5.0
50
-90.0
51
90.0
0
ARC
8
Pocket Cut
10
251.20001
20
-115.0
30
0
40
5.0
50
90.0
51
180.0
0
LINE
8
Pocket Cut
10
246.20001
20
-115.0
30
0
11
246.20001
21
-385.0
31
0
0
ARC
8
Pocket Cut
10
251.20001
20
-385.0
30
0
40
5.0
50
180.0
51
270.0
0
ARC
8
Pocket Cut
10
251.20001
20
-395.0
30
0
40
5.0
50
-90.0
51
90.0
0
LINE
8
Pocket Cut
10
251.20001
20
-400.0
30
0
11
228.20001
21
-400.0
31
0
0
ARC
8
Pocket Cut
10
228.20001
20
-395.0
30
0
40
5.0
50
90.0
51
270.0
0
ARC
8
Pocket Cut
10
228.20001
20
-385.0
30
0
40
5.0
50
-90.0
51
0.0
0
LINE
8
Pocket Cut
10
233.20001
20
-115.0
30
0
11
233.20001
21
-385.0
31
0
0
ARC
8
Pocket Cut
10
228.20001
20
-115.0
30
0
40
5.0
50
0.0
51
90.0
0
ARC
8
Pocket Cut
10
228.20001
20
-105.0
30
0
40
5.0
50
90.0
51
270.0
0
LINE
8
Pocket Cut
10
448.40002
20
-100.0
30
0
11
471.40002
21
-100.0
31
0
0
ARC
8
Pocket Cut
10
471.40002
20
-105.0
30
0
40
5.0
50
-90.0
51
90.0
0
ARC
8
Pocket Cut
10
471.40002
20
-115.0
30
0
40
5.0
50
90.0
51
180.0
0
LINE
8
Pocket Cut
10
466.40002
20
-115.0
30
0
11
466.40002
21
-385.0
31
0
0
ARC
8
Pocket Cut
10
471.40002
20
-385.0
30
0
40
5.0
50
180.0
51
270.0
0
ARC
8
Pocket Cut
10
471.40002
20
-395.0
30
0
40
5.0
50
-90.0
51
90.0
0
LINE
8
Pocket Cut
10
471.40002
20
-400.0
30
0
11
448.40002
21
-400.0
31
0
0
ARC
8
Pocket Cut
10
448.40002
20
-395.0
30
0
40
5.0
50
90.0
51
270.0
0
ARC
8
Pocket Cut
10
448.40002
20
-385.0
30
0
40
5.0
50
-90.0
51
0.0
0
LINE
8
Pocket Cut
10
453.40002
20
-115.0
30
0
11
453.40002
21
-385.0
31
0
0
ARC
8
Pocket Cut
10
448.40002
20
-115.0
30
0
40
5.0
50
0.0
51
90.0
0
ARC
8
Pocket Cut
10
448.40002
20
-105.0
30
0
40
5.0
50
90.0
51
270.0
0
LINE
8
Pocket Cut
10
742.0
20
-100.0
30
0
11
765.0
21
-100.0
31
0
0
ARC
8
Pocket Cut
10
765.0
20
-105.0
30
0
40
5.0
50
-90.0
51
90.0
0
ARC
8
Pocket Cut
10
765.0
20
-115.0
30
0
40
5.0
50
90.0
51
180.0
0
LINE
8
Pocket Cut
10
760.0
20
-115.0
30
0
11
760.0
21
-385.0
31
0
0
ARC
8
Pocket Cut
10
765.0
20
-385.0
30
0
40
5.0
50
180.0
51
270.0
0
ARC
8
Pocket Cut
10
765.0
20
-395.0
30
0
40
5.0
50
-90.0
51
90.0
0
LINE
8
Pocket Cut
10
765.0
20
-400.0
30
0
11
742.0
21
-400.0
31
0
0
ARC
8
Pocket Cut
10
742.0
20
-395.0
30
0
40
5.0
50
90.0
51
270.0
0
ARC
8
Pocket Cut
10
742.0
20
-385.0
30
0
40
5.0
50
-90.0
51
0.0
0
LINE
8
Pocket Cut
10
747.0
20
-115.0
30
0
11
747.0
21
-385.0
31
0
0
ARC
8
Pocket Cut
10
742.0
20
-115.0
30
0
40
5.0
50
0.0
51
90.0
0
ARC
8
Pocket Cut
10
742.0
20
-105.0
30
0
40
5.0
50
90.0
51
270.0
0
CIRCLE
8
Dowel Holes
10
9.75
20
-400.0
30
0
40
2.5
0
CIRCLE
8
Dowel Holes
10
9.75
20
-100.0
30
0
40
2.5
0
CIRCLE
8
Dowel Holes
10
50.0
20
-59.75
30
0
40
2.5
0
CIRCLE
8
Dowel Holes
10
1130.25
20
-400.0
30
0
40
2.5
0
CIRCLE
8
Dowel Holes
10
1130.25
20
-100.0
30
0
40
2.5
0
CIRCLE
8
Dowel Holes
10
1090.0
20
-59.75
30
0
40
2.5
0
LINE
8
Outside Cut
10
19.5
20
-509.75
30
0
11
1120.5
21
-509.75
31
0
0
LINE
8
Outside Cut
10
1120.5
20
-509.75
30
0
11
1120.5
21
-535.0
31
0
0
ARC
8
Outside Cut
10
1115.5
20
-535.0
30
0
40
5.0
50
-90.0
51
0.0
0
ARC
8
Outside Cut
10
1115.5
20
-545.0
30
0
40
5.0
50
90.0
51
270.0
0
LINE
8
Outside Cut
10
1115.5
20
-550.0
30
0
11
1130.25
21
-550.0
31
0
0
LINE
8
Outside Cut
10
1130.25
20
-550.0
30
0
11
1130.25
21
-850.0
31
0
0
LINE
8
Outside Cut
10
1130.25
20
-850.0
30
0
11
1115.5
21
-850.0
31
0
0
ARC
8
Outside Cut
10
1115.5
20
-855.0
30
0
40
5.0
50
90.0
51
270.0
0
ARC
8
Outside Cut
10
1115.5
20
-865.0
30
0
40
5.0
50
0.0
51
90.0
0
LINE
8
Outside Cut
10
1120.5
20
-865.0
30
0
11
1120.5
21
-880.5
31
0
0
LINE
8
Outside Cut
10
1120.5
20
-880.5
30
0
11
1105.0
21
-880.5
31
0
0
ARC
8
Outside Cut
10
1105.0
20
-875.5
30
0
40
5.0
50
180.0
51
270.0
0
ARC
8
Outside Cut
10
1095.0
20
-875.5
30
0
40
5.0
50
0.0
51
180.0
0
LINE
8
Outside Cut
10
1090.0
20
-875.5
30
0
11
1090.0
21
-890.25
31
0
0
LINE
8
Outside Cut
10
50.0
20
-890.25
30
0
11
86.4
21
-890.25
31
0
0
LINE
8
Outside Cut
10
760.0
20
-890.25
30
0
11
1090.0
21
-890.25
31
0
0
LINE
8
Outside Cut
10
86.4
20
-715.0
30
0
11
86.4
21
-890.25
31
0
0
LINE
8
Outside Cut
10
99.4
20
-715.0
30
0
11
99.4
21
-890.25
31
0
0
LINE
8
Outside Cut
10
81.4
20
-700.0
30
0
11
104.4
21
-700.0
31
0
0
ARC
8
Outside Cut
10
81.4
20
-705.0
30
0
40
5.0
50
90.0
51
270.0
0
ARC
8
Outside Cut
10
81.4
20
-715.0
30
0
40
5.0
50
0.0
51
90.0
0
ARC
8
Outside Cut
10
104.4
20
-705.0
30
0
40
5.0
50
-90.0
51
90.0
0
ARC
8
Outside Cut
10
104.4
20
-715.0
30
0
40
5.0
50
90.0
51
180.0
0
LINE
8
Outside Cut
10
99.4
20
-890.25
30
0
11
233.20001
21
-890.25
31
0
0
LINE
8
Outside Cut
10
233.20001
20
-715.0
30
0
11
233.20001
21
-890.25
31
0
0
LINE
8
Outside Cut
10
246.20001
20
-715.0
30
0
11
246.20001
21
-890.25
31
0
0
LINE
8
Outside Cut
10
228.20001
20
-700.0
30
0
11
251.20001
21
-700.0
31
0
0
ARC
8
Outside Cut
10
228.20001
20
-705.0
30
0
40
5.0
50
90.0
51
270.0
0
ARC
8
Outside Cut
10
228.20001
20
-715.0
30
0
40
5.0
50
0.0
51
90.0
0
ARC
8
Outside Cut
10
251.20001
20
-705.0
30
0
40
5.0
50
-90.0
51
90.0
0
ARC
8
Outside Cut
10
251.20001
20
-715.0
30
0
40
5.0
50
90.0
51
180.0
0
LINE
8
Outside Cut
10
246.20001
20
-890.25
30
0
11
453.40002
21
-890.25
31
0
0
LINE
8
Outside Cut
10
453.40002
20
-715.0
30
0
11
453.40002
21
-890.25
31
0
0
LINE
8
Outside Cut
10
466.40002
20
-715.0
30
0
11
466.40002
21
-890.25
31
0
0
LINE
8
Outside Cut
10
448.40002
20
-700.0
30
0
11
471.40002
21
-700.0
31
0
0
ARC
8
Outside Cut
10
448.40002
20
-705.0
30
0
40
5.0
50
90.0
51
270.0
0
ARC
8
Outside Cut
10
448.40002
20
-715.0
30
0
40
5.0
50
0.0
51
90.0
0
ARC
8
Outside Cut
10
471.40002
20
-705.0
30
0
40
5.0
50
-90.0
51
90.0
0
ARC
8
Outside Cut
10
471.40002
20
-715.0
30
0
40
5.0
50
90.0
51
180.0
0
LINE
8
Outside Cut
10
466.40002
20
-890.25
30
0
11
747.0
21
-890.25
31
0
0
LINE
8
Outside Cut
10
747.0
20
-715.0
30
0
11
747.0
21
-890.25
31
0
0
LINE
8
Outside Cut
10
760.0
20
-715.0
30
0
11
760.0
21
-890.25
31
0
0
LINE
8
Outside Cut
10
742.0
20
-700.0
30
0
11
765.0
21
-700.0
31
0
0
ARC
8
Outside Cut
10
742.0
20
-705.0
30
0
40
5.0
50
90.0
51
270.0
0
ARC
8
Outside Cut
10
742.0
20
-715.0
30
0
40
5.0
50
0.0
51
90.0
0
ARC
8
Outside Cut
10
765.0
20
-705.0
30
0
40
5.0
50
-90.0
51
90.0
0
ARC
8
Outside Cut
10
765.0
20
-715.0
30
0
40
5.0
50
90.0
51
180.0
0
LINE
8
Outside Cut
10
19.5
20
-880.5
30
0
11
35.0
21
-880.5
31
0
0
ARC
8
Outside Cut
10
35.0
20
-875.5
30
0
40
5.0
50
-90.0
51
0.0
0
ARC
8
Outside Cut
10
45.0
20
-875.5
30
0
40
5.0
50
0.0
51
180.0
0
LINE
8
Outside Cut
10
50.0
20
-875.5
30
0
11
50.0
21
-890.25
31
0
0
LINE
8
Outside Cut
10
19.5
20
-509.75
30
0
11
19.5
21
-535.0
31
0
0
ARC
8
Outside Cut
10
24.5
20
-535.0
30
0
40
5.0
50
180.0
51
270.0
0
ARC
8
Outside Cut
10
24.5
20
-545.0
30
0
40
5.0
50
-90.0
51
90.0
0
LINE
8
Outside Cut
10
24.5
20
-550.0
30
0
11
9.75
21
-550.0
31
0
0
LINE
8
Outside Cut
10
9.75
20
-550.0
30
0
11
9.75
21
-850.0
31
0
0
LINE
8
Outside Cut
10
9.75
20
-850.0
30
0
11
24.5
21
-850.0
31
0
0
ARC
8
Outside Cut
10
24.5
20
-855.0
30
0
40
5.0
50
-90.0
51
90.0
0
ARC
8
Outside Cut
10
24.5
20
-865.0
30
0
40
5.0
50
90.0
51
180.0
0
LINE
8
Outside Cut
10
19.5
20
-865.0
30
0
11
19.5
21
-880.5
31
0
0
LINE
8
Outside Cut
10
19.5
20
-1009.75
30
0
11
1120.5
21
-1009.75
31
0
0
LINE
8
Outside Cut
10
1120.5
20
-1009.75
30
0
11
1120.5
21
-1035.0
31
0
0
ARC
8
Outside Cut
10
1115.5
20
-1035.0
30
0
40
5.0
50
-90.0
51
0.0
0
ARC
8
Outside Cut
10
1115.5
20
-1045.0
30
0
40
5.0
50
90.0
51
270.0
0
LINE
8
Outside Cut
10
1115.5
20
-1050.0
30
0
11
1130.25
21
-1050.0
31
0
0
LINE
8
Outside Cut
10
1130.25
20
-1050.0
30
0
11
1130.25
21
-1350.0
31
0
0
LINE
8
Outside Cut
10
1130.25
20
-1350.0
30
0
11
1115.5
21
-1350.0
31
0
0
ARC
8
Outside Cut
10
1115.5
20
-1355.0
30
0
40
5.0
50
90.0
51
270.0
0
ARC
8
Outside Cut
10
1115.5
20
-1365.0
30
0
40
5.0
50
0.0
51
90.0
0
LINE
8
Outside Cut
10
1120.5
20
-1365.0
30
0
11
1120.5
21
-1380.5
31
0
0
LINE
8
Outside Cut
10
1120.5
20
-1380.5
30
0
11
1105.0
21
-1380.5
31
0
0
ARC
8
Outside Cut
10
1105.0
20
-1375.5
30
0
40
5.0
50
180.0
51
270.0
0
ARC
8
Outside Cut
10
1095.0
20
-1375.5
30
0
40
5.0
50
0.0
51
180.0
0
LINE
8
Outside Cut
10
1090.0
20
-1375.5
30
0
11
1090.0
21
-1390.25
31
0
0
LINE
8
Outside Cut
10
50.0
20
-1390.25
30
0
11
86.4
21
-1390.25
31
0
0
LINE
8
Outside Cut
10
760.0
20
-1390.25
30
0
11
1090.0
21
-1390.25
31
0
0
LINE
8
Outside Cut
10
86.4
20
-1215.0
30
0
11
86.4
21
-1390.25
31
0
0
LINE
8
Outside Cut
10
99.4
20
-1215.0
30
0
11
99.4
21
-1390.25
31
0
0
LINE
8
Outside Cut
10
81.4
20
-1200.0
30
0
11
104.4
21
-1200.0
31
0
0
ARC
8
Outside Cut
10
81.4
20
-1205.0
30
0
40
5.0
50
90.0
51
270.0
0
ARC
8
Outside Cut
10
81.4
20
-1215.0
30
0
40
5.0
50
0.0
51
90.0
0
ARC
8
Outside Cut
10
104.4
20
-1205.0
30
0
40
5.0
50
-90.0
51
90.0
0
ARC
8
Outside Cut
10
104.4
20
-1215.0
30
0
40
5.0
50
90.0
51
180.0
0
LINE
8
Outside Cut
10
99.4
20
-1390.25
30
0
11
233.20001
21
-1390.25
31
0
0
LINE
8
Outside Cut
10
233.20001
20
-1215.0
30
0
11
233.20001
21
-1390.25
31
0
0
LINE
8
Outside Cut
10
246.20001
20
-1215.0
30
0
11
246.20001
21
-1390.25
31
0
0
LINE
8
Outside Cut
10
228.20001
20
-1200.0
30
0
11
251.20001
21
-1200.0
31
0
0
ARC
8
Outside Cut
10
228.20001
20
-1205.0
30
0
40
5.0
50
90.0
51
270.0
0
ARC
8
Outside Cut
10
228.20001
20
-1215.0
30
0
40
5.0
50
0.0
51
90.0
0
ARC
8
Outside Cut
10
251.20001
20
-1205.0
30
0
40
5.0
50
-90.0
51
90.0
0
ARC
8
Outside Cut
10
251.20001
20
-1215.0
30
0
40
5.0
50
90.0
51
180.0
0
LINE
8
Outside Cut
10
246.20001
20
-1390.25
30
0
11
453.40002
21
-1390.25
31
0
0
LINE
8
Outside Cut
10
453.40002
20
-1215.0
30
0
11
453.40002
21
-1390.25
31
0
0
LINE
8
Outside Cut
10
466.40002
20
-1215.0
30
0
11
466.40002
21
-1390.25
31
0
0
LINE
8
Outside Cut
10
448.40002
20
-1200.0
30
0
11
471.40002
21
-1200.0
31
0
0
ARC
8
Outside Cut
10
448.40002
20
-1205.0
30
0
40
5.0
50
90.0
51
270.0
0
ARC
8
Outside Cut
10
448.40002
20
-1215.0
30
0
40
5.0
50
0.0
51
90.0
0
ARC
8
Outside Cut
10
471.40002
20
-1205.0
30
0
40
5.0
50
-90.0
51
90.0
0
ARC
8
Outside Cut
10
471.40002
20
-1215.0
30
0
40
5.0
50
90.0
51
180.0
0
LINE
8
Outside Cut
10
466.40002
20
-1390.25
30
0
11
747.0
21
-1390.25
31
0
0
LINE
8
Outside Cut
10
747.0
20
-1215.0
30
0
11
747.0
21
-1390.25
31
0
0
LINE
8
Outside Cut
10
760.0
20
-1215.0
30
0
11
760.0
21
-1390.25
31
0
0
LINE
8
Outside Cut
10
742.0
20
-1200.0
30
0
11
765.0
21
-1200.0
31
0
0
ARC
8
Outside Cut
10
742.0
20
-1205.0
30
0
40
5.0
50
90.0
51
270.0
0
ARC
8
Outside Cut
10
742.0
20
-1215.0
30
0
40
5.0
50
0.0
51
90.0
0
ARC
8
Outside Cut
10
765.0
20
-1205.0
30
0
40
5.0
50
-90.0
51
90.0
0
ARC
8
Outside Cut
10
765.0
20
-1215.0
30
0
40
5.0
50
90.0
51
180.0
0
LINE
8
Outside Cut
10
19.5
20
-1380.5
30
0
11
35.0
21
-1380.5
31
0
0
ARC
8
Outside Cut
10
35.0
20
-1375.5
30
0
40
5.0
50
-90.0
51
0.0
0
ARC
8
Outside Cut
10
45.0
20
-1375.5
30
0
40
5.0
50
0.0
51
180.0
0
LINE
8
Outside Cut
10
50.0
20
-1375.5
30
0
11
50.0
21
-1390.25
31
0
0
LINE
8
Outside Cut
10
19.5
20
-1009.75
30
0
11
19.5
21
-1035.0
31
0
0
ARC
8
Outside Cut
10
24.5
20
-1035.0
30
0
40
5.0
50
180.0
51
270.0
0
ARC
8
Outside Cut
10
24.5
20
-1045.0
30
0
40
5.0
50
-90.0
51
90.0
0
LINE
8
Outside Cut
10
24.5
20
-1050.0
30
0
11
9.75
21
-1050.0
31
0
0
LINE
8
Outside Cut
10
9.75
20
-1050.0
30
0
11
9.75
21
-1350.0
31
0
0
LINE
8
Outside Cut
10
9.75
20
-1350.0
30
0
11
24.5
21
-1350.0
31
0
0
ARC
8
Outside Cut
10
24.5
20
-1355.0
30
0
40
5.0
50
-90.0
51
90.0
0
ARC
8
Outside Cut
10
24.5
20
-1365.0
30
0
40
5.0
50
90.0
51
180.0
0
LINE
8
Outside Cut
10
19.5
20
-1365.0
30
0
11
19.5
21
-1380.5
31
0
0
LINE
8
Outside Cut
10
19.5
20
-1509.75
30
0
11
1120.5
21
-1509.75
31
0
0
LINE
8
Outside Cut
10
1120.5
20
-1509.75
30
0
11
1120.5
21
-1535.0
31
0
0
ARC
8
Outside Cut
10
1115.5
20
-1535.0
30
0
40
5.0
50
-90.0
51
0.0
0
ARC
8
Outside Cut
10
1115.5
20
-1545.0
30
0
40
5.0
50
90.0
51
270.0
0
LINE
8
Outside Cut
10
1115.5
20
-1550.0
30
0
11
1130.25
21
-1550.0
31
0
0
LINE
8
Outside Cut
10
1130.25
20
-1550.0
30
0
11
1130.25
21
-1850.0
31
0
0
LINE
8
Outside Cut
10
1130.25
20
-1850.0
30
0
11
1115.5
21
-1850.0
31
0
0
ARC
8
Outside Cut
10
1115.5
20
-1855.0
30
0
40
5.0
50
90.0
51
270.0
0
ARC
8
Outside Cut
10
1115.5
20
-1865.0
30
0
40
5.0
50
0.0
51
90.0
0
LINE
8
Outside Cut
10
1120.5
20
-1865.0
30
0
11
1120.5
21
-1880.5
31
0
0
LINE
8
Outside Cut
10
1120.5
20
-1880.5
30
0
11
1105.0
21
-1880.5
31
0
0
ARC
8
Outside Cut
10
1105.0
20
-1875.5
30
0
40
5.0
50
180.0
51
270.0
0
ARC
8
Outside Cut
10
1095.0
20
-1875.5
30
0
40
5.0
50
0.0
51
180.0
0
LINE
8
Outside Cut
10
1090.0
20
-1875.5
30
0
11
1090.0
21
-1890.25
31
0
0
LINE
8
Outside Cut
10
50.0
20
-1890.25
30
0
11
86.4
21
-1890.25
31
0
0
LINE
8
Outside Cut
10
760.0
20
-1890.25
30
0
11
1090.0
21
-1890.25
31
0
0
LINE
8
Outside Cut
10
86.4
20
-1715.0
30
0
11
86.4
21
-1890.25
31
0
0
LINE
8
Outside Cut
10
99.4
20
-1715.0
30
0
11
99.4
21
-1890.25
31
0
0
LINE
8
Outside Cut
10
81.4
20
-1700.0
30
0
11
104.4
21
-1700.0
31
0
0
ARC
8
Outside Cut
10
81.4
20
-1705.0
30
0
40
5.0
50
90.0
51
270.0
0
ARC
8
Outside Cut
10
81.4
20
-1715.0
30
0
40
5.0
50
0.0
51
90.0
0
ARC
8
Outside Cut
10
104.4
20
-1705.0
30
0
40
5.0
50
-90.0
51
90.0
0
ARC
8
Outside Cut
10
104.4
20
-1715.0
30
0
40
5.0
50
90.0
51
180.0
0
LINE
8
Outside Cut
10
99.4
20
-1890.25
30
0
11
233.20001
21
-1890.25
31
0
0
LINE
8
Outside Cut
10
233.20001
20
-1715.0
30
0
11
233.20001
21
-1890.25
31
0
0
LINE
8
Outside Cut
10
246.20001
20
-1715.0
30
0
11
246.20001
21
-1890.25
31
0
0
LINE
8
Outside Cut
10
228.20001
20
-1700.0
30
0
11
251.20001
21
-1700.0
31
0
0
ARC
8
Outside Cut
10
228.20001
20
-1705.0
30
0
40
5.0
50
90.0
51
270.0
0
ARC
8
Outside Cut
10
228.20001
20
-1715.0
30
0
40
5.0
50
0.0
51
90.0
0
ARC
8
Outside Cut
10
251.20001
20
-1705.0
30
0
40
5.0
50
-90.0
51
90.0
0
ARC
8
Outside Cut
10
251.20001
20
-1715.0
30
0
40
5.0
50
90.0
51
180.0
0
LINE
8
Outside Cut
10
246.20001
20
-1890.25
30
0
11
453.40002
21
-1890.25
31
0
0
LINE
8
Outside Cut
10
453.40002
20
-1715.0
30
0
11
453.40002
21
-1890.25
31
0
0
LINE
8
Outside Cut
10
466.40002
20
-1715.0
30
0
11
466.40002
21
-1890.25
31
0
0
LINE
8
Outside Cut
10
448.40002
20
-1700.0
30
0
11
471.40002
21
-1700.0
31
0
0
ARC
8
Outside Cut
10
448.40002
20
-1705.0
30
0
40
5.0
50
90.0
51
270.0
0
ARC
8
Outside Cut
10
448.40002
20
-1715.0
30
0
40
5.0
50
0.0
51
90.0
0
ARC
8
Outside Cut
10
471.40002
20
-1705.0
30
0
40
5.0
50
-90.0
51
90.0
0
ARC
8
Outside Cut
10
471.40002
20
-1715.0
30
0
40
5.0
50
90.0
51
180.0
0
LINE
8
Outside Cut
10
466.40002
20
-1890.25
30
0
11
747.0
21
-1890.25
31
0
0
LINE
8
Outside Cut
10
747.0
20
-1715.0
30
0
11
747.0
21
-1890.25
31
0
0
LINE
8
Outside Cut
10
760.0
20
-1715.0
30
0
11
760.0
21
-1890.25
31
0
0
LINE
8
Outside Cut
10
742.0
20
-1700.0
30
0
11
765.0
21
-1700.0
31
0
0
ARC
8
Outside Cut
10
742.0
20
-1705.0
30
0
40
5.0
50
90.0
51
270.0
0
ARC
8
Outside Cut
10
742.0
20
-1715.0
30
0
40
5.0
50
0.0
51
90.0
0
ARC
8
Outside Cut
10
765.0
20
-1705.0
30
0
40
5.0
50
-90.0
51
90.0
0
ARC
8
Outside Cut
10
765.0
20
-1715.0
30
0
40
5.0
50
90.0
51
180.0
0
LINE
8
Outside Cut
10
19.5
20
-1880.5
30
0
11
35.0
21
-1880.5
31
0
0
ARC
8
Outside Cut
10
35.0
20
-1875.5
30
0
40
5.0
50
-90.0
51
0.0
0
ARC
8
Outside Cut
10
45.0
20
-1875.5
30
0
40
5.0
50
0.0
51
180.0
0
LINE
8
Outside Cut
10
50.0
20
-1875.5
30
0
11
50.0
21
-1890.25
31
0
0
LINE
8
Outside Cut
10
19.5
20
-1509.75
30
0
11
19.5
21
-1535.0
31
0
0
ARC
8
Outside Cut
10
24.5
20
-1535.0
30
0
40
5.0
50
180.0
51
270.0
0
ARC
8
Outside Cut
10
24.5
20
-1545.0
30
0
40
5.0
50
-90.0
51
90.0
0
LINE
8
Outside Cut
10
24.5
20
-1550.0
30
0
11
9.75
21
-1550.0
31
0
0
LINE
8
Outside Cut
10
9.75
20
-1550.0
30
0
11
9.75
21
-1850.0
31
0
0
LINE
8
Outside Cut
10
9.75
20
-1850.0
30
0
11
24.5
21
-1850.0
31
0
0
ARC
8
Outside Cut
10
24.5
20
-1855.0
30
0
40
5.0
50
-90.0
51
90.0
0
ARC
8
Outside Cut
10
24.5
20
-1865.0
30
0
40
5.0
50
90.0
51
180.0
0
LINE
8
Outside Cut
10
19.5
20
-1865.0
30
0
11
19.5
21
-1880.5
31
0
0
LINE
8
Outside Cut
10
19.5
20
-2009.75
30
0
11
1120.5
21
-2009.75
31
0
0
LINE
8
Outside Cut
10
1120.5
20
-2009.75
30
0
11
1120.5
21
-2035.0
31
0
0
ARC
8
Outside Cut
10
1115.5
20
-2035.0
30
0
40
5.0
50
-90.0
51
0.0
0
ARC
8
Outside Cut
10
1115.5
20
-2045.0
30
0
40
5.0
50
90.0
51
270.0
0
LINE
8
Outside Cut
10
1115.5
20
-2050.0
30
0
11
1130.25
21
-2050.0
31
0
0
LINE
8
Outside Cut
10
1130.25
20
-2050.0
30
0
11
1130.25
21
-2350.0
31
0
0
LINE
8
Outside Cut
10
1130.25
20
-2350.0
30
0
11
1115.5
21
-2350.0
31
0
0
ARC
8
Outside Cut
10
1115.5
20
-2355.0
30
0
40
5.0
50
90.0
51
270.0
0
ARC
8
Outside Cut
10
1115.5
20
-2365.0
30
0
40
5.0
50
0.0
51
90.0
0
LINE
8
Outside Cut
10
1120.5
20
-2365.0
30
0
11
1120.5
21
-2380.5
31
0
0
LINE
8
Outside Cut
10
1120.5
20
-2380.5
30
0
11
1105.0
21
-2380.5
31
0
0
ARC
8
Outside Cut
10
1105.0
20
-2375.5
30
0
40
5.0
50
180.0
51
270.0
0
ARC
8
Outside Cut
10
1095.0
20
-2375.5
30
0
40
5.0
50
0.0
51
180.0
0
LINE
8
Outside Cut
10
1090.0
20
-2375.5
30
0
11
1090.0
21
-2390.25
31
0
0
LINE
8
Outside Cut
10
50.0
20
-2390.25
30
0
11
86.4
21
-2390.25
31
0
0
LINE
8
Outside Cut
10
760.0
20
-2390.25
30
0
11
1090.0
21
-2390.25
31
0
0
LINE
8
Outside Cut
10
86.4
20
-2215.0
30
0
11
86.4
21
-2390.25
31
0
0
LINE
8
Outside Cut
10
99.4
20
-2215.0
30
0
11
99.4
21
-2390.25
31
0
0
LINE
8
Outside Cut
10
81.4
20
-2200.0
30
0
11
104.4
21
-2200.0
31
0
0
ARC
8
Outside Cut
10
81.4
20
-2205.0
30
0
40
5.0
50
90.0
51
270.0
0
ARC
8
Outside Cut
10
81.4
20
-2215.0
30
0
40
5.0
50
0.0
51
90.0
0
ARC
8
Outside Cut
10
104.4
20
-2205.0
30
0
40
5.0
50
-90.0
51
90.0
0
ARC
8
Outside Cut
10
104.4
20
-2215.0
30
0
40
5.0
50
90.0
51
180.0
0
LINE
8
Outside Cut
10
99.4
20
-2390.25
30
0
11
233.20001
21
-2390.25
31
0
0
LINE
8
Outside Cut
10
233.20001
20
-2215.0
30
0
11
233.20001
21
-2390.25
31
0
0
LINE
8
Outside Cut
10
246.20001
20
-2215.0
30
0
11
246.20001
21
-2390.25
31
0
0
LINE
8
Outside Cut
10
228.20001
20
-2200.0
30
0
11
251.20001
21
-2200.0
31
0
0
ARC
8
Outside Cut
10
228.20001
20
-2205.0
30
0
40
5.0
50
90.0
51
270.0
0
ARC
8
Outside Cut
10
228.20001
20
-2215.0
30
0
40
5.0
50
0.0
51
90.0
0
ARC
8
Outside Cut
10
251.20001
20
-2205.0
30
0
40
5.0
50
-90.0
51
90.0
0
ARC
8
Outside Cut
10
251.20001
20
-2215.0
30
0
40
5.0
50
90.0
51
180.0
0
LINE
8
Outside Cut
10
246.20001
20
-2390.25
30
0
11
453.40002
21
-2390.25
31
0
0
LINE
8
Outside Cut
10
453.40002
20
-2215.0
30
0
11
453.40002
21
-2390.25
31
0
0
LINE
8
Outside Cut
10
466.40002
20
-2215.0
30
0
11
466.40002
21
-2390.25
31
0
0
LINE
8
Outside Cut
10
448.40002
20
-2200.0
30
0
11
471.40002
21
-2200.0
31
0
0
ARC
8
Outside Cut
10
448.40002
20
-2205.0
30
0
40
5.0
50
90.0
51
270.0
0
ARC
8
Outside Cut
10
448.40002
20
-2215.0
30
0
40
5.0
50
0.0
51
90.0
0
ARC
8
Outside Cut
10
471.40002
20
-2205.0
30
0
40
5.0
50
-90.0
51
90.0
0
ARC
8
Outside Cut
10
471.40002
20
-2215.0
30
0
40
5.0
50
90.0
51
180.0
0
LINE
8
Outside Cut
10
466.40002
20
-2390.25
30
0
11
747.0
21
-2390.25
31
0
0
LINE
8
Outside Cut
10
747.0
20
-2215.0
30
0
11
747.0
21
-2390.25
31
0
0
LINE
8
Outside Cut
10
760.0
20
-2215.0
30
0
11
760.0
21
-2390.25
31
0
0
LINE
8
Outside Cut
10
742.0
20
-2200.0
30
0
11
765.0
21
-2200.0
31
0
0
ARC
8
Outside Cut
10
742.0
20
-2205.0
30
0
40
5.0
50
90.0
51
270.0
0
ARC
8
Outside Cut
10
742.0
20
-2215.0
30
0
40
5.0
50
0.0
51
90.0
0
ARC
8
Outside Cut
10
765.0
20
-2205.0
30
0
40
5.0
50
-90.0
51
90.0
0
ARC
8
Outside Cut
10
765.0
20
-2215.0
30
0
40
5.0
50
90.0
51
180.0
0
LINE
8
Outside Cut
10
19.5
20
-2380.5
30
0
11
35.0
21
-2380.5
31
0
0
ARC
8
Outside Cut
10
35.0
20
-2375.5
30
0
40
5.0
50
-90.0
51
0.0
0
ARC
8
Outside Cut
10
45.0
20
-2375.5
30
0
40
5.0
50
0.0
51
180.0
0
LINE
8
Outside Cut
10
50.0
20
-2375.5
30
0
11
50.0
21
-2390.25
31
0
0
LINE
8
Outside Cut
10
19.5
20
-2009.75
30
0
11
19.5
21
-2035.0
31
0
0
ARC
8
Outside Cut
10
24.5
20
-2035.0
30
0
40
5.0
50
180.0
51
270.0
0
ARC
8
Outside Cut
10
24.5
20
-2045.0
30
0
40
5.0
50
-90.0
51
90.0
0
LINE
8
Outside Cut
10
24.5
20
-2050.0
30
0
11
9.75
21
-2050.0
31
0
0
LINE
8
Outside Cut
10
9.75
20
-2050.0
30
0
11
9.75
21
-2350.0
31
0
0
LINE
8
Outside Cut
10
9.75
20
-2350.0
30
0
11
24.5
21
-2350.0
31
0
0
ARC
8
Outside Cut
10
24.5
20
-2355.0
30
0
40
5.0
50
-90.0
51
90.0
0
ARC
8
Outside Cut
10
24.5
20
-2365.0
30
0
40
5.0
50
90.0
51
180.0
0
LINE
8
Outside Cut
10
19.5
20
-2365.0
30
0
11
19.5
21
-2380.5
31
0
0
LINE
8
Outside Cut
10
-890.25
20
1280.5
30
0
11
-865.0
21
1280.5
31
0
0
ARC
8
Outside Cut
10
-865.0
20
1275.5
30
0
40
5.0
50
0.0
51
90.0
0
ARC
8
Outside Cut
10
-855.0
20
1275.5
30
0
40
5.0
50
180.0
51
360.0
0
LINE
8
Outside Cut
10
-850.0
20
1275.5
30
0
11
-850.0
21
1290.25
31
0
0
LINE
8
Outside Cut
10
-850.0
20
1290.25
30
0
11
-550.0
21
1290.25
31
0
0
LINE
8
Outside Cut
10
-550.0
20
1290.25
30
0
11
-550.0
21
1275.5
31
0
0
ARC
8
Outside Cut
10
-545.0
20
1275.5
30
0
40
5.0
50
180.0
51
360.0
0
ARC
8
Outside Cut
10
-535.0
20
1275.5
30
0
40
5.0
50
90.0
51
180.0
0
LINE
8
Outside Cut
10
-535.0
20
1280.5
30
0
11
-519.5
21
1280.5
31
0
0
LINE
8
Outside Cut
10
-519.5
20
1280.5
30
0
11
-519.5
21
1245.5
31
0
0
ARC
8
Outside Cut
10
-524.5
20
1245.5
30
0
40
5.0
50
-90.0
51
0.0
0
ARC
8
Outside Cut
10
-524.5
20
1235.5
30
0
40
5.0
50
90.0
51
270.0
0
LINE
8
Outside Cut
10
-524.5
20
1230.5
30
0
11
-509.75
21
1230.5
31
0
0
LINE
8
Outside Cut
10
-509.75
20
1230.5
30
0
11
-509.75
21
50.0
31
0
0
LINE
8
Outside Cut
10
-509.75
20
50.0
30
0
11
-524.5
21
50.0
31
0
0
ARC
8
Outside Cut
10
-524.5
20
45.0
30
0
40
5.0
50
90.0
51
270.0
0
ARC
8
Outside Cut
10
-524.5
20
35.0
30
0
40
5.0
50
0.0
51
90.0
0
LINE
8
Outside Cut
10
-519.5
20
35.0
30
0
11
-519.5
21
19.5
31
0
0
LINE
8
Outside Cut
10
-519.5
20
19.5
30
0
11
-535.0
21
19.5
31
0
0
ARC
8
Outside Cut
10
-535.0
20
24.5
30
0
40
5.0
50
180.0
51
270.0
0
ARC
8
Outside Cut
10
-545.0
20
24.5
30
0
40
5.0
50
0.0
51
180.0
0
LINE
8
Outside Cut
10
-550.0
20
24.5
30
0
11
-550.0
21
9.75
31
0
0
LINE
8
Outside Cut
10
-550.0
20
9.75
30
0
11
-850.0
21
9.75
31
0
0
LINE
8
Outside Cut
10
-850.0
20
9.75
30
0
11
-850.0
21
24.5
31
0
0
ARC
8
Outside Cut
10
-855.0
20
24.5
30
0
40
5.0
50
0.0
51
180.0
0
ARC
8
Outside Cut
10
-865.0
20
24.5
30
0
40
5.0
50
-90.0
51
0.0
0
LINE
8
Outside Cut
10
-865.0
20
19.5
30
0
11
-890.25
21
19.5
31
0
0
LINE
8
Outside Cut
10
-890.25
20
1189.9333
30
0
11
-715.0
21
1189.9333
31
0
0
LINE
8
Outside Cut
10
-890.25
20
1202.9333
30
0
11
-715.0
21
1202.9333
31
0
0
LINE
8
Outside Cut
10
-700.0
20
1184.9333
30
0
11
-700.0
21
1207.9333
31
0
0
ARC
8
Outside Cut
10
-705.0
20
1184.9333
30
0
40
5.0
50
180.0
51
360.0
0
ARC
8
Outside Cut
10
-715.0
20
1184.9333
30
0
40
5.0
50
0.0
51
90.0
0
ARC
8
Outside Cut
10
-705.0
20
1207.9333
30
0
40
5.0
50
0.0
51
180.0
0
ARC
8
Outside Cut
10
-715.0
20
1207.9333
30
0
40
5.0
50
-90.0
51
0.0
0
LINE
8
Outside Cut
10
-890.25
20
1189.9333
30
0
11
-890.25
21
1034.8
31
0
0
LINE
8
Outside Cut
10
-890.25
20
1021.8
30
0
11
-715.0
21
1021.8
31
0
0
LINE
8
Outside Cut
10
-890.25
20
1034.8
30
0
11
-715.0
21
1034.8
31
0
0
LINE
8
Outside Cut
10
-700.0
20
1016.8
30
0
11
-700.0
21
1039.8
31
0
0
ARC
8
Outside Cut
10
-705.0
20
1016.8
30
0
40
5.0
50
180.0
51
360.0
0
ARC
8
Outside Cut
10
-715.0
20
1016.8
30
0
40
5.0
50
0.0
51
90.0
0
ARC
8
Outside Cut
10
-705.0
20
1039.8
30
0
40
5.0
50
0.0
51
180.0
0
ARC
8
Outside Cut
10
-715.0
20
1039.8
30
0
40
5.0
50
-90.0
51
0.0
0
LINE
8
Outside Cut
10
-890.25
20
1021.8
30
0
11
-890.25
21
782.6
31
0
0
LINE
8
Outside Cut
10
-890.25
20
769.6
30
0
11
-715.0
21
769.6
31
0
0
LINE
8
Outside Cut
10
-890.25
20
782.6
30
0
11
-715.0
21
782.6
31
0
0
LINE
8
Outside Cut
10
-700.0
20
764.6
30
0
11
-700.0
21
787.6
31
0
0
ARC
8
Outside Cut
10
-705.0
20
764.6
30
0
40
5.0
50
180.0
51
360.0
0
ARC
8
Outside Cut
10
-715.0
20
764.6
30
0
40
5.0
50
0.0
51
90.0
0
ARC
8
Outside Cut
10
-705.0
20
787.6
30
0
40
5.0
50
0.0
51
180.0
0
ARC
8
Outside Cut
10
-715.0
20
787.6
30
0
40
5.0
50
-90.0
51
0.0
0
LINE
8
Outside Cut
10
-890.25
20
769.6
30
0
11
-890.25
21
446.33337
31
0
0
LINE
8
Outside Cut
10
-890.25
20
433.33337
30
0
11
-715.0
21
433.33337
31
0
0
LINE
8
Outside Cut
10
-890.25
20
446.33337
30
0
11
-715.0
21
446.33337
31
0
0
LINE
8
Outside Cut
10
-700.0
20
428.33337
30
0
11
-700.0
21
451.33337
31
0
0
ARC
8
Outside Cut
10
-705.0
20
428.33337
30
0
40
5.0
50
180.0
51
360.0
0
ARC
8
Outside Cut
10
-715.0
20
428.33337
30
0
40
5.0
50
0.0
51
90.0
0
ARC
8
Outside Cut
10
-705.0
20
451.33337
30
0
40
5.0
50
0.0
51
180.0
0
ARC
8
Outside Cut
10
-715.0
20
451.33337
30
0
40
5.0
50
-90.0
51
0.0
0
LINE
8
Outside Cut
10
-890.25
20
1280.5
30
0
11
-890.25
21
1202.9333
31
0
0
LINE
8
Outside Cut
10
-890.25
20
433.33337
30
0
11
-890.25
21
19.5
31
0
0
LINE
8
Outside Cut
10
-1340.25
20
1280.5
30
0
11
-1315.0
21
1280.5
31
0
0
ARC
8
Outside Cut
10
-1315.0
20
1275.5
30
0
40
5.0
50
0.0
51
90.0
0
ARC
8
Outside Cut
10
-1305.0
20
1275.5
30
0
40
5.0
50
180.0
51
360.0
0
LINE
8
Outside Cut
10
-1300.0
20
1275.5
30
0
11
-1300.0
21
1290.25
31
0
0
LINE
8
Outside Cut
10
-1300.0
20
1290.25
30
0
11
-1000.0
21
1290.25
31
0
0
LINE
8
Outside Cut
10
-1000.0
20
1290.25
30
0
11
-1000.0
21
1275.5
31
0
0
ARC
8
Outside Cut
10
-995.0
20
1275.5
30
0
40
5.0
50
180.0
51
360.0
0
ARC
8
Outside Cut
10
-985.0
20
1275.5
30
0
40
5.0
50
90.0
51
180.0
0
LINE
8
Outside Cut
10
-985.0
20
1280.5
30
0
11
-969.5
21
1280.5
31
0
0
LINE
8
Outside Cut
10
-969.5
20
1280.5
30
0
11
-969.5
21
1245.5
31
0
0
ARC
8
Outside Cut
10
-974.5
20
1245.5
30
0
40
5.0
50
-90.0
51
0.0
0
ARC
8
Outside Cut
10
-974.5
20
1235.5
30
0
40
5.0
50
90.0
51
270.0
0
LINE
8
Outside Cut
10
-974.5
20
1230.5
30
0
11
-959.75
21
1230.5
31
0
0
LINE
8
Outside Cut
10
-959.75
20
1230.5
30
0
11
-959.75
21
50.0
31
0
0
LINE
8
Outside Cut
10
-959.75
20
50.0
30
0
11
-974.5
21
50.0
31
0
0
ARC
8
Outside Cut
10
-974.5
20
45.0
30
0
40
5.0
50
90.0
51
270.0
0
ARC
8
Outside Cut
10
-974.5
20
35.0
30
0
40
5.0
50
0.0
51
90.0
0
LINE
8
Outside Cut
10
-969.5
20
35.0
30
0
11
-969.5
21
19.5
31
0
0
LINE
8
Outside Cut
10
-969.5
20
19.5
30
0
11
-985.0
21
19.5
31
0
0
ARC
8
Outside Cut
10
-985.0
20
24.5
30
0
40
5.0
50
180.0
51
270.0
0
ARC
8
Outside Cut
10
-995.0
20
24.5
30
0
40
5.0
50
0.0
51
180.0
0
LINE
8
Outside Cut
10
-1000.0
20
24.5
30
0
11
-1000.0
21
9.75
31
0
0
LINE
8
Outside Cut
10
-1000.0
20
9.75
30
0
11
-1300.0
21
9.75
31
0
0
LINE
8
Outside Cut
10
-1300.0
20
9.75
30
0
11
-1300.0
21
24.5
31
0
0
ARC
8
Outside Cut
10
-1305.0
20
24.5
30
0
40
5.0
50
0.0
51
180.0
0
ARC
8
Outside Cut
10
-1315.0
20
24.5
30
0
40
5.0
50
-90.0
51
0.0
0
LINE
8
Outside Cut
10
-1315.0
20
19.5
30
0
11
-1340.25
21
19.5
31
0
0
LINE
8
Outside Cut
10
-1340.25
20
1189.9333
30
0
11
-1165.0
21
1189.9333
31
0
0
LINE
8
Outside Cut
10
-1340.25
20
1202.9333
30
0
11
-1165.0
21
1202.9333
31
0
0
LINE
8
Outside Cut
10
-1150.0
20
1184.9333
30
0
11
-1150.0
21
1207.9333
31
0
0
ARC
8
Outside Cut
10
-1155.0
20
1184.9333
30
0
40
5.0
50
180.0
51
360.0
0
ARC
8
Outside Cut
10
-1165.0
20
1184.9333
30
0
40
5.0
50
0.0
51
90.0
0
ARC
8
Outside Cut
10
-1155.0
20
1207.9333
30
0
40
5.0
50
0.0
51
180.0
0
ARC
8
Outside Cut
10
-1165.0
20
1207.9333
30
0
40
5.0
50
-90.0
51
0.0
0
LINE
8
Outside Cut
10
-1340.25
20
1189.9333
30
0
11
-1340.25
21
1034.8
31
0
0
LINE
8
Outside Cut
10
-1340.25
20
1021.8
30
0
11
-1165.0
21
1021.8
31
0
0
LINE
8
Outside Cut
10
-1340.25
20
1034.8
30
0
11
-1165.0
21
1034.8
31
0
0
LINE
8
Outside Cut
10
-1150.0
20
1016.8
30
0
11
-1150.0
21
1039.8
31
0
0
ARC
8
Outside Cut
10
-1155.0
20
1016.8
30
0
40
5.0
50
180.0
51
360.0
0
ARC
8
Outside Cut
10
-1165.0
20
1016.8
30
0
40
5.0
50
0.0
51
90.0
0
ARC
8
Outside Cut
10
-1155.0
20
1039.8
30
0
40
5.0
50
0.0
51
180.0
0
ARC
8
Outside Cut
10
-1165.0
20
1039.8
30
0
40
5.0
50
-90.0
51
0.0
0
LINE
8
Outside Cut
10
-1340.25
20
1021.8
30
0
11
-1340.25
21
782.6
31
0
0
LINE
8
Outside Cut
10
-1340.25
20
769.6
30
0
11
-1165.0
21
769.6
31
0
0
LINE
8
Outside Cut
10
-1340.25
20
782.6
30
0
11
-1165.0
21
782.6
31
0
0
LINE
8
Outside Cut
10
-1150.0
20
764.6
30
0
11
-1150.0
21
787.6
31
0
0
ARC
8
Outside Cut
10
-1155.0
20
764.6
30
0
40
5.0
50
180.0
51
360.0
0
ARC
8
Outside Cut
10
-1165.0
20
764.6
30
0
40
5.0
50
0.0
51
90.0
0
ARC
8
Outside Cut
10
-1155.0
20
787.6
30
0
40
5.0
50
0.0
51
180.0
0
ARC
8
Outside Cut
10
-1165.0
20
787.6
30
0
40
5.0
50
-90.0
51
0.0
0
LINE
8
Outside Cut
10
-1340.25
20
769.6
30
0
11
-1340.25
21
446.33337
31
0
0
LINE
8
Outside Cut
10
-1340.25
20
433.33337
30
0
11
-1165.0
21
433.33337
31
0
0
LINE
8
Outside Cut
10
-1340.25
20
446.33337
30
0
11
-1165.0
21
446.33337
31
0
0
LINE
8
Outside Cut
10
-1150.0
20
428.33337
30
0
11
-1150.0
21
451.33337
31
0
0
ARC
8
Outside Cut
10
-1155.0
20
428.33337
30
0
40
5.0
50
180.0
51
360.0
0
ARC
8
Outside Cut
10
-1165.0
20
428.33337
30
0
40
5.0
50
0.0
51
90.0
0
ARC
8
Outside Cut
10
-1155.0
20
451.33337
30
0
40
5.0
50
0.0
51
180.0
0
ARC
8
Outside Cut
10
-1165.0
20
451.33337
30
0
40
5.0
50
-90.0
51
0.0
0
LINE
8
Outside Cut
10
-1340.25
20
1280.5
30
0
11
-1340.25
21
1202.9333
31
0
0
LINE
8
Outside Cut
10
-1340.25
20
433.33337
30
0
11
-1340.25
21
19.5
31
0
0
LINE
8
Outside Cut
10
-1790.25
20
1280.5
30
0
11
-1765.0
21
1280.5
31
0
0
ARC
8
Outside Cut
10
-1765.0
20
1275.5
30
0
40
5.0
50
0.0
51
90.0
0
ARC
8
Outside Cut
10
-1755.0
20
1275.5
30
0
40
5.0
50
180.0
51
360.0
0
LINE
8
Outside Cut
10
-1750.0
20
1275.5
30
0
11
-1750.0
21
1290.25
31
0
0
LINE
8
Outside Cut
10
-1750.0
20
1290.25
30
0
11
-1450.0
21
1290.25
31
0
0
LINE
8
Outside Cut
10
-1450.0
20
1290.25
30
0
11
-1450.0
21
1275.5
31
0
0
ARC
8
Outside Cut
10
-1445.0
20
1275.5
30
0
40
5.0
50
180.0
51
360.0
0
ARC
8
Outside Cut
10
-1435.0
20
1275.5
30
0
40
5.0
50
90.0
51
180.0
0
LINE
8
Outside Cut
10
-1435.0
20
1280.5
30
0
11
-1419.5
21
1280.5
31
0
0
LINE
8
Outside Cut
10
-1419.5
20
1280.5
30
0
11
-1419.5
21
1245.5
31
0
0
ARC
8
Outside Cut
10
-1424.5
20
1245.5
30
0
40
5.0
50
-90.0
51
0.0
0
ARC
8
Outside Cut
10
-1424.5
20
1235.5
30
0
40
5.0
50
90.0
51
270.0
0
LINE
8
Outside Cut
10
-1424.5
20
1230.5
30
0
11
-1409.75
21
1230.5
31
0
0
LINE
8
Outside Cut
10
-1409.75
20
1230.5
30
0
11
-1409.75
21
50.0
31
0
0
LINE
8
Outside Cut
10
-1409.75
20
50.0
30
0
11
-1424.5
21
50.0
31
0
0
ARC
8
Outside Cut
10
-1424.5
20
45.0
30
0
40
5.0
50
90.0
51
270.0
0
ARC
8
Outside Cut
10
-1424.5
20
35.0
30
0
40
5.0
50
0.0
51
90.0
0
LINE
8
Outside Cut
10
-1419.5
20
35.0
30
0
11
-1419.5
21
19.5
31
0
0
LINE
8
Outside Cut
10
-1419.5
20
19.5
30
0
11
-1435.0
21
19.5
31
0
0
ARC
8
Outside Cut
10
-1435.0
20
24.5
30
0
40
5.0
50
180.0
51
270.0
0
ARC
8
Outside Cut
10
-1445.0
20
24.5
30
0
40
5.0
50
0.0
51
180.0
0
LINE
8
Outside Cut
10
-1450.0
20
24.5
30
0
11
-1450.0
21
9.75
31
0
0
LINE
8
Outside Cut
10
-1450.0
20
9.75
30
0
11
-1750.0
21
9.75
31
0
0
LINE
8
Outside Cut
10
-1750.0
20
9.75
30
0
11
-1750.0
21
24.5
31
0
0
ARC
8
Outside Cut
10
-1755.0
20
24.5
30
0
40
5.0
50
0.0
51
180.0
0
ARC
8
Outside Cut
10
-1765.0
20
24.5
30
0
40
5.0
50
-90.0
51
0.0
0
LINE
8
Outside Cut
10
-1765.0
20
19.5
30
0
11
-1790.25
21
19.5
31
0
0
LINE
8
Outside Cut
10
-1790.25
20
1189.9333
30
0
11
-1615.0
21
1189.9333
31
0
0
LINE
8
Outside Cut
10
-1790.25
20
1202.9333
30
0
11
-1615.0
21
1202.9333
31
0
0
LINE
8
Outside Cut
10
-1600.0
20
1184.9333
30
0
11
-1600.0
21
1207.9333
31
0
0
ARC
8
Outside Cut
10
-1605.0
20
1184.9333
30
0
40
5.0
50
180.0
51
360.0
0
ARC
8
Outside Cut
10
-1615.0
20
1184.9333
30
0
40
5.0
50
0.0
51
90.0
0
ARC
8
Outside Cut
10
-1605.0
20
1207.9333
30
0
40
5.0
50
0.0
51
180.0
0
ARC
8
Outside Cut
10
-1615.0
20
1207.9333
30
0
40
5.0
50
-90.0
51
0.0
0
LINE
8
Outside Cut
10
-1790.25
20
1189.9333
30
0
11
-1790.25
21
1034.8
31
0
0
LINE
8
Outside Cut
10
-1790.25
20
1021.8
30
0
11
-1615.0
21
1021.8
31
0
0
LINE
8
Outside Cut
10
-1790.25
20
1034.8
30
0
11
-1615.0
21
1034.8
31
0
0
LINE
8
Outside Cut
10
-1600.0
20
1016.8
30
0
11
-1600.0
21
1039.8
31
0
0
ARC
8
Outside Cut
10
-1605.0
20
1016.8
30
0
40
5.0
50
180.0
51
360.0
0
ARC
8
Outside Cut
10
-1615.0
20
1016.8
30
0
40
5.0
50
0.0
51
90.0
0
ARC
8
Outside Cut
10
-1605.0
20
1039.8
30
0
40
5.0
50
0.0
51
180.0
0
ARC
8
Outside Cut
10
-1615.0
20
1039.8
30
0
40
5.0
50
-90.0
51
0.0
0
LINE
8
Outside Cut
10
-1790.25
20
1021.8
30
0
11
-1790.25
21
782.6
31
0
0
LINE
8
Outside Cut
10
-1790.25
20
769.6
30
0
11
-1615.0
21
769.6
31
0
0
LINE
8
Outside Cut
10
-1790.25
20
782.6
30
0
11
-1615.0
21
782.6
31
0
0
LINE
8
Outside Cut
10
-1600.0
20
764.6
30
0
11
-1600.0
21
787.6
31
0
0
ARC
8
Outside Cut
10
-1605.0
20
764.6
30
0
40
5.0
50
180.0
51
360.0
0
ARC
8
Outside Cut
10
-1615.0
20
764.6
30
0
40
5.0
50
0.0
51
90.0
0
ARC
8
Outside Cut
10
-1605.0
20
787.6
30
0
40
5.0
50
0.0
51
180.0
0
ARC
8
Outside Cut
10
-1615.0
20
787.6
30
0
40
5.0
50
-90.0
51
0.0
0
LINE
8
Outside Cut
10
-1790.25
20
769.6
30
0
11
-1790.25
21
446.33337
31
0
0
LINE
8
Outside Cut
10
-1790.25
20
433.33337
30
0
11
-1615.0
21
433.33337
31
0
0
LINE
8
Outside Cut
10
-1790.25
20
446.33337
30
0
11
-1615.0
21
446.33337
31
0
0
LINE
8
Outside Cut
10
-1600.0
20
428.33337
30
0
11
-1600.0
21
451.33337
31
0
0
ARC
8
Outside Cut
10
-1605.0
20
428.33337
30
0
40
5.0
50
180.0
51
360.0
0
ARC
8
Outside Cut
10
-1615.0
20
428.33337
30
0
40
5.0
50
0.0
51
90.0
0
ARC
8
Outside Cut
10
-1605.0
20
451.33337
30
0
40
5.0
50
0.0
51
180.0
0
ARC
8
Outside Cut
10
-1615.0
20
451.33337
30
0
40
5.0
50
-90.0
51
0.0
0
LINE
8
Outside Cut
10
-1790.25
20
1280.5
30
0
11
-1790.25
21
1202.9333
31
0
0
LINE
8
Outside Cut
10
-1790.25
20
433.33337
30
0
11
-1790.25
21
19.5
31
0
0
LINE
8
Outside Cut
10
-2240.25
20
1280.5
30
0
11
-2215.0
21
1280.5
31
0
0
ARC
8
Outside Cut
10
-2215.0
20
1275.5
30
0
40
5.0
50
0.0
51
90.0
0
ARC
8
Outside Cut
10
-2205.0
20
1275.5
30
0
40
5.0
50
180.0
51
360.0
0
LINE
8
Outside Cut
10
-2200.0
20
1275.5
30
0
11
-2200.0
21
1290.25
31
0
0
LINE
8
Outside Cut
10
-2200.0
20
1290.25
30
0
11
-1900.0
21
1290.25
31
0
0
LINE
8
Outside Cut
10
-1900.0
20
1290.25
30
0
11
-1900.0
21
1275.5
31
0
0
ARC
8
Outside Cut
10
-1895.0
20
1275.5
30
0
40
5.0
50
180.0
51
360.0
0
ARC
8
Outside Cut
10
-1885.0
20
1275.5
30
0
40
5.0
50
90.0
51
180.0
0
LINE
8
Outside Cut
10
-1885.0
20
1280.5
30
0
11
-1869.5
21
1280.5
31
0
0
LINE
8
Outside Cut
10
-1869.5
20
1280.5
30
0
11
-1869.5
21
1245.5
31
0
0
ARC
8
Outside Cut
10
-1874.5
20
1245.5
30
0
40
5.0
50
-90.0
51
0.0
0
ARC
8
Outside Cut
10
-1874.5
20
1235.5
30
0
40
5.0
50
90.0
51
270.0
0
LINE
8
Outside Cut
10
-1874.5
20
1230.5
30
0
11
-1859.75
21
1230.5
31
0
0
LINE
8
Outside Cut
10
-1859.75
20
1230.5
30
0
11
-1859.75
21
50.0
31
0
0
LINE
8
Outside Cut
10
-1859.75
20
50.0
30
0
11
-1874.5
21
50.0
31
0
0
ARC
8
Outside Cut
10
-1874.5
20
45.0
30
0
40
5.0
50
90.0
51
270.0
0
ARC
8
Outside Cut
10
-1874.5
20
35.0
30
0
40
5.0
50
0.0
51
90.0
0
LINE
8
Outside Cut
10
-1869.5
20
35.0
30
0
11
-1869.5
21
19.5
31
0
0
LINE
8
Outside Cut
10
-1869.5
20
19.5
30
0
11
-1885.0
21
19.5
31
0
0
ARC
8
Outside Cut
10
-1885.0
20
24.5
30
0
40
5.0
50
180.0
51
270.0
0
ARC
8
Outside Cut
10
-1895.0
20
24.5
30
0
40
5.0
50
0.0
51
180.0
0
LINE
8
Outside Cut
10
-1900.0
20
24.5
30
0
11
-1900.0
21
9.75
31
0
0
LINE
8
Outside Cut
10
-1900.0
20
9.75
30
0
11
-2200.0
21
9.75
31
0
0
LINE
8
Outside Cut
10
-2200.0
20
9.75
30
0
11
-2200.0
21
24.5
31
0
0
ARC
8
Outside Cut
10
-2205.0
20
24.5
30
0
40
5.0
50
0.0
51
180.0
0
ARC
8
Outside Cut
10
-2215.0
20
24.5
30
0
40
5.0
50
-90.0
51
0.0
0
LINE
8
Outside Cut
10
-2215.0
20
19.5
30
0
11
-2240.25
21
19.5
31
0
0
LINE
8
Outside Cut
10
-2240.25
20
1189.9333
30
0
11
-2065.0
21
1189.9333
31
0
0
LINE
8
Outside Cut
10
-2240.25
20
1202.9333
30
0
11
-2065.0
21
1202.9333
31
0
0
LINE
8
Outside Cut
10
-2050.0
20
1184.9333
30
0
11
-2050.0
21
1207.9333
31
0
0
ARC
8
Outside Cut
10
-2055.0
20
1184.9333
30
0
40
5.0
50
180.0
51
360.0
0
ARC
8
Outside Cut
10
-2065.0
20
1184.9333
30
0
40
5.0
50
0.0
51
90.0
0
ARC
8
Outside Cut
10
-2055.0
20
1207.9333
30
0
40
5.0
50
0.0
51
180.0
0
ARC
8
Outside Cut
10
-2065.0
20
1207.9333
30
0
40
5.0
50
-90.0
51
0.0
0
LINE
8
Outside Cut
10
-2240.25
20
1189.9333
30
0
11
-2240.25
21
1034.8
31
0
0
LINE
8
Outside Cut
10
-2240.25
20
1021.8
30
0
11
-2065.0
21
1021.8
31
0
0
LINE
8
Outside Cut
10
-2240.25
20
1034.8
30
0
11
-2065.0
21
1034.8
31
0
0
LINE
8
Outside Cut
10
-2050.0
20
1016.8
30
0
11
-2050.0
21
1039.8
31
0
0
ARC
8
Outside Cut
10
-2055.0
20
1016.8
30
0
40
5.0
50
180.0
51
360.0
0
ARC
8
Outside Cut
10
-2065.0
20
1016.8
30
0
40
5.0
50
0.0
51
90.0
0
ARC
8
Outside Cut
10
-2055.0
20
1039.8
30
0
40
5.0
50
0.0
51
180.0
0
ARC
8
Outside Cut
10
-2065.0
20
1039.8
30
0
40
5.0
50
-90.0
51
0.0
0
LINE
8
Outside Cut
10
-2240.25
20
1021.8
30
0
11
-2240.25
21
782.6
31
0
0
LINE
8
Outside Cut
10
-2240.25
20
769.6
30
0
11
-2065.0
21
769.6
31
0
0
LINE
8
Outside Cut
10
-2240.25
20
782.6
30
0
11
-2065.0
21
782.6
31
0
0
LINE
8
Outside Cut
10
-2050.0
20
764.6
30
0
11
-2050.0
21
787.6
31
0
0
ARC
8
Outside Cut
10
-2055.0
20
764.6
30
0
40
5.0
50
180.0
51
360.0
0
ARC
8
Outside Cut
10
-2065.0
20
764.6
30
0
40
5.0
50
0.0
51
90.0
0
ARC
8
Outside Cut
10
-2055.0
20
787.6
30
0
40
5.0
50
0.0
51
180.0
0
ARC
8
Outside Cut
10
-2065.0
20
787.6
30
0
40
5.0
50
-90.0
51
0.0
0
LINE
8
Outside Cut
10
-2240.25
20
769.6
30
0
11
-2240.25
21
446.33337
31
0
0
LINE
8
Outside Cut
10
-2240.25
20
433.33337
30
0
11
-2065.0
21
433.33337
31
0
0
LINE
8
Outside Cut
10
-2240.25
20
446.33337
30
0
11
-2065.0
21
446.33337
31
0
0
LINE
8
Outside Cut
10
-2050.0
20
428.33337
30
0
11
-2050.0
21
451.33337
31
0
0
ARC
8
Outside Cut
10
-2055.0
20
428.33337
30
0
40
5.0
50
180.0
51
360.0
0
ARC
8
Outside Cut
10
-2065.0
20
428.33337
30
0
40
5.0
50
0.0
51
90.0
0
ARC
8
Outside Cut
10
-2055.0
20
451.33337
30
0
40
5.0
50
0.0
51
180.0
0
ARC
8
Outside Cut
10
-2065.0
20
451.33337
30
0
40
5.0
50
-90.0
51
0.0
0
LINE
8
Outside Cut
10
-2240.25
20
1280.5
30
0
11
-2240.25
21
1202.9333
31
0
0
LINE
8
Outside Cut
10
-2240.25
20
433.33337
30
0
11
-2240.25
21
19.5
31
0
0
LINE
8
Pocket Cut
10
50.0
20
1184.9333
30
0
11
50.0
21
1207.9333
31
0
0
ARC
8
Pocket Cut
10
55.0
20
1184.9333
30
0
40
5.0
50
180.0
51
360.0
0
ARC
8
Pocket Cut
10
65.0
20
1184.9333
30
0
40
5.0
50
90.0
51
180.0
0
ARC
8
Pocket Cut
10
55.0
20
1207.9333
30
0
40
5.0
50
0.0
51
180.0
0
ARC
8
Pocket Cut
10
65.0
20
1207.9333
30
0
40
5.0
50
180.0
51
270.0
0
LINE
8
Pocket Cut
10
99.4
20
1189.9333
30
0
11
233.20001
21
1189.9333
31
0
0
LINE
8
Pocket Cut
10
99.4
20
1202.9333
30
0
11
233.20001
21
1202.9333
31
0
0
LINE
8
Pocket Cut
10
246.20001
20
1189.9333
30
0
11
453.40002
21
1189.9333
31
0
0
LINE
8
Pocket Cut
10
246.20001
20
1202.9333
30
0
11
453.40002
21
1202.9333
31
0
0
LINE
8
Pocket Cut
10
466.40002
20
1189.9333
30
0
11
747.0
21
1189.9333
31
0
0
LINE
8
Pocket Cut
10
466.40002
20
1202.9333
30
0
11
747.0
21
1202.9333
31
0
0
LINE
8
Pocket Cut
10
1090.0
20
1184.9333
30
0
11
1090.0
21
1207.9333
31
0
0
ARC
8
Pocket Cut
10
1085.0
20
1184.9333
30
0
40
5.0
50
180.0
51
360.0
0
ARC
8
Pocket Cut
10
1075.0
20
1184.9333
30
0
40
5.0
50
0.0
51
90.0
0
ARC
8
Pocket Cut
10
1085.0
20
1207.9333
30
0
40
5.0
50
0.0
51
180.0
0
ARC
8
Pocket Cut
10
1075.0
20
1207.9333
30
0
40
5.0
50
-90.0
51
0.0
0
LINE
8
Pocket Cut
10
65.0
20
1189.9333
30
0
11
86.4
21
1189.9333
31
0
0
LINE
8
Pocket Cut
10
65.0
20
1202.9333
30
0
11
86.4
21
1202.9333
31
0
0
LINE
8
Pocket Cut
10
760.0
20
1189.9333
30
0
11
1075.0
21
1189.9333
31
0
0
LINE
8
Pocket Cut
10
760.0
20
1202.9333
30
0
11
1075.0
21
1202.9333
31
0
0
LINE
8
Pocket Cut
10
50.0
20
1016.8
30
0
11
50.0
21
1039.8
31
0
0
ARC
8
Pocket Cut
10
55.0
20
1016.8
30
0
40
5.0
50
180.0
51
360.0
0
ARC
8
Pocket Cut
10
65.0
20
1016.8
30
0
40
5.0
50
90.0
51
180.0
0
ARC
8
Pocket Cut
10
55.0
20
1039.8
30
0
40
5.0
50
0.0
51
180.0
0
ARC
8
Pocket Cut
10
65.0
20
1039.8
30
0
40
5.0
50
180.0
51
270.0
0
LINE
8
Pocket Cut
10
99.4
20
1021.8
30
0
11
233.20001
21
1021.8
31
0
0
LINE
8
Pocket Cut
10
99.4
20
1034.8
30
0
11
233.20001
21
1034.8
31
0
0
LINE
8
Pocket Cut
10
246.20001
20
1021.8
30
0
11
453.40002
21
1021.8
31
0
0
LINE
8
Pocket Cut
10
246.20001
20
1034.8
30
0
11
453.40002
21
1034.8
31
0
0
LINE
8
Pocket Cut
10
466.40002
20
1021.8
30
0
11
747.0
21
1021.8
31
0
0
LINE
8
Pocket Cut
10
466.40002
20
1034.8
30
0
11
747.0
21
1034.8
31
0
0
LINE
8
Pocket Cut
10
1090.0
20
1016.8
30
0
11
1090.0
21
1039.8
31
0
0
ARC
8
Pocket Cut
10
1085.0
20
1016.8
30
0
40
5.0
50
180.0
51
360.0
0
ARC
8
Pocket Cut
10
1075.0
20
1016.8
30
0
40
5.0
50
0.0
51
90.0
0
ARC
8
Pocket Cut
10
1085.0
20
1039.8
30
0
40
5.0
50
0.0
51
180.0
0
ARC
8
Pocket Cut
10
1075.0
20
1039.8
30
0
40
5.0
50
-90.0
51
0.0
0
LINE
8
Pocket Cut
10
65.0
20
1021.8
30
0
11
86.4
21
1021.8
31
0
0
LINE
8
Pocket Cut
10
65.0
20
1034.8
30
0
11
86.4
21
1034.8
31
0
0
LINE
8
Pocket Cut
10
760.0
20
1021.8
30
0
11
1075.0
21
1021.8
31
0
0
LINE
8
Pocket Cut
10
760.0
20
1034.8
30
0
11
1075.0
21
1034.8
31
0
0
LINE
8
Pocket Cut
10
50.0
20
764.6
30
0
11
50.0
21
787.6
31
0
0
ARC
8
Pocket Cut
10
55.0
20
764.6
30
0
40
5.0
50
180.0
51
360.0
0
ARC
8
Pocket Cut
10
65.0
20
764.6
30
0
40
5.0
50
90.0
51
180.0
0
ARC
8
Pocket Cut
10
55.0
20
787.6
30
0
40
5.0
50
0.0
51
180.0
0
ARC
8
Pocket Cut
10
65.0
20
787.6
30
0
40
5.0
50
180.0
51
270.0
0
LINE
8
Pocket Cut
10
99.4
20
769.6
30
0
11
233.20001
21
769.6
31
0
0
LINE
8
Pocket Cut
10
99.4
20
782.6
30
0
11
233.20001
21
782.6
31
0
0
LINE
8
Pocket Cut
10
246.20001
20
769.6
30
0
11
453.40002
21
769.6
31
0
0
LINE
8
Pocket Cut
10
246.20001
20
782.6
30
0
11
453.40002
21
782.6
31
0
0
LINE
8
Pocket Cut
10
466.40002
20
769.6
30
0
11
747.0
21
769.6
31
0
0
LINE
8
Pocket Cut
10
466.40002
20
782.6
30
0
11
747.0
21
782.6
31
0
0
LINE
8
Pocket Cut
10
1090.0
20
764.6
30
0
11
1090.0
21
787.6
31
0
0
ARC
8
Pocket Cut
10
1085.0
20
764.6
30
0
40
5.0
50
180.0
51
360.0
0
ARC
8
Pocket Cut
10
1075.0
20
764.6
30
0
40
5.0
50
0.0
51
90.0
0
ARC
8
Pocket Cut
10
1085.0
20
787.6
30
0
40
5.0
50
0.0
51
180.0
0
ARC
8
Pocket Cut
10
1075.0
20
787.6
30
0
40
5.0
50
-90.0
51
0.0
0
LINE
8
Pocket Cut
10
65.0
20
769.6
30
0
11
86.4
21
769.6
31
0
0
LINE
8
Pocket Cut
10
65.0
20
782.6
30
0
11
86.4
21
782.6
31
0
0
LINE
8
Pocket Cut
10
760.0
20
769.6
30
0
11
1075.0
21
769.6
31
0
0
LINE
8
Pocket Cut
10
760.0
20
782.6
30
0
11
1075.0
21
782.6
31
0
0
LINE
8
Pocket Cut
10
50.0
20
428.33337
30
0
11
50.0
21
451.33337
31
0
0
ARC
8
Pocket Cut
10
55.0
20
428.33337
30
0
40
5.0
50
180.0
51
360.0
0
ARC
8
Pocket Cut
10
65.0
20
428.33337
30
0
40
5.0
50
90.0
51
180.0
0
ARC
8
Pocket Cut
10
55.0
20
451.33337
30
0
40
5.0
50
0.0
51
180.0
0
ARC
8
Pocket Cut
10
65.0
20
451.33337
30
0
40
5.0
50
180.0
51
270.0
0
LINE
8
Pocket Cut
10
99.4
20
433.33337
30
0
11
233.20001
21
433.33337
31
0
0
LINE
8
Pocket Cut
10
99.4
20
446.33337
30
0
11
233.20001
21
446.33337
31
0
0
LINE
8
Pocket Cut
10
246.20001
20
433.33337
30
0
11
453.40002
21
433.33337
31
0
0
LINE
8
Pocket Cut
10
246.20001
20
446.33337
30
0
11
453.40002
21
446.33337
31
0
0
LINE
8
Pocket Cut
10
466.40002
20
433.33337
30
0
11
747.0
21
433.33337
31
0
0
LINE
8
Pocket Cut
10
466.40002
20
446.33337
30
0
11
747.0
21
446.33337
31
0
0
LINE
8
Pocket Cut
10
1090.0
20
428.33337
30
0
11
1090.0
21
451.33337
31
0
0
ARC
8
Pocket Cut
10
1085.0
20
428.33337
30
0
40
5.0
50
180.0
51
360.0
0
ARC
8
Pocket Cut
10
1075.0
20
428.33337
30
0
40
5.0
50
0.0
51
90.0
0
ARC
8
Pocket Cut
10
1085.0
20
451.33337
30
0
40
5.0
50
0.0
51
180.0
0
ARC
8
Pocket Cut
10
1075.0
20
451.33337
30
0
40
5.0
50
-90.0
51
0.0
0
LINE
8
Pocket Cut
10
65.0
20
433.33337
30
0
11
86.4
21
433.33337
31
0
0
LINE
8
Pocket Cut
10
65.0
20
446.33337
30
0
11
86.4
21
446.33337
31
0
0
LINE
8
Pocket Cut
10
760.0
20
433.33337
30
0
11
1075.0
21
433.33337
31
0
0
LINE
8
Pocket Cut
10
760.0
20
446.33337
30
0
11
1075.0
21
446.33337
31
0
0
LINE
8
Pocket Cut
10
81.4
20
50.0
30
0
11
104.4
21
50.0
31
0
0
ARC
8
Pocket Cut
10
81.4
20
55.0
30
0
40
5.0
50
90.0
51
270.0
0
ARC
8
Pocket Cut
10
81.4
20
65.0
30
0
40
5.0
50
-90.0
51
0.0
0
ARC
8
Pocket Cut
10
104.4
20
55.0
30
0
40
5.0
50
-90.0
51
90.0
0
ARC
8
Pocket Cut
10
104.4
20
65.0
30
0
40
5.0
50
180.0
51
270.0
0
LINE
8
Pocket Cut
10
86.4
20
1034.8
30
0
11
86.4
21
1189.9333
31
0
0
LINE
8
Pocket Cut
10
99.4
20
1034.8
30
0
11
99.4
21
1189.9333
31
0
0
LINE
8
Pocket Cut
10
86.4
20
782.6
30
0
11
86.4
21
1021.8
31
0
0
LINE
8
Pocket Cut
10
99.4
20
782.6
30
0
11
99.4
21
1021.8
31
0
0
LINE
8
Pocket Cut
10
86.4
20
446.33337
30
0
11
86.4
21
769.6
31
0
0
LINE
8
Pocket Cut
10
99.4
20
446.33337
30
0
11
99.4
21
769.6
31
0
0
LINE
8
Pocket Cut
10
81.4
20
1230.5
30
0
11
104.4
21
1230.5
31
0
0
ARC
8
Pocket Cut
10
81.4
20
1225.5
30
0
40
5.0
50
90.0
51
270.0
0
ARC
8
Pocket Cut
10
81.4
20
1215.5
30
0
40
5.0
50
0.0
51
90.0
0
ARC
8
Pocket Cut
10
104.4
20
1225.5
30
0
40
5.0
50
-90.0
51
90.0
0
ARC
8
Pocket Cut
10
104.4
20
1215.5
30
0
40
5.0
50
90.0
51
180.0
0
LINE
8
Pocket Cut
10
86.4
20
65.0
30
0
11
86.4
21
433.33337
31
0
0
LINE
8
Pocket Cut
10
99.4
20
65.0
30
0
11
99.4
21
433.33337
31
0
0
LINE
8
Pocket Cut
10
86.4
20
1215.5
30
0
11
86.4
21
1202.9333
31
0
0
LINE
8
Pocket Cut
10
99.4
20
1215.5
30
0
11
99.4
21
1202.9333
31
0
0
LINE
8
Pocket Cut
10
228.20001
20
50.0
30
0
11
251.20001
21
50.0
31
0
0
ARC
8
Pocket Cut
10
228.20001
20
55.0
30
0
40
5.0
50
90.0
51
270.0
0
ARC
8
Pocket Cut
10
228.20001
20
65.0
30
0
40
5.0
50
-90.0
51
0.0
0
ARC
8
Pocket Cut
10
251.20001
20
55.0
30
0
40
5.0
50
-90.0
51
90.0
0
ARC
8
Pocket Cut
10
251.20001
20
65.0
30
0
40
5.0
50
180.0
51
270.0
0
LINE
8
Pocket Cut
10
233.20001
20
1034.8
30
0
11
233.20001
21
1189.9333
31
0
0
LINE
8
Pocket Cut
10
246.20001
20
1034.8
30
0
11
246.20001
21
1189.9333
31
0
0
LINE
8
Pocket Cut
10
233.20001
20
782.6
30
0
11
233.20001
21
1021.8
31
0
0
LINE
8
Pocket Cut
10
246.20001
20
782.6
30
0
11
246.20001
21
1021.8
31
0
0
LINE
8
Pocket Cut
10
233.20001
20
446.33337
30
0
11
233.20001
21
769.6
31
0
0
LINE
8
Pocket Cut
10
246.20001
20
446.33337
30
0
11
246.20001
21
769.6
31
0
0
LINE
8
Pocket Cut
10
228.20001
20
1230.5
30
0
11
251.20001
21
1230.5
31
0
0
ARC
8
Pocket Cut
10
228.20001
20
1225.5
30
0
40
5.0
50
90.0
51
270.0
0
ARC
8
Pocket Cut
10
228.20001
20
1215.5
30
0
40
5.0
50
0.0
51
90.0
0
ARC
8
Pocket Cut
10
251.20001
20
1225.5
30
0
40
5.0
50
-90.0
51
90.0
0
ARC
8
Pocket Cut
10
251.20001
20
1215.5
30
0
40
5.0
50
90.0
51
180.0
0
LINE
8
Pocket Cut
10
233.20001
20
65.0
30
0
11
233.20001
21
433.33337
31
0
0
LINE
8
Pocket Cut
10
246.20001
20
65.0
30
0
11
246.20001
21
433.33337
31
0
0
LINE
8
Pocket Cut
10
233.20001
20
1215.5
30
0
11
233.20001
21
1202.9333
31
0
0
LINE
8
Pocket Cut
10
246.20001
20
1215.5
30
0
11
246.20001
21
1202.9333
31
0
0
LINE
8
Pocket Cut
10
448.40002
20
50.0
30
0
11
471.40002
21
50.0
31
0
0
ARC
8
Pocket Cut
10
448.40002
20
55.0
30
0
40
5.0
50
90.0
51
270.0
0
ARC
8
Pocket Cut
10
448.40002
20
65.0
30
0
40
5.0
50
-90.0
51
0.0
0
ARC
8
Pocket Cut
10
471.40002
20
55.0
30
0
40
5.0
50
-90.0
51
90.0
0
ARC
8
Pocket Cut
10
471.40002
20
65.0
30
0
40
5.0
50
180.0
51
270.0
0
LINE
8
Pocket Cut
10
453.40002
20
1034.8
30
0
11
453.40002
21
1189.9333
31
0
0
LINE
8
Pocket Cut
10
466.40002
20
1034.8
30
0
11
466.40002
21
1189.9333
31
0
0
LINE
8
Pocket Cut
10
453.40002
20
782.6
30
0
11
453.40002
21
1021.8
31
0
0
LINE
8
Pocket Cut
10
466.40002
20
782.6
30
0
11
466.40002
21
1021.8
31
0
0
LINE
8
Pocket Cut
10
453.40002
20
446.33337
30
0
11
453.40002
21
769.6
31
0
0
LINE
8
Pocket Cut
10
466.40002
20
446.33337
30
0
11
466.40002
21
769.6
31
0
0
LINE
8
Pocket Cut
10
448.40002
20
1230.5
30
0
11
471.40002
21
1230.5
31
0
0
ARC
8
Pocket Cut
10
448.40002
20
1225.5
30
0
40
5.0
50
90.0
51
270.0
0
ARC
8
Pocket Cut
10
448.40002
20
1215.5
30
0
40
5.0
50
0.0
51
90.0
0
ARC
8
Pocket Cut
10
471.40002
20
1225.5
30
0
40
5.0
50
-90.0
51
90.0
0
ARC
8
Pocket Cut
10
471.40002
20
1215.5
30
0
40
5.0
50
90.0
51
180.0
0
LINE
8
Pocket Cut
10
453.40002
20
65.0
30
0
11
453.40002
21
433.33337
31
0
0
LINE
8
Pocket Cut
10
466.40002
20
65.0
30
0
11
466.40002
21
433.33337
31
0
0
LINE
8
Pocket Cut
10
453.40002
20
1215.5
30
0
11
453.40002
21
1202.9333
31
0
0
LINE
8
Pocket Cut
10
466.40002
20
1215.5
30
0
11
466.40002
21
1202.9333
31
0
0
LINE
8
Pocket Cut
10
742.0
20
50.0
30
0
11
765.0
21
50.0
31
0
0
ARC
8
Pocket Cut
10
742.0
20
55.0
30
0
40
5.0
50
90.0
51
270.0
0
ARC
8
Pocket Cut
10
742.0
20
65.0
30
0
40
5.0
50
-90.0
51
0.0
0
ARC
8
Pocket Cut
10
765.0
20
55.0
30
0
40
5.0
50
-90.0
51
90.0
0
ARC
8
Pocket Cut
10
765.0
20
65.0
30
0
40
5.0
50
180.0
51
270.0
0
LINE
8
Pocket Cut
10
747.0
20
1034.8
30
0
11
747.0
21
1189.9333
31
0
0
LINE
8
Pocket Cut
10
760.0
20
1034.8
30
0
11
760.0
21
1189.9333
31
0
0
LINE
8
Pocket Cut
10
747.0
20
782.6
30
0
11
747.0
21
1021.8
31
0
0
LINE
8
Pocket Cut
10
760.0
20
782.6
30
0
11
760.0
21
1021.8
31
0
0
LINE
8
Pocket Cut
10
747.0
20
446.33337
30
0
11
747.0
21
769.6
31
0
0
LINE
8
Pocket Cut
10
760.0
20
446.33337
30
0
11
760.0
21
769.6
31
0
0
LINE
8
Pocket Cut
10
742.0
20
1230.5
30
0
11
765.0
21
1230.5
31
0
0
ARC
8
Pocket Cut
10
742.0
20
1225.5
30
0
40
5.0
50
90.0
51
270.0
0
ARC
8
Pocket Cut
10
742.0
20
1215.5
30
0
40
5.0
50
0.0
51
90.0
0
ARC
8
Pocket Cut
10
765.0
20
1225.5
30
0
40
5.0
50
-90.0
51
90.0
0
ARC
8
Pocket Cut
10
765.0
20
1215.5
30
0
40
5.0
50
90.0
51
180.0
0
LINE
8
Pocket Cut
10
747.0
20
65.0
30
0
11
747.0
21
433.33337
31
0
0
LINE
8
Pocket Cut
10
760.0
20
65.0
30
0
11
760.0
21
433.33337
31
0
0
LINE
8
Pocket Cut
10
747.0
20
1215.5
30
0
11
747.0
21
1202.9333
31
0
0
LINE
8
Pocket Cut
10
760.0
20
1215.5
30
0
11
760.0
21
1202.9333
31
0
0
ARC
8
Outside Cut
10
24.5
20
1385.0
30
0
40
5.0
50
90.0
51
180.0
0
ARC
8
Outside Cut
10
24.5
20
1395.0
30
0
40
5.0
50
-90.0
51
90.0
0
LINE
8
Outside Cut
10
24.5
20
1400.0
30
0
11
0.0
21
1400.0
31
0
0
LINE
8
Outside Cut
10
0.0
20
1400.0
30
0
11
0.0
21
1500.0
31
0
0
LINE
8
Outside Cut
10
0.0
20
1500.0
30
0
11
24.5
21
1500.0
31
0
0
ARC
8
Outside Cut
10
24.5
20
1505.0
30
0
40
5.0
50
-90.0
51
90.0
0
ARC
8
Outside Cut
10
24.5
20
1515.0
30
0
40
5.0
50
180.0
51
270.0
0
LINE
8
Outside Cut
10
19.5
20
1515.0
30
0
11
19.5
21
1700.0
31
0
0
LINE
8
Outside Cut
10
19.5
20
1700.0
30
0
11
50.0
21
1700.0
31
0
0
LINE
8
Outside Cut
10
50.0
20
1700.0
30
0
11
50.0
21
1675.5
31
0
0
ARC
8
Outside Cut
10
55.0
20
1675.5
30
0
40
5.0
50
180.0
51
360.0
0
ARC
8
Outside Cut
10
65.0
20
1675.5
30
0
40
5.0
50
90.0
51
180.0
0
LINE
8
Outside Cut
10
65.0
20
1680.5
30
0
11
100.0
21
1680.5
31
0
0
LINE
8
Outside Cut
10
100.0
20
1680.5
30
0
11
150.0
21
1400.0
31
0
0
LINE
8
Outside Cut
10
150.0
20
1400.0
30
0
11
990.0
21
1400.0
31
0
0
LINE
8
Outside Cut
10
990.0
20
1400.0
30
0
11
1040.0
21
1680.5
31
0
0
LINE
8
Outside Cut
10
1075.0
20
1680.5
30
0
11
1040.0
21
1680.5
31
0
0
ARC
8
Outside Cut
10
1075.0
20
1675.5
30
0
40
5.0
50
0.0
51
90.0
0
ARC
8
Outside Cut
10
1085.0
20
1675.5
30
0
40
5.0
50
180.0
51
360.0
0
LINE
8
Outside Cut
10
1090.0
20
1700.0
30
0
11
1090.0
21
1675.5
31
0
0
LINE
8
Outside Cut
10
1120.5
20
1700.0
30
0
11
1090.0
21
1700.0
31
0
0
LINE
8
Outside Cut
10
1120.5
20
1700.0
30
0
11
1120.5
21
1515.0
31
0
0
ARC
8
Outside Cut
10
1115.5
20
1515.0
30
0
40
5.0
50
-90.0
51
0.0
0
ARC
8
Outside Cut
10
1115.5
20
1505.0
30
0
40
5.0
50
90.0
51
270.0
0
LINE
8
Outside Cut
10
1115.5
20
1500.0
30
0
11
1140.0
21
1500.0
31
0
0
LINE
8
Outside Cut
10
1140.0
20
1500.0
30
0
11
1140.0
21
1400.0
31
0
0
LINE
8
Outside Cut
10
1140.0
20
1400.0
30
0
11
1115.5
21
1400.0
31
0
0
ARC
8
Outside Cut
10
1115.5
20
1395.0
30
0
40
5.0
50
90.0
51
270.0
0
ARC
8
Outside Cut
10
1115.5
20
1385.0
30
0
40
5.0
50
0.0
51
90.0
0
CIRCLE
8
Dowel Holes
10
9.75
20
1450.0
30
0
40
2.5
0
CIRCLE
8
Dowel Holes
10
1130.25
20
1450.0
30
0
40
2.5
0
CIRCLE
8
Dowel Holes
10
285.0
20
9.75
30
0
40
2.5
0
CIRCLE
8
Dowel Holes
10
570.0
20
9.75
30
0
40
2.5
0
CIRCLE
8
Dowel Holes
10
855.0
20
9.75
30
0
40
2.5
0
LINE
8
Outside Cut
10
19.5
20
1385.0
30
0
11
19.5
21
1211.4333
31
0
0
ARC
8
Outside Cut
10
24.5
20
1211.4333
30
0
40
5.0
50
180.0
51
270.0
0
ARC
8
Outside Cut
10
24.5
20
1201.4333
30
0
40
5.0
50
-90.0
51
90.0
0
LINE
8
Outside Cut
10
24.5
20
1196.4333
30
0
11
0.0
21
1196.4333
31
0
0
LINE
8
Outside Cut
10
1120.5
20
1385.0
30
0
11
1120.5
21
1211.4333
31
0
0
ARC
8
Outside Cut
10
1115.5
20
1211.4333
30
0
40
5.0
50
-90.0
51
0.0
0
ARC
8
Outside Cut
10
1115.5
20
1201.4333
30
0
40
5.0
50
90.0
51
270.0
0
LINE
8
Outside Cut
10
1115.5
20
1196.4333
30
0
11
1140.0
21
1196.4333
31
0
0
LINE
8
Outside Cut
10
0.0
20
1196.4333
30
0
11
0.0
21
439.83337
31
0
0
LINE
8
Outside Cut
10
0.0
20
439.83337
30
0
11
24.5
21
439.83337
31
0
0
ARC
8
Outside Cut
10
24.5
20
434.83337
30
0
40
5.0
50
-90.0
51
90.0
0
ARC
8
Outside Cut
10
24.5
20
424.83337
30
0
40
5.0
50
90.0
51
180.0
0
LINE
8
Outside Cut
10
19.5
20
424.83337
30
0
11
19.5
21
19.5
31
0
0
LINE
8
Outside Cut
10
19.5
20
19.5
30
0
11
85.0
21
19.5
31
0
0
LINE
8
Outside Cut
10
1140.0
20
1196.4333
30
0
11
1140.0
21
439.83337
31
0
0
LINE
8
Outside Cut
10
1140.0
20
439.83337
30
0
11
1115.5
21
439.83337
31
0
0
ARC
8
Outside Cut
10
1115.5
20
434.83337
30
0
40
5.0
50
90.0
51
270.0
0
ARC
8
Outside Cut
10
1115.5
20
424.83337
30
0
40
5.0
50
0.0
51
90.0
0
LINE
8
Outside Cut
10
1120.5
20
424.83337
30
0
11
1120.5
21
19.5
31
0
0
LINE
8
Outside Cut
10
1120.5
20
19.5
30
0
11
1055.0
21
19.5
31
0
0
CIRCLE
8
Dowel Holes
10
9.75
20
944.23334
30
0
40
2.5
0
CIRCLE
8
Dowel Holes
10
9.75
20
692.0333
30
0
40
2.5
0
CIRCLE
8
Dowel Holes
10
1130.25
20
944.23334
30
0
40
2.5
0
CIRCLE
8
Dowel Holes
10
1130.25
20
692.0333
30
0
40
2.5
0
ARC
8
Inside Cut
10
1025.0
20
1305.0
30
0
40
5.0
50
-90.0
51
0.0
0
ARC
8
Inside Cut
10
1035.0
20
1305.0
30
0
40
5.0
50
0.0
51
180.0
0
LINE
8
Inside Cut
10
1040.0
20
1305.0
30
0
11
1040.0
21
1275.5
31
0
0
ARC
8
Inside Cut
10
1035.0
20
1275.5
30
0
40
5.0
50
180.0
51
360.0
0
ARC
8
Inside Cut
10
1025.0
20
1275.5
30
0
40
5.0
50
0.0
51
90.0
0
LINE
8
Inside Cut
10
1025.0
20
1280.5
30
0
11
115.0
21
1280.5
31
0
0
LINE
8
Inside Cut
10
115.0
20
1300.0
30
0
11
1025.0
21
1300.0
31
0
0
ARC
8
Inside Cut
10
115.0
20
1275.5
30
0
40
5.0
50
90.0
51
180.0
0
ARC
8
Inside Cut
10
105.0
20
1275.5
30
0
40
5.0
50
180.0
51
360.0
0
LINE
8
Inside Cut
10
100.0
20
1275.5
30
0
11
100.0
21
1305.0
31
0
0
ARC
8
Inside Cut
10
105.0
20
1305.0
30
0
40
5.0
50
0.0
51
180.0
0
ARC
8
Inside Cut
10
115.0
20
1305.0
30
0
40
5.0
50
180.0
51
270.0
0
ARC
8
Outside Cut
10
85.0
20
24.5
30
0
40
5.0
50
-90.0
51
0.0
0
ARC
8
Outside Cut
10
95.0
20
24.5
30
0
40
5.0
50
0.0
51
180.0
0
LINE
8
Outside Cut
10
100.0
20
24.5
30
0
11
100.0
21
0.0
31
0
0
LINE
8
Outside Cut
10
100.0
20
0.0
30
0
11
1040.0
21
0.0
31
0
0
LINE
8
Outside Cut
10
1040.0
20
0.0
30
0
11
1040.0
21
24.5
31
0
0
ARC
8
Outside Cut
10
1045.0
20
24.5
30
0
40
5.0
50
0.0
51
180.0
0
ARC
8
Outside Cut
10
1055.0
20
24.5
30
0
40
5.0
50
180.0
51
270.0
0
LINE
8
Outside Cut
10
1190.0
20
1700.0
30
0
11
1190.0
21
1500.0
31
0
0
LINE
8
Outside Cut
10
1190.0
20
1500.0
30
0
11
1214.5
21
1500.0
31
0
0
ARC
8
Outside Cut
10
1214.5
20
1495.0
30
0
40
5.0
50
-90.0
51
90.0
0
ARC
8
Outside Cut
10
1214.5
20
1485.0
30
0
40
5.0
50
90.0
51
180.0
0
LINE
8
Outside Cut
10
1209.5
20
1485.0
30
0
11
1209.5
21
1415.0
31
0
0
ARC
8
Outside Cut
10
1214.5
20
1415.0
30
0
40
5.0
50
180.0
51
270.0
0
ARC
8
Outside Cut
10
1214.5
20
1405.0
30
0
40
5.0
50
-90.0
51
90.0
0
LINE
8
Outside Cut
10
1190.0
20
1400.0
30
0
11
1214.5
21
1400.0
31
0
0
LINE
8
Outside Cut
10
1190.0
20
1700.0
30
0
11
1240.0
21
1700.0
31
0
0
LINE
8
Outside Cut
10
1240.0
20
1700.0
30
0
11
1240.0
21
1675.5
31
0
0
ARC
8
Outside Cut
10
1245.0
20
1675.5
30
0
40
5.0
50
180.0
51
360.0
0
ARC
8
Outside Cut
10
1255.0
20
1675.5
30
0
40
5.0
50
90.0
51
180.0
0
LINE
8
Outside Cut
10
1255.0
20
1680.5
30
0
11
1290.0
21
1680.5
31
0
0
LINE
8
Outside Cut
10
1290.0
20
1680.5
30
0
11
1340.0
21
1400.0
31
0
0
LINE
8
Outside Cut
10
1340.0
20
1400.0
30
0
11
1440.0
21
1400.0
31
0
0
LINE
8
Outside Cut
10
1440.0
20
1400.0
30
0
11
1490.0
21
1680.5
31
0
0
LINE
8
Outside Cut
10
1490.0
20
1680.5
30
0
11
1525.0
21
1680.5
31
0
0
ARC
8
Outside Cut
10
1525.0
20
1675.5
30
0
40
5.0
50
0.0
51
90.0
0
ARC
8
Outside Cut
10
1535.0
20
1675.5
30
0
40
5.0
50
180.0
51
360.0
0
LINE
8
Outside Cut
10
1540.0
20
1675.5
30
0
11
1540.0
21
1700.0
31
0
0
LINE
8
Outside Cut
10
1540.0
20
1700.0
30
0
11
1590.0
21
1700.0
31
0
0
LINE
8
Outside Cut
10
1590.0
20
1700.0
30
0
11
1590.0
21
1500.0
31
0
0
LINE
8
Outside Cut
10
1590.0
20
1500.0
30
0
11
1565.5
21
1500.0
31
0
0
ARC
8
Outside Cut
10
1565.5
20
1495.0
30
0
40
5.0
50
90.0
51
270.0
0
ARC
8
Outside Cut
10
1565.5
20
1485.0
30
0
40
5.0
50
0.0
51
90.0
0
LINE
8
Outside Cut
10
1570.5
20
1485.0
30
0
11
1570.5
21
1415.0
31
0
0
ARC
8
Outside Cut
10
1565.5
20
1415.0
30
0
40
5.0
50
-90.0
51
0.0
0
ARC
8
Outside Cut
10
1565.5
20
1405.0
30
0
40
5.0
50
90.0
51
270.0
0
LINE
8
Outside Cut
10
1590.0
20
1400.0
30
0
11
1565.5
21
1400.0
31
0
0
CIRCLE
8
Dowel Holes
10
1199.75
20
1600.0
30
0
40
2.5
0
CIRCLE
8
Dowel Holes
10
1580.25
20
1600.0
30
0
40
2.5
0
CIRCLE
8
Dowel Holes
10
1390.0
20
1385.0
30
0
40
2.5
0
CIRCLE
8
Dowel Holes
10
1390.0
20
9.75
30
0
40
2.5
0
LINE
8
Outside Cut
10
1590.0
20
1400.0
30
0
11
1590.0
21
19.5
31
0
0
LINE
8
Outside Cut
10
1505.0
20
19.5
30
0
11
1590.0
21
19.5
31
0
0
CIRCLE
8
Dowel Holes
10
1580.25
20
1350.0
30
0
40
2.5
0
LINE
8
Outside Cut
10
1190.0
20
1400.0
30
0
11
1190.0
21
1196.4333
31
0
0
LINE
8
Outside Cut
10
1190.0
20
1196.4333
30
0
11
1214.5
21
1196.4333
31
0
0
ARC
8
Outside Cut
10
1214.5
20
1191.4333
30
0
40
5.0
50
-90.0
51
90.0
0
ARC
8
Outside Cut
10
1214.5
20
1181.4333
30
0
40
5.0
50
90.0
51
180.0
0
LINE
8
Outside Cut
10
1209.5
20
1181.4333
30
0
11
1209.5
21
454.83337
31
0
0
ARC
8
Outside Cut
10
1214.5
20
454.83337
30
0
40
5.0
50
180.0
51
270.0
0
ARC
8
Outside Cut
10
1214.5
20
444.83337
30
0
40
5.0
50
-90.0
51
90.0
0
LINE
8
Outside Cut
10
1214.5
20
439.83337
30
0
11
1190.0
21
439.83337
31
0
0
LINE
8
Outside Cut
10
1190.0
20
439.83337
30
0
11
1190.0
21
19.5
31
0
0
LINE
8
Outside Cut
10
1190.0
20
19.5
30
0
11
1275.0
21
19.5
31
0
0
CIRCLE
8
Dowel Holes
10
1199.75
20
1298.2167
30
0
40
2.5
0
CIRCLE
8
Dowel Holes
10
1199.75
20
229.66675
30
0
40
2.5
0
LINE
8
Pocket Cut
10
1240.0
20
1184.9333
30
0
11
1240.0
21
1207.9333
31
0
0
ARC
8
Pocket Cut
10
1245.0
20
1207.9333
30
0
40
5.0
50
0.0
51
180.0
0
ARC
8
Pocket Cut
10
1255.0
20
1207.9333
30
0
40
5.0
50
180.0
51
270.0
0
LINE
8
Pocket Cut
10
1255.0
20
1202.9333
30
0
11
1525.0
21
1202.9333
31
0
0
ARC
8
Pocket Cut
10
1525.0
20
1207.9333
30
0
40
5.0
50
270.0
51
360.0
0
ARC
8
Pocket Cut
10
1535.0
20
1207.9333
30
0
40
5.0
50
0.0
51
180.0
0
LINE
8
Pocket Cut
10
1540.0
20
1207.9333
30
0
11
1540.0
21
1184.9333
31
0
0
ARC
8
Pocket Cut
10
1535.0
20
1184.9333
30
0
40
5.0
50
180.0
51
360.0
0
ARC
8
Pocket Cut
10
1525.0
20
1184.9333
30
0
40
5.0
50
0.0
51
90.0
0
LINE
8
Pocket Cut
10
1255.0
20
1189.9333
30
0
11
1525.0
21
1189.9333
31
0
0
ARC
8
Pocket Cut
10
1255.0
20
1184.9333
30
0
40
5.0
50
90.0
51
180.0
0
ARC
8
Pocket Cut
10
1245.0
20
1184.9333
30
0
40
5.0
50
180.0
51
360.0
0
LINE
8
Pocket Cut
10
1240.0
20
1016.80005
30
0
11
1240.0
21
1039.8
31
0
0
ARC
8
Pocket Cut
10
1245.0
20
1039.8
30
0
40
5.0
50
0.0
51
180.0
0
ARC
8
Pocket Cut
10
1255.0
20
1039.8
30
0
40
5.0
50
180.0
51
270.0
0
LINE
8
Pocket Cut
10
1255.0
20
1034.8
30
0
11
1525.0
21
1034.8
31
0
0
ARC
8
Pocket Cut
10
1525.0
20
1039.8
30
0
40
5.0
50
270.0
51
360.0
0
ARC
8
Pocket Cut
10
1535.0
20
1039.8
30
0
40
5.0
50
0.0
51
180.0
0
LINE
8
Pocket Cut
10
1540.0
20
1039.8
30
0
11
1540.0
21
1016.80005
31
0
0
ARC
8
Pocket Cut
10
1535.0
20
1016.80005
30
0
40
5.0
50
180.0
51
360.0
0
ARC
8
Pocket Cut
10
1525.0
20
1016.80005
30
0
40
5.0
50
0.0
51
90.0
0
LINE
8
Pocket Cut
10
1255.0
20
1021.80005
30
0
11
1525.0
21
1021.80005
31
0
0
ARC
8
Pocket Cut
10
1255.0
20
1016.80005
30
0
40
5.0
50
90.0
51
180.0
0
ARC
8
Pocket Cut
10
1245.0
20
1016.80005
30
0
40
5.0
50
180.0
51
360.0
0
LINE
8
Pocket Cut
10
1240.0
20
764.6
30
0
11
1240.0
21
787.6
31
0
0
ARC
8
Pocket Cut
10
1245.0
20
787.6
30
0
40
5.0
50
0.0
51
180.0
0
ARC
8
Pocket Cut
10
1255.0
20
787.6
30
0
40
5.0
50
180.0
51
270.0
0
LINE
8
Pocket Cut
10
1255.0
20
782.6
30
0
11
1525.0
21
782.6
31
0
0
ARC
8
Pocket Cut
10
1525.0
20
787.6
30
0
40
5.0
50
270.0
51
360.0
0
ARC
8
Pocket Cut
10
1535.0
20
787.6
30
0
40
5.0
50
0.0
51
180.0
0
LINE
8
Pocket Cut
10
1540.0
20
787.6
30
0
11
1540.0
21
764.6
31
0
0
ARC
8
Pocket Cut
10
1535.0
20
764.6
30
0
40
5.0
50
180.0
51
360.0
0
ARC
8
Pocket Cut
10
1525.0
20
764.6
30
0
40
5.0
50
0.0
51
90.0
0
LINE
8
Pocket Cut
10
1255.0
20
769.6
30
0
11
1525.0
21
769.6
31
0
0
ARC
8
Pocket Cut
10
1255.0
20
764.6
30
0
40
5.0
50
90.0
51
180.0
0
ARC
8
Pocket Cut
10
1245.0
20
764.6
30
0
40
5.0
50
180.0
51
360.0
0
LINE
8
Pocket Cut
10
1240.0
20
428.33337
30
0
11
1240.0
21
451.33337
31
0
0
ARC
8
Pocket Cut
10
1245.0
20
451.33337
30
0
40
5.0
50
0.0
51
180.0
0
ARC
8
Pocket Cut
10
1255.0
20
451.33337
30
0
40
5.0
50
180.0
51
270.0
0
LINE
8
Pocket Cut
10
1255.0
20
446.33337
30
0
11
1525.0
21
446.33337
31
0
0
ARC
8
Pocket Cut
10
1525.0
20
451.33337
30
0
40
5.0
50
270.0
51
360.0
0
ARC
8
Pocket Cut
10
1535.0
20
451.33337
30
0
40
5.0
50
0.0
51
180.0
0
LINE
8
Pocket Cut
10
1540.0
20
451.33337
30
0
11
1540.0
21
428.33337
31
0
0
ARC
8
Pocket Cut
10
1535.0
20
428.33337
30
0
40
5.0
50
180.0
51
360.0
0
ARC
8
Pocket Cut
10
1525.0
20
428.33337
30
0
40
5.0
50
0.0
51
90.0
0
LINE
8
Pocket Cut
10
1255.0
20
433.33337
30
0
11
1525.0
21
433.33337
31
0
0
ARC
8
Pocket Cut
10
1255.0
20
428.33337
30
0
40
5.0
50
90.0
51
180.0
0
ARC
8
Pocket Cut
10
1245.0
20
428.33337
30
0
40
5.0
50
180.0
51
360.0
0
ARC
8
Outside Cut
10
1275.0
20
24.5
30
0
40
5.0
50
-90.0
51
0.0
0
ARC
8
Outside Cut
10
1285.0
20
24.5
30
0
40
5.0
50
0.0
51
180.0
0
LINE
8
Outside Cut
10
1290.0
20
24.5
30
0
11
1290.0
21
0.0
31
0
0
LINE
8
Outside Cut
10
1290.0
20
0.0
30
0
11
1490.0
21
0.0
31
0
0
LINE
8
Outside Cut
10
1490.0
20
0.0
30
0
11
1490.0
21
24.5
31
0
0
ARC
8
Outside Cut
10
1495.0
20
24.5
30
0
40
5.0
50
0.0
51
180.0
0
ARC
8
Outside Cut
10
1505.0
20
24.5
30
0
40
5.0
50
180.0
51
270.0
0
LINE
8
Inside Cut
10
1380.25
20
1300.0
30
0
11
1380.25
21
1355.0
31
0
0
ARC
8
Inside Cut
10
1375.25
20
1355.0
30
0
40
5.0
50
0.0
51
90.0
0
ARC
8
Inside Cut
10
1375.25
20
1365.0
30
0
40
5.0
50
90.0
51
270.0
0
LINE
8
Inside Cut
10
1375.25
20
1370.0
30
0
11
1404.75
21
1370.0
31
0
0
ARC
8
Inside Cut
10
1404.75
20
1365.0
30
0
40
5.0
50
-90.0
51
90.0
0
ARC
8
Inside Cut
10
1404.75
20
1355.0
30
0
40
5.0
50
90.0
51
180.0
0
LINE
8
Inside Cut
10
1399.75
20
1355.0
30
0
11
1399.75
21
1300.0
31
0
0
LINE
8
Inside Cut
10
1399.75
20
1300.0
30
0
11
1475.0
21
1300.0
31
0
0
ARC
8
Inside Cut
10
1475.0
20
1305.0
30
0
40
5.0
50
-90.0
51
0.0
0
ARC
8
Inside Cut
10
1485.0
20
1305.0
30
0
40
5.0
50
0.0
51
180.0
0
LINE
8
Inside Cut
10
1490.0
20
1305.0
30
0
11
1490.0
21
1275.5
31
0
0
ARC
8
Inside Cut
10
1485.0
20
1275.5
30
0
40
5.0
50
180.0
51
360.0
0
ARC
8
Inside Cut
10
1475.0
20
1275.5
30
0
40
5.0
50
0.0
51
90.0
0
LINE
8
Inside Cut
10
1475.0
20
1280.5
30
0
11
1305.0
21
1280.5
31
0
0
ARC
8
Inside Cut
10
1305.0
20
1275.5
30
0
40
5.0
50
90.0
51
180.0
0
ARC
8
Inside Cut
10
1295.0
20
1275.5
30
0
40
5.0
50
180.0
51
360.0
0
LINE
8
Inside Cut
10
1290.0
20
1275.5
30
0
11
1290.0
21
1305.0
31
0
0
ARC
8
Inside Cut
10
1295.0
20
1305.0
30
0
40
5.0
50
0.0
51
180.0
0
ARC
8
Inside Cut
10
1305.0
20
1305.0
30
0
40
5.0
50
180.0
51
270.0
0
LINE
8
Inside Cut
10
1305.0
20
1300.0
30
0
11
1380.25
21
1300.0
31
0
0
LINE
8
Outside Cut
10
-450.0
20
1700.0
30
0
11
-450.0
21
1500.0
31
0
0
LINE
8
Outside Cut
10
-450.0
20
1500.0
30
0
11
-425.5
21
1500.0
31
0
0
ARC
8
Outside Cut
10
-425.5
20
1495.0
30
0
40
5.0
50
-90.0
51
90.0
0
ARC
8
Outside Cut
10
-425.5
20
1485.0
30
0
40
5.0
50
90.0
51
180.0
0
LINE
8
Outside Cut
10
-430.5
20
1485.0
30
0
11
-430.5
21
1415.0
31
0
0
ARC
8
Outside Cut
10
-425.5
20
1415.0
30
0
40
5.0
50
180.0
51
270.0
0
ARC
8
Outside Cut
10
-425.5
20
1405.0
30
0
40
5.0
50
-90.0
51
90.0
0
LINE
8
Outside Cut
10
-450.0
20
1400.0
30
0
11
-425.5
21
1400.0
31
0
0
LINE
8
Outside Cut
10
-450.0
20
1700.0
30
0
11
-400.0
21
1700.0
31
0
0
LINE
8
Outside Cut
10
-400.0
20
1700.0
30
0
11
-400.0
21
1675.5
31
0
0
ARC
8
Outside Cut
10
-395.0
20
1675.5
30
0
40
5.0
50
180.0
51
360.0
0
ARC
8
Outside Cut
10
-385.0
20
1675.5
30
0
40
5.0
50
90.0
51
180.0
0
LINE
8
Outside Cut
10
-385.0
20
1680.5
30
0
11
-350.0
21
1680.5
31
0
0
LINE
8
Outside Cut
10
-350.0
20
1680.5
30
0
11
-300.0
21
1400.0
31
0
0
LINE
8
Outside Cut
10
-300.0
20
1400.0
30
0
11
-200.0
21
1400.0
31
0
0
LINE
8
Outside Cut
10
-200.0
20
1400.0
30
0
11
-150.0
21
1680.5
31
0
0
LINE
8
Outside Cut
10
-150.0
20
1680.5
30
0
11
-115.0
21
1680.5
31
0
0
ARC
8
Outside Cut
10
-115.0
20
1675.5
30
0
40
5.0
50
0.0
51
90.0
0
ARC
8
Outside Cut
10
-105.0
20
1675.5
30
0
40
5.0
50
180.0
51
360.0
0
LINE
8
Outside Cut
10
-100.0
20
1675.5
30
0
11
-100.0
21
1700.0
31
0
0
LINE
8
Outside Cut
10
-100.0
20
1700.0
30
0
11
-50.0
21
1700.0
31
0
0
LINE
8
Outside Cut
10
-50.0
20
1700.0
30
0
11
-50.0
21
1500.0
31
0
0
LINE
8
Outside Cut
10
-50.0
20
1500.0
30
0
11
-74.5
21
1500.0
31
0
0
ARC
8
Outside Cut
10
-74.5
20
1495.0
30
0
40
5.0
50
90.0
51
270.0
0
ARC
8
Outside Cut
10
-74.5
20
1485.0
30
0
40
5.0
50
0.0
51
90.0
0
LINE
8
Outside Cut
10
-69.5
20
1485.0
30
0
11
-69.5
21
1415.0
31
0
0
ARC
8
Outside Cut
10
-74.5
20
1415.0
30
0
40
5.0
50
-90.0
51
0.0
0
ARC
8
Outside Cut
10
-74.5
20
1405.0
30
0
40
5.0
50
90.0
51
270.0
0
LINE
8
Outside Cut
10
-50.0
20
1400.0
30
0
11
-74.5
21
1400.0
31
0
0
CIRCLE
8
Dowel Holes
10
-440.25
20
1600.0
30
0
40
2.5
0
CIRCLE
8
Dowel Holes
10
-59.75
20
1600.0
30
0
40
2.5
0
CIRCLE
8
Dowel Holes
10
-250.0
20
1385.0
30
0
40
2.5
0
CIRCLE
8
Dowel Holes
10
-250.0
20
9.75
30
0
40
2.5
0
LINE
8
Outside Cut
10
-450.0
20
1400.0
30
0
11
-450.0
21
19.5
31
0
0
LINE
8
Outside Cut
10
-450.0
20
19.5
30
0
11
-365.0
21
19.5
31
0
0
CIRCLE
8
Dowel Holes
10
-440.25
20
1350.0
30
0
40
2.5
0
LINE
8
Outside Cut
10
-50.0
20
1400.0
30
0
11
-50.0
21
1196.4333
31
0
0
LINE
8
Outside Cut
10
-50.0
20
1196.4333
30
0
11
-74.5
21
1196.4333
31
0
0
ARC
8
Outside Cut
10
-74.5
20
1191.4333
30
0
40
5.0
50
90.0
51
270.0
0
ARC
8
Outside Cut
10
-74.5
20
1181.4333
30
0
40
5.0
50
0.0
51
90.0
0
LINE
8
Outside Cut
10
-69.5
20
1181.4333
30
0
11
-69.5
21
454.83337
31
0
0
ARC
8
Outside Cut
10
-74.5
20
454.83337
30
0
40
5.0
50
-90.0
51
0.0
0
ARC
8
Outside Cut
10
-74.5
20
444.83337
30
0
40
5.0
50
90.0
51
270.0
0
LINE
8
Outside Cut
10
-74.5
20
439.83337
30
0
11
-50.0
21
439.83337
31
0
0
LINE
8
Outside Cut
10
-50.0
20
439.83337
30
0
11
-50.0
21
19.5
31
0
0
LINE
8
Outside Cut
10
-135.0
20
19.5
30
0
11
-50.0
21
19.5
31
0
0
CIRCLE
8
Dowel Holes
10
-59.75
20
1298.2167
30
0
40
2.5
0
CIRCLE
8
Dowel Holes
10
-59.75
20
229.66675
30
0
40
2.5
0
LINE
8
Pocket Cut
10
-100.0
20
1207.9333
30
0
11
-100.0
21
1184.9333
31
0
0
ARC
8
Pocket Cut
10
-105.0
20
1184.9333
30
0
40
5.0
50
-180.0
51
0.0
0
ARC
8
Pocket Cut
10
-115.0
20
1184.9333
30
0
40
5.0
50
0.0
51
90.0
0
LINE
8
Pocket Cut
10
-115.0
20
1189.9333
30
0
11
-385.0
21
1189.9333
31
0
0
ARC
8
Pocket Cut
10
-385.0
20
1184.9333
30
0
40
5.0
50
90.0
51
179.99998
0
ARC
8
Pocket Cut
10
-395.0
20
1184.9333
30
0
40
5.0
50
-180.0
51
0.0
0
LINE
8
Pocket Cut
10
-400.0
20
1184.9333
30
0
11
-400.0
21
1207.9333
31
0
0
ARC
8
Pocket Cut
10
-395.0
20
1207.9333
30
0
40
5.0
50
0.0
51
179.99998
0
ARC
8
Pocket Cut
10
-385.0
20
1207.9333
30
0
40
5.0
50
-180.0
51
-90.0
0
LINE
8
Pocket Cut
10
-115.0
20
1202.9333
30
0
11
-385.0
21
1202.9333
31
0
0
ARC
8
Pocket Cut
10
-115.0
20
1207.9333
30
0
40
5.0
50
-90.0
51
0.0
0
ARC
8
Pocket Cut
10
-105.0
20
1207.9333
30
0
40
5.0
50
0.0
51
179.99998
0
LINE
8
Pocket Cut
10
-100.0
20
1039.8
30
0
11
-100.0
21
1016.80005
31
0
0
ARC
8
Pocket Cut
10
-105.0
20
1016.80005
30
0
40
5.0
50
-180.0
51
0.0
0
ARC
8
Pocket Cut
10
-115.0
20
1016.80005
30
0
40
5.0
50
0.0
51
90.0
0
LINE
8
Pocket Cut
10
-115.0
20
1021.80005
30
0
11
-385.0
21
1021.80005
31
0
0
ARC
8
Pocket Cut
10
-385.0
20
1016.80005
30
0
40
5.0
50
90.0
51
179.99998
0
ARC
8
Pocket Cut
10
-395.0
20
1016.80005
30
0
40
5.0
50
-180.0
51
0.0
0
LINE
8
Pocket Cut
10
-400.0
20
1016.80005
30
0
11
-400.0
21
1039.8
31
0
0
ARC
8
Pocket Cut
10
-395.0
20
1039.8
30
0
40
5.0
50
0.0
51
179.99998
0
ARC
8
Pocket Cut
10
-385.0
20
1039.8
30
0
40
5.0
50
-180.0
51
-90.0
0
LINE
8
Pocket Cut
10
-115.0
20
1034.8
30
0
11
-385.0
21
1034.8
31
0
0
ARC
8
Pocket Cut
10
-115.0
20
1039.8
30
0
40
5.0
50
-90.0
51
0.0
0
ARC
8
Pocket Cut
10
-105.0
20
1039.8
30
0
40
5.0
50
0.0
51
179.99998
0
LINE
8
Pocket Cut
10
-100.0
20
787.6
30
0
11
-100.0
21
764.6
31
0
0
ARC
8
Pocket Cut
10
-105.0
20
764.6
30
0
40
5.0
50
-180.0
51
0.0
0
ARC
8
Pocket Cut
10
-115.0
20
764.6
30
0
40
5.0
50
0.0
51
90.0
0
LINE
8
Pocket Cut
10
-115.0
20
769.6
30
0
11
-385.0
21
769.6
31
0
0
ARC
8
Pocket Cut
10
-385.0
20
764.6
30
0
40
5.0
50
90.0
51
179.99998
0
ARC
8
Pocket Cut
10
-395.0
20
764.6
30
0
40
5.0
50
-180.0
51
0.0
0
LINE
8
Pocket Cut
10
-400.0
20
764.6
30
0
11
-400.0
21
787.6
31
0
0
ARC
8
Pocket Cut
10
-395.0
20
787.6
30
0
40
5.0
50
0.0
51
179.99998
0
ARC
8
Pocket Cut
10
-385.0
20
787.6
30
0
40
5.0
50
-180.0
51
-90.0
0
LINE
8
Pocket Cut
10
-115.0
20
782.6
30
0
11
-385.0
21
782.6
31
0
0
ARC
8
Pocket Cut
10
-115.0
20
787.6
30
0
40
5.0
50
-90.0
51
0.0
0
ARC
8
Pocket Cut
10
-105.0
20
787.6
30
0
40
5.0
50
0.0
51
179.99998
0
LINE
8
Pocket Cut
10
-100.0
20
451.33337
30
0
11
-100.0
21
428.33337
31
0
0
ARC
8
Pocket Cut
10
-105.0
20
428.33337
30
0
40
5.0
50
-180.0
51
0.0
0
ARC
8
Pocket Cut
10
-115.0
20
428.33337
30
0
40
5.0
50
0.0
51
90.0
0
LINE
8
Pocket Cut
10
-115.0
20
433.33337
30
0
11
-385.0
21
433.33337
31
0
0
ARC
8
Pocket Cut
10
-385.0
20
428.33337
30
0
40
5.0
50
90.0
51
179.99998
0
ARC
8
Pocket Cut
10
-395.0
20
428.33337
30
0
40
5.0
50
-180.0
51
0.0
0
LINE
8
Pocket Cut
10
-400.0
20
428.33337
30
0
11
-400.0
21
451.33337
31
0
0
ARC
8
Pocket Cut
10
-395.0
20
451.33337
30
0
40
5.0
50
0.0
51
179.99998
0
ARC
8
Pocket Cut
10
-385.0
20
451.33337
30
0
40
5.0
50
-180.0
51
-90.0
0
LINE
8
Pocket Cut
10
-115.0
20
446.33337
30
0
11
-385.0
21
446.33337
31
0
0
ARC
8
Pocket Cut
10
-115.0
20
451.33337
30
0
40
5.0
50
-90.0
51
0.0
0
ARC
8
Pocket Cut
10
-105.0
20
451.33337
30
0
40
5.0
50
0.0
51
179.99998
0
ARC
8
Outside Cut
10
-365.0
20
24.5
30
0
40
5.0
50
-90.0
51
0.0
0
ARC
8
Outside Cut
10
-355.0
20
24.5
30
0
40
5.0
50
0.0
51
180.0
0
LINE
8
Outside Cut
10
-350.0
20
24.5
30
0
11
-350.0
21
0.0
31
0
0
LINE
8
Outside Cut
10
-350.0
20
0.0
30
0
11
-150.0
21
0.0
31
0
0
LINE
8
Outside Cut
10
-150.0
20
0.0
30
0
11
-150.0
21
24.5
31
0
0
ARC
8
Outside Cut
10
-145.0
20
24.5
30
0
40
5.0
50
0.0
51
180.0
0
ARC
8
Outside Cut
10
-135.0
20
24.5
30
0
40
5.0
50
180.0
51
270.0
0
LINE
8
Inside Cut
10
-259.75
20
1300.0
30
0
11
-259.75
21
1355.0
31
0
0
ARC
8
Inside Cut
10
-264.75
20
1355.0
30
0
40
5.0
50
0.0
51
90.0
0
ARC
8
Inside Cut
10
-264.75
20
1365.0
30
0
40
5.0
50
90.0
51
270.0
0
LINE
8
Inside Cut
10
-264.75
20
1370.0
30
0
11
-235.25
21
1370.0
31
0
0
ARC
8
Inside Cut
10
-235.25
20
1365.0
30
0
40
5.0
50
-90.0
51
90.0
0
ARC
8
Inside Cut
10
-235.25
20
1355.0
30
0
40
5.0
50
90.0
51
180.0
0
LINE
8
Inside Cut
10
-240.25
20
1355.0
30
0
11
-240.25
21
1300.0
31
0
0
LINE
8
Inside Cut
10
-240.25
20
1300.0
30
0
11
-165.0
21
1300.0
31
0
0
ARC
8
Inside Cut
10
-165.0
20
1305.0
30
0
40
5.0
50
-90.0
51
0.0
0
ARC
8
Inside Cut
10
-155.0
20
1305.0
30
0
40
5.0
50
0.0
51
180.0
0
LINE
8
Inside Cut
10
-150.0
20
1305.0
30
0
11
-150.0
21
1275.5
31
0
0
ARC
8
Inside Cut
10
-155.0
20
1275.5
30
0
40
5.0
50
180.0
51
360.0
0
ARC
8
Inside Cut
10
-165.0
20
1275.5
30
0
40
5.0
50
0.0
51
90.0
0
LINE
8
Inside Cut
10
-165.0
20
1280.5
30
0
11
-335.0
21
1280.5
31
0
0
ARC
8
Inside Cut
10
-335.0
20
1275.5
30
0
40
5.0
50
90.0
51
180.0
0
ARC
8
Inside Cut
10
-345.0
20
1275.5
30
0
40
5.0
50
180.0
51
360.0
0
LINE
8
Inside Cut
10
-350.0
20
1275.5
30
0
11
-350.0
21
1305.0
31
0
0
ARC
8
Inside Cut
10
-345.0
20
1305.0
30
0
40
5.0
50
0.0
51
180.0
0
ARC
8
Inside Cut
10
-335.0
20
1305.0
30
0
40
5.0
50
180.0
51
270.0
0
LINE
8
Inside Cut
10
-335.0
20
1300.0
30
0
11
-259.75
21
1300.0
31
0
0
CIRCLE
8
Dowel Holes
10
-125.0
20
1759.75
30
0
40
2.5
0
CIRCLE
8
Dowel Holes
10
-59.75
20
1825.0
30
0
40
2.5
0
LINE
8
Outside Cut
10
-50.0
20
1800.0
30
0
11
-74.5
21
1800.0
31
0
0
LINE
8
Outside Cut
10
-69.5
20
1785.0
30
0
11
-69.5
21
1769.5
31
0
0
LINE
8
Outside Cut
10
-69.5
20
1769.5
30
0
11
-85.0
21
1769.5
31
0
0
LINE
8
Outside Cut
10
-100.0
20
1774.5
30
0
11
-100.0
21
1750.0
31
0
0
LINE
8
Outside Cut
10
-100.0
20
1750.0
30
0
11
-150.0
21
1750.0
31
0
0
LINE
8
Outside Cut
10
-150.0
20
1750.0
30
0
11
-150.0
21
1769.5
31
0
0
LINE
8
Outside Cut
10
-150.0
20
1769.5
30
0
11
-69.5
21
1850.0
31
0
0
LINE
8
Outside Cut
10
-69.5
20
1850.0
30
0
11
-50.0
21
1850.0
31
0
0
LINE
8
Outside Cut
10
-50.0
20
1850.0
30
0
11
-50.0
21
1800.0
31
0
0
ARC
8
Outside Cut
10
-74.5
20
1795.0
30
0
40
5.0
50
90.0
51
270.0
0
ARC
8
Outside Cut
10
-74.5
20
1785.0
30
0
40
5.0
50
360.0
51
450.0
0
ARC
8
Outside Cut
10
-85.0
20
1774.5
30
0
40
5.0
50
180.0
51
270.0
0
ARC
8
Outside Cut
10
-95.0
20
1774.5
30
0
40
5.0
50
360.0
51
540.0
0
CIRCLE
8
Dowel Holes
10
-440.25
20
1825.0
30
0
40
2.5
0
CIRCLE
8
Dowel Holes
10
-375.0
20
1759.75
30
0
40
2.5
0
LINE
8
Outside Cut
10
-400.0
20
1750.0
30
0
11
-400.0
21
1774.5
31
0
0
LINE
8
Outside Cut
10
-415.0
20
1769.5
30
0
11
-430.5
21
1769.5
31
0
0
LINE
8
Outside Cut
10
-430.5
20
1769.5
30
0
11
-430.5
21
1785.0
31
0
0
LINE
8
Outside Cut
10
-425.5
20
1800.0
30
0
11
-450.0
21
1800.0
31
0
0
LINE
8
Outside Cut
10
-450.0
20
1800.0
30
0
11
-450.0
21
1850.0
31
0
0
LINE
8
Outside Cut
10
-450.0
20
1850.0
30
0
11
-430.5
21
1850.0
31
0
0
LINE
8
Outside Cut
10
-430.5
20
1850.0
30
0
11
-350.0
21
1769.5
31
0
0
LINE
8
Outside Cut
10
-350.0
20
1769.5
30
0
11
-350.0
21
1750.0
31
0
0
LINE
8
Outside Cut
10
-350.0
20
1750.0
30
0
11
-400.0
21
1750.0
31
0
0
ARC
8
Outside Cut
10
-405.0
20
1774.5
30
0
40
5.0
50
0.0
51
180.0
0
ARC
8
Outside Cut
10
-415.0
20
1774.5
30
0
40
5.0
50
270.0
51
360.0
0
ARC
8
Outside Cut
10
-425.5
20
1785.0
30
0
40
5.0
50
90.0
51
180.0
0
ARC
8
Outside Cut
10
-425.5
20
1795.0
30
0
40
5.0
50
270.0
51
450.0
0
CIRCLE
8
Dowel Holes
10
1199.75
20
1825.0
30
0
40
2.5
0
CIRCLE
8
Dowel Holes
10
1265.0
20
1759.75
30
0
40
2.5
0
LINE
8
Outside Cut
10
1240.0
20
1750.0
30
0
11
1240.0
21
1774.5
31
0
0
LINE
8
Outside Cut
10
1225.0
20
1769.5
30
0
11
1209.5
21
1769.5
31
0
0
LINE
8
Outside Cut
10
1209.5
20
1769.5
30
0
11
1209.5
21
1785.0
31
0
0
LINE
8
Outside Cut
10
1214.5
20
1800.0
30
0
11
1190.0
21
1800.0
31
0
0
LINE
8
Outside Cut
10
1190.0
20
1800.0
30
0
11
1190.0
21
1850.0
31
0
0
LINE
8
Outside Cut
10
1190.0
20
1850.0
30
0
11
1209.5
21
1850.0
31
0
0
LINE
8
Outside Cut
10
1209.5
20
1850.0
30
0
11
1290.0
21
1769.5
31
0
0
LINE
8
Outside Cut
10
1290.0
20
1769.5
30
0
11
1290.0
21
1750.0
31
0
0
LINE
8
Outside Cut
10
1290.0
20
1750.0
30
0
11
1240.0
21
1750.0
31
0
0
ARC
8
Outside Cut
10
1235.0
20
1774.5
30
0
40
5.0
50
0.0
51
180.0
0
ARC
8
Outside Cut
10
1225.0
20
1774.5
30
0
40
5.0
50
270.0
51
360.0
0
ARC
8
Outside Cut
10
1214.5
20
1785.0
30
0
40
5.0
50
90.0
51
180.0
0
ARC
8
Outside Cut
10
1214.5
20
1795.0
30
0
40
5.0
50
270.0
51
450.0
0
CIRCLE
8
Dowel Holes
10
1515.0
20
1759.75
30
0
40
2.5
0
CIRCLE
8
Dowel Holes
10
1580.25
20
1825.0
30
0
40
2.5
0
LINE
8
Outside Cut
10
1590.0
20
1800.0
30
0
11
1565.5
21
1800.0
31
0
0
LINE
8
Outside Cut
10
1570.5
20
1785.0
30
0
11
1570.5
21
1769.5
31
0
0
LINE
8
Outside Cut
10
1570.5
20
1769.5
30
0
11
1555.0
21
1769.5
31
0
0
LINE
8
Outside Cut
10
1540.0
20
1774.5
30
0
11
1540.0
21
1750.0
31
0
0
LINE
8
Outside Cut
10
1540.0
20
1750.0
30
0
11
1490.0
21
1750.0
31
0
0
LINE
8
Outside Cut
10
1490.0
20
1750.0
30
0
11
1490.0
21
1769.5
31
0
0
LINE
8
Outside Cut
10
1490.0
20
1769.5
30
0
11
1570.5
21
1850.0
31
0
0
LINE
8
Outside Cut
10
1570.5
20
1850.0
30
0
11
1590.0
21
1850.0
31
0
0
LINE
8
Outside Cut
10
1590.0
20
1850.0
30
0
11
1590.0
21
1800.0
31
0
0
ARC
8
Outside Cut
10
1565.5
20
1795.0
30
0
40
5.0
50
90.0
51
270.0
0
ARC
8
Outside Cut
10
1565.5
20
1785.0
30
0
40
5.0
50
360.0
51
450.0
0
ARC
8
Outside Cut
10
1555.0
20
1774.5
30
0
40
5.0
50
180.0
51
270.0
0
ARC
8
Outside Cut
10
1545.0
20
1774.5
30
0
40
5.0
50
360.0
51
540.0
0
LINE
8
Outside Cut
10
0.0
20
1750.0
30
0
11
0.0
21
1839.5
31
0
0
LINE
8
Outside Cut
10
0.0
20
1839.5
30
0
11
24.5
21
1839.5
31
0
0
ARC
8
Outside Cut
10
24.5
20
1844.5
30
0
40
5.0
50
-90.0
51
90.0
0
ARC
8
Outside Cut
10
24.5
20
1854.5
30
0
40
5.0
50
180.0
51
270.0
0
LINE
8
Outside Cut
10
19.5
20
1854.5
30
0
11
19.5
21
1869.5
31
0
0
LINE
8
Outside Cut
10
19.5
20
1869.5
30
0
11
1120.5
21
1869.5
31
0
0
LINE
8
Outside Cut
10
1120.5
20
1869.5
30
0
11
1120.5
21
1854.5
31
0
0
ARC
8
Outside Cut
10
1115.5
20
1854.5
30
0
40
5.0
50
-90.0
51
0.0
0
ARC
8
Outside Cut
10
1115.5
20
1844.5
30
0
40
5.0
50
90.0
51
270.0
0
LINE
8
Outside Cut
10
1115.5
20
1839.5
30
0
11
1140.0
21
1839.5
31
0
0
LINE
8
Outside Cut
10
1140.0
20
1839.5
30
0
11
1140.0
21
1750.0
31
0
0
LINE
8
Outside Cut
10
1140.0
20
1750.0
30
0
11
1090.0
21
1750.0
31
0
0
LINE
8
Outside Cut
10
1090.0
20
1750.0
30
0
11
1090.0
21
1774.5
31
0
0
ARC
8
Outside Cut
10
1085.0
20
1774.5
30
0
40
5.0
50
0.0
51
180.0
0
ARC
8
Outside Cut
10
1075.0
20
1774.5
30
0
40
5.0
50
-90.0
51
0.0
0
LINE
8
Outside Cut
10
1075.0
20
1769.5
30
0
11
65.0
21
1769.5
31
0
0
ARC
8
Outside Cut
10
65.0
20
1774.5
30
0
40
5.0
50
180.0
51
270.0
0
ARC
8
Outside Cut
10
55.0
20
1774.5
30
0
40
5.0
50
0.0
51
180.0
0
LINE
8
Outside Cut
10
50.0
20
1774.5
30
0
11
50.0
21
1750.0
31
0
0
LINE
8
Outside Cut
10
50.0
20
1750.0
30
0
11
0.0
21
1750.0
31
0
0
LINE
8
Outside Cut
10
19.5
20
1919.5
30
0
11
19.5
21
1985.0
31
0
0
ARC
8
Outside Cut
10
24.5
20
1985.0
30
0
40
5.0
50
90.0
51
180.0
0
ARC
8
Outside Cut
10
24.5
20
1995.0
30
0
40
5.0
50
-90.0
51
90.0
0
LINE
8
Outside Cut
10
24.5
20
2000.0
30
0
11
0.0
21
2000.0
31
0
0
LINE
8
Outside Cut
10
0.0
20
2000.0
30
0
11
0.0
21
2090.25
31
0
0
LINE
8
Outside Cut
10
0.0
20
2090.25
30
0
11
35.0
21
2090.25
31
0
0
ARC
8
Outside Cut
10
35.0
20
2085.25
30
0
40
5.0
50
0.0
51
90.0
0
ARC
8
Outside Cut
10
45.0
20
2085.25
30
0
40
5.0
50
180.0
51
360.0
0
LINE
8
Outside Cut
10
50.0
20
2085.25
30
0
11
50.0
21
2114.75
31
0
0
ARC
8
Outside Cut
10
45.0
20
2114.75
30
0
40
5.0
50
0.0
51
180.0
0
ARC
8
Outside Cut
10
35.0
20
2114.75
30
0
40
5.0
50
-90.0
51
0.0
0
LINE
8
Outside Cut
10
35.0
20
2109.75
30
0
11
0.0
21
2109.75
31
0
0
LINE
8
Outside Cut
10
0.0
20
2109.75
30
0
11
0.0
21
2200.0
31
0
0
LINE
8
Outside Cut
10
0.0
20
2200.0
30
0
11
24.5
21
2200.0
31
0
0
ARC
8
Outside Cut
10
24.5
20
2205.0
30
0
40
5.0
50
-90.0
51
90.0
0
ARC
8
Outside Cut
10
24.5
20
2215.0
30
0
40
5.0
50
180.0
51
270.0
0
LINE
8
Outside Cut
10
19.5
20
2215.0
30
0
11
19.5
21
2300.0
31
0
0
LINE
8
Outside Cut
10
19.5
20
2300.0
30
0
11
1120.5
21
2300.0
31
0
0
LINE
8
Outside Cut
10
1120.5
20
2300.0
30
0
11
1120.5
21
2215.0
31
0
0
ARC
8
Outside Cut
10
1115.5
20
2215.0
30
0
40
5.0
50
-90.0
51
0.0
0
ARC
8
Outside Cut
10
1115.5
20
2205.0
30
0
40
5.0
50
90.0
51
270.0
0
LINE
8
Outside Cut
10
1115.5
20
2200.0
30
0
11
1140.0
21
2200.0
31
0
0
LINE
8
Outside Cut
10
1140.0
20
2200.0
30
0
11
1140.0
21
2109.75
31
0
0
LINE
8
Outside Cut
10
1140.0
20
2109.75
30
0
11
1105.0
21
2109.75
31
0
0
ARC
8
Outside Cut
10
1105.0
20
2114.75
30
0
40
5.0
50
180.0
51
270.0
0
ARC
8
Outside Cut
10
1095.0
20
2114.75
30
0
40
5.0
50
0.0
51
180.0
0
LINE
8
Outside Cut
10
1090.0
20
2114.75
30
0
11
1090.0
21
2085.25
31
0
0
ARC
8
Outside Cut
10
1095.0
20
2085.25
30
0
40
5.0
50
180.0
51
360.0
0
ARC
8
Outside Cut
10
1105.0
20
2085.25
30
0
40
5.0
50
90.0
51
180.0
0
LINE
8
Outside Cut
10
1105.0
20
2090.25
30
0
11
1140.0
21
2090.25
31
0
0
LINE
8
Outside Cut
10
1140.0
20
2090.25
30
0
11
1140.0
21
2000.0
31
0
0
LINE
8
Outside Cut
10
1140.0
20
2000.0
30
0
11
1115.5
21
2000.0
31
0
0
ARC
8
Outside Cut
10
1115.5
20
1995.0
30
0
40
5.0
50
90.0
51
270.0
0
ARC
8
Outside Cut
10
1115.5
20
1985.0
30
0
40
5.0
50
0.0
51
90.0
0
LINE
8
Outside Cut
10
1120.5
20
1985.0
30
0
11
1120.5
21
1919.5
31
0
0
LINE
8
Outside Cut
10
1120.5
20
1919.5
30
0
11
1055.0
21
1919.5
31
0
0
ARC
8
Outside Cut
10
1055.0
20
1924.5
30
0
40
5.0
50
180.0
51
270.0
0
ARC
8
Outside Cut
10
1045.0
20
1924.5
30
0
40
5.0
50
0.0
51
180.0
0
LINE
8
Outside Cut
10
1040.0
20
1924.5
30
0
11
1040.0
21
1900.0
31
0
0
LINE
8
Outside Cut
10
1040.0
20
1900.0
30
0
11
100.0
21
1900.0
31
0
0
LINE
8
Outside Cut
10
100.0
20
1900.0
30
0
11
100.0
21
1924.5
31
0
0
ARC
8
Outside Cut
10
95.0
20
1924.5
30
0
40
5.0
50
0.0
51
180.0
0
ARC
8
Outside Cut
10
85.0
20
1924.5
30
0
40
5.0
50
-90.0
51
0.0
0
LINE
8
Outside Cut
10
85.0
20
1919.5
30
0
11
19.5
21
1919.5
31
0
0
LINE
8
Pocket Cut
10
104.4
20
1950.0
30
0
11
81.4
21
1950.0
31
0
0
ARC
8
Pocket Cut
10
81.4
20
1955.0
30
0
40
5.0
50
90.0
51
270.0
0
ARC
8
Pocket Cut
10
81.4
20
1965.0
30
0
40
5.0
50
270.0
51
360.0
0
LINE
8
Pocket Cut
10
86.4
20
1965.0
30
0
11
86.4
21
2235.0
31
0
0
ARC
8
Pocket Cut
10
81.4
20
2235.0
30
0
40
5.0
50
360.0
51
450.0
0
ARC
8
Pocket Cut
10
81.4
20
2245.0
30
0
40
5.0
50
90.0
51
270.0
0
LINE
8
Pocket Cut
10
81.4
20
2250.0
30
0
11
104.4
21
2250.0
31
0
0
ARC
8
Pocket Cut
10
104.4
20
2245.0
30
0
40
5.0
50
270.0
51
450.0
0
ARC
8
Pocket Cut
10
104.4
20
2235.0
30
0
40
5.0
50
90.0
51
180.0
0
LINE
8
Pocket Cut
10
99.4
20
1965.0
30
0
11
99.4
21
2235.0
31
0
0
ARC
8
Pocket Cut
10
104.4
20
1965.0
30
0
40
5.0
50
180.0
51
270.0
0
ARC
8
Pocket Cut
10
104.4
20
1955.0
30
0
40
5.0
50
270.0
51
450.0
0
LINE
8
Pocket Cut
10
251.20001
20
1950.0
30
0
11
228.20001
21
1950.0
31
0
0
ARC
8
Pocket Cut
10
228.20001
20
1955.0
30
0
40
5.0
50
90.0
51
270.0
0
ARC
8
Pocket Cut
10
228.20001
20
1965.0
30
0
40
5.0
50
270.0
51
360.0
0
LINE
8
Pocket Cut
10
233.20001
20
1965.0
30
0
11
233.20001
21
2235.0
31
0
0
ARC
8
Pocket Cut
10
228.20001
20
2235.0
30
0
40
5.0
50
360.0
51
450.0
0
ARC
8
Pocket Cut
10
228.20001
20
2245.0
30
0
40
5.0
50
90.0
51
270.0
0
LINE
8
Pocket Cut
10
228.20001
20
2250.0
30
0
11
251.20001
21
2250.0
31
0
0
ARC
8
Pocket Cut
10
251.20001
20
2245.0
30
0
40
5.0
50
270.0
51
450.0
0
ARC
8
Pocket Cut
10
251.20001
20
2235.0
30
0
40
5.0
50
90.0
51
180.0
0
LINE
8
Pocket Cut
10
246.20001
20
1965.0
30
0
11
246.20001
21
2235.0
31
0
0
ARC
8
Pocket Cut
10
251.20001
20
1965.0
30
0
40
5.0
50
180.0
51
270.0
0
ARC
8
Pocket Cut
10
251.20001
20
1955.0
30
0
40
5.0
50
270.0
51
450.0
0
LINE
8
Pocket Cut
10
471.40002
20
1950.0
30
0
11
448.40002
21
1950.0
31
0
0
ARC
8
Pocket Cut
10
448.40002
20
1955.0
30
0
40
5.0
50
90.0
51
270.0
0
ARC
8
Pocket Cut
10
448.40002
20
1965.0
30
0
40
5.0
50
270.0
51
360.0
0
LINE
8
Pocket Cut
10
453.40002
20
1965.0
30
0
11
453.40002
21
2235.0
31
0
0
ARC
8
Pocket Cut
10
448.40002
20
2235.0
30
0
40
5.0
50
360.0
51
450.0
0
ARC
8
Pocket Cut
10
448.40002
20
2245.0
30
0
40
5.0
50
90.0
51
270.0
0
LINE
8
Pocket Cut
10
448.40002
20
2250.0
30
0
11
471.40002
21
2250.0
31
0
0
ARC
8
Pocket Cut
10
471.40002
20
2245.0
30
0
40
5.0
50
270.0
51
450.0
0
ARC
8
Pocket Cut
10
471.40002
20
2235.0
30
0
40
5.0
50
90.0
51
180.0
0
LINE
8
Pocket Cut
10
466.40002
20
1965.0
30
0
11
466.40002
21
2235.0
31
0
0
ARC
8
Pocket Cut
10
471.40002
20
1965.0
30
0
40
5.0
50
180.0
51
270.0
0
ARC
8
Pocket Cut
10
471.40002
20
1955.0
30
0
40
5.0
50
270.0
51
450.0
0
LINE
8
Pocket Cut
10
765.0
20
1950.0
30
0
11
742.0
21
1950.0
31
0
0
ARC
8
Pocket Cut
10
742.0
20
1955.0
30
0
40
5.0
50
90.0
51
270.0
0
ARC
8
Pocket Cut
10
742.0
20
1965.0
30
0
40
5.0
50
270.0
51
360.0
0
LINE
8
Pocket Cut
10
747.0
20
1965.0
30
0
11
747.0
21
2235.0
31
0
0
ARC
8
Pocket Cut
10
742.0
20
2235.0
30
0
40
5.0
50
360.0
51
450.0
0
ARC
8
Pocket Cut
10
742.0
20
2245.0
30
0
40
5.0
50
90.0
51
270.0
0
LINE
8
Pocket Cut
10
742.0
20
2250.0
30
0
11
765.0
21
2250.0
31
0
0
ARC
8
Pocket Cut
10
765.0
20
2245.0
30
0
40
5.0
50
270.0
51
450.0
0
ARC
8
Pocket Cut
10
765.0
20
2235.0
30
0
40
5.0
50
90.0
51
180.0
0
LINE
8
Pocket Cut
10
760.0
20
1965.0
30
0
11
760.0
21
2235.0
31
0
0
ARC
8
Pocket Cut
10
765.0
20
1965.0
30
0
40
5.0
50
180.0
51
270.0
0
ARC
8
Pocket Cut
10
765.0
20
1955.0
30
0
40
5.0
50
270.0
51
450.0
0
CIRCLE
8
Dowel Holes
10
162.0
20
2290.25
30
0
40
2.5
0
CIRCLE
8
Dowel Holes
10
162.0
20
2100.0
30
0
40
2.5
0
CIRCLE
8
Dowel Holes
10
324.0
20
2290.25
30
0
40
2.5
0
CIRCLE
8
Dowel Holes
10
324.0
20
2100.0
30
0
40
2.5
0
CIRCLE
8
Dowel Holes
10
486.0
20
2290.25
30
0
40
2.5
0
CIRCLE
8
Dowel Holes
10
486.0
20
2100.0
30
0
40
2.5
0
CIRCLE
8
Dowel Holes
10
648.0
20
2290.25
30
0
40
2.5
0
CIRCLE
8
Dowel Holes
10
648.0
20
2100.0
30
0
40
2.5
0
CIRCLE
8
Dowel Holes
10
810.0
20
2290.25
30
0
40
2.5
0
CIRCLE
8
Dowel Holes
10
810.0
20
2100.0
30
0
40
2.5
0
CIRCLE
8
Dowel Holes
10
972.0
20
2290.25
30
0
40
2.5
0
CIRCLE
8
Dowel Holes
10
972.0
20
2100.0
30
0
40
2.5
0
LINE
8
Outside Cut
10
19.5
20
2350.0
30
0
11
19.5
21
2435.0
31
0
0
ARC
8
Outside Cut
10
24.5
20
2435.0
30
0
40
5.0
50
90.0
51
180.0
0
ARC
8
Outside Cut
10
24.5
20
2445.0
30
0
40
5.0
50
-90.0
51
90.0
0
LINE
8
Outside Cut
10
24.5
20
2450.0
30
0
11
0.0
21
2450.0
31
0
0
LINE
8
Outside Cut
10
0.0
20
2450.0
30
0
11
0.0
21
2550.0
31
0
0
LINE
8
Outside Cut
10
0.0
20
2550.0
30
0
11
24.5
21
2550.0
31
0
0
ARC
8
Outside Cut
10
24.5
20
2555.0
30
0
40
5.0
50
-90.0
51
90.0
0
ARC
8
Outside Cut
10
24.5
20
2565.0
30
0
40
5.0
50
180.0
51
270.0
0
LINE
8
Outside Cut
10
19.5
20
2565.0
30
0
11
19.5
21
2750.0
31
0
0
LINE
8
Outside Cut
10
19.5
20
2750.0
30
0
11
50.0
21
2750.0
31
0
0
LINE
8
Outside Cut
10
50.0
20
2750.0
30
0
11
50.0
21
2725.5
31
0
0
ARC
8
Outside Cut
10
55.0
20
2725.5
30
0
40
5.0
50
180.0
51
360.0
0
ARC
8
Outside Cut
10
65.0
20
2725.5
30
0
40
5.0
50
90.0
51
180.0
0
LINE
8
Outside Cut
10
65.0
20
2730.5
30
0
11
100.0
21
2730.5
31
0
0
LINE
8
Outside Cut
10
100.0
20
2730.5
30
0
11
150.0
21
2450.0
31
0
0
LINE
8
Outside Cut
10
150.0
20
2450.0
30
0
11
990.0
21
2450.0
31
0
0
LINE
8
Outside Cut
10
990.0
20
2450.0
30
0
11
1040.0
21
2730.5
31
0
0
LINE
8
Outside Cut
10
1075.0
20
2730.5
30
0
11
1040.0
21
2730.5
31
0
0
ARC
8
Outside Cut
10
1075.0
20
2725.5
30
0
40
5.0
50
0.0
51
90.0
0
ARC
8
Outside Cut
10
1085.0
20
2725.5
30
0
40
5.0
50
180.0
51
360.0
0
LINE
8
Outside Cut
10
1090.0
20
2750.0
30
0
11
1090.0
21
2725.5
31
0
0
LINE
8
Outside Cut
10
1120.5
20
2750.0
30
0
11
1090.0
21
2750.0
31
0
0
LINE
8
Outside Cut
10
1120.5
20
2750.0
30
0
11
1120.5
21
2565.0
31
0
0
ARC
8
Outside Cut
10
1115.5
20
2565.0
30
0
40
5.0
50
-90.0
51
0.0
0
ARC
8
Outside Cut
10
1115.5
20
2555.0
30
0
40
5.0
50
90.0
51
270.0
0
LINE
8
Outside Cut
10
1115.5
20
2550.0
30
0
11
1140.0
21
2550.0
31
0
0
LINE
8
Outside Cut
10
1140.0
20
2550.0
30
0
11
1140.0
21
2450.0
31
0
0
LINE
8
Outside Cut
10
1140.0
20
2450.0
30
0
11
1115.5
21
2450.0
31
0
0
ARC
8
Outside Cut
10
1115.5
20
2445.0
30
0
40
5.0
50
90.0
51
270.0
0
ARC
8
Outside Cut
10
1115.5
20
2435.0
30
0
40
5.0
50
0.0
51
90.0
0
LINE
8
Outside Cut
10
1120.5
20
2435.0
30
0
11
1120.5
21
2350.0
31
0
0
LINE
8
Outside Cut
10
1120.5
20
2350.0
30
0
11
19.5
21
2350.0
31
0
0
CIRCLE
8
Dowel Holes
10
9.75
20
2500.0
30
0
40
2.5
0
CIRCLE
8
Dowel Holes
10
1130.25
20
2500.0
30
0
40
2.5
0
ENDSEC
0
EOF
