0
SECTION
2
ENTITIES
0
LINE
8
Outside Cut
10
0.0
20
-50.0
30
0
11
100.0
21
-50.0
31
0
0
LINE
8
Outside Cut
10
100.0
20
-50.0
30
0
11
100.0
21
-74.5
31
0
0
ARC
8
Outside Cut
10
105.0
20
-74.5
30
0
40
5.0
50
180.0
51
360.0
0
ARC
8
Outside Cut
10
115.0
20
-74.5
30
0
40
5.0
50
90.0
51
180.0
0
LINE
8
Outside Cut
10
115.0
20
-69.5
30
0
11
1015.0
21
-69.5
31
0
0
ARC
8
Outside Cut
10
1015.0
20
-74.5
30
0
40
5.0
50
0.0
51
90.0
0
ARC
8
Outside Cut
10
1025.0
20
-74.5
30
0
40
5.0
50
180.0
51
360.0
0
LINE
8
Outside Cut
10
1030.0
20
-74.5
30
0
11
1030.0
21
-50.0
31
0
0
LINE
8
Outside Cut
10
1030.0
20
-50.0
30
0
11
1130.0
21
-50.0
31
0
0
LINE
8
Outside Cut
10
1130.0
20
-50.0
30
0
11
1130.0
21
-150.0
31
0
0
LINE
8
Outside Cut
10
1130.0
20
-150.0
30
0
11
1105.5
21
-150.0
31
0
0
ARC
8
Outside Cut
10
1105.5
20
-155.0
30
0
40
5.0
50
90.0
51
270.0
0
ARC
8
Outside Cut
10
1105.5
20
-165.0
30
0
40
5.0
50
0.0
51
90.0
0
LINE
8
Outside Cut
10
1110.5
20
-165.0
30
0
11
1110.5
21
-335.0
31
0
0
ARC
8
Outside Cut
10
1105.5
20
-335.0
30
0
40
5.0
50
-90.0
51
0.0
0
ARC
8
Outside Cut
10
1105.5
20
-345.0
30
0
40
5.0
50
90.0
51
270.0
0
LINE
8
Outside Cut
10
1105.5
20
-350.0
30
0
11
1130.0
21
-350.0
31
0
0
LINE
8
Outside Cut
10
1130.0
20
-350.0
30
0
11
1130.0
21
-450.0
31
0
0
LINE
8
Outside Cut
10
1130.0
20
-450.0
30
0
11
0.0
21
-450.0
31
0
0
LINE
8
Outside Cut
10
0.0
20
-450.0
30
0
11
0.0
21
-350.0
31
0
0
LINE
8
Outside Cut
10
0.0
20
-350.0
30
0
11
24.5
21
-350.0
31
0
0
ARC
8
Outside Cut
10
24.5
20
-345.0
30
0
40
5.0
50
-90.0
51
90.0
0
ARC
8
Outside Cut
10
24.5
20
-335.0
30
0
40
5.0
50
180.0
51
270.0
0
LINE
8
Outside Cut
10
19.5
20
-335.0
30
0
11
19.5
21
-165.0
31
0
0
ARC
8
Outside Cut
10
24.5
20
-165.0
30
0
40
5.0
50
90.0
51
180.0
0
ARC
8
Outside Cut
10
24.5
20
-155.0
30
0
40
5.0
50
-90.0
51
90.0
0
LINE
8
Outside Cut
10
24.5
20
-150.0
30
0
11
0.0
21
-150.0
31
0
0
LINE
8
Outside Cut
10
0.0
20
-150.0
30
0
11
0.0
21
-50.0
31
0
0
LINE
8
Pocket Cut
10
80.73333
20
-100.0
30
0
11
103.73333
21
-100.0
31
0
0
ARC
8
Pocket Cut
10
103.73333
20
-105.0
30
0
40
5.0
50
-90.0
51
90.0
0
ARC
8
Pocket Cut
10
103.73333
20
-115.0
30
0
40
5.0
50
90.0
51
180.0
0
LINE
8
Pocket Cut
10
98.73333
20
-115.0
30
0
11
98.73333
21
-385.0
31
0
0
ARC
8
Pocket Cut
10
103.73333
20
-385.0
30
0
40
5.0
50
180.0
51
270.0
0
ARC
8
Pocket Cut
10
103.73333
20
-395.0
30
0
40
5.0
50
-90.0
51
90.0
0
LINE
8
Pocket Cut
10
103.73333
20
-400.0
30
0
11
80.73333
21
-400.0
31
0
0
ARC
8
Pocket Cut
10
80.73333
20
-395.0
30
0
40
5.0
50
90.0
51
270.0
0
ARC
8
Pocket Cut
10
80.73333
20
-385.0
30
0
40
5.0
50
-90.0
51
0.0
0
LINE
8
Pocket Cut
10
85.73333
20
-115.0
30
0
11
85.73333
21
-385.0
31
0
0
ARC
8
Pocket Cut
10
80.73333
20
-115.0
30
0
40
5.0
50
0.0
51
90.0
0
ARC
8
Pocket Cut
10
80.73333
20
-105.0
30
0
40
5.0
50
90.0
51
270.0
0
LINE
8
Pocket Cut
10
226.19998
20
-100.0
30
0
11
249.19998
21
-100.0
31
0
0
ARC
8
Pocket Cut
10
249.19998
20
-105.0
30
0
40
5.0
50
-90.0
51
90.0
0
ARC
8
Pocket Cut
10
249.19998
20
-115.0
30
0
40
5.0
50
90.0
51
180.0
0
LINE
8
Pocket Cut
10
244.19998
20
-115.0
30
0
11
244.19998
21
-385.0
31
0
0
ARC
8
Pocket Cut
10
249.19998
20
-385.0
30
0
40
5.0
50
180.0
51
270.0
0
ARC
8
Pocket Cut
10
249.19998
20
-395.0
30
0
40
5.0
50
-90.0
51
90.0
0
LINE
8
Pocket Cut
10
249.19998
20
-400.0
30
0
11
226.19998
21
-400.0
31
0
0
ARC
8
Pocket Cut
10
226.19998
20
-395.0
30
0
40
5.0
50
90.0
51
270.0
0
ARC
8
Pocket Cut
10
226.19998
20
-385.0
30
0
40
5.0
50
-90.0
51
0.0
0
LINE
8
Pocket Cut
10
231.19998
20
-115.0
30
0
11
231.19998
21
-385.0
31
0
0
ARC
8
Pocket Cut
10
226.19998
20
-115.0
30
0
40
5.0
50
0.0
51
90.0
0
ARC
8
Pocket Cut
10
226.19998
20
-105.0
30
0
40
5.0
50
90.0
51
270.0
0
LINE
8
Pocket Cut
10
444.39996
20
-100.0
30
0
11
467.39996
21
-100.0
31
0
0
ARC
8
Pocket Cut
10
467.39996
20
-105.0
30
0
40
5.0
50
-90.0
51
90.0
0
ARC
8
Pocket Cut
10
467.39996
20
-115.0
30
0
40
5.0
50
90.0
51
180.0
0
LINE
8
Pocket Cut
10
462.39996
20
-115.0
30
0
11
462.39996
21
-385.0
31
0
0
ARC
8
Pocket Cut
10
467.39996
20
-385.0
30
0
40
5.0
50
180.0
51
270.0
0
ARC
8
Pocket Cut
10
467.39996
20
-395.0
30
0
40
5.0
50
-90.0
51
90.0
0
LINE
8
Pocket Cut
10
467.39996
20
-400.0
30
0
11
444.39996
21
-400.0
31
0
0
ARC
8
Pocket Cut
10
444.39996
20
-395.0
30
0
40
5.0
50
90.0
51
270.0
0
ARC
8
Pocket Cut
10
444.39996
20
-385.0
30
0
40
5.0
50
-90.0
51
0.0
0
LINE
8
Pocket Cut
10
449.39996
20
-115.0
30
0
11
449.39996
21
-385.0
31
0
0
ARC
8
Pocket Cut
10
444.39996
20
-115.0
30
0
40
5.0
50
0.0
51
90.0
0
ARC
8
Pocket Cut
10
444.39996
20
-105.0
30
0
40
5.0
50
90.0
51
270.0
0
LINE
8
Pocket Cut
10
735.3333
20
-100.0
30
0
11
758.3333
21
-100.0
31
0
0
ARC
8
Pocket Cut
10
758.3333
20
-105.0
30
0
40
5.0
50
-90.0
51
90.0
0
ARC
8
Pocket Cut
10
758.3333
20
-115.0
30
0
40
5.0
50
90.0
51
180.0
0
LINE
8
Pocket Cut
10
753.3333
20
-115.0
30
0
11
753.3333
21
-385.0
31
0
0
ARC
8
Pocket Cut
10
758.3333
20
-385.0
30
0
40
5.0
50
180.0
51
270.0
0
ARC
8
Pocket Cut
10
758.3333
20
-395.0
30
0
40
5.0
50
-90.0
51
90.0
0
LINE
8
Pocket Cut
10
758.3333
20
-400.0
30
0
11
735.3333
21
-400.0
31
0
0
ARC
8
Pocket Cut
10
735.3333
20
-395.0
30
0
40
5.0
50
90.0
51
270.0
0
ARC
8
Pocket Cut
10
735.3333
20
-385.0
30
0
40
5.0
50
-90.0
51
0.0
0
LINE
8
Pocket Cut
10
740.3333
20
-115.0
30
0
11
740.3333
21
-385.0
31
0
0
ARC
8
Pocket Cut
10
735.3333
20
-115.0
30
0
40
5.0
50
0.0
51
90.0
0
ARC
8
Pocket Cut
10
735.3333
20
-105.0
30
0
40
5.0
50
90.0
51
270.0
0
CIRCLE
8
Dowel Holes
10
9.75
20
-400.0
30
0
40
2.5
0
CIRCLE
8
Dowel Holes
10
9.75
20
-100.0
30
0
40
2.5
0
CIRCLE
8
Dowel Holes
10
50.0
20
-59.75
30
0
40
2.5
0
CIRCLE
8
Dowel Holes
10
1120.25
20
-400.0
30
0
40
2.5
0
CIRCLE
8
Dowel Holes
10
1120.25
20
-100.0
30
0
40
2.5
0
CIRCLE
8
Dowel Holes
10
1080.0
20
-59.75
30
0
40
2.5
0
LINE
8
Outside Cut
10
19.5
20
-509.75
30
0
11
1110.5
21
-509.75
31
0
0
LINE
8
Outside Cut
10
1110.5
20
-509.75
30
0
11
1110.5
21
-535.0
31
0
0
ARC
8
Outside Cut
10
1105.5
20
-535.0
30
0
40
5.0
50
-90.0
51
0.0
0
ARC
8
Outside Cut
10
1105.5
20
-545.0
30
0
40
5.0
50
90.0
51
270.0
0
LINE
8
Outside Cut
10
1105.5
20
-550.0
30
0
11
1120.25
21
-550.0
31
0
0
LINE
8
Outside Cut
10
1120.25
20
-550.0
30
0
11
1120.25
21
-850.0
31
0
0
LINE
8
Outside Cut
10
1120.25
20
-850.0
30
0
11
1105.5
21
-850.0
31
0
0
ARC
8
Outside Cut
10
1105.5
20
-855.0
30
0
40
5.0
50
90.0
51
270.0
0
ARC
8
Outside Cut
10
1105.5
20
-865.0
30
0
40
5.0
50
0.0
51
90.0
0
LINE
8
Outside Cut
10
1110.5
20
-865.0
30
0
11
1110.5
21
-880.5
31
0
0
LINE
8
Outside Cut
10
1110.5
20
-880.5
30
0
11
1095.0
21
-880.5
31
0
0
ARC
8
Outside Cut
10
1095.0
20
-875.5
30
0
40
5.0
50
180.0
51
270.0
0
ARC
8
Outside Cut
10
1085.0
20
-875.5
30
0
40
5.0
50
0.0
51
180.0
0
LINE
8
Outside Cut
10
1080.0
20
-875.5
30
0
11
1080.0
21
-890.25
31
0
0
LINE
8
Outside Cut
10
50.0
20
-890.25
30
0
11
85.73333
21
-890.25
31
0
0
LINE
8
Outside Cut
10
753.3333
20
-890.25
30
0
11
1080.0
21
-890.25
31
0
0
LINE
8
Outside Cut
10
85.73333
20
-715.0
30
0
11
85.73333
21
-890.25
31
0
0
LINE
8
Outside Cut
10
98.73333
20
-715.0
30
0
11
98.73333
21
-890.25
31
0
0
LINE
8
Outside Cut
10
80.73333
20
-700.0
30
0
11
103.73333
21
-700.0
31
0
0
ARC
8
Outside Cut
10
80.73333
20
-705.0
30
0
40
5.0
50
90.0
51
270.0
0
ARC
8
Outside Cut
10
80.73333
20
-715.0
30
0
40
5.0
50
0.0
51
90.0
0
ARC
8
Outside Cut
10
103.73333
20
-705.0
30
0
40
5.0
50
-90.0
51
90.0
0
ARC
8
Outside Cut
10
103.73333
20
-715.0
30
0
40
5.0
50
90.0
51
180.0
0
LINE
8
Outside Cut
10
98.73333
20
-890.25
30
0
11
231.19998
21
-890.25
31
0
0
LINE
8
Outside Cut
10
231.19998
20
-715.0
30
0
11
231.19998
21
-890.25
31
0
0
LINE
8
Outside Cut
10
244.19998
20
-715.0
30
0
11
244.19998
21
-890.25
31
0
0
LINE
8
Outside Cut
10
226.19998
20
-700.0
30
0
11
249.19998
21
-700.0
31
0
0
ARC
8
Outside Cut
10
226.19998
20
-705.0
30
0
40
5.0
50
90.0
51
270.0
0
ARC
8
Outside Cut
10
226.19998
20
-715.0
30
0
40
5.0
50
0.0
51
90.0
0
ARC
8
Outside Cut
10
249.19998
20
-705.0
30
0
40
5.0
50
-90.0
51
90.0
0
ARC
8
Outside Cut
10
249.19998
20
-715.0
30
0
40
5.0
50
90.0
51
180.0
0
LINE
8
Outside Cut
10
244.19998
20
-890.25
30
0
11
449.39996
21
-890.25
31
0
0
LINE
8
Outside Cut
10
449.39996
20
-715.0
30
0
11
449.39996
21
-890.25
31
0
0
LINE
8
Outside Cut
10
462.39996
20
-715.0
30
0
11
462.39996
21
-890.25
31
0
0
LINE
8
Outside Cut
10
444.39996
20
-700.0
30
0
11
467.39996
21
-700.0
31
0
0
ARC
8
Outside Cut
10
444.39996
20
-705.0
30
0
40
5.0
50
90.0
51
270.0
0
ARC
8
Outside Cut
10
444.39996
20
-715.0
30
0
40
5.0
50
0.0
51
90.0
0
ARC
8
Outside Cut
10
467.39996
20
-705.0
30
0
40
5.0
50
-90.0
51
90.0
0
ARC
8
Outside Cut
10
467.39996
20
-715.0
30
0
40
5.0
50
90.0
51
180.0
0
LINE
8
Outside Cut
10
462.39996
20
-890.25
30
0
11
740.3333
21
-890.25
31
0
0
LINE
8
Outside Cut
10
740.3333
20
-715.0
30
0
11
740.3333
21
-890.25
31
0
0
LINE
8
Outside Cut
10
753.3333
20
-715.0
30
0
11
753.3333
21
-890.25
31
0
0
LINE
8
Outside Cut
10
735.3333
20
-700.0
30
0
11
758.3333
21
-700.0
31
0
0
ARC
8
Outside Cut
10
735.3333
20
-705.0
30
0
40
5.0
50
90.0
51
270.0
0
ARC
8
Outside Cut
10
735.3333
20
-715.0
30
0
40
5.0
50
0.0
51
90.0
0
ARC
8
Outside Cut
10
758.3333
20
-705.0
30
0
40
5.0
50
-90.0
51
90.0
0
ARC
8
Outside Cut
10
758.3333
20
-715.0
30
0
40
5.0
50
90.0
51
180.0
0
LINE
8
Outside Cut
10
19.5
20
-880.5
30
0
11
35.0
21
-880.5
31
0
0
ARC
8
Outside Cut
10
35.0
20
-875.5
30
0
40
5.0
50
-90.0
51
0.0
0
ARC
8
Outside Cut
10
45.0
20
-875.5
30
0
40
5.0
50
0.0
51
180.0
0
LINE
8
Outside Cut
10
50.0
20
-875.5
30
0
11
50.0
21
-890.25
31
0
0
LINE
8
Outside Cut
10
19.5
20
-509.75
30
0
11
19.5
21
-535.0
31
0
0
ARC
8
Outside Cut
10
24.5
20
-535.0
30
0
40
5.0
50
180.0
51
270.0
0
ARC
8
Outside Cut
10
24.5
20
-545.0
30
0
40
5.0
50
-90.0
51
90.0
0
LINE
8
Outside Cut
10
24.5
20
-550.0
30
0
11
9.75
21
-550.0
31
0
0
LINE
8
Outside Cut
10
9.75
20
-550.0
30
0
11
9.75
21
-850.0
31
0
0
LINE
8
Outside Cut
10
9.75
20
-850.0
30
0
11
24.5
21
-850.0
31
0
0
ARC
8
Outside Cut
10
24.5
20
-855.0
30
0
40
5.0
50
-90.0
51
90.0
0
ARC
8
Outside Cut
10
24.5
20
-865.0
30
0
40
5.0
50
90.0
51
180.0
0
LINE
8
Outside Cut
10
19.5
20
-865.0
30
0
11
19.5
21
-880.5
31
0
0
LINE
8
Outside Cut
10
19.5
20
-1009.75
30
0
11
1110.5
21
-1009.75
31
0
0
LINE
8
Outside Cut
10
1110.5
20
-1009.75
30
0
11
1110.5
21
-1035.0
31
0
0
ARC
8
Outside Cut
10
1105.5
20
-1035.0
30
0
40
5.0
50
-90.0
51
0.0
0
ARC
8
Outside Cut
10
1105.5
20
-1045.0
30
0
40
5.0
50
90.0
51
270.0
0
LINE
8
Outside Cut
10
1105.5
20
-1050.0
30
0
11
1120.25
21
-1050.0
31
0
0
LINE
8
Outside Cut
10
1120.25
20
-1050.0
30
0
11
1120.25
21
-1350.0
31
0
0
LINE
8
Outside Cut
10
1120.25
20
-1350.0
30
0
11
1105.5
21
-1350.0
31
0
0
ARC
8
Outside Cut
10
1105.5
20
-1355.0
30
0
40
5.0
50
90.0
51
270.0
0
ARC
8
Outside Cut
10
1105.5
20
-1365.0
30
0
40
5.0
50
0.0
51
90.0
0
LINE
8
Outside Cut
10
1110.5
20
-1365.0
30
0
11
1110.5
21
-1380.5
31
0
0
LINE
8
Outside Cut
10
1110.5
20
-1380.5
30
0
11
1095.0
21
-1380.5
31
0
0
ARC
8
Outside Cut
10
1095.0
20
-1375.5
30
0
40
5.0
50
180.0
51
270.0
0
ARC
8
Outside Cut
10
1085.0
20
-1375.5
30
0
40
5.0
50
0.0
51
180.0
0
LINE
8
Outside Cut
10
1080.0
20
-1375.5
30
0
11
1080.0
21
-1390.25
31
0
0
LINE
8
Outside Cut
10
50.0
20
-1390.25
30
0
11
85.73333
21
-1390.25
31
0
0
LINE
8
Outside Cut
10
753.3333
20
-1390.25
30
0
11
1080.0
21
-1390.25
31
0
0
LINE
8
Outside Cut
10
85.73333
20
-1215.0
30
0
11
85.73333
21
-1390.25
31
0
0
LINE
8
Outside Cut
10
98.73333
20
-1215.0
30
0
11
98.73333
21
-1390.25
31
0
0
LINE
8
Outside Cut
10
80.73333
20
-1200.0
30
0
11
103.73333
21
-1200.0
31
0
0
ARC
8
Outside Cut
10
80.73333
20
-1205.0
30
0
40
5.0
50
90.0
51
270.0
0
ARC
8
Outside Cut
10
80.73333
20
-1215.0
30
0
40
5.0
50
0.0
51
90.0
0
ARC
8
Outside Cut
10
103.73333
20
-1205.0
30
0
40
5.0
50
-90.0
51
90.0
0
ARC
8
Outside Cut
10
103.73333
20
-1215.0
30
0
40
5.0
50
90.0
51
180.0
0
LINE
8
Outside Cut
10
98.73333
20
-1390.25
30
0
11
231.19998
21
-1390.25
31
0
0
LINE
8
Outside Cut
10
231.19998
20
-1215.0
30
0
11
231.19998
21
-1390.25
31
0
0
LINE
8
Outside Cut
10
244.19998
20
-1215.0
30
0
11
244.19998
21
-1390.25
31
0
0
LINE
8
Outside Cut
10
226.19998
20
-1200.0
30
0
11
249.19998
21
-1200.0
31
0
0
ARC
8
Outside Cut
10
226.19998
20
-1205.0
30
0
40
5.0
50
90.0
51
270.0
0
ARC
8
Outside Cut
10
226.19998
20
-1215.0
30
0
40
5.0
50
0.0
51
90.0
0
ARC
8
Outside Cut
10
249.19998
20
-1205.0
30
0
40
5.0
50
-90.0
51
90.0
0
ARC
8
Outside Cut
10
249.19998
20
-1215.0
30
0
40
5.0
50
90.0
51
180.0
0
LINE
8
Outside Cut
10
244.19998
20
-1390.25
30
0
11
449.39996
21
-1390.25
31
0
0
LINE
8
Outside Cut
10
449.39996
20
-1215.0
30
0
11
449.39996
21
-1390.25
31
0
0
LINE
8
Outside Cut
10
462.39996
20
-1215.0
30
0
11
462.39996
21
-1390.25
31
0
0
LINE
8
Outside Cut
10
444.39996
20
-1200.0
30
0
11
467.39996
21
-1200.0
31
0
0
ARC
8
Outside Cut
10
444.39996
20
-1205.0
30
0
40
5.0
50
90.0
51
270.0
0
ARC
8
Outside Cut
10
444.39996
20
-1215.0
30
0
40
5.0
50
0.0
51
90.0
0
ARC
8
Outside Cut
10
467.39996
20
-1205.0
30
0
40
5.0
50
-90.0
51
90.0
0
ARC
8
Outside Cut
10
467.39996
20
-1215.0
30
0
40
5.0
50
90.0
51
180.0
0
LINE
8
Outside Cut
10
462.39996
20
-1390.25
30
0
11
740.3333
21
-1390.25
31
0
0
LINE
8
Outside Cut
10
740.3333
20
-1215.0
30
0
11
740.3333
21
-1390.25
31
0
0
LINE
8
Outside Cut
10
753.3333
20
-1215.0
30
0
11
753.3333
21
-1390.25
31
0
0
LINE
8
Outside Cut
10
735.3333
20
-1200.0
30
0
11
758.3333
21
-1200.0
31
0
0
ARC
8
Outside Cut
10
735.3333
20
-1205.0
30
0
40
5.0
50
90.0
51
270.0
0
ARC
8
Outside Cut
10
735.3333
20
-1215.0
30
0
40
5.0
50
0.0
51
90.0
0
ARC
8
Outside Cut
10
758.3333
20
-1205.0
30
0
40
5.0
50
-90.0
51
90.0
0
ARC
8
Outside Cut
10
758.3333
20
-1215.0
30
0
40
5.0
50
90.0
51
180.0
0
LINE
8
Outside Cut
10
19.5
20
-1380.5
30
0
11
35.0
21
-1380.5
31
0
0
ARC
8
Outside Cut
10
35.0
20
-1375.5
30
0
40
5.0
50
-90.0
51
0.0
0
ARC
8
Outside Cut
10
45.0
20
-1375.5
30
0
40
5.0
50
0.0
51
180.0
0
LINE
8
Outside Cut
10
50.0
20
-1375.5
30
0
11
50.0
21
-1390.25
31
0
0
LINE
8
Outside Cut
10
19.5
20
-1009.75
30
0
11
19.5
21
-1035.0
31
0
0
ARC
8
Outside Cut
10
24.5
20
-1035.0
30
0
40
5.0
50
180.0
51
270.0
0
ARC
8
Outside Cut
10
24.5
20
-1045.0
30
0
40
5.0
50
-90.0
51
90.0
0
LINE
8
Outside Cut
10
24.5
20
-1050.0
30
0
11
9.75
21
-1050.0
31
0
0
LINE
8
Outside Cut
10
9.75
20
-1050.0
30
0
11
9.75
21
-1350.0
31
0
0
LINE
8
Outside Cut
10
9.75
20
-1350.0
30
0
11
24.5
21
-1350.0
31
0
0
ARC
8
Outside Cut
10
24.5
20
-1355.0
30
0
40
5.0
50
-90.0
51
90.0
0
ARC
8
Outside Cut
10
24.5
20
-1365.0
30
0
40
5.0
50
90.0
51
180.0
0
LINE
8
Outside Cut
10
19.5
20
-1365.0
30
0
11
19.5
21
-1380.5
31
0
0
LINE
8
Outside Cut
10
-890.25
20
820.5
30
0
11
-865.0
21
820.5
31
0
0
ARC
8
Outside Cut
10
-865.0
20
815.5
30
0
40
5.0
50
0.0
51
90.0
0
ARC
8
Outside Cut
10
-855.0
20
815.5
30
0
40
5.0
50
180.0
51
360.0
0
LINE
8
Outside Cut
10
-850.0
20
815.5
30
0
11
-850.0
21
830.25
31
0
0
LINE
8
Outside Cut
10
-850.0
20
830.25
30
0
11
-550.0
21
830.25
31
0
0
LINE
8
Outside Cut
10
-550.0
20
830.25
30
0
11
-550.0
21
815.5
31
0
0
ARC
8
Outside Cut
10
-545.0
20
815.5
30
0
40
5.0
50
180.0
51
360.0
0
ARC
8
Outside Cut
10
-535.0
20
815.5
30
0
40
5.0
50
90.0
51
180.0
0
LINE
8
Outside Cut
10
-535.0
20
820.5
30
0
11
-519.5
21
820.5
31
0
0
LINE
8
Outside Cut
10
-519.5
20
820.5
30
0
11
-519.5
21
785.5
31
0
0
ARC
8
Outside Cut
10
-524.5
20
785.5
30
0
40
5.0
50
-90.0
51
0.0
0
ARC
8
Outside Cut
10
-524.5
20
775.5
30
0
40
5.0
50
90.0
51
270.0
0
LINE
8
Outside Cut
10
-524.5
20
770.5
30
0
11
-509.75
21
770.5
31
0
0
LINE
8
Outside Cut
10
-509.75
20
770.5
30
0
11
-509.75
21
50.0
31
0
0
LINE
8
Outside Cut
10
-509.75
20
50.0
30
0
11
-524.5
21
50.0
31
0
0
ARC
8
Outside Cut
10
-524.5
20
45.0
30
0
40
5.0
50
90.0
51
270.0
0
ARC
8
Outside Cut
10
-524.5
20
35.0
30
0
40
5.0
50
0.0
51
90.0
0
LINE
8
Outside Cut
10
-519.5
20
35.0
30
0
11
-519.5
21
19.5
31
0
0
LINE
8
Outside Cut
10
-519.5
20
19.5
30
0
11
-535.0
21
19.5
31
0
0
ARC
8
Outside Cut
10
-535.0
20
24.5
30
0
40
5.0
50
180.0
51
270.0
0
ARC
8
Outside Cut
10
-545.0
20
24.5
30
0
40
5.0
50
0.0
51
180.0
0
LINE
8
Outside Cut
10
-550.0
20
24.5
30
0
11
-550.0
21
9.75
31
0
0
LINE
8
Outside Cut
10
-550.0
20
9.75
30
0
11
-850.0
21
9.75
31
0
0
LINE
8
Outside Cut
10
-850.0
20
9.75
30
0
11
-850.0
21
24.5
31
0
0
ARC
8
Outside Cut
10
-855.0
20
24.5
30
0
40
5.0
50
0.0
51
180.0
0
ARC
8
Outside Cut
10
-865.0
20
24.5
30
0
40
5.0
50
-90.0
51
0.0
0
LINE
8
Outside Cut
10
-865.0
20
19.5
30
0
11
-890.25
21
19.5
31
0
0
LINE
8
Outside Cut
10
-890.25
20
680.5
30
0
11
-715.0
21
680.5
31
0
0
LINE
8
Outside Cut
10
-890.25
20
693.5
30
0
11
-715.0
21
693.5
31
0
0
LINE
8
Outside Cut
10
-700.0
20
675.5
30
0
11
-700.0
21
698.5
31
0
0
ARC
8
Outside Cut
10
-705.0
20
675.5
30
0
40
5.0
50
180.0
51
360.0
0
ARC
8
Outside Cut
10
-715.0
20
675.5
30
0
40
5.0
50
0.0
51
90.0
0
ARC
8
Outside Cut
10
-705.0
20
698.5
30
0
40
5.0
50
0.0
51
180.0
0
ARC
8
Outside Cut
10
-715.0
20
698.5
30
0
40
5.0
50
-90.0
51
0.0
0
LINE
8
Outside Cut
10
-890.25
20
680.5
30
0
11
-890.25
21
426.5
31
0
0
LINE
8
Outside Cut
10
-890.25
20
413.5
30
0
11
-715.0
21
413.5
31
0
0
LINE
8
Outside Cut
10
-890.25
20
426.5
30
0
11
-715.0
21
426.5
31
0
0
LINE
8
Outside Cut
10
-700.0
20
408.5
30
0
11
-700.0
21
431.5
31
0
0
ARC
8
Outside Cut
10
-705.0
20
408.5
30
0
40
5.0
50
180.0
51
360.0
0
ARC
8
Outside Cut
10
-715.0
20
408.5
30
0
40
5.0
50
0.0
51
90.0
0
ARC
8
Outside Cut
10
-705.0
20
431.5
30
0
40
5.0
50
0.0
51
180.0
0
ARC
8
Outside Cut
10
-715.0
20
431.5
30
0
40
5.0
50
-90.0
51
0.0
0
LINE
8
Outside Cut
10
-890.25
20
820.5
30
0
11
-890.25
21
693.5
31
0
0
LINE
8
Outside Cut
10
-890.25
20
413.5
30
0
11
-890.25
21
19.5
31
0
0
LINE
8
Outside Cut
10
-1340.25
20
820.5
30
0
11
-1315.0
21
820.5
31
0
0
ARC
8
Outside Cut
10
-1315.0
20
815.5
30
0
40
5.0
50
0.0
51
90.0
0
ARC
8
Outside Cut
10
-1305.0
20
815.5
30
0
40
5.0
50
180.0
51
360.0
0
LINE
8
Outside Cut
10
-1300.0
20
815.5
30
0
11
-1300.0
21
830.25
31
0
0
LINE
8
Outside Cut
10
-1300.0
20
830.25
30
0
11
-1000.0
21
830.25
31
0
0
LINE
8
Outside Cut
10
-1000.0
20
830.25
30
0
11
-1000.0
21
815.5
31
0
0
ARC
8
Outside Cut
10
-995.0
20
815.5
30
0
40
5.0
50
180.0
51
360.0
0
ARC
8
Outside Cut
10
-985.0
20
815.5
30
0
40
5.0
50
90.0
51
180.0
0
LINE
8
Outside Cut
10
-985.0
20
820.5
30
0
11
-969.5
21
820.5
31
0
0
LINE
8
Outside Cut
10
-969.5
20
820.5
30
0
11
-969.5
21
785.5
31
0
0
ARC
8
Outside Cut
10
-974.5
20
785.5
30
0
40
5.0
50
-90.0
51
0.0
0
ARC
8
Outside Cut
10
-974.5
20
775.5
30
0
40
5.0
50
90.0
51
270.0
0
LINE
8
Outside Cut
10
-974.5
20
770.5
30
0
11
-959.75
21
770.5
31
0
0
LINE
8
Outside Cut
10
-959.75
20
770.5
30
0
11
-959.75
21
50.0
31
0
0
LINE
8
Outside Cut
10
-959.75
20
50.0
30
0
11
-974.5
21
50.0
31
0
0
ARC
8
Outside Cut
10
-974.5
20
45.0
30
0
40
5.0
50
90.0
51
270.0
0
ARC
8
Outside Cut
10
-974.5
20
35.0
30
0
40
5.0
50
0.0
51
90.0
0
LINE
8
Outside Cut
10
-969.5
20
35.0
30
0
11
-969.5
21
19.5
31
0
0
LINE
8
Outside Cut
10
-969.5
20
19.5
30
0
11
-985.0
21
19.5
31
0
0
ARC
8
Outside Cut
10
-985.0
20
24.5
30
0
40
5.0
50
180.0
51
270.0
0
ARC
8
Outside Cut
10
-995.0
20
24.5
30
0
40
5.0
50
0.0
51
180.0
0
LINE
8
Outside Cut
10
-1000.0
20
24.5
30
0
11
-1000.0
21
9.75
31
0
0
LINE
8
Outside Cut
10
-1000.0
20
9.75
30
0
11
-1300.0
21
9.75
31
0
0
LINE
8
Outside Cut
10
-1300.0
20
9.75
30
0
11
-1300.0
21
24.5
31
0
0
ARC
8
Outside Cut
10
-1305.0
20
24.5
30
0
40
5.0
50
0.0
51
180.0
0
ARC
8
Outside Cut
10
-1315.0
20
24.5
30
0
40
5.0
50
-90.0
51
0.0
0
LINE
8
Outside Cut
10
-1315.0
20
19.5
30
0
11
-1340.25
21
19.5
31
0
0
LINE
8
Outside Cut
10
-1340.25
20
680.5
30
0
11
-1165.0
21
680.5
31
0
0
LINE
8
Outside Cut
10
-1340.25
20
693.5
30
0
11
-1165.0
21
693.5
31
0
0
LINE
8
Outside Cut
10
-1150.0
20
675.5
30
0
11
-1150.0
21
698.5
31
0
0
ARC
8
Outside Cut
10
-1155.0
20
675.5
30
0
40
5.0
50
180.0
51
360.0
0
ARC
8
Outside Cut
10
-1165.0
20
675.5
30
0
40
5.0
50
0.0
51
90.0
0
ARC
8
Outside Cut
10
-1155.0
20
698.5
30
0
40
5.0
50
0.0
51
180.0
0
ARC
8
Outside Cut
10
-1165.0
20
698.5
30
0
40
5.0
50
-90.0
51
0.0
0
LINE
8
Outside Cut
10
-1340.25
20
680.5
30
0
11
-1340.25
21
426.5
31
0
0
LINE
8
Outside Cut
10
-1340.25
20
413.5
30
0
11
-1165.0
21
413.5
31
0
0
LINE
8
Outside Cut
10
-1340.25
20
426.5
30
0
11
-1165.0
21
426.5
31
0
0
LINE
8
Outside Cut
10
-1150.0
20
408.5
30
0
11
-1150.0
21
431.5
31
0
0
ARC
8
Outside Cut
10
-1155.0
20
408.5
30
0
40
5.0
50
180.0
51
360.0
0
ARC
8
Outside Cut
10
-1165.0
20
408.5
30
0
40
5.0
50
0.0
51
90.0
0
ARC
8
Outside Cut
10
-1155.0
20
431.5
30
0
40
5.0
50
0.0
51
180.0
0
ARC
8
Outside Cut
10
-1165.0
20
431.5
30
0
40
5.0
50
-90.0
51
0.0
0
LINE
8
Outside Cut
10
-1340.25
20
820.5
30
0
11
-1340.25
21
693.5
31
0
0
LINE
8
Outside Cut
10
-1340.25
20
413.5
30
0
11
-1340.25
21
19.5
31
0
0
LINE
8
Outside Cut
10
-1790.25
20
820.5
30
0
11
-1765.0
21
820.5
31
0
0
ARC
8
Outside Cut
10
-1765.0
20
815.5
30
0
40
5.0
50
0.0
51
90.0
0
ARC
8
Outside Cut
10
-1755.0
20
815.5
30
0
40
5.0
50
180.0
51
360.0
0
LINE
8
Outside Cut
10
-1750.0
20
815.5
30
0
11
-1750.0
21
830.25
31
0
0
LINE
8
Outside Cut
10
-1750.0
20
830.25
30
0
11
-1450.0
21
830.25
31
0
0
LINE
8
Outside Cut
10
-1450.0
20
830.25
30
0
11
-1450.0
21
815.5
31
0
0
ARC
8
Outside Cut
10
-1445.0
20
815.5
30
0
40
5.0
50
180.0
51
360.0
0
ARC
8
Outside Cut
10
-1435.0
20
815.5
30
0
40
5.0
50
90.0
51
180.0
0
LINE
8
Outside Cut
10
-1435.0
20
820.5
30
0
11
-1419.5
21
820.5
31
0
0
LINE
8
Outside Cut
10
-1419.5
20
820.5
30
0
11
-1419.5
21
785.5
31
0
0
ARC
8
Outside Cut
10
-1424.5
20
785.5
30
0
40
5.0
50
-90.0
51
0.0
0
ARC
8
Outside Cut
10
-1424.5
20
775.5
30
0
40
5.0
50
90.0
51
270.0
0
LINE
8
Outside Cut
10
-1424.5
20
770.5
30
0
11
-1409.75
21
770.5
31
0
0
LINE
8
Outside Cut
10
-1409.75
20
770.5
30
0
11
-1409.75
21
50.0
31
0
0
LINE
8
Outside Cut
10
-1409.75
20
50.0
30
0
11
-1424.5
21
50.0
31
0
0
ARC
8
Outside Cut
10
-1424.5
20
45.0
30
0
40
5.0
50
90.0
51
270.0
0
ARC
8
Outside Cut
10
-1424.5
20
35.0
30
0
40
5.0
50
0.0
51
90.0
0
LINE
8
Outside Cut
10
-1419.5
20
35.0
30
0
11
-1419.5
21
19.5
31
0
0
LINE
8
Outside Cut
10
-1419.5
20
19.5
30
0
11
-1435.0
21
19.5
31
0
0
ARC
8
Outside Cut
10
-1435.0
20
24.5
30
0
40
5.0
50
180.0
51
270.0
0
ARC
8
Outside Cut
10
-1445.0
20
24.5
30
0
40
5.0
50
0.0
51
180.0
0
LINE
8
Outside Cut
10
-1450.0
20
24.5
30
0
11
-1450.0
21
9.75
31
0
0
LINE
8
Outside Cut
10
-1450.0
20
9.75
30
0
11
-1750.0
21
9.75
31
0
0
LINE
8
Outside Cut
10
-1750.0
20
9.75
30
0
11
-1750.0
21
24.5
31
0
0
ARC
8
Outside Cut
10
-1755.0
20
24.5
30
0
40
5.0
50
0.0
51
180.0
0
ARC
8
Outside Cut
10
-1765.0
20
24.5
30
0
40
5.0
50
-90.0
51
0.0
0
LINE
8
Outside Cut
10
-1765.0
20
19.5
30
0
11
-1790.25
21
19.5
31
0
0
LINE
8
Outside Cut
10
-1790.25
20
680.5
30
0
11
-1615.0
21
680.5
31
0
0
LINE
8
Outside Cut
10
-1790.25
20
693.5
30
0
11
-1615.0
21
693.5
31
0
0
LINE
8
Outside Cut
10
-1600.0
20
675.5
30
0
11
-1600.0
21
698.5
31
0
0
ARC
8
Outside Cut
10
-1605.0
20
675.5
30
0
40
5.0
50
180.0
51
360.0
0
ARC
8
Outside Cut
10
-1615.0
20
675.5
30
0
40
5.0
50
0.0
51
90.0
0
ARC
8
Outside Cut
10
-1605.0
20
698.5
30
0
40
5.0
50
0.0
51
180.0
0
ARC
8
Outside Cut
10
-1615.0
20
698.5
30
0
40
5.0
50
-90.0
51
0.0
0
LINE
8
Outside Cut
10
-1790.25
20
680.5
30
0
11
-1790.25
21
426.5
31
0
0
LINE
8
Outside Cut
10
-1790.25
20
413.5
30
0
11
-1615.0
21
413.5
31
0
0
LINE
8
Outside Cut
10
-1790.25
20
426.5
30
0
11
-1615.0
21
426.5
31
0
0
LINE
8
Outside Cut
10
-1600.0
20
408.5
30
0
11
-1600.0
21
431.5
31
0
0
ARC
8
Outside Cut
10
-1605.0
20
408.5
30
0
40
5.0
50
180.0
51
360.0
0
ARC
8
Outside Cut
10
-1615.0
20
408.5
30
0
40
5.0
50
0.0
51
90.0
0
ARC
8
Outside Cut
10
-1605.0
20
431.5
30
0
40
5.0
50
0.0
51
180.0
0
ARC
8
Outside Cut
10
-1615.0
20
431.5
30
0
40
5.0
50
-90.0
51
0.0
0
LINE
8
Outside Cut
10
-1790.25
20
820.5
30
0
11
-1790.25
21
693.5
31
0
0
LINE
8
Outside Cut
10
-1790.25
20
413.5
30
0
11
-1790.25
21
19.5
31
0
0
LINE
8
Outside Cut
10
-2240.25
20
820.5
30
0
11
-2215.0
21
820.5
31
0
0
ARC
8
Outside Cut
10
-2215.0
20
815.5
30
0
40
5.0
50
0.0
51
90.0
0
ARC
8
Outside Cut
10
-2205.0
20
815.5
30
0
40
5.0
50
180.0
51
360.0
0
LINE
8
Outside Cut
10
-2200.0
20
815.5
30
0
11
-2200.0
21
830.25
31
0
0
LINE
8
Outside Cut
10
-2200.0
20
830.25
30
0
11
-1900.0
21
830.25
31
0
0
LINE
8
Outside Cut
10
-1900.0
20
830.25
30
0
11
-1900.0
21
815.5
31
0
0
ARC
8
Outside Cut
10
-1895.0
20
815.5
30
0
40
5.0
50
180.0
51
360.0
0
ARC
8
Outside Cut
10
-1885.0
20
815.5
30
0
40
5.0
50
90.0
51
180.0
0
LINE
8
Outside Cut
10
-1885.0
20
820.5
30
0
11
-1869.5
21
820.5
31
0
0
LINE
8
Outside Cut
10
-1869.5
20
820.5
30
0
11
-1869.5
21
785.5
31
0
0
ARC
8
Outside Cut
10
-1874.5
20
785.5
30
0
40
5.0
50
-90.0
51
0.0
0
ARC
8
Outside Cut
10
-1874.5
20
775.5
30
0
40
5.0
50
90.0
51
270.0
0
LINE
8
Outside Cut
10
-1874.5
20
770.5
30
0
11
-1859.75
21
770.5
31
0
0
LINE
8
Outside Cut
10
-1859.75
20
770.5
30
0
11
-1859.75
21
50.0
31
0
0
LINE
8
Outside Cut
10
-1859.75
20
50.0
30
0
11
-1874.5
21
50.0
31
0
0
ARC
8
Outside Cut
10
-1874.5
20
45.0
30
0
40
5.0
50
90.0
51
270.0
0
ARC
8
Outside Cut
10
-1874.5
20
35.0
30
0
40
5.0
50
0.0
51
90.0
0
LINE
8
Outside Cut
10
-1869.5
20
35.0
30
0
11
-1869.5
21
19.5
31
0
0
LINE
8
Outside Cut
10
-1869.5
20
19.5
30
0
11
-1885.0
21
19.5
31
0
0
ARC
8
Outside Cut
10
-1885.0
20
24.5
30
0
40
5.0
50
180.0
51
270.0
0
ARC
8
Outside Cut
10
-1895.0
20
24.5
30
0
40
5.0
50
0.0
51
180.0
0
LINE
8
Outside Cut
10
-1900.0
20
24.5
30
0
11
-1900.0
21
9.75
31
0
0
LINE
8
Outside Cut
10
-1900.0
20
9.75
30
0
11
-2200.0
21
9.75
31
0
0
LINE
8
Outside Cut
10
-2200.0
20
9.75
30
0
11
-2200.0
21
24.5
31
0
0
ARC
8
Outside Cut
10
-2205.0
20
24.5
30
0
40
5.0
50
0.0
51
180.0
0
ARC
8
Outside Cut
10
-2215.0
20
24.5
30
0
40
5.0
50
-90.0
51
0.0
0
LINE
8
Outside Cut
10
-2215.0
20
19.5
30
0
11
-2240.25
21
19.5
31
0
0
LINE
8
Outside Cut
10
-2240.25
20
680.5
30
0
11
-2065.0
21
680.5
31
0
0
LINE
8
Outside Cut
10
-2240.25
20
693.5
30
0
11
-2065.0
21
693.5
31
0
0
LINE
8
Outside Cut
10
-2050.0
20
675.5
30
0
11
-2050.0
21
698.5
31
0
0
ARC
8
Outside Cut
10
-2055.0
20
675.5
30
0
40
5.0
50
180.0
51
360.0
0
ARC
8
Outside Cut
10
-2065.0
20
675.5
30
0
40
5.0
50
0.0
51
90.0
0
ARC
8
Outside Cut
10
-2055.0
20
698.5
30
0
40
5.0
50
0.0
51
180.0
0
ARC
8
Outside Cut
10
-2065.0
20
698.5
30
0
40
5.0
50
-90.0
51
0.0
0
LINE
8
Outside Cut
10
-2240.25
20
680.5
30
0
11
-2240.25
21
426.5
31
0
0
LINE
8
Outside Cut
10
-2240.25
20
413.5
30
0
11
-2065.0
21
413.5
31
0
0
LINE
8
Outside Cut
10
-2240.25
20
426.5
30
0
11
-2065.0
21
426.5
31
0
0
LINE
8
Outside Cut
10
-2050.0
20
408.5
30
0
11
-2050.0
21
431.5
31
0
0
ARC
8
Outside Cut
10
-2055.0
20
408.5
30
0
40
5.0
50
180.0
51
360.0
0
ARC
8
Outside Cut
10
-2065.0
20
408.5
30
0
40
5.0
50
0.0
51
90.0
0
ARC
8
Outside Cut
10
-2055.0
20
431.5
30
0
40
5.0
50
0.0
51
180.0
0
ARC
8
Outside Cut
10
-2065.0
20
431.5
30
0
40
5.0
50
-90.0
51
0.0
0
LINE
8
Outside Cut
10
-2240.25
20
820.5
30
0
11
-2240.25
21
693.5
31
0
0
LINE
8
Outside Cut
10
-2240.25
20
413.5
30
0
11
-2240.25
21
19.5
31
0
0
LINE
8
Pocket Cut
10
50.0
20
675.5
30
0
11
50.0
21
698.5
31
0
0
ARC
8
Pocket Cut
10
55.0
20
675.5
30
0
40
5.0
50
180.0
51
360.0
0
ARC
8
Pocket Cut
10
65.0
20
675.5
30
0
40
5.0
50
90.0
51
180.0
0
ARC
8
Pocket Cut
10
55.0
20
698.5
30
0
40
5.0
50
0.0
51
180.0
0
ARC
8
Pocket Cut
10
65.0
20
698.5
30
0
40
5.0
50
180.0
51
270.0
0
LINE
8
Pocket Cut
10
98.73333
20
680.5
30
0
11
231.19998
21
680.5
31
0
0
LINE
8
Pocket Cut
10
98.73333
20
693.5
30
0
11
231.19998
21
693.5
31
0
0
LINE
8
Pocket Cut
10
244.19998
20
680.5
30
0
11
449.39996
21
680.5
31
0
0
LINE
8
Pocket Cut
10
244.19998
20
693.5
30
0
11
449.39996
21
693.5
31
0
0
LINE
8
Pocket Cut
10
462.39996
20
680.5
30
0
11
740.3333
21
680.5
31
0
0
LINE
8
Pocket Cut
10
462.39996
20
693.5
30
0
11
740.3333
21
693.5
31
0
0
LINE
8
Pocket Cut
10
1080.0
20
675.5
30
0
11
1080.0
21
698.5
31
0
0
ARC
8
Pocket Cut
10
1075.0
20
675.5
30
0
40
5.0
50
180.0
51
360.0
0
ARC
8
Pocket Cut
10
1065.0
20
675.5
30
0
40
5.0
50
0.0
51
90.0
0
ARC
8
Pocket Cut
10
1075.0
20
698.5
30
0
40
5.0
50
0.0
51
180.0
0
ARC
8
Pocket Cut
10
1065.0
20
698.5
30
0
40
5.0
50
-90.0
51
0.0
0
LINE
8
Pocket Cut
10
65.0
20
680.5
30
0
11
85.73333
21
680.5
31
0
0
LINE
8
Pocket Cut
10
65.0
20
693.5
30
0
11
85.73333
21
693.5
31
0
0
LINE
8
Pocket Cut
10
753.3333
20
680.5
30
0
11
1065.0
21
680.5
31
0
0
LINE
8
Pocket Cut
10
753.3333
20
693.5
30
0
11
1065.0
21
693.5
31
0
0
LINE
8
Pocket Cut
10
50.0
20
408.5
30
0
11
50.0
21
431.5
31
0
0
ARC
8
Pocket Cut
10
55.0
20
408.5
30
0
40
5.0
50
180.0
51
360.0
0
ARC
8
Pocket Cut
10
65.0
20
408.5
30
0
40
5.0
50
90.0
51
180.0
0
ARC
8
Pocket Cut
10
55.0
20
431.5
30
0
40
5.0
50
0.0
51
180.0
0
ARC
8
Pocket Cut
10
65.0
20
431.5
30
0
40
5.0
50
180.0
51
270.0
0
LINE
8
Pocket Cut
10
98.73333
20
413.5
30
0
11
231.19998
21
413.5
31
0
0
LINE
8
Pocket Cut
10
98.73333
20
426.5
30
0
11
231.19998
21
426.5
31
0
0
LINE
8
Pocket Cut
10
244.19998
20
413.5
30
0
11
449.39996
21
413.5
31
0
0
LINE
8
Pocket Cut
10
244.19998
20
426.5
30
0
11
449.39996
21
426.5
31
0
0
LINE
8
Pocket Cut
10
462.39996
20
413.5
30
0
11
740.3333
21
413.5
31
0
0
LINE
8
Pocket Cut
10
462.39996
20
426.5
30
0
11
740.3333
21
426.5
31
0
0
LINE
8
Pocket Cut
10
1080.0
20
408.5
30
0
11
1080.0
21
431.5
31
0
0
ARC
8
Pocket Cut
10
1075.0
20
408.5
30
0
40
5.0
50
180.0
51
360.0
0
ARC
8
Pocket Cut
10
1065.0
20
408.5
30
0
40
5.0
50
0.0
51
90.0
0
ARC
8
Pocket Cut
10
1075.0
20
431.5
30
0
40
5.0
50
0.0
51
180.0
0
ARC
8
Pocket Cut
10
1065.0
20
431.5
30
0
40
5.0
50
-90.0
51
0.0
0
LINE
8
Pocket Cut
10
65.0
20
413.5
30
0
11
85.73333
21
413.5
31
0
0
LINE
8
Pocket Cut
10
65.0
20
426.5
30
0
11
85.73333
21
426.5
31
0
0
LINE
8
Pocket Cut
10
753.3333
20
413.5
30
0
11
1065.0
21
413.5
31
0
0
LINE
8
Pocket Cut
10
753.3333
20
426.5
30
0
11
1065.0
21
426.5
31
0
0
LINE
8
Pocket Cut
10
80.73333
20
50.0
30
0
11
103.73333
21
50.0
31
0
0
ARC
8
Pocket Cut
10
80.73333
20
55.0
30
0
40
5.0
50
90.0
51
270.0
0
ARC
8
Pocket Cut
10
80.73333
20
65.0
30
0
40
5.0
50
-90.0
51
0.0
0
ARC
8
Pocket Cut
10
103.73333
20
55.0
30
0
40
5.0
50
-90.0
51
90.0
0
ARC
8
Pocket Cut
10
103.73333
20
65.0
30
0
40
5.0
50
180.0
51
270.0
0
LINE
8
Pocket Cut
10
85.73333
20
426.5
30
0
11
85.73333
21
680.5
31
0
0
LINE
8
Pocket Cut
10
98.73333
20
426.5
30
0
11
98.73333
21
680.5
31
0
0
LINE
8
Pocket Cut
10
80.73333
20
770.5
30
0
11
103.73333
21
770.5
31
0
0
ARC
8
Pocket Cut
10
80.73333
20
765.5
30
0
40
5.0
50
90.0
51
270.0
0
ARC
8
Pocket Cut
10
80.73333
20
755.5
30
0
40
5.0
50
0.0
51
90.0
0
ARC
8
Pocket Cut
10
103.73333
20
765.5
30
0
40
5.0
50
-90.0
51
90.0
0
ARC
8
Pocket Cut
10
103.73333
20
755.5
30
0
40
5.0
50
90.0
51
180.0
0
LINE
8
Pocket Cut
10
85.73333
20
65.0
30
0
11
85.73333
21
413.5
31
0
0
LINE
8
Pocket Cut
10
98.73333
20
65.0
30
0
11
98.73333
21
413.5
31
0
0
LINE
8
Pocket Cut
10
85.73333
20
755.5
30
0
11
85.73333
21
693.5
31
0
0
LINE
8
Pocket Cut
10
98.73333
20
755.5
30
0
11
98.73333
21
693.5
31
0
0
LINE
8
Pocket Cut
10
226.19998
20
50.0
30
0
11
249.19998
21
50.0
31
0
0
ARC
8
Pocket Cut
10
226.19998
20
55.0
30
0
40
5.0
50
90.0
51
270.0
0
ARC
8
Pocket Cut
10
226.19998
20
65.0
30
0
40
5.0
50
-90.0
51
0.0
0
ARC
8
Pocket Cut
10
249.19998
20
55.0
30
0
40
5.0
50
-90.0
51
90.0
0
ARC
8
Pocket Cut
10
249.19998
20
65.0
30
0
40
5.0
50
180.0
51
270.0
0
LINE
8
Pocket Cut
10
231.19998
20
426.5
30
0
11
231.19998
21
680.5
31
0
0
LINE
8
Pocket Cut
10
244.19998
20
426.5
30
0
11
244.19998
21
680.5
31
0
0
LINE
8
Pocket Cut
10
226.19998
20
770.5
30
0
11
249.19998
21
770.5
31
0
0
ARC
8
Pocket Cut
10
226.19998
20
765.5
30
0
40
5.0
50
90.0
51
270.0
0
ARC
8
Pocket Cut
10
226.19998
20
755.5
30
0
40
5.0
50
0.0
51
90.0
0
ARC
8
Pocket Cut
10
249.19998
20
765.5
30
0
40
5.0
50
-90.0
51
90.0
0
ARC
8
Pocket Cut
10
249.19998
20
755.5
30
0
40
5.0
50
90.0
51
180.0
0
LINE
8
Pocket Cut
10
231.19998
20
65.0
30
0
11
231.19998
21
413.5
31
0
0
LINE
8
Pocket Cut
10
244.19998
20
65.0
30
0
11
244.19998
21
413.5
31
0
0
LINE
8
Pocket Cut
10
231.19998
20
755.5
30
0
11
231.19998
21
693.5
31
0
0
LINE
8
Pocket Cut
10
244.19998
20
755.5
30
0
11
244.19998
21
693.5
31
0
0
LINE
8
Pocket Cut
10
444.39996
20
50.0
30
0
11
467.39996
21
50.0
31
0
0
ARC
8
Pocket Cut
10
444.39996
20
55.0
30
0
40
5.0
50
90.0
51
270.0
0
ARC
8
Pocket Cut
10
444.39996
20
65.0
30
0
40
5.0
50
-90.0
51
0.0
0
ARC
8
Pocket Cut
10
467.39996
20
55.0
30
0
40
5.0
50
-90.0
51
90.0
0
ARC
8
Pocket Cut
10
467.39996
20
65.0
30
0
40
5.0
50
180.0
51
270.0
0
LINE
8
Pocket Cut
10
449.39996
20
426.5
30
0
11
449.39996
21
680.5
31
0
0
LINE
8
Pocket Cut
10
462.39996
20
426.5
30
0
11
462.39996
21
680.5
31
0
0
LINE
8
Pocket Cut
10
444.39996
20
770.5
30
0
11
467.39996
21
770.5
31
0
0
ARC
8
Pocket Cut
10
444.39996
20
765.5
30
0
40
5.0
50
90.0
51
270.0
0
ARC
8
Pocket Cut
10
444.39996
20
755.5
30
0
40
5.0
50
0.0
51
90.0
0
ARC
8
Pocket Cut
10
467.39996
20
765.5
30
0
40
5.0
50
-90.0
51
90.0
0
ARC
8
Pocket Cut
10
467.39996
20
755.5
30
0
40
5.0
50
90.0
51
180.0
0
LINE
8
Pocket Cut
10
449.39996
20
65.0
30
0
11
449.39996
21
413.5
31
0
0
LINE
8
Pocket Cut
10
462.39996
20
65.0
30
0
11
462.39996
21
413.5
31
0
0
LINE
8
Pocket Cut
10
449.39996
20
755.5
30
0
11
449.39996
21
693.5
31
0
0
LINE
8
Pocket Cut
10
462.39996
20
755.5
30
0
11
462.39996
21
693.5
31
0
0
LINE
8
Pocket Cut
10
735.3333
20
50.0
30
0
11
758.3333
21
50.0
31
0
0
ARC
8
Pocket Cut
10
735.3333
20
55.0
30
0
40
5.0
50
90.0
51
270.0
0
ARC
8
Pocket Cut
10
735.3333
20
65.0
30
0
40
5.0
50
-90.0
51
0.0
0
ARC
8
Pocket Cut
10
758.3333
20
55.0
30
0
40
5.0
50
-90.0
51
90.0
0
ARC
8
Pocket Cut
10
758.3333
20
65.0
30
0
40
5.0
50
180.0
51
270.0
0
LINE
8
Pocket Cut
10
740.3333
20
426.5
30
0
11
740.3333
21
680.5
31
0
0
LINE
8
Pocket Cut
10
753.3333
20
426.5
30
0
11
753.3333
21
680.5
31
0
0
LINE
8
Pocket Cut
10
735.3333
20
770.5
30
0
11
758.3333
21
770.5
31
0
0
ARC
8
Pocket Cut
10
735.3333
20
765.5
30
0
40
5.0
50
90.0
51
270.0
0
ARC
8
Pocket Cut
10
735.3333
20
755.5
30
0
40
5.0
50
0.0
51
90.0
0
ARC
8
Pocket Cut
10
758.3333
20
765.5
30
0
40
5.0
50
-90.0
51
90.0
0
ARC
8
Pocket Cut
10
758.3333
20
755.5
30
0
40
5.0
50
90.0
51
180.0
0
LINE
8
Pocket Cut
10
740.3333
20
65.0
30
0
11
740.3333
21
413.5
31
0
0
LINE
8
Pocket Cut
10
753.3333
20
65.0
30
0
11
753.3333
21
413.5
31
0
0
LINE
8
Pocket Cut
10
740.3333
20
755.5
30
0
11
740.3333
21
693.5
31
0
0
LINE
8
Pocket Cut
10
753.3333
20
755.5
30
0
11
753.3333
21
693.5
31
0
0
ARC
8
Outside Cut
10
24.5
20
925.0
30
0
40
5.0
50
90.0
51
180.0
0
ARC
8
Outside Cut
10
24.5
20
935.0
30
0
40
5.0
50
-90.0
51
90.0
0
LINE
8
Outside Cut
10
24.5
20
940.0
30
0
11
0.0
21
940.0
31
0
0
LINE
8
Outside Cut
10
0.0
20
940.0
30
0
11
0.0
21
1040.0
31
0
0
LINE
8
Outside Cut
10
0.0
20
1040.0
30
0
11
24.5
21
1040.0
31
0
0
ARC
8
Outside Cut
10
24.5
20
1045.0
30
0
40
5.0
50
-90.0
51
90.0
0
ARC
8
Outside Cut
10
24.5
20
1055.0
30
0
40
5.0
50
180.0
51
270.0
0
LINE
8
Outside Cut
10
19.5
20
1055.0
30
0
11
19.5
21
1240.0
31
0
0
LINE
8
Outside Cut
10
19.5
20
1240.0
30
0
11
50.0
21
1240.0
31
0
0
LINE
8
Outside Cut
10
50.0
20
1240.0
30
0
11
50.0
21
1215.5
31
0
0
ARC
8
Outside Cut
10
55.0
20
1215.5
30
0
40
5.0
50
180.0
51
360.0
0
ARC
8
Outside Cut
10
65.0
20
1215.5
30
0
40
5.0
50
90.0
51
180.0
0
LINE
8
Outside Cut
10
65.0
20
1220.5
30
0
11
100.0
21
1220.5
31
0
0
LINE
8
Outside Cut
10
100.0
20
1220.5
30
0
11
150.0
21
940.0
31
0
0
LINE
8
Outside Cut
10
150.0
20
940.0
30
0
11
980.0
21
940.0
31
0
0
LINE
8
Outside Cut
10
980.0
20
940.0
30
0
11
1030.0
21
1220.5
31
0
0
LINE
8
Outside Cut
10
1065.0
20
1220.5
30
0
11
1030.0
21
1220.5
31
0
0
ARC
8
Outside Cut
10
1065.0
20
1215.5
30
0
40
5.0
50
0.0
51
90.0
0
ARC
8
Outside Cut
10
1075.0
20
1215.5
30
0
40
5.0
50
180.0
51
360.0
0
LINE
8
Outside Cut
10
1080.0
20
1240.0
30
0
11
1080.0
21
1215.5
31
0
0
LINE
8
Outside Cut
10
1110.5
20
1240.0
30
0
11
1080.0
21
1240.0
31
0
0
LINE
8
Outside Cut
10
1110.5
20
1240.0
30
0
11
1110.5
21
1055.0
31
0
0
ARC
8
Outside Cut
10
1105.5
20
1055.0
30
0
40
5.0
50
-90.0
51
0.0
0
ARC
8
Outside Cut
10
1105.5
20
1045.0
30
0
40
5.0
50
90.0
51
270.0
0
LINE
8
Outside Cut
10
1105.5
20
1040.0
30
0
11
1130.0
21
1040.0
31
0
0
LINE
8
Outside Cut
10
1130.0
20
1040.0
30
0
11
1130.0
21
940.0
31
0
0
LINE
8
Outside Cut
10
1130.0
20
940.0
30
0
11
1105.5
21
940.0
31
0
0
ARC
8
Outside Cut
10
1105.5
20
935.0
30
0
40
5.0
50
90.0
51
270.0
0
ARC
8
Outside Cut
10
1105.5
20
925.0
30
0
40
5.0
50
0.0
51
90.0
0
CIRCLE
8
Dowel Holes
10
9.75
20
990.0
30
0
40
2.5
0
CIRCLE
8
Dowel Holes
10
1120.25
20
990.0
30
0
40
2.5
0
CIRCLE
8
Dowel Holes
10
282.0
20
9.75
30
0
40
2.5
0
CIRCLE
8
Dowel Holes
10
564.0
20
9.75
30
0
40
2.5
0
CIRCLE
8
Dowel Holes
10
846.0
20
9.75
30
0
40
2.5
0
LINE
8
Outside Cut
10
19.5
20
925.0
30
0
11
19.5
21
702.0
31
0
0
ARC
8
Outside Cut
10
24.5
20
702.0
30
0
40
5.0
50
180.0
51
270.0
0
ARC
8
Outside Cut
10
24.5
20
692.0
30
0
40
5.0
50
-90.0
51
90.0
0
LINE
8
Outside Cut
10
24.5
20
687.0
30
0
11
0.0
21
687.0
31
0
0
LINE
8
Outside Cut
10
1110.5
20
925.0
30
0
11
1110.5
21
702.0
31
0
0
ARC
8
Outside Cut
10
1105.5
20
702.0
30
0
40
5.0
50
-90.0
51
0.0
0
ARC
8
Outside Cut
10
1105.5
20
692.0
30
0
40
5.0
50
90.0
51
270.0
0
LINE
8
Outside Cut
10
1105.5
20
687.0
30
0
11
1130.0
21
687.0
31
0
0
LINE
8
Outside Cut
10
0.0
20
687.0
30
0
11
0.0
21
420.0
31
0
0
LINE
8
Outside Cut
10
0.0
20
420.0
30
0
11
24.5
21
420.0
31
0
0
ARC
8
Outside Cut
10
24.5
20
415.0
30
0
40
5.0
50
-90.0
51
90.0
0
ARC
8
Outside Cut
10
24.5
20
405.0
30
0
40
5.0
50
90.0
51
180.0
0
LINE
8
Outside Cut
10
19.5
20
405.0
30
0
11
19.5
21
19.5
31
0
0
LINE
8
Outside Cut
10
19.5
20
19.5
30
0
11
85.0
21
19.5
31
0
0
LINE
8
Outside Cut
10
1130.0
20
687.0
30
0
11
1130.0
21
420.0
31
0
0
LINE
8
Outside Cut
10
1130.0
20
420.0
30
0
11
1105.5
21
420.0
31
0
0
ARC
8
Outside Cut
10
1105.5
20
415.0
30
0
40
5.0
50
90.0
51
270.0
0
ARC
8
Outside Cut
10
1105.5
20
405.0
30
0
40
5.0
50
0.0
51
90.0
0
LINE
8
Outside Cut
10
1110.5
20
405.0
30
0
11
1110.5
21
19.5
31
0
0
LINE
8
Outside Cut
10
1110.5
20
19.5
30
0
11
1045.0
21
19.5
31
0
0
CIRCLE
8
Dowel Holes
10
9.75
20
598.0
30
0
40
2.5
0
CIRCLE
8
Dowel Holes
10
9.75
20
509.0
30
0
40
2.5
0
CIRCLE
8
Dowel Holes
10
1120.25
20
598.0
30
0
40
2.5
0
CIRCLE
8
Dowel Holes
10
1120.25
20
509.0
30
0
40
2.5
0
ARC
8
Inside Cut
10
1015.0
20
845.0
30
0
40
5.0
50
-90.0
51
0.0
0
ARC
8
Inside Cut
10
1025.0
20
845.0
30
0
40
5.0
50
0.0
51
180.0
0
LINE
8
Inside Cut
10
1030.0
20
845.0
30
0
11
1030.0
21
815.5
31
0
0
ARC
8
Inside Cut
10
1025.0
20
815.5
30
0
40
5.0
50
180.0
51
360.0
0
ARC
8
Inside Cut
10
1015.0
20
815.5
30
0
40
5.0
50
0.0
51
90.0
0
LINE
8
Inside Cut
10
1015.0
20
820.5
30
0
11
115.0
21
820.5
31
0
0
LINE
8
Inside Cut
10
115.0
20
840.0
30
0
11
1015.0
21
840.0
31
0
0
ARC
8
Inside Cut
10
115.0
20
815.5
30
0
40
5.0
50
90.0
51
180.0
0
ARC
8
Inside Cut
10
105.0
20
815.5
30
0
40
5.0
50
180.0
51
360.0
0
LINE
8
Inside Cut
10
100.0
20
815.5
30
0
11
100.0
21
845.0
31
0
0
ARC
8
Inside Cut
10
105.0
20
845.0
30
0
40
5.0
50
0.0
51
180.0
0
ARC
8
Inside Cut
10
115.0
20
845.0
30
0
40
5.0
50
180.0
51
270.0
0
ARC
8
Outside Cut
10
85.0
20
24.5
30
0
40
5.0
50
-90.0
51
0.0
0
ARC
8
Outside Cut
10
95.0
20
24.5
30
0
40
5.0
50
0.0
51
180.0
0
LINE
8
Outside Cut
10
100.0
20
24.5
30
0
11
100.0
21
0.0
31
0
0
LINE
8
Outside Cut
10
100.0
20
0.0
30
0
11
1030.0
21
0.0
31
0
0
LINE
8
Outside Cut
10
1030.0
20
0.0
30
0
11
1030.0
21
24.5
31
0
0
ARC
8
Outside Cut
10
1035.0
20
24.5
30
0
40
5.0
50
0.0
51
180.0
0
ARC
8
Outside Cut
10
1045.0
20
24.5
30
0
40
5.0
50
180.0
51
270.0
0
LINE
8
Outside Cut
10
1180.0
20
1240.0
30
0
11
1180.0
21
1040.0
31
0
0
LINE
8
Outside Cut
10
1180.0
20
1040.0
30
0
11
1204.5
21
1040.0
31
0
0
ARC
8
Outside Cut
10
1204.5
20
1035.0
30
0
40
5.0
50
-90.0
51
90.0
0
ARC
8
Outside Cut
10
1204.5
20
1025.0
30
0
40
5.0
50
90.0
51
180.0
0
LINE
8
Outside Cut
10
1199.5
20
1025.0
30
0
11
1199.5
21
955.0
31
0
0
ARC
8
Outside Cut
10
1204.5
20
955.0
30
0
40
5.0
50
180.0
51
270.0
0
ARC
8
Outside Cut
10
1204.5
20
945.0
30
0
40
5.0
50
-90.0
51
90.0
0
LINE
8
Outside Cut
10
1180.0
20
940.0
30
0
11
1204.5
21
940.0
31
0
0
LINE
8
Outside Cut
10
1180.0
20
1240.0
30
0
11
1230.0
21
1240.0
31
0
0
LINE
8
Outside Cut
10
1230.0
20
1240.0
30
0
11
1230.0
21
1215.5
31
0
0
ARC
8
Outside Cut
10
1235.0
20
1215.5
30
0
40
5.0
50
180.0
51
360.0
0
ARC
8
Outside Cut
10
1245.0
20
1215.5
30
0
40
5.0
50
90.0
51
180.0
0
LINE
8
Outside Cut
10
1245.0
20
1220.5
30
0
11
1280.0
21
1220.5
31
0
0
LINE
8
Outside Cut
10
1280.0
20
1220.5
30
0
11
1330.0
21
940.0
31
0
0
LINE
8
Outside Cut
10
1330.0
20
940.0
30
0
11
1430.0
21
940.0
31
0
0
LINE
8
Outside Cut
10
1430.0
20
940.0
30
0
11
1480.0
21
1220.5
31
0
0
LINE
8
Outside Cut
10
1480.0
20
1220.5
30
0
11
1515.0
21
1220.5
31
0
0
ARC
8
Outside Cut
10
1515.0
20
1215.5
30
0
40
5.0
50
0.0
51
90.0
0
ARC
8
Outside Cut
10
1525.0
20
1215.5
30
0
40
5.0
50
180.0
51
360.0
0
LINE
8
Outside Cut
10
1530.0
20
1215.5
30
0
11
1530.0
21
1240.0
31
0
0
LINE
8
Outside Cut
10
1530.0
20
1240.0
30
0
11
1580.0
21
1240.0
31
0
0
LINE
8
Outside Cut
10
1580.0
20
1240.0
30
0
11
1580.0
21
1040.0
31
0
0
LINE
8
Outside Cut
10
1580.0
20
1040.0
30
0
11
1555.5
21
1040.0
31
0
0
ARC
8
Outside Cut
10
1555.5
20
1035.0
30
0
40
5.0
50
90.0
51
270.0
0
ARC
8
Outside Cut
10
1555.5
20
1025.0
30
0
40
5.0
50
0.0
51
90.0
0
LINE
8
Outside Cut
10
1560.5
20
1025.0
30
0
11
1560.5
21
955.0
31
0
0
ARC
8
Outside Cut
10
1555.5
20
955.0
30
0
40
5.0
50
-90.0
51
0.0
0
ARC
8
Outside Cut
10
1555.5
20
945.0
30
0
40
5.0
50
90.0
51
270.0
0
LINE
8
Outside Cut
10
1580.0
20
940.0
30
0
11
1555.5
21
940.0
31
0
0
CIRCLE
8
Dowel Holes
10
1189.75
20
1140.0
30
0
40
2.5
0
CIRCLE
8
Dowel Holes
10
1570.25
20
1140.0
30
0
40
2.5
0
CIRCLE
8
Dowel Holes
10
1380.0
20
925.0
30
0
40
2.5
0
CIRCLE
8
Dowel Holes
10
1380.0
20
9.75
30
0
40
2.5
0
LINE
8
Outside Cut
10
1580.0
20
940.0
30
0
11
1580.0
21
19.5
31
0
0
LINE
8
Outside Cut
10
1495.0
20
19.5
30
0
11
1580.0
21
19.5
31
0
0
CIRCLE
8
Dowel Holes
10
1570.25
20
890.0
30
0
40
2.5
0
LINE
8
Outside Cut
10
1180.0
20
940.0
30
0
11
1180.0
21
687.0
31
0
0
LINE
8
Outside Cut
10
1180.0
20
687.0
30
0
11
1204.5
21
687.0
31
0
0
ARC
8
Outside Cut
10
1204.5
20
682.0
30
0
40
5.0
50
-90.0
51
90.0
0
ARC
8
Outside Cut
10
1204.5
20
672.0
30
0
40
5.0
50
90.0
51
180.0
0
LINE
8
Outside Cut
10
1199.5
20
672.0
30
0
11
1199.5
21
435.0
31
0
0
ARC
8
Outside Cut
10
1204.5
20
435.0
30
0
40
5.0
50
180.0
51
270.0
0
ARC
8
Outside Cut
10
1204.5
20
425.0
30
0
40
5.0
50
-90.0
51
90.0
0
LINE
8
Outside Cut
10
1204.5
20
420.0
30
0
11
1180.0
21
420.0
31
0
0
LINE
8
Outside Cut
10
1180.0
20
420.0
30
0
11
1180.0
21
19.5
31
0
0
LINE
8
Outside Cut
10
1180.0
20
19.5
30
0
11
1265.0
21
19.5
31
0
0
CIRCLE
8
Dowel Holes
10
1189.75
20
813.5
30
0
40
2.5
0
CIRCLE
8
Dowel Holes
10
1189.75
20
219.75
30
0
40
2.5
0
LINE
8
Pocket Cut
10
1230.0
20
675.5
30
0
11
1230.0
21
698.5
31
0
0
ARC
8
Pocket Cut
10
1235.0
20
698.5
30
0
40
5.0
50
0.0
51
180.0
0
ARC
8
Pocket Cut
10
1245.0
20
698.5
30
0
40
5.0
50
180.0
51
270.0
0
LINE
8
Pocket Cut
10
1245.0
20
693.5
30
0
11
1515.0
21
693.5
31
0
0
ARC
8
Pocket Cut
10
1515.0
20
698.5
30
0
40
5.0
50
270.0
51
360.0
0
ARC
8
Pocket Cut
10
1525.0
20
698.5
30
0
40
5.0
50
0.0
51
180.0
0
LINE
8
Pocket Cut
10
1530.0
20
698.5
30
0
11
1530.0
21
675.5
31
0
0
ARC
8
Pocket Cut
10
1525.0
20
675.5
30
0
40
5.0
50
180.0
51
360.0
0
ARC
8
Pocket Cut
10
1515.0
20
675.5
30
0
40
5.0
50
0.0
51
90.0
0
LINE
8
Pocket Cut
10
1245.0
20
680.5
30
0
11
1515.0
21
680.5
31
0
0
ARC
8
Pocket Cut
10
1245.0
20
675.5
30
0
40
5.0
50
90.0
51
180.0
0
ARC
8
Pocket Cut
10
1235.0
20
675.5
30
0
40
5.0
50
180.0
51
360.0
0
LINE
8
Pocket Cut
10
1230.0
20
408.5
30
0
11
1230.0
21
431.5
31
0
0
ARC
8
Pocket Cut
10
1235.0
20
431.5
30
0
40
5.0
50
0.0
51
180.0
0
ARC
8
Pocket Cut
10
1245.0
20
431.5
30
0
40
5.0
50
180.0
51
270.0
0
LINE
8
Pocket Cut
10
1245.0
20
426.5
30
0
11
1515.0
21
426.5
31
0
0
ARC
8
Pocket Cut
10
1515.0
20
431.5
30
0
40
5.0
50
270.0
51
360.0
0
ARC
8
Pocket Cut
10
1525.0
20
431.5
30
0
40
5.0
50
0.0
51
180.0
0
LINE
8
Pocket Cut
10
1530.0
20
431.5
30
0
11
1530.0
21
408.5
31
0
0
ARC
8
Pocket Cut
10
1525.0
20
408.5
30
0
40
5.0
50
180.0
51
360.0
0
ARC
8
Pocket Cut
10
1515.0
20
408.5
30
0
40
5.0
50
0.0
51
90.0
0
LINE
8
Pocket Cut
10
1245.0
20
413.5
30
0
11
1515.0
21
413.5
31
0
0
ARC
8
Pocket Cut
10
1245.0
20
408.5
30
0
40
5.0
50
90.0
51
180.0
0
ARC
8
Pocket Cut
10
1235.0
20
408.5
30
0
40
5.0
50
180.0
51
360.0
0
ARC
8
Outside Cut
10
1265.0
20
24.5
30
0
40
5.0
50
-90.0
51
0.0
0
ARC
8
Outside Cut
10
1275.0
20
24.5
30
0
40
5.0
50
0.0
51
180.0
0
LINE
8
Outside Cut
10
1280.0
20
24.5
30
0
11
1280.0
21
0.0
31
0
0
LINE
8
Outside Cut
10
1280.0
20
0.0
30
0
11
1480.0
21
0.0
31
0
0
LINE
8
Outside Cut
10
1480.0
20
0.0
30
0
11
1480.0
21
24.5
31
0
0
ARC
8
Outside Cut
10
1485.0
20
24.5
30
0
40
5.0
50
0.0
51
180.0
0
ARC
8
Outside Cut
10
1495.0
20
24.5
30
0
40
5.0
50
180.0
51
270.0
0
LINE
8
Inside Cut
10
1370.25
20
840.0
30
0
11
1370.25
21
895.0
31
0
0
ARC
8
Inside Cut
10
1365.25
20
895.0
30
0
40
5.0
50
0.0
51
90.0
0
ARC
8
Inside Cut
10
1365.25
20
905.0
30
0
40
5.0
50
90.0
51
270.0
0
LINE
8
Inside Cut
10
1365.25
20
910.0
30
0
11
1394.75
21
910.0
31
0
0
ARC
8
Inside Cut
10
1394.75
20
905.0
30
0
40
5.0
50
-90.0
51
90.0
0
ARC
8
Inside Cut
10
1394.75
20
895.0
30
0
40
5.0
50
90.0
51
180.0
0
LINE
8
Inside Cut
10
1389.75
20
895.0
30
0
11
1389.75
21
840.0
31
0
0
LINE
8
Inside Cut
10
1389.75
20
840.0
30
0
11
1465.0
21
840.0
31
0
0
ARC
8
Inside Cut
10
1465.0
20
845.0
30
0
40
5.0
50
-90.0
51
0.0
0
ARC
8
Inside Cut
10
1475.0
20
845.0
30
0
40
5.0
50
0.0
51
180.0
0
LINE
8
Inside Cut
10
1480.0
20
845.0
30
0
11
1480.0
21
815.5
31
0
0
ARC
8
Inside Cut
10
1475.0
20
815.5
30
0
40
5.0
50
180.0
51
360.0
0
ARC
8
Inside Cut
10
1465.0
20
815.5
30
0
40
5.0
50
0.0
51
90.0
0
LINE
8
Inside Cut
10
1465.0
20
820.5
30
0
11
1295.0
21
820.5
31
0
0
ARC
8
Inside Cut
10
1295.0
20
815.5
30
0
40
5.0
50
90.0
51
180.0
0
ARC
8
Inside Cut
10
1285.0
20
815.5
30
0
40
5.0
50
180.0
51
360.0
0
LINE
8
Inside Cut
10
1280.0
20
815.5
30
0
11
1280.0
21
845.0
31
0
0
ARC
8
Inside Cut
10
1285.0
20
845.0
30
0
40
5.0
50
0.0
51
180.0
0
ARC
8
Inside Cut
10
1295.0
20
845.0
30
0
40
5.0
50
180.0
51
270.0
0
LINE
8
Inside Cut
10
1295.0
20
840.0
30
0
11
1370.25
21
840.0
31
0
0
LINE
8
Outside Cut
10
-450.0
20
1240.0
30
0
11
-450.0
21
1040.0
31
0
0
LINE
8
Outside Cut
10
-450.0
20
1040.0
30
0
11
-425.5
21
1040.0
31
0
0
ARC
8
Outside Cut
10
-425.5
20
1035.0
30
0
40
5.0
50
-90.0
51
90.0
0
ARC
8
Outside Cut
10
-425.5
20
1025.0
30
0
40
5.0
50
90.0
51
180.0
0
LINE
8
Outside Cut
10
-430.5
20
1025.0
30
0
11
-430.5
21
955.0
31
0
0
ARC
8
Outside Cut
10
-425.5
20
955.0
30
0
40
5.0
50
180.0
51
270.0
0
ARC
8
Outside Cut
10
-425.5
20
945.0
30
0
40
5.0
50
-90.0
51
90.0
0
LINE
8
Outside Cut
10
-450.0
20
940.0
30
0
11
-425.5
21
940.0
31
0
0
LINE
8
Outside Cut
10
-450.0
20
1240.0
30
0
11
-400.0
21
1240.0
31
0
0
LINE
8
Outside Cut
10
-400.0
20
1240.0
30
0
11
-400.0
21
1215.5
31
0
0
ARC
8
Outside Cut
10
-395.0
20
1215.5
30
0
40
5.0
50
180.0
51
360.0
0
ARC
8
Outside Cut
10
-385.0
20
1215.5
30
0
40
5.0
50
90.0
51
180.0
0
LINE
8
Outside Cut
10
-385.0
20
1220.5
30
0
11
-350.0
21
1220.5
31
0
0
LINE
8
Outside Cut
10
-350.0
20
1220.5
30
0
11
-300.0
21
940.0
31
0
0
LINE
8
Outside Cut
10
-300.0
20
940.0
30
0
11
-200.0
21
940.0
31
0
0
LINE
8
Outside Cut
10
-200.0
20
940.0
30
0
11
-150.0
21
1220.5
31
0
0
LINE
8
Outside Cut
10
-150.0
20
1220.5
30
0
11
-115.0
21
1220.5
31
0
0
ARC
8
Outside Cut
10
-115.0
20
1215.5
30
0
40
5.0
50
0.0
51
90.0
0
ARC
8
Outside Cut
10
-105.0
20
1215.5
30
0
40
5.0
50
180.0
51
360.0
0
LINE
8
Outside Cut
10
-100.0
20
1215.5
30
0
11
-100.0
21
1240.0
31
0
0
LINE
8
Outside Cut
10
-100.0
20
1240.0
30
0
11
-50.0
21
1240.0
31
0
0
LINE
8
Outside Cut
10
-50.0
20
1240.0
30
0
11
-50.0
21
1040.0
31
0
0
LINE
8
Outside Cut
10
-50.0
20
1040.0
30
0
11
-74.5
21
1040.0
31
0
0
ARC
8
Outside Cut
10
-74.5
20
1035.0
30
0
40
5.0
50
90.0
51
270.0
0
ARC
8
Outside Cut
10
-74.5
20
1025.0
30
0
40
5.0
50
0.0
51
90.0
0
LINE
8
Outside Cut
10
-69.5
20
1025.0
30
0
11
-69.5
21
955.0
31
0
0
ARC
8
Outside Cut
10
-74.5
20
955.0
30
0
40
5.0
50
-90.0
51
0.0
0
ARC
8
Outside Cut
10
-74.5
20
945.0
30
0
40
5.0
50
90.0
51
270.0
0
LINE
8
Outside Cut
10
-50.0
20
940.0
30
0
11
-74.5
21
940.0
31
0
0
CIRCLE
8
Dowel Holes
10
-440.25
20
1140.0
30
0
40
2.5
0
CIRCLE
8
Dowel Holes
10
-59.75
20
1140.0
30
0
40
2.5
0
CIRCLE
8
Dowel Holes
10
-250.0
20
925.0
30
0
40
2.5
0
CIRCLE
8
Dowel Holes
10
-250.0
20
9.75
30
0
40
2.5
0
LINE
8
Outside Cut
10
-450.0
20
940.0
30
0
11
-450.0
21
19.5
31
0
0
LINE
8
Outside Cut
10
-450.0
20
19.5
30
0
11
-365.0
21
19.5
31
0
0
CIRCLE
8
Dowel Holes
10
-440.25
20
890.0
30
0
40
2.5
0
LINE
8
Outside Cut
10
-50.0
20
940.0
30
0
11
-50.0
21
687.0
31
0
0
LINE
8
Outside Cut
10
-50.0
20
687.0
30
0
11
-74.5
21
687.0
31
0
0
ARC
8
Outside Cut
10
-74.5
20
682.0
30
0
40
5.0
50
90.0
51
270.0
0
ARC
8
Outside Cut
10
-74.5
20
672.0
30
0
40
5.0
50
0.0
51
90.0
0
LINE
8
Outside Cut
10
-69.5
20
672.0
30
0
11
-69.5
21
435.0
31
0
0
ARC
8
Outside Cut
10
-74.5
20
435.0
30
0
40
5.0
50
-90.0
51
0.0
0
ARC
8
Outside Cut
10
-74.5
20
425.0
30
0
40
5.0
50
90.0
51
270.0
0
LINE
8
Outside Cut
10
-74.5
20
420.0
30
0
11
-50.0
21
420.0
31
0
0
LINE
8
Outside Cut
10
-50.0
20
420.0
30
0
11
-50.0
21
19.5
31
0
0
LINE
8
Outside Cut
10
-135.0
20
19.5
30
0
11
-50.0
21
19.5
31
0
0
CIRCLE
8
Dowel Holes
10
-59.75
20
813.5
30
0
40
2.5
0
CIRCLE
8
Dowel Holes
10
-59.75
20
219.75
30
0
40
2.5
0
LINE
8
Pocket Cut
10
-100.0
20
698.5
30
0
11
-100.0
21
675.5
31
0
0
ARC
8
Pocket Cut
10
-105.0
20
675.5
30
0
40
5.0
50
-180.0
51
0.0
0
ARC
8
Pocket Cut
10
-115.0
20
675.5
30
0
40
5.0
50
0.0
51
90.0
0
LINE
8
Pocket Cut
10
-115.0
20
680.5
30
0
11
-385.0
21
680.5
31
0
0
ARC
8
Pocket Cut
10
-385.0
20
675.5
30
0
40
5.0
50
90.0
51
179.99998
0
ARC
8
Pocket Cut
10
-395.0
20
675.5
30
0
40
5.0
50
-180.0
51
0.0
0
LINE
8
Pocket Cut
10
-400.0
20
675.5
30
0
11
-400.0
21
698.5
31
0
0
ARC
8
Pocket Cut
10
-395.0
20
698.5
30
0
40
5.0
50
0.0
51
179.99998
0
ARC
8
Pocket Cut
10
-385.0
20
698.5
30
0
40
5.0
50
-180.0
51
-90.0
0
LINE
8
Pocket Cut
10
-115.0
20
693.5
30
0
11
-385.0
21
693.5
31
0
0
ARC
8
Pocket Cut
10
-115.0
20
698.5
30
0
40
5.0
50
-90.0
51
0.0
0
ARC
8
Pocket Cut
10
-105.0
20
698.5
30
0
40
5.0
50
0.0
51
179.99998
0
LINE
8
Pocket Cut
10
-100.0
20
431.5
30
0
11
-100.0
21
408.5
31
0
0
ARC
8
Pocket Cut
10
-105.0
20
408.5
30
0
40
5.0
50
-180.0
51
0.0
0
ARC
8
Pocket Cut
10
-115.0
20
408.5
30
0
40
5.0
50
0.0
51
90.0
0
LINE
8
Pocket Cut
10
-115.0
20
413.5
30
0
11
-385.0
21
413.5
31
0
0
ARC
8
Pocket Cut
10
-385.0
20
408.5
30
0
40
5.0
50
90.0
51
179.99998
0
ARC
8
Pocket Cut
10
-395.0
20
408.5
30
0
40
5.0
50
-180.0
51
0.0
0
LINE
8
Pocket Cut
10
-400.0
20
408.5
30
0
11
-400.0
21
431.5
31
0
0
ARC
8
Pocket Cut
10
-395.0
20
431.5
30
0
40
5.0
50
0.0
51
179.99998
0
ARC
8
Pocket Cut
10
-385.0
20
431.5
30
0
40
5.0
50
-180.0
51
-90.0
0
LINE
8
Pocket Cut
10
-115.0
20
426.5
30
0
11
-385.0
21
426.5
31
0
0
ARC
8
Pocket Cut
10
-115.0
20
431.5
30
0
40
5.0
50
-90.0
51
0.0
0
ARC
8
Pocket Cut
10
-105.0
20
431.5
30
0
40
5.0
50
0.0
51
179.99998
0
ARC
8
Outside Cut
10
-365.0
20
24.5
30
0
40
5.0
50
-90.0
51
0.0
0
ARC
8
Outside Cut
10
-355.0
20
24.5
30
0
40
5.0
50
0.0
51
180.0
0
LINE
8
Outside Cut
10
-350.0
20
24.5
30
0
11
-350.0
21
0.0
31
0
0
LINE
8
Outside Cut
10
-350.0
20
0.0
30
0
11
-150.0
21
0.0
31
0
0
LINE
8
Outside Cut
10
-150.0
20
0.0
30
0
11
-150.0
21
24.5
31
0
0
ARC
8
Outside Cut
10
-145.0
20
24.5
30
0
40
5.0
50
0.0
51
180.0
0
ARC
8
Outside Cut
10
-135.0
20
24.5
30
0
40
5.0
50
180.0
51
270.0
0
LINE
8
Inside Cut
10
-259.75
20
840.0
30
0
11
-259.75
21
895.0
31
0
0
ARC
8
Inside Cut
10
-264.75
20
895.0
30
0
40
5.0
50
0.0
51
90.0
0
ARC
8
Inside Cut
10
-264.75
20
905.0
30
0
40
5.0
50
90.0
51
270.0
0
LINE
8
Inside Cut
10
-264.75
20
910.0
30
0
11
-235.25
21
910.0
31
0
0
ARC
8
Inside Cut
10
-235.25
20
905.0
30
0
40
5.0
50
-90.0
51
90.0
0
ARC
8
Inside Cut
10
-235.25
20
895.0
30
0
40
5.0
50
90.0
51
180.0
0
LINE
8
Inside Cut
10
-240.25
20
895.0
30
0
11
-240.25
21
840.0
31
0
0
LINE
8
Inside Cut
10
-240.25
20
840.0
30
0
11
-165.0
21
840.0
31
0
0
ARC
8
Inside Cut
10
-165.0
20
845.0
30
0
40
5.0
50
-90.0
51
0.0
0
ARC
8
Inside Cut
10
-155.0
20
845.0
30
0
40
5.0
50
0.0
51
180.0
0
LINE
8
Inside Cut
10
-150.0
20
845.0
30
0
11
-150.0
21
815.5
31
0
0
ARC
8
Inside Cut
10
-155.0
20
815.5
30
0
40
5.0
50
180.0
51
360.0
0
ARC
8
Inside Cut
10
-165.0
20
815.5
30
0
40
5.0
50
0.0
51
90.0
0
LINE
8
Inside Cut
10
-165.0
20
820.5
30
0
11
-335.0
21
820.5
31
0
0
ARC
8
Inside Cut
10
-335.0
20
815.5
30
0
40
5.0
50
90.0
51
180.0
0
ARC
8
Inside Cut
10
-345.0
20
815.5
30
0
40
5.0
50
180.0
51
360.0
0
LINE
8
Inside Cut
10
-350.0
20
815.5
30
0
11
-350.0
21
845.0
31
0
0
ARC
8
Inside Cut
10
-345.0
20
845.0
30
0
40
5.0
50
0.0
51
180.0
0
ARC
8
Inside Cut
10
-335.0
20
845.0
30
0
40
5.0
50
180.0
51
270.0
0
LINE
8
Inside Cut
10
-335.0
20
840.0
30
0
11
-259.75
21
840.0
31
0
0
CIRCLE
8
Dowel Holes
10
-125.0
20
1299.75
30
0
40
2.5
0
CIRCLE
8
Dowel Holes
10
-59.75
20
1365.0
30
0
40
2.5
0
LINE
8
Outside Cut
10
-50.0
20
1340.0
30
0
11
-74.5
21
1340.0
31
0
0
LINE
8
Outside Cut
10
-69.5
20
1325.0
30
0
11
-69.5
21
1309.5
31
0
0
LINE
8
Outside Cut
10
-69.5
20
1309.5
30
0
11
-85.0
21
1309.5
31
0
0
LINE
8
Outside Cut
10
-100.0
20
1314.5
30
0
11
-100.0
21
1290.0
31
0
0
LINE
8
Outside Cut
10
-100.0
20
1290.0
30
0
11
-150.0
21
1290.0
31
0
0
LINE
8
Outside Cut
10
-150.0
20
1290.0
30
0
11
-150.0
21
1309.5
31
0
0
LINE
8
Outside Cut
10
-150.0
20
1309.5
30
0
11
-69.5
21
1390.0
31
0
0
LINE
8
Outside Cut
10
-69.5
20
1390.0
30
0
11
-50.0
21
1390.0
31
0
0
LINE
8
Outside Cut
10
-50.0
20
1390.0
30
0
11
-50.0
21
1340.0
31
0
0
ARC
8
Outside Cut
10
-74.5
20
1335.0
30
0
40
5.0
50
90.0
51
270.0
0
ARC
8
Outside Cut
10
-74.5
20
1325.0
30
0
40
5.0
50
360.0
51
450.0
0
ARC
8
Outside Cut
10
-85.0
20
1314.5
30
0
40
5.0
50
180.0
51
270.0
0
ARC
8
Outside Cut
10
-95.0
20
1314.5
30
0
40
5.0
50
360.0
51
540.0
0
CIRCLE
8
Dowel Holes
10
-440.25
20
1365.0
30
0
40
2.5
0
CIRCLE
8
Dowel Holes
10
-375.0
20
1299.75
30
0
40
2.5
0
LINE
8
Outside Cut
10
-400.0
20
1290.0
30
0
11
-400.0
21
1314.5
31
0
0
LINE
8
Outside Cut
10
-415.0
20
1309.5
30
0
11
-430.5
21
1309.5
31
0
0
LINE
8
Outside Cut
10
-430.5
20
1309.5
30
0
11
-430.5
21
1325.0
31
0
0
LINE
8
Outside Cut
10
-425.5
20
1340.0
30
0
11
-450.0
21
1340.0
31
0
0
LINE
8
Outside Cut
10
-450.0
20
1340.0
30
0
11
-450.0
21
1390.0
31
0
0
LINE
8
Outside Cut
10
-450.0
20
1390.0
30
0
11
-430.5
21
1390.0
31
0
0
LINE
8
Outside Cut
10
-430.5
20
1390.0
30
0
11
-350.0
21
1309.5
31
0
0
LINE
8
Outside Cut
10
-350.0
20
1309.5
30
0
11
-350.0
21
1290.0
31
0
0
LINE
8
Outside Cut
10
-350.0
20
1290.0
30
0
11
-400.0
21
1290.0
31
0
0
ARC
8
Outside Cut
10
-405.0
20
1314.5
30
0
40
5.0
50
0.0
51
180.0
0
ARC
8
Outside Cut
10
-415.0
20
1314.5
30
0
40
5.0
50
270.0
51
360.0
0
ARC
8
Outside Cut
10
-425.5
20
1325.0
30
0
40
5.0
50
90.0
51
180.0
0
ARC
8
Outside Cut
10
-425.5
20
1335.0
30
0
40
5.0
50
270.0
51
450.0
0
CIRCLE
8
Dowel Holes
10
1189.75
20
1365.0
30
0
40
2.5
0
CIRCLE
8
Dowel Holes
10
1255.0
20
1299.75
30
0
40
2.5
0
LINE
8
Outside Cut
10
1230.0
20
1290.0
30
0
11
1230.0
21
1314.5
31
0
0
LINE
8
Outside Cut
10
1215.0
20
1309.5
30
0
11
1199.5
21
1309.5
31
0
0
LINE
8
Outside Cut
10
1199.5
20
1309.5
30
0
11
1199.5
21
1325.0
31
0
0
LINE
8
Outside Cut
10
1204.5
20
1340.0
30
0
11
1180.0
21
1340.0
31
0
0
LINE
8
Outside Cut
10
1180.0
20
1340.0
30
0
11
1180.0
21
1390.0
31
0
0
LINE
8
Outside Cut
10
1180.0
20
1390.0
30
0
11
1199.5
21
1390.0
31
0
0
LINE
8
Outside Cut
10
1199.5
20
1390.0
30
0
11
1280.0
21
1309.5
31
0
0
LINE
8
Outside Cut
10
1280.0
20
1309.5
30
0
11
1280.0
21
1290.0
31
0
0
LINE
8
Outside Cut
10
1280.0
20
1290.0
30
0
11
1230.0
21
1290.0
31
0
0
ARC
8
Outside Cut
10
1225.0
20
1314.5
30
0
40
5.0
50
0.0
51
180.0
0
ARC
8
Outside Cut
10
1215.0
20
1314.5
30
0
40
5.0
50
270.0
51
360.0
0
ARC
8
Outside Cut
10
1204.5
20
1325.0
30
0
40
5.0
50
90.0
51
180.0
0
ARC
8
Outside Cut
10
1204.5
20
1335.0
30
0
40
5.0
50
270.0
51
450.0
0
CIRCLE
8
Dowel Holes
10
1505.0
20
1299.75
30
0
40
2.5
0
CIRCLE
8
Dowel Holes
10
1570.25
20
1365.0
30
0
40
2.5
0
LINE
8
Outside Cut
10
1580.0
20
1340.0
30
0
11
1555.5
21
1340.0
31
0
0
LINE
8
Outside Cut
10
1560.5
20
1325.0
30
0
11
1560.5
21
1309.5
31
0
0
LINE
8
Outside Cut
10
1560.5
20
1309.5
30
0
11
1545.0
21
1309.5
31
0
0
LINE
8
Outside Cut
10
1530.0
20
1314.5
30
0
11
1530.0
21
1290.0
31
0
0
LINE
8
Outside Cut
10
1530.0
20
1290.0
30
0
11
1480.0
21
1290.0
31
0
0
LINE
8
Outside Cut
10
1480.0
20
1290.0
30
0
11
1480.0
21
1309.5
31
0
0
LINE
8
Outside Cut
10
1480.0
20
1309.5
30
0
11
1560.5
21
1390.0
31
0
0
LINE
8
Outside Cut
10
1560.5
20
1390.0
30
0
11
1580.0
21
1390.0
31
0
0
LINE
8
Outside Cut
10
1580.0
20
1390.0
30
0
11
1580.0
21
1340.0
31
0
0
ARC
8
Outside Cut
10
1555.5
20
1335.0
30
0
40
5.0
50
90.0
51
270.0
0
ARC
8
Outside Cut
10
1555.5
20
1325.0
30
0
40
5.0
50
360.0
51
450.0
0
ARC
8
Outside Cut
10
1545.0
20
1314.5
30
0
40
5.0
50
180.0
51
270.0
0
ARC
8
Outside Cut
10
1535.0
20
1314.5
30
0
40
5.0
50
360.0
51
540.0
0
LINE
8
Outside Cut
10
0.0
20
1290.0
30
0
11
0.0
21
1379.5
31
0
0
LINE
8
Outside Cut
10
0.0
20
1379.5
30
0
11
24.5
21
1379.5
31
0
0
ARC
8
Outside Cut
10
24.5
20
1384.5
30
0
40
5.0
50
-90.0
51
90.0
0
ARC
8
Outside Cut
10
24.5
20
1394.5
30
0
40
5.0
50
180.0
51
270.0
0
LINE
8
Outside Cut
10
19.5
20
1394.5
30
0
11
19.5
21
1409.5
31
0
0
LINE
8
Outside Cut
10
19.5
20
1409.5
30
0
11
1110.5
21
1409.5
31
0
0
LINE
8
Outside Cut
10
1110.5
20
1409.5
30
0
11
1110.5
21
1394.5
31
0
0
ARC
8
Outside Cut
10
1105.5
20
1394.5
30
0
40
5.0
50
-90.0
51
0.0
0
ARC
8
Outside Cut
10
1105.5
20
1384.5
30
0
40
5.0
50
90.0
51
270.0
0
LINE
8
Outside Cut
10
1105.5
20
1379.5
30
0
11
1130.0
21
1379.5
31
0
0
LINE
8
Outside Cut
10
1130.0
20
1379.5
30
0
11
1130.0
21
1290.0
31
0
0
LINE
8
Outside Cut
10
1130.0
20
1290.0
30
0
11
1080.0
21
1290.0
31
0
0
LINE
8
Outside Cut
10
1080.0
20
1290.0
30
0
11
1080.0
21
1314.5
31
0
0
ARC
8
Outside Cut
10
1075.0
20
1314.5
30
0
40
5.0
50
0.0
51
180.0
0
ARC
8
Outside Cut
10
1065.0
20
1314.5
30
0
40
5.0
50
-90.0
51
0.0
0
LINE
8
Outside Cut
10
1065.0
20
1309.5
30
0
11
65.0
21
1309.5
31
0
0
ARC
8
Outside Cut
10
65.0
20
1314.5
30
0
40
5.0
50
180.0
51
270.0
0
ARC
8
Outside Cut
10
55.0
20
1314.5
30
0
40
5.0
50
0.0
51
180.0
0
LINE
8
Outside Cut
10
50.0
20
1314.5
30
0
11
50.0
21
1290.0
31
0
0
LINE
8
Outside Cut
10
50.0
20
1290.0
30
0
11
0.0
21
1290.0
31
0
0
LINE
8
Outside Cut
10
19.5
20
1459.5
30
0
11
19.5
21
1525.0
31
0
0
ARC
8
Outside Cut
10
24.5
20
1525.0
30
0
40
5.0
50
90.0
51
180.0
0
ARC
8
Outside Cut
10
24.5
20
1535.0
30
0
40
5.0
50
-90.0
51
90.0
0
LINE
8
Outside Cut
10
24.5
20
1540.0
30
0
11
0.0
21
1540.0
31
0
0
LINE
8
Outside Cut
10
0.0
20
1540.0
30
0
11
0.0
21
1630.25
31
0
0
LINE
8
Outside Cut
10
0.0
20
1630.25
30
0
11
35.0
21
1630.25
31
0
0
ARC
8
Outside Cut
10
35.0
20
1625.25
30
0
40
5.0
50
0.0
51
90.0
0
ARC
8
Outside Cut
10
45.0
20
1625.25
30
0
40
5.0
50
180.0
51
360.0
0
LINE
8
Outside Cut
10
50.0
20
1625.25
30
0
11
50.0
21
1654.75
31
0
0
ARC
8
Outside Cut
10
45.0
20
1654.75
30
0
40
5.0
50
0.0
51
180.0
0
ARC
8
Outside Cut
10
35.0
20
1654.75
30
0
40
5.0
50
-90.0
51
0.0
0
LINE
8
Outside Cut
10
35.0
20
1649.75
30
0
11
0.0
21
1649.75
31
0
0
LINE
8
Outside Cut
10
0.0
20
1649.75
30
0
11
0.0
21
1740.0
31
0
0
LINE
8
Outside Cut
10
0.0
20
1740.0
30
0
11
24.5
21
1740.0
31
0
0
ARC
8
Outside Cut
10
24.5
20
1745.0
30
0
40
5.0
50
-90.0
51
90.0
0
ARC
8
Outside Cut
10
24.5
20
1755.0
30
0
40
5.0
50
180.0
51
270.0
0
LINE
8
Outside Cut
10
19.5
20
1755.0
30
0
11
19.5
21
1840.0
31
0
0
LINE
8
Outside Cut
10
19.5
20
1840.0
30
0
11
1110.5
21
1840.0
31
0
0
LINE
8
Outside Cut
10
1110.5
20
1840.0
30
0
11
1110.5
21
1755.0
31
0
0
ARC
8
Outside Cut
10
1105.5
20
1755.0
30
0
40
5.0
50
-90.0
51
0.0
0
ARC
8
Outside Cut
10
1105.5
20
1745.0
30
0
40
5.0
50
90.0
51
270.0
0
LINE
8
Outside Cut
10
1105.5
20
1740.0
30
0
11
1130.0
21
1740.0
31
0
0
LINE
8
Outside Cut
10
1130.0
20
1740.0
30
0
11
1130.0
21
1649.75
31
0
0
LINE
8
Outside Cut
10
1130.0
20
1649.75
30
0
11
1095.0
21
1649.75
31
0
0
ARC
8
Outside Cut
10
1095.0
20
1654.75
30
0
40
5.0
50
180.0
51
270.0
0
ARC
8
Outside Cut
10
1085.0
20
1654.75
30
0
40
5.0
50
0.0
51
180.0
0
LINE
8
Outside Cut
10
1080.0
20
1654.75
30
0
11
1080.0
21
1625.25
31
0
0
ARC
8
Outside Cut
10
1085.0
20
1625.25
30
0
40
5.0
50
180.0
51
360.0
0
ARC
8
Outside Cut
10
1095.0
20
1625.25
30
0
40
5.0
50
90.0
51
180.0
0
LINE
8
Outside Cut
10
1095.0
20
1630.25
30
0
11
1130.0
21
1630.25
31
0
0
LINE
8
Outside Cut
10
1130.0
20
1630.25
30
0
11
1130.0
21
1540.0
31
0
0
LINE
8
Outside Cut
10
1130.0
20
1540.0
30
0
11
1105.5
21
1540.0
31
0
0
ARC
8
Outside Cut
10
1105.5
20
1535.0
30
0
40
5.0
50
90.0
51
270.0
0
ARC
8
Outside Cut
10
1105.5
20
1525.0
30
0
40
5.0
50
0.0
51
90.0
0
LINE
8
Outside Cut
10
1110.5
20
1525.0
30
0
11
1110.5
21
1459.5
31
0
0
LINE
8
Outside Cut
10
1110.5
20
1459.5
30
0
11
1045.0
21
1459.5
31
0
0
ARC
8
Outside Cut
10
1045.0
20
1464.5
30
0
40
5.0
50
180.0
51
270.0
0
ARC
8
Outside Cut
10
1035.0
20
1464.5
30
0
40
5.0
50
0.0
51
180.0
0
LINE
8
Outside Cut
10
1030.0
20
1464.5
30
0
11
1030.0
21
1440.0
31
0
0
LINE
8
Outside Cut
10
1030.0
20
1440.0
30
0
11
100.0
21
1440.0
31
0
0
LINE
8
Outside Cut
10
100.0
20
1440.0
30
0
11
100.0
21
1464.5
31
0
0
ARC
8
Outside Cut
10
95.0
20
1464.5
30
0
40
5.0
50
0.0
51
180.0
0
ARC
8
Outside Cut
10
85.0
20
1464.5
30
0
40
5.0
50
-90.0
51
0.0
0
LINE
8
Outside Cut
10
85.0
20
1459.5
30
0
11
19.5
21
1459.5
31
0
0
LINE
8
Pocket Cut
10
103.73333
20
1490.0
30
0
11
80.73333
21
1490.0
31
0
0
ARC
8
Pocket Cut
10
80.73333
20
1495.0
30
0
40
5.0
50
90.0
51
270.0
0
ARC
8
Pocket Cut
10
80.73333
20
1505.0
30
0
40
5.0
50
270.0
51
360.0
0
LINE
8
Pocket Cut
10
85.73333
20
1505.0
30
0
11
85.73333
21
1775.0
31
0
0
ARC
8
Pocket Cut
10
80.73333
20
1775.0
30
0
40
5.0
50
360.0
51
450.0
0
ARC
8
Pocket Cut
10
80.73333
20
1785.0
30
0
40
5.0
50
90.0
51
270.0
0
LINE
8
Pocket Cut
10
80.73333
20
1790.0
30
0
11
103.73333
21
1790.0
31
0
0
ARC
8
Pocket Cut
10
103.73333
20
1785.0
30
0
40
5.0
50
270.0
51
450.0
0
ARC
8
Pocket Cut
10
103.73333
20
1775.0
30
0
40
5.0
50
90.0
51
180.0
0
LINE
8
Pocket Cut
10
98.73333
20
1505.0
30
0
11
98.73333
21
1775.0
31
0
0
ARC
8
Pocket Cut
10
103.73333
20
1505.0
30
0
40
5.0
50
180.0
51
270.0
0
ARC
8
Pocket Cut
10
103.73333
20
1495.0
30
0
40
5.0
50
270.0
51
450.0
0
LINE
8
Pocket Cut
10
249.19998
20
1490.0
30
0
11
226.19998
21
1490.0
31
0
0
ARC
8
Pocket Cut
10
226.19998
20
1495.0
30
0
40
5.0
50
90.0
51
270.0
0
ARC
8
Pocket Cut
10
226.19998
20
1505.0
30
0
40
5.0
50
270.0
51
360.0
0
LINE
8
Pocket Cut
10
231.19998
20
1505.0
30
0
11
231.19998
21
1775.0
31
0
0
ARC
8
Pocket Cut
10
226.19998
20
1775.0
30
0
40
5.0
50
360.0
51
450.0
0
ARC
8
Pocket Cut
10
226.19998
20
1785.0
30
0
40
5.0
50
90.0
51
270.0
0
LINE
8
Pocket Cut
10
226.19998
20
1790.0
30
0
11
249.19998
21
1790.0
31
0
0
ARC
8
Pocket Cut
10
249.19998
20
1785.0
30
0
40
5.0
50
270.0
51
450.0
0
ARC
8
Pocket Cut
10
249.19998
20
1775.0
30
0
40
5.0
50
90.0
51
180.0
0
LINE
8
Pocket Cut
10
244.19998
20
1505.0
30
0
11
244.19998
21
1775.0
31
0
0
ARC
8
Pocket Cut
10
249.19998
20
1505.0
30
0
40
5.0
50
180.0
51
270.0
0
ARC
8
Pocket Cut
10
249.19998
20
1495.0
30
0
40
5.0
50
270.0
51
450.0
0
LINE
8
Pocket Cut
10
467.39996
20
1490.0
30
0
11
444.39996
21
1490.0
31
0
0
ARC
8
Pocket Cut
10
444.39996
20
1495.0
30
0
40
5.0
50
90.0
51
270.0
0
ARC
8
Pocket Cut
10
444.39996
20
1505.0
30
0
40
5.0
50
270.0
51
360.0
0
LINE
8
Pocket Cut
10
449.39996
20
1505.0
30
0
11
449.39996
21
1775.0
31
0
0
ARC
8
Pocket Cut
10
444.39996
20
1775.0
30
0
40
5.0
50
360.0
51
450.0
0
ARC
8
Pocket Cut
10
444.39996
20
1785.0
30
0
40
5.0
50
90.0
51
270.0
0
LINE
8
Pocket Cut
10
444.39996
20
1790.0
30
0
11
467.39996
21
1790.0
31
0
0
ARC
8
Pocket Cut
10
467.39996
20
1785.0
30
0
40
5.0
50
270.0
51
450.0
0
ARC
8
Pocket Cut
10
467.39996
20
1775.0
30
0
40
5.0
50
90.0
51
180.0
0
LINE
8
Pocket Cut
10
462.39996
20
1505.0
30
0
11
462.39996
21
1775.0
31
0
0
ARC
8
Pocket Cut
10
467.39996
20
1505.0
30
0
40
5.0
50
180.0
51
270.0
0
ARC
8
Pocket Cut
10
467.39996
20
1495.0
30
0
40
5.0
50
270.0
51
450.0
0
LINE
8
Pocket Cut
10
758.3333
20
1490.0
30
0
11
735.3333
21
1490.0
31
0
0
ARC
8
Pocket Cut
10
735.3333
20
1495.0
30
0
40
5.0
50
90.0
51
270.0
0
ARC
8
Pocket Cut
10
735.3333
20
1505.0
30
0
40
5.0
50
270.0
51
360.0
0
LINE
8
Pocket Cut
10
740.3333
20
1505.0
30
0
11
740.3333
21
1775.0
31
0
0
ARC
8
Pocket Cut
10
735.3333
20
1775.0
30
0
40
5.0
50
360.0
51
450.0
0
ARC
8
Pocket Cut
10
735.3333
20
1785.0
30
0
40
5.0
50
90.0
51
270.0
0
LINE
8
Pocket Cut
10
735.3333
20
1790.0
30
0
11
758.3333
21
1790.0
31
0
0
ARC
8
Pocket Cut
10
758.3333
20
1785.0
30
0
40
5.0
50
270.0
51
450.0
0
ARC
8
Pocket Cut
10
758.3333
20
1775.0
30
0
40
5.0
50
90.0
51
180.0
0
LINE
8
Pocket Cut
10
753.3333
20
1505.0
30
0
11
753.3333
21
1775.0
31
0
0
ARC
8
Pocket Cut
10
758.3333
20
1505.0
30
0
40
5.0
50
180.0
51
270.0
0
ARC
8
Pocket Cut
10
758.3333
20
1495.0
30
0
40
5.0
50
270.0
51
450.0
0
CIRCLE
8
Dowel Holes
10
161.0
20
1830.25
30
0
40
2.5
0
CIRCLE
8
Dowel Holes
10
161.0
20
1640.0
30
0
40
2.5
0
CIRCLE
8
Dowel Holes
10
322.0
20
1830.25
30
0
40
2.5
0
CIRCLE
8
Dowel Holes
10
322.0
20
1640.0
30
0
40
2.5
0
CIRCLE
8
Dowel Holes
10
483.0
20
1830.25
30
0
40
2.5
0
CIRCLE
8
Dowel Holes
10
483.0
20
1640.0
30
0
40
2.5
0
CIRCLE
8
Dowel Holes
10
644.0
20
1830.25
30
0
40
2.5
0
CIRCLE
8
Dowel Holes
10
644.0
20
1640.0
30
0
40
2.5
0
CIRCLE
8
Dowel Holes
10
805.0
20
1830.25
30
0
40
2.5
0
CIRCLE
8
Dowel Holes
10
805.0
20
1640.0
30
0
40
2.5
0
CIRCLE
8
Dowel Holes
10
966.0
20
1830.25
30
0
40
2.5
0
CIRCLE
8
Dowel Holes
10
966.0
20
1640.0
30
0
40
2.5
0
LINE
8
Outside Cut
10
19.5
20
1890.0
30
0
11
19.5
21
1975.0
31
0
0
ARC
8
Outside Cut
10
24.5
20
1975.0
30
0
40
5.0
50
90.0
51
180.0
0
ARC
8
Outside Cut
10
24.5
20
1985.0
30
0
40
5.0
50
-90.0
51
90.0
0
LINE
8
Outside Cut
10
24.5
20
1990.0
30
0
11
0.0
21
1990.0
31
0
0
LINE
8
Outside Cut
10
0.0
20
1990.0
30
0
11
0.0
21
2090.0
31
0
0
LINE
8
Outside Cut
10
0.0
20
2090.0
30
0
11
24.5
21
2090.0
31
0
0
ARC
8
Outside Cut
10
24.5
20
2095.0
30
0
40
5.0
50
-90.0
51
90.0
0
ARC
8
Outside Cut
10
24.5
20
2105.0
30
0
40
5.0
50
180.0
51
270.0
0
LINE
8
Outside Cut
10
19.5
20
2105.0
30
0
11
19.5
21
2290.0
31
0
0
LINE
8
Outside Cut
10
19.5
20
2290.0
30
0
11
50.0
21
2290.0
31
0
0
LINE
8
Outside Cut
10
50.0
20
2290.0
30
0
11
50.0
21
2265.5
31
0
0
ARC
8
Outside Cut
10
55.0
20
2265.5
30
0
40
5.0
50
180.0
51
360.0
0
ARC
8
Outside Cut
10
65.0
20
2265.5
30
0
40
5.0
50
90.0
51
180.0
0
LINE
8
Outside Cut
10
65.0
20
2270.5
30
0
11
100.0
21
2270.5
31
0
0
LINE
8
Outside Cut
10
100.0
20
2270.5
30
0
11
150.0
21
1990.0
31
0
0
LINE
8
Outside Cut
10
150.0
20
1990.0
30
0
11
980.0
21
1990.0
31
0
0
LINE
8
Outside Cut
10
980.0
20
1990.0
30
0
11
1030.0
21
2270.5
31
0
0
LINE
8
Outside Cut
10
1065.0
20
2270.5
30
0
11
1030.0
21
2270.5
31
0
0
ARC
8
Outside Cut
10
1065.0
20
2265.5
30
0
40
5.0
50
0.0
51
90.0
0
ARC
8
Outside Cut
10
1075.0
20
2265.5
30
0
40
5.0
50
180.0
51
360.0
0
LINE
8
Outside Cut
10
1080.0
20
2290.0
30
0
11
1080.0
21
2265.5
31
0
0
LINE
8
Outside Cut
10
1110.5
20
2290.0
30
0
11
1080.0
21
2290.0
31
0
0
LINE
8
Outside Cut
10
1110.5
20
2290.0
30
0
11
1110.5
21
2105.0
31
0
0
ARC
8
Outside Cut
10
1105.5
20
2105.0
30
0
40
5.0
50
-90.0
51
0.0
0
ARC
8
Outside Cut
10
1105.5
20
2095.0
30
0
40
5.0
50
90.0
51
270.0
0
LINE
8
Outside Cut
10
1105.5
20
2090.0
30
0
11
1130.0
21
2090.0
31
0
0
LINE
8
Outside Cut
10
1130.0
20
2090.0
30
0
11
1130.0
21
1990.0
31
0
0
LINE
8
Outside Cut
10
1130.0
20
1990.0
30
0
11
1105.5
21
1990.0
31
0
0
ARC
8
Outside Cut
10
1105.5
20
1985.0
30
0
40
5.0
50
90.0
51
270.0
0
ARC
8
Outside Cut
10
1105.5
20
1975.0
30
0
40
5.0
50
0.0
51
90.0
0
LINE
8
Outside Cut
10
1110.5
20
1975.0
30
0
11
1110.5
21
1890.0
31
0
0
LINE
8
Outside Cut
10
1110.5
20
1890.0
30
0
11
19.5
21
1890.0
31
0
0
CIRCLE
8
Dowel Holes
10
9.75
20
2040.0
30
0
40
2.5
0
CIRCLE
8
Dowel Holes
10
1120.25
20
2040.0
30
0
40
2.5
0
ENDSEC
0
EOF
