<?xml version="1.0" encoding="UTF-8" standalone="no"?>
<!-- Generator: Adobe Illustrator 15.1.0, SVG Export Plug-In . SVG Version: 6.00 Build 0)  -->

<svg
   xmlns:dc="http://purl.org/dc/elements/1.1/"
   xmlns:cc="http://creativecommons.org/ns#"
   xmlns:rdf="http://www.w3.org/1999/02/22-rdf-syntax-ns#"
   xmlns:svg="http://www.w3.org/2000/svg"
   xmlns="http://www.w3.org/2000/svg"
   xmlns:sodipodi="http://sodipodi.sourceforge.net/DTD/sodipodi-0.dtd"
   xmlns:inkscape="http://www.inkscape.org/namespaces/inkscape"
   version="1.1"
   id="Layer_1"
   sodipodi:docname="control.svg"
   inkscape:version="0.92.1 r15371"
   x="0px"
   y="0px"
   width="916px"
   height="130px"
   viewBox="0 0 916 130"
   enable-background="new 0 0 916 130"
   xml:space="preserve"><metadata
     id="metadata626"><rdf:RDF><cc:Work
         rdf:about=""><dc:format>image/svg+xml</dc:format><dc:type
           rdf:resource="http://purl.org/dc/dcmitype/StillImage" /></cc:Work></rdf:RDF></metadata><defs
     id="defs624" /><sodipodi:namedview
     id="namedview585"
     pagecolor="#ffffff"
     showgrid="false"
     bordercolor="#666666"
     inkscape:zoom="28.852427"
     inkscape:cx="204.74786"
     inkscape:cy="46.420035"
     borderopacity="1"
     objecttolerance="10"
     gridtolerance="10"
     guidetolerance="10"
     inkscape:window-maximized="1"
     inkscape:pageopacity="0"
     inkscape:pageshadow="2"
     inkscape:window-y="-8"
     inkscape:window-height="1017"
     inkscape:window-x="1912"
     inkscape:current-layer="Layer_1"
     inkscape:window-width="1920" /><line
     fill="none"
     stroke="#231F20"
     stroke-width="4"
     stroke-miterlimit="10"
     x1="173.811"
     y1="36.232"
     x2="434.33"
     y2="36.232"
     id="line11" /><line
     fill="none"
     stroke="#231F20"
     stroke-width="4"
     stroke-miterlimit="10"
     x1="173.811"
     y1="50.445"
     x2="434.33"
     y2="50.445"
     id="line13" /><line
     fill="none"
     stroke="#231F20"
     stroke-width="4"
     stroke-miterlimit="10"
     x1="282.755"
     y1="78.863"
     x2="349.068"
     y2="78.863"
     id="line15" /><line
     fill="none"
     stroke="#231F20"
     stroke-width="4"
     stroke-miterlimit="10"
     x1="173.811"
     y1="78.863"
     x2="244.86"
     y2="78.863"
     id="line17" /><line
     fill="none"
     stroke="#231F20"
     stroke-width="4"
     stroke-miterlimit="10"
     x1="368.017"
     y1="78.863"
     x2="434.33"
     y2="78.863"
     id="line19" /><g
     id="g25"><g
       id="g23"><path
         fill="#231F20"
         d="M287.663,111.396v-0.947h3.764v0.947H287.663z M287.663,113.025v-0.95h3.764v0.95H287.663z"
         id="path21" /></g></g><g
     id="g31"><g
       id="g29"><path
         fill="#231F20"
         d="M308.395,110.404l-0.23,0.91c-0.176,0.055-0.307,0.18-0.393,0.375s-0.129,0.404-0.129,0.627    c0,0.297,0.068,0.566,0.206,0.811s0.349,0.412,0.633,0.505v-1.674c0-0.414,0.029-0.72,0.09-0.918    c0.06-0.198,0.176-0.354,0.349-0.466c0.173-0.113,0.398-0.17,0.678-0.17c0.385,0,0.713,0.096,0.987,0.285    c0.274,0.188,0.478,0.438,0.611,0.744c0.133,0.308,0.2,0.611,0.2,0.914c0,0.518-0.165,0.979-0.494,1.381    c-0.33,0.402-0.792,0.657-1.391,0.767v1.38h-1.031v-1.38c-0.586-0.083-1.048-0.32-1.387-0.71c-0.339-0.391-0.508-0.86-0.508-1.408    c0-0.619,0.173-1.118,0.521-1.495C307.407,110.559,307.836,110.4,308.395,110.404z M309.511,113.684    c0.548-0.244,0.822-0.733,0.822-1.469c0-0.26-0.054-0.486-0.162-0.68c-0.108-0.194-0.241-0.289-0.399-0.289    c-0.081,0-0.145,0.037-0.191,0.111c-0.046,0.074-0.069,0.319-0.069,0.735V113.684z"
         id="path27" /></g></g><g
     id="g37"><g
       id="g35"><path
         fill="#231F20"
         d="M372.924,111.396v-0.947h3.765v0.947H372.924z M372.924,113.025v-0.95h3.765v0.95H372.924z"
         id="path33" /></g></g><g
     id="g43"><g
       id="g41"><path
         fill="#231F20"
         d="M393.656,110.404l-0.231,0.91c-0.176,0.055-0.307,0.18-0.393,0.375c-0.085,0.195-0.128,0.404-0.128,0.627    c0,0.297,0.067,0.566,0.206,0.811c0.137,0.244,0.348,0.412,0.632,0.505v-1.674c0-0.414,0.03-0.72,0.09-0.918    s0.176-0.354,0.349-0.466c0.173-0.113,0.398-0.17,0.679-0.17c0.384,0,0.713,0.096,0.986,0.285    c0.274,0.188,0.479,0.438,0.611,0.744c0.133,0.308,0.2,0.611,0.2,0.914c0,0.518-0.165,0.979-0.494,1.381    c-0.33,0.402-0.792,0.657-1.39,0.767v1.38h-1.032v-1.38c-0.585-0.083-1.047-0.32-1.386-0.71c-0.34-0.391-0.509-0.86-0.509-1.408    c0-0.619,0.173-1.118,0.521-1.495C392.668,110.559,393.098,110.4,393.656,110.404z M394.772,113.684    c0.548-0.244,0.821-0.733,0.821-1.469c0-0.26-0.054-0.486-0.162-0.68c-0.107-0.194-0.24-0.289-0.399-0.289    c-0.081,0-0.145,0.037-0.191,0.111c-0.046,0.074-0.068,0.319-0.068,0.735V113.684z"
         id="path39" /></g></g><g
     id="g117"><g
       id="g115"><path
         fill="#231F20"
         d="M179.813,31.5h-1.369l-0.955-3.4l-0.963,3.4h-1.369l-1.347-5.311h1.332l0.782,3.656l0.963-3.656h1.181    l0.993,3.656l0.774-3.656h1.324L179.813,31.5z"
         id="path105" /><path
         fill="#231F20"
         d="M182.428,31.5v-5.311h1.324V31.5H182.428z"
         id="path107" /><path
         fill="#231F20"
         d="M185.849,26.188h1.821c2.053,0,2.934,0.91,2.934,2.656c0,1.264-0.549,2.655-2.663,2.655h-2.091    L185.849,26.188L185.849,26.188z M187.188,30.431h0.429c1.143,0,1.655-0.398,1.655-1.602c0-0.828-0.271-1.52-1.429-1.52h-0.654    L187.188,30.431L187.188,30.431z"
         id="path109" /><path
         fill="#231F20"
         d="M194.204,27.234V31.5h-1.339v-4.265h-1.384v-1.046h4.1v1.046L194.204,27.234L194.204,27.234z"
         id="path111" /><path
         fill="#231F20"
         d="M200.198,31.5v-2.264h-1.941V31.5h-1.339v-5.311h1.339v1.918h1.941v-1.918h1.332V31.5H200.198z"
         id="path113" /></g></g><g
     id="g133"><g
       id="g131"><path
         fill="#231F20"
         d="M177.602,59.92v-2.264h-1.941v2.264h-1.339v-5.311h1.339v1.918h1.941v-1.918h1.332v5.311H177.602z"
         id="path119" /><path
         fill="#231F20"
         d="M181.03,54.609h3.927v1.031h-2.603v0.963h2.43v1.008h-2.43v1.264h2.836v1.045h-4.16V54.609z"
         id="path121" /><path
         fill="#231F20"
         d="M186.947,59.92v-5.311h1.324v5.311H186.947z"
         id="path123" /><path
         fill="#231F20"
         d="M193.957,56.264c-0.188-0.384-0.632-0.752-1.242-0.752c-0.85,0-1.384,0.632-1.384,1.715    c0,0.632,0.188,1.745,1.392,1.745c0.481,0,1.113-0.233,1.158-0.993h-1.188v-1.008h2.31v2.949h-1.038v-0.489    c-0.647,0.586-1.264,0.609-1.565,0.609c-1.647,0-2.392-1.43-2.392-2.776c0-1.264,0.737-2.836,2.618-2.836    c1.407,0,2.114,0.94,2.339,1.228L193.957,56.264z"
         id="path125" /><path
         fill="#231F20"
         d="M200.205,59.92v-2.264h-1.941v2.264h-1.339v-5.311h1.339v1.918h1.941v-1.918h1.332v5.311H200.205z"
         id="path127" /><path
         fill="#231F20"
         d="M205.581,55.655v4.265h-1.339v-4.265h-1.384v-1.046h4.1v1.046H205.581z"
         id="path129" /></g></g><g
     id="g155"><path
       fill="#231F20"
       d="M131.853,5.035h2.426c2.737,0,3.91,1.213,3.91,3.539c0,1.685-0.731,3.539-3.549,3.539h-2.787V5.035z    M133.637,10.689h0.571c1.524,0,2.206-0.532,2.206-2.136c0-1.103-0.361-2.025-1.905-2.025h-0.872V10.689z"
       id="path135" /><path
       fill="#231F20"
       d="M140.585,12.113V5.035h1.764v7.078H140.585z"
       id="path137" /><path
       fill="#231F20"
       d="M151.271,12.113c0,0,0-3.91,0.04-5.293l-1.474,5.293h-1.534L146.84,6.82c0.03,0.992,0.04,5.293,0.04,5.293   h-1.724V5.035h2.586l1.333,4.952l1.313-4.952h2.587v7.078H151.271z"
       id="path139" /><path
       fill="#231F20"
       d="M155.774,5.035h5.233v1.374h-3.468v1.283h3.238v1.343h-3.238v1.684h3.779v1.394h-5.544V5.035z"
       id="path141" /><path
       fill="#231F20"
       d="M167.875,12.113l-2.506-4.23v4.23h-1.704V5.035h1.734l2.516,4.311V5.035h1.694v7.078H167.875z"
       id="path143" /><path
       fill="#231F20"
       d="M176.878,7.14c-0.511-0.531-1.093-0.882-1.854-0.882c-0.722,0-1.053,0.421-1.053,0.752   c0,0.381,0.301,0.561,0.902,0.651l0.782,0.11c1.845,0.261,2.606,0.822,2.606,2.035c0,1.494-1.193,2.466-3.218,2.466   c-1.654,0-2.506-0.591-3.228-1.433l1.343-0.853c0.471,0.572,1.283,0.893,2.045,0.893c0.521,0,1.303-0.231,1.303-0.822   c0-0.501-0.601-0.642-1.233-0.722l-0.812-0.11c-1.243-0.17-2.255-0.752-2.255-1.995c0-1.394,1.032-2.366,2.857-2.366   c1.494,0,2.426,0.682,3.118,1.343L176.878,7.14z"
       id="path145" /><path
       fill="#231F20"
       d="M180.718,12.113V5.035h1.764v7.078H180.718z"
       id="path147" /><path
       fill="#231F20"
       d="M188.317,4.814c2.576,0,3.589,2.125,3.589,3.81c0,1.895-1.293,3.699-3.569,3.699   c-2.336,0-3.519-1.834-3.519-3.779C184.818,6.93,185.761,4.814,188.317,4.814z M188.347,10.819c1.313,0,1.785-1.223,1.785-2.215   c0-1.283-0.562-2.306-1.814-2.306c-1.343,0-1.754,1.273-1.754,2.226C186.563,9.657,187.074,10.819,188.347,10.819z"
       id="path149" /><path
       fill="#231F20"
       d="M198.223,12.113l-2.506-4.23v4.23h-1.704V5.035h1.734l2.516,4.311V5.035h1.694v7.078H198.223z"
       id="path151" /><path
       fill="#231F20"
       d="M207.226,7.14c-0.511-0.531-1.093-0.882-1.854-0.882c-0.722,0-1.053,0.421-1.053,0.752   c0,0.381,0.301,0.561,0.902,0.651l0.782,0.11c1.845,0.261,2.606,0.822,2.606,2.035c0,1.494-1.193,2.466-3.218,2.466   c-1.654,0-2.506-0.591-3.228-1.433l1.343-0.853c0.471,0.572,1.283,0.893,2.045,0.893c0.521,0,1.303-0.231,1.303-0.822   c0-0.501-0.601-0.642-1.233-0.722l-0.812-0.11c-1.243-0.17-2.255-0.752-2.255-1.995c0-1.394,1.032-2.366,2.857-2.366   c1.494,0,2.426,0.682,3.118,1.343L207.226,7.14z"
       id="path153" /></g><g
     id="g173"><g
       id="g171"><path
         fill="#231F20"
         d="M793.502,4.814c2.576,0,3.59,2.125,3.59,3.81c0,1.895-1.294,3.699-3.568,3.699    c-2.336,0-3.52-1.834-3.52-3.779C790.004,6.93,790.945,4.814,793.502,4.814z M793.532,10.819c1.313,0,1.784-1.223,1.784-2.215    c0-1.283-0.562-2.306-1.814-2.306c-1.343,0-1.754,1.273-1.754,2.226C791.748,9.657,792.26,10.819,793.532,10.819z"
         id="path157" /><path
         fill="#231F20"
         d="M802.706,5.035c1.674,0,2.556,0.792,2.556,2.416c0,1.794-1.572,2.346-2.855,2.346h-1.435v2.316h-1.773    V5.035H802.706z M800.972,8.484h1.163c0.803,0,1.363-0.19,1.363-1.113c0-1.022-0.842-1.033-1.395-1.033h-1.133L800.972,8.484    L800.972,8.484z"
         id="path159" /><path
         fill="#231F20"
         d="M810.125,6.429v5.684h-1.785V6.429h-1.844V5.035h5.463v1.394H810.125z"
         id="path161" /><path
         fill="#231F20"
         d="M813.734,12.113V5.035h1.765v7.078H813.734z"
         id="path163" /><path
         fill="#231F20"
         d="M821.334,4.814c2.576,0,3.589,2.125,3.589,3.81c0,1.895-1.294,3.699-3.569,3.699    c-2.336,0-3.519-1.834-3.519-3.779C817.835,6.93,818.777,4.814,821.334,4.814z M821.363,10.819c1.313,0,1.785-1.223,1.785-2.215    c0-1.283-0.563-2.306-1.814-2.306c-1.344,0-1.754,1.273-1.754,2.226C819.58,9.657,820.091,10.819,821.363,10.819z"
         id="path165" /><path
         fill="#231F20"
         d="M831.24,12.113l-2.507-4.23v4.23h-1.704V5.035h1.733l2.517,4.311V5.035h1.694v7.078H831.24z"
         id="path167" /><path
         fill="#231F20"
         d="M840.242,7.14c-0.511-0.531-1.092-0.882-1.854-0.882c-0.723,0-1.053,0.421-1.053,0.752    c0,0.381,0.301,0.561,0.902,0.651l0.78,0.11c1.846,0.261,2.606,0.822,2.606,2.035c0,1.494-1.192,2.466-3.218,2.466    c-1.654,0-2.506-0.591-3.229-1.433l1.345-0.853c0.471,0.572,1.282,0.893,2.045,0.893c0.521,0,1.303-0.231,1.303-0.822    c0-0.501-0.602-0.642-1.232-0.722l-0.813-0.11c-1.242-0.17-2.256-0.752-2.256-1.995c0-1.394,1.032-2.366,2.856-2.366    c1.494,0,2.426,0.682,3.118,1.343L840.242,7.14z"
         id="path169" /></g></g><g
     id="g197"><path
       fill="#231F20"
       d="M450.351,5.035c1.675,0,2.557,0.792,2.557,2.416c0,1.794-1.574,2.346-2.857,2.346h-1.434v2.316h-1.774   V5.035H450.351z M448.617,8.484h1.163c0.802,0,1.363-0.19,1.363-1.113c0-1.022-0.842-1.033-1.394-1.033h-1.133V8.484z"
       id="path175" /><path
       fill="#231F20"
       d="M458.091,5.035c1.053,0,2.717,0.271,2.717,2.296c0,1.203-0.682,1.684-1.454,1.955l1.636,2.827h-1.945   l-1.413-2.526h-1.103v2.526h-1.784V5.035H458.091z M456.517,8.273h1.464c1.013,0,1.063-0.762,1.063-0.983   c0-0.922-0.742-0.942-1.052-0.942h-1.475V8.273z"
       id="path177" /><path
       fill="#231F20"
       d="M466.303,4.814c2.576,0,3.588,2.125,3.588,3.81c0,1.895-1.293,3.699-3.567,3.699   c-2.336,0-3.521-1.834-3.521-3.779C462.803,6.93,463.746,4.814,466.303,4.814z M466.332,10.819c1.313,0,1.785-1.223,1.785-2.215   c0-1.283-0.563-2.306-1.814-2.306c-1.344,0-1.755,1.273-1.755,2.226C464.548,9.657,465.059,10.819,466.332,10.819z"
       id="path179" /><path
       fill="#231F20"
       d="M475.506,5.035c1.674,0,2.558,0.792,2.558,2.416c0,1.794-1.574,2.346-2.857,2.346h-1.434v2.316h-1.774   V5.035H475.506z M473.771,8.484h1.161c0.804,0,1.363-0.19,1.363-1.113c0-1.022-0.842-1.033-1.393-1.033h-1.134v2.146H473.771z"
       id="path181" /><path
       fill="#231F20"
       d="M483.355,4.814c2.575,0,3.59,2.125,3.59,3.81c0,1.895-1.294,3.699-3.569,3.699   c-2.336,0-3.519-1.834-3.519-3.779C479.857,6.93,480.799,4.814,483.355,4.814z M483.386,10.819c1.313,0,1.784-1.223,1.784-2.215   c0-1.283-0.561-2.306-1.813-2.306c-1.344,0-1.755,1.273-1.755,2.226C481.602,9.657,482.113,10.819,483.386,10.819z"
       id="path183" /><path
       fill="#231F20"
       d="M492.399,5.035c1.053,0,2.717,0.271,2.717,2.296c0,1.203-0.683,1.684-1.454,1.955l1.635,2.827h-1.945   l-1.412-2.526h-1.104v2.526h-1.785V5.035H492.399z M490.826,8.273h1.463c1.013,0,1.063-0.762,1.063-0.983   c0-0.922-0.741-0.942-1.053-0.942h-1.473V8.273z"
       id="path185" /><path
       fill="#231F20"
       d="M500.18,6.429v5.684h-1.785V6.429h-1.844V5.035h5.463v1.394H500.18z"
       id="path187" /><path
       fill="#231F20"
       d="M503.789,12.113V5.035h1.764v7.078H503.789z"
       id="path189" /><path
       fill="#231F20"
       d="M511.389,4.814c2.576,0,3.588,2.125,3.588,3.81c0,1.895-1.293,3.699-3.567,3.699   c-2.336,0-3.521-1.834-3.521-3.779C507.889,6.93,508.832,4.814,511.389,4.814z M511.418,10.819c1.313,0,1.785-1.223,1.785-2.215   c0-1.283-0.563-2.306-1.814-2.306c-1.344,0-1.755,1.273-1.755,2.226C509.634,9.657,510.145,10.819,511.418,10.819z"
       id="path191" /><path
       fill="#231F20"
       d="M521.294,12.113l-2.507-4.23v4.23h-1.703V5.035h1.734l2.516,4.311V5.035h1.694v7.078H521.294z"
       id="path193" /><path
       fill="#231F20"
       d="M530.297,7.14c-0.512-0.531-1.093-0.882-1.854-0.882c-0.723,0-1.054,0.421-1.054,0.752   c0,0.381,0.302,0.561,0.902,0.651l0.782,0.11c1.844,0.261,2.604,0.822,2.604,2.035c0,1.494-1.191,2.466-3.217,2.466   c-1.654,0-2.507-0.591-3.229-1.433l1.344-0.853c0.471,0.572,1.283,0.893,2.045,0.893c0.521,0,1.303-0.231,1.303-0.822   c0-0.501-0.602-0.642-1.231-0.722l-0.813-0.11c-1.243-0.17-2.256-0.752-2.256-1.995c0-1.394,1.033-2.366,2.856-2.366   c1.494,0,2.427,0.682,3.117,1.343L530.297,7.14z"
       id="path195" /></g><g
     id="g211"><g
       id="g209"><path
         fill="#231F20"
         d="M174.14,68.818h1.821c2.053,0,2.934,0.91,2.934,2.656c0,1.264-0.549,2.655-2.663,2.655h-2.091    L174.14,68.818L174.14,68.818z M175.479,73.063h0.429c1.143,0,1.655-0.397,1.655-1.603c0-0.827-0.271-1.521-1.429-1.521h-0.654    L175.479,73.063L175.479,73.063z"
         id="path199" /><path
         fill="#231F20"
         d="M180.697,68.818h3.927v1.031h-2.603v0.963h2.43v1.008h-2.43v1.265h2.836v1.046h-4.16V68.818z"
         id="path201" /><path
         fill="#231F20"
         d="M189.248,68.818c1.256,0,1.918,0.596,1.918,1.813c0,1.347-1.181,1.761-2.144,1.761h-1.076v1.737h-1.332    v-5.312H189.248L189.248,68.818z M187.946,71.407h0.873c0.602,0,1.023-0.144,1.023-0.835c0-0.768-0.632-0.775-1.046-0.775h-0.85    V71.407L187.946,71.407z"
         id="path203" /><path
         fill="#231F20"
         d="M194.812,69.865v4.266h-1.339v-4.266h-1.384v-1.047h4.1v1.047H194.812z"
         id="path205" /><path
         fill="#231F20"
         d="M200.806,74.131v-2.265h-1.941v2.265h-1.339v-5.313h1.339v1.92h1.941v-1.92h1.332v5.313H200.806z"
         id="path207" /></g></g><g
     id="g239"><path
       fill="#231F20"
       d="M284.869,83.156c1.632,0,1.806,1.934,1.806,2.656c0,1.157-0.384,2.641-1.851,2.641   c-1.204,0-1.768-1.055-1.768-2.701C283.056,84.314,283.62,83.156,284.869,83.156z M284.869,87.52c0.572,0,0.677-0.871,0.677-1.691   c0-0.827-0.136-1.729-0.692-1.729c-0.534,0-0.677,0.743-0.685,1.901C284.169,86.587,284.259,87.52,284.869,87.52z"
       id="path237" /></g><g
     id="g243"><path
       fill="#231F20"
       d="M298.899,84c0.308-0.023,0.564-0.046,0.842-0.189c0.331-0.172,0.429-0.367,0.527-0.569h0.917v5.1h-1.211   v-3.724c-0.278,0.119-0.346,0.15-1.076,0.165L298.899,84L298.899,84z"
       id="path241" /></g><g
     id="g247"><path
       fill="#231F20"
       d="M314.04,85.066v-0.181c0-1.202,0.775-1.737,1.791-1.737c1.045,0,1.729,0.571,1.729,1.559   c0,0.887-0.48,1.564-1.971,2.7c0,0,1.775-0.03,1.986-0.03v0.963h-3.498v-0.888c0.391-0.31,0.654-0.513,1.181-0.963   c0.603-0.526,1.038-0.956,1.038-1.761c0-0.203,0-0.699-0.519-0.699c-0.203,0-0.558,0.09-0.558,0.625   c0,0.127,0.016,0.322,0.03,0.479L314.04,85.066z"
       id="path245" /></g><g
     id="g251"><path
       fill="#231F20"
       d="M329.612,84.691c0.12-1.228,0.963-1.543,1.782-1.543c1.378,0,1.663,0.881,1.663,1.369   c0,0.641-0.368,0.971-0.843,1.137c0.641,0.113,0.971,0.578,0.971,1.166c0,0.48-0.315,1.609-1.934,1.609   c-1.128,0-1.737-0.678-1.737-1.693v-0.111l1.174-0.098c0,0-0.008,0.143-0.008,0.218c0,0.474,0.278,0.753,0.624,0.753   c0.399,0,0.669-0.279,0.669-0.753c0-0.579-0.436-0.654-0.752-0.654c-0.06,0-0.166,0.007-0.166,0.007v-0.865   c0,0,0.113,0.009,0.174,0.009c0.64,0,0.64-0.55,0.64-0.603c0-0.414-0.301-0.578-0.549-0.578c-0.52,0-0.52,0.519-0.52,0.736   L329.612,84.691z"
       id="path249" /></g><g
     id="g255"><path
       fill="#231F20"
       d="M348.183,87.158v1.182h-1.188v-1.174h-2.069c0-0.173,0.016-0.918,0.016-0.918l2.105-3.008h1.136v3.092   h0.678v0.826H348.183L348.183,87.158z M347.002,84.533l-1.211,1.799h1.211V84.533z"
       id="path253" /></g><g
     id="g269"><g
       id="g267"><path
         fill="#231F20"
         d="M286.546,74.131v-2.265h-1.941v2.265h-1.339v-5.313h1.339v1.92h1.941v-1.92h1.332v5.313H286.546z"
         id="path257" /><path
         fill="#231F20"
         d="M292.246,68.654c1.933,0,2.693,1.594,2.693,2.857c0,1.422-0.97,2.776-2.678,2.776    c-1.753,0-2.641-1.377-2.641-2.837C289.62,70.241,290.327,68.654,292.246,68.654z M292.268,73.16c0.985,0,1.339-0.918,1.339-1.662    c0-0.963-0.421-1.73-1.361-1.73c-1.008,0-1.316,0.955-1.316,1.67C290.929,72.287,291.313,73.16,292.268,73.16z"
         id="path259" /><path
         fill="#231F20"
         d="M299.028,68.818c0.79,0,2.039,0.203,2.039,1.724c0,0.903-0.512,1.265-1.091,1.467l1.226,2.122h-1.459    l-1.061-1.896h-0.827v1.896h-1.339v-5.313H299.028L299.028,68.818z M297.847,71.249h1.098c0.76,0,0.797-0.571,0.797-0.737    c0-0.691-0.557-0.707-0.79-0.707h-1.106L297.847,71.249L297.847,71.249z"
         id="path261" /><path
         fill="#231F20"
         d="M302.907,74.131v-5.313h1.324v5.313H302.907z"
         id="path263" /><path
         fill="#231F20"
         d="M307.502,73.085h2.881v1.046h-4.521V73.13l2.941-3.28h-2.692V68.82h4.288v1.037L307.502,73.085z"
         id="path265" /></g></g><g
     id="g285"><g
       id="g283"><path
         fill="#231F20"
         d="M469.182,57.553v-5.311h1.324v4.19h2.076v1.121H469.182z"
         id="path271" /><path
         fill="#231F20"
         d="M476.289,52.076c1.933,0,2.692,1.595,2.692,2.859c0,1.421-0.971,2.776-2.679,2.776    c-1.753,0-2.641-1.377-2.641-2.836C473.663,53.664,474.37,52.076,476.289,52.076z M476.311,56.583    c0.986,0,1.341-0.918,1.341-1.663c0-0.963-0.423-1.73-1.361-1.73c-1.009,0-1.316,0.956-1.316,1.67    C474.973,55.709,475.355,56.583,476.311,56.583z"
         id="path273" /><path
         fill="#231F20"
         d="M485.178,56.342c-0.422,0.737-1.182,1.369-2.287,1.369c-1.406,0-2.543-1.023-2.543-2.821    c0-1.572,1.068-2.813,2.572-2.813c0.979,0,1.866,0.58,2.242,1.377l-1.053,0.526c-0.113-0.399-0.588-0.813-1.129-0.813    c-0.857,0-1.31,0.797-1.31,1.685c0,1.166,0.594,1.745,1.31,1.745c0.69,0,0.971-0.481,1.149-0.79L485.178,56.342z"
         id="path275" /><path
         fill="#231F20"
         d="M490.095,57.553l-1.415-2.407l-0.818,0.85v1.557h-1.265v-5.311h1.265v2.167l1.984-2.167h1.604    l-1.881,1.971l2.022,3.34H490.095z"
         id="path277" /><path
         fill="#231F20"
         d="M492.83,52.242h3.927v1.031h-2.603v0.963h2.43v1.008h-2.43v1.264h2.836v1.045h-4.16V52.242z"
         id="path279" /><path
         fill="#231F20"
         d="M498.748,52.242h1.82c2.053,0,2.934,0.91,2.934,2.656c0,1.264-0.549,2.655-2.663,2.655h-2.091V52.242z     M500.087,56.484h0.429c1.144,0,1.654-0.398,1.654-1.602c0-0.828-0.271-1.52-1.429-1.52h-0.654V56.484z"
         id="path281" /></g></g><g
     id="g303"><g
       id="g301"><path
         fill="#231F20"
         d="M473.77,76.5c0,0,0-2.934,0.03-3.973l-1.105,3.973h-1.15l-1.098-3.973    c0.021,0.746,0.028,3.973,0.028,3.973h-1.293v-5.311h1.939l1.001,3.716l0.985-3.716h1.94V76.5H473.77z"
         id="path287" /><path
         fill="#231F20"
         d="M479.416,71.023c1.934,0,2.693,1.595,2.693,2.858c0,1.421-0.972,2.775-2.679,2.775    c-1.754,0-2.641-1.377-2.641-2.837C476.791,72.611,477.498,71.023,479.416,71.023z M479.438,75.529c0.985,0,1.34-0.918,1.34-1.662    c0-0.963-0.421-1.73-1.361-1.73c-1.008,0-1.316,0.955-1.316,1.67C478.1,74.656,478.482,75.529,479.438,75.529z"
         id="path289" /><path
         fill="#231F20"
         d="M483.686,71.189h1.821c2.054,0,2.935,0.91,2.935,2.654c0,1.264-0.551,2.655-2.663,2.655h-2.093V71.189z     M485.025,75.432h0.429c1.144,0,1.655-0.397,1.655-1.602c0-0.828-0.271-1.52-1.431-1.52h-0.653V75.432z"
         id="path291" /><path
         fill="#231F20"
         d="M494.734,74.4c0,1.332-0.852,2.221-2.287,2.221c-1.249,0-2.25-0.662-2.25-2.129v-3.303h1.34v3.453    c0,0.707,0.361,0.879,0.955,0.879c0.678,0,0.91-0.338,0.91-0.947v-3.385h1.332V74.4z"
         id="path293" /><path
         fill="#231F20"
         d="M496.793,76.5v-5.311h1.323v4.188h2.076V76.5H496.793z"
         id="path295" /><path
         fill="#231F20"
         d="M504.997,76.5l-0.263-0.85h-1.957l-0.264,0.85H501.1l1.972-5.311h1.384l1.956,5.311H504.997z     M503.74,72.453l-0.654,2.242h1.348L503.74,72.453z"
         id="path297" /><path
         fill="#231F20"
         d="M510.2,71.189c0.79,0,2.038,0.203,2.038,1.723c0,0.902-0.513,1.264-1.09,1.467l1.226,2.121h-1.46    l-1.061-1.896h-0.826V76.5h-1.34v-5.311H510.2z M509.02,73.619h1.099c0.76,0,0.797-0.572,0.797-0.737    c0-0.692-0.557-0.708-0.789-0.708h-1.105L509.02,73.619L509.02,73.619z"
         id="path299" /></g></g><g
     id="g315"><g
       id="g313"><path
         fill="#231F20"
         d="M473.25,33.294v1.023h-2.752v1.114h2.535v1.03h-2.535v2.144h-1.324v-5.311H473.25z"
         id="path305" /><path
         fill="#231F20"
         d="M477.138,33.294c0.79,0,2.038,0.203,2.038,1.723c0,0.903-0.512,1.264-1.09,1.467l1.227,2.122h-1.461    l-1.061-1.896h-0.826v1.896h-1.34v-5.311L477.138,33.294L477.138,33.294z M475.957,35.724h1.098c0.761,0,0.797-0.571,0.797-0.737    c0-0.692-0.557-0.708-0.789-0.708h-1.104L475.957,35.724L475.957,35.724z"
         id="path307" /><path
         fill="#231F20"
         d="M481.024,33.294h3.927v1.031h-2.604v0.963h2.431v1.008h-2.431v1.264h2.836v1.045h-4.158V33.294z"
         id="path309" /><path
         fill="#231F20"
         d="M486.949,33.294h3.928v1.031h-2.604v0.963h2.43v1.008h-2.43v1.264h2.836v1.045h-4.16V33.294z"
         id="path311" /></g></g><g
     id="g319"><path
       fill="#231F20"
       d="M370.13,83.156c1.632,0,1.806,1.934,1.806,2.656c0,1.157-0.384,2.641-1.851,2.641   c-1.204,0-1.768-1.055-1.768-2.701C368.317,84.314,368.881,83.156,370.13,83.156z M370.13,87.52c0.572,0,0.677-0.871,0.677-1.691   c0-0.827-0.136-1.729-0.691-1.729c-0.534,0-0.677,0.743-0.686,1.901C369.43,86.587,369.521,87.52,370.13,87.52z"
       id="path317" /></g><g
     id="g323"><path
       fill="#231F20"
       d="M384.161,84c0.308-0.023,0.563-0.046,0.842-0.189c0.331-0.172,0.429-0.367,0.527-0.569h0.917v5.1h-1.211   v-3.724c-0.278,0.119-0.347,0.15-1.076,0.165L384.161,84L384.161,84z"
       id="path321" /></g><g
     id="g327"><path
       fill="#231F20"
       d="M399.301,85.066v-0.181c0-1.202,0.775-1.737,1.791-1.737c1.045,0,1.73,0.571,1.73,1.559   c0,0.887-0.481,1.564-1.972,2.7c0,0,1.775-0.03,1.986-0.03v0.963h-3.498v-0.888c0.392-0.31,0.654-0.513,1.181-0.963   c0.603-0.526,1.038-0.956,1.038-1.761c0-0.203,0-0.699-0.519-0.699c-0.203,0-0.557,0.09-0.557,0.625   c0,0.127,0.015,0.322,0.029,0.479L399.301,85.066z"
       id="path325" /></g><g
     id="g331"><path
       fill="#231F20"
       d="M414.874,84.691c0.12-1.228,0.963-1.543,1.783-1.543c1.377,0,1.663,0.881,1.663,1.369   c0,0.641-0.369,0.971-0.844,1.137c0.641,0.113,0.972,0.578,0.972,1.166c0,0.48-0.316,1.609-1.935,1.609   c-1.128,0-1.736-0.678-1.736-1.693v-0.111l1.173-0.098c0,0-0.007,0.143-0.007,0.218c0,0.474,0.277,0.753,0.624,0.753   c0.398,0,0.669-0.279,0.669-0.753c0-0.579-0.437-0.654-0.752-0.654c-0.061,0-0.166,0.007-0.166,0.007v-0.865   c0,0,0.112,0.009,0.173,0.009c0.64,0,0.64-0.55,0.64-0.603c0-0.414-0.301-0.578-0.549-0.578c-0.519,0-0.519,0.519-0.519,0.736   L414.874,84.691z"
       id="path329" /></g><g
     id="g335"><path
       fill="#231F20"
       d="M433.444,87.158v1.182h-1.188v-1.174h-2.068c0-0.173,0.015-0.918,0.015-0.918l2.105-3.008h1.137v3.092   h0.677v0.826H433.444L433.444,87.158z M432.263,84.533l-1.211,1.799h1.211V84.533z"
       id="path333" /></g><g
     id="g347"><g
       id="g345"><path
         fill="#231F20"
         d="M371.183,74.131h-1.354l-1.82-5.313h1.414l1.099,3.776l1.091-3.776h1.415L371.183,74.131z"
         id="path337" /><path
         fill="#231F20"
         d="M374.295,68.818h3.927v1.031h-2.603v0.963h2.43v1.008h-2.43v1.265h2.836v1.046h-4.16V68.818z"
         id="path339" /><path
         fill="#231F20"
         d="M382.726,68.818c0.79,0,2.039,0.203,2.039,1.724c0,0.903-0.512,1.265-1.091,1.467l1.227,2.122h-1.459    l-1.062-1.896h-0.827v1.896h-1.339v-5.313H382.726L382.726,68.818z M381.544,71.249h1.098c0.761,0,0.798-0.571,0.798-0.737    c0-0.691-0.558-0.707-0.79-0.707h-1.106L381.544,71.249L381.544,71.249z"
         id="path341" /><path
         fill="#231F20"
         d="M388.561,69.865v4.266h-1.339v-4.266h-1.384v-1.047h4.101v1.047H388.561z"
         id="path343" /></g></g><g
     id="g365"><g
       id="g363"><path
         fill="#231F20"
         d="M286.622,60.925c-0.384-0.398-0.82-0.662-1.392-0.662c-0.542,0-0.79,0.316-0.79,0.564    c0,0.286,0.226,0.421,0.677,0.489l0.586,0.083c1.384,0.196,1.956,0.617,1.956,1.527c0,1.121-0.895,1.85-2.415,1.85    c-1.241,0-1.88-0.443-2.422-1.076l1.008-0.639c0.354,0.429,0.963,0.669,1.535,0.669c0.391,0,0.978-0.173,0.978-0.617    c0-0.376-0.452-0.481-0.925-0.542l-0.609-0.083c-0.933-0.128-1.693-0.564-1.693-1.497c0-1.045,0.775-1.775,2.144-1.775    c1.121,0,1.821,0.512,2.34,1.008L286.622,60.925z"
         id="path349" /><path
         fill="#231F20"
         d="M292.788,64.657v-2.264h-1.941v2.264h-1.339v-5.311h1.339v1.918h1.941v-1.918h1.332v5.311H292.788z"
         id="path351" /><path
         fill="#231F20"
         d="M296.215,59.346h3.927v1.031h-2.603v0.963h2.43v1.008h-2.43v1.264h2.836v1.045h-4.16V59.346z"
         id="path353" /><path
         fill="#231F20"
         d="M302.14,64.657v-5.311h1.324v4.19h2.076v1.121H302.14z"
         id="path355" /><path
         fill="#231F20"
         d="M308.849,64.657h-1.354l-1.82-5.311h1.414l1.098,3.776l1.092-3.776h1.415L308.849,64.657z"
         id="path357" /><path
         fill="#231F20"
         d="M311.96,59.346h3.927v1.031h-2.603v0.963h2.43v1.008h-2.43v1.264h2.836v1.045h-4.16V59.346z"
         id="path359" /><path
         fill="#231F20"
         d="M321.241,60.925c-0.384-0.398-0.82-0.662-1.393-0.662c-0.542,0-0.79,0.316-0.79,0.564    c0,0.286,0.227,0.421,0.678,0.489l0.586,0.083c1.384,0.196,1.956,0.617,1.956,1.527c0,1.121-0.896,1.85-2.415,1.85    c-1.241,0-1.88-0.443-2.422-1.076l1.008-0.639c0.354,0.429,0.963,0.669,1.535,0.669c0.391,0,0.978-0.173,0.978-0.617    c0-0.376-0.452-0.481-0.925-0.542l-0.609-0.083c-0.933-0.128-1.692-0.564-1.692-1.497c0-1.045,0.774-1.775,2.144-1.775    c1.121,0,1.821,0.512,2.34,1.008L321.241,60.925z"
         id="path361" /></g></g><g
     id="g385"><g
       id="g383"><path
         fill="#231F20"
         d="M806.567,53.288v4.265h-1.339v-4.265h-1.386v-1.046h4.101v1.046H806.567z"
         id="path367" /><path
         fill="#231F20"
         d="M814.771,57.553h-1.368l-0.955-3.4l-0.963,3.4h-1.369l-1.348-5.311h1.332l0.781,3.656l0.963-3.656h1.183    l0.992,3.656l0.774-3.656h1.324L814.771,57.553z"
         id="path369" /><path
         fill="#231F20"
         d="M819.674,52.076c1.935,0,2.693,1.595,2.693,2.859c0,1.421-0.971,2.776-2.678,2.776    c-1.755,0-2.642-1.377-2.642-2.836C817.049,53.664,817.756,52.076,819.674,52.076z M819.696,56.583    c0.984,0,1.339-0.918,1.339-1.663c0-0.963-0.421-1.73-1.361-1.73c-1.008,0-1.315,0.956-1.315,1.67    C818.357,55.709,818.74,56.583,819.696,56.583z"
         id="path371" /><path
         fill="#231F20"
         d="M829.523,52.242c1.257,0,1.919,0.594,1.919,1.813c0,1.347-1.182,1.76-2.145,1.76h-1.076v1.738h-1.332    v-5.311H829.523z M828.223,54.83h0.873c0.603,0,1.023-0.143,1.023-0.835c0-0.768-0.633-0.775-1.047-0.775h-0.851L828.223,54.83    L828.223,54.83z"
         id="path373" /><path
         fill="#231F20"
         d="M832.816,57.553v-5.311h1.323v5.311H832.816z"
         id="path375" /><path
         fill="#231F20"
         d="M836.246,52.242h3.926v1.031h-2.603v0.963h2.43v1.008h-2.43v1.264h2.836v1.045h-4.159V52.242z"
         id="path377" /><path
         fill="#231F20"
         d="M846.625,56.342c-0.422,0.737-1.182,1.369-2.287,1.369c-1.407,0-2.543-1.023-2.543-2.821    c0-1.572,1.068-2.813,2.572-2.813c0.979,0,1.866,0.58,2.242,1.377l-1.054,0.526c-0.112-0.399-0.588-0.813-1.129-0.813    c-0.856,0-1.309,0.797-1.309,1.685c0,1.166,0.594,1.745,1.309,1.745c0.691,0,0.972-0.481,1.15-0.79L846.625,56.342z"
         id="path379" /><path
         fill="#231F20"
         d="M848.043,52.242h3.928v1.031h-2.604v0.963h2.43v1.008h-2.43v1.264h2.836v1.045h-4.16V52.242z"
         id="path381" /></g></g><g
     id="g405"><g
       id="g403"><path
         fill="#231F20"
         d="M806.732,33.129c1.934,0,2.692,1.595,2.692,2.859c0,1.421-0.971,2.776-2.678,2.776    c-1.753,0-2.641-1.377-2.641-2.836C804.107,34.716,804.814,33.129,806.732,33.129z M806.756,37.635    c0.984,0,1.338-0.918,1.338-1.663c0-0.963-0.42-1.73-1.36-1.73c-1.009,0-1.316,0.956-1.316,1.67    C805.416,36.762,805.8,37.635,806.756,37.635z"
         id="path387" /><path
         fill="#231F20"
         d="M814.162,38.605l-1.881-3.174v3.174h-1.278v-5.311h1.302l1.889,3.235v-3.235h1.271v5.311H814.162z"
         id="path389" /><path
         fill="#231F20"
         d="M817.561,33.294h3.927v1.031h-2.604v0.963h2.431v1.008h-2.431v1.264h2.836v1.045h-4.159V33.294z"
         id="path391" /><path
         fill="#231F20"
         d="M828.742,33.294c1.256,0,1.918,0.594,1.918,1.813c0,1.347-1.182,1.76-2.145,1.76h-1.074v1.738h-1.332    v-5.311H828.742z M827.441,35.882h0.871c0.604,0,1.022-0.143,1.022-0.835c0-0.768-0.631-0.775-1.045-0.775h-0.85L827.441,35.882    L827.441,35.882z"
         id="path393" /><path
         fill="#231F20"
         d="M832.035,38.605v-5.311h1.324v5.311H832.035z"
         id="path395" /><path
         fill="#231F20"
         d="M835.463,33.294h3.928v1.031h-2.604v0.963h2.43v1.008h-2.43v1.264h2.836v1.045h-4.16V33.294z"
         id="path397" /><path
         fill="#231F20"
         d="M845.842,37.395c-0.421,0.737-1.181,1.369-2.287,1.369c-1.405,0-2.542-1.023-2.542-2.821    c0-1.572,1.068-2.813,2.573-2.813c0.979,0,1.865,0.58,2.241,1.377l-1.054,0.526c-0.112-0.399-0.586-0.813-1.129-0.813    c-0.856,0-1.31,0.797-1.31,1.686c0,1.166,0.595,1.745,1.31,1.745c0.692,0,0.971-0.481,1.151-0.79L845.842,37.395z"
         id="path399" /><path
         fill="#231F20"
         d="M847.262,33.294h3.927v1.031h-2.604v0.963h2.43v1.008h-2.43v1.264h2.836v1.045h-4.159V33.294z"
         id="path401" /></g></g><g
     id="g433"><g
       id="g415"><path
         fill="#FFFFFF"
         d="M874.816,102.076c0.01,0.279,0.069,1.832,2.032,1.832c0.593,0,1.767-0.229,1.767-1.412    c0-0.791-0.582-1.021-1.344-1.172l-0.642-0.131c-1.594-0.32-2.486-0.832-2.486-2.014c0-0.562,0.25-1.031,0.673-1.384    c0.682-0.562,1.491-0.582,1.834-0.582c0.7,0,1.383,0.093,1.952,0.531c0.621,0.473,0.781,0.981,0.902,1.646l-0.951,0.059    c0-0.4-0.221-1.502-1.823-1.502c-0.673,0-1.613,0.24-1.613,1.111c0,0.682,0.611,0.922,1.412,1.112l1.293,0.312    c0.33,0.08,1.805,0.399,1.805,1.953c0,0.28-0.041,0.912-0.592,1.453c-0.391,0.381-1.033,0.762-2.234,0.762    c-0.229,0-1.192-0.01-1.936-0.49c-0.941-0.611-1.031-1.654-1.062-1.955L874.816,102.076z"
         id="path407" /><path
         fill="#FFFFFF"
         d="M886.484,104.471l-0.771-2.164h-2.695l-0.791,2.164h-1.002l2.695-7.074h0.98l2.575,7.074H886.484z     M884.4,98.559l-1.082,2.955h2.112L884.4,98.559z"
         id="path409" /><path
         fill="#FFFFFF"
         d="M891.629,104.471h-0.932l-2.396-7.074h1.002l1.873,5.912l1.943-5.912h1.002L891.629,104.471z"
         id="path411" /><path
         fill="#FFFFFF"
         d="M896.041,104.471v-7.074h4.871v0.832h-3.969v2.185h3.446v0.821h-3.446v2.414h4.088v0.822H896.041z"
         id="path413" /></g><g
       id="g419"><circle
         fill="#F05823"
         cx="887.871"
         cy="101.361"
         r="20.131"
         id="circle417" /></g><g
       id="g431"><g
         id="g429"><path
           fill="#FFFFFF"
           d="M877.748,99.51c-0.512-0.531-1.094-0.881-1.855-0.881c-0.721,0-1.051,0.42-1.051,0.75     c0,0.383,0.301,0.563,0.902,0.652l0.781,0.109c1.842,0.262,2.604,0.821,2.604,2.034c0,1.492-1.193,2.466-3.217,2.466     c-1.654,0-2.506-0.593-3.228-1.435l1.343-0.853c0.471,0.57,1.282,0.894,2.045,0.894c0.52,0,1.301-0.229,1.301-0.822     c0-0.502-0.6-0.641-1.23-0.721l-0.813-0.111c-1.242-0.17-2.254-0.75-2.254-1.993c0-1.394,1.031-2.363,2.854-2.363     c1.492,0,2.424,0.68,3.117,1.342L877.748,99.51z"
           id="path421" /><path
           fill="#FFFFFF"
           d="M885.678,104.48l-0.352-1.133h-2.604l-0.352,1.133h-1.885l2.627-7.074h1.842l2.606,7.074H885.678z      M884.004,99.09l-0.871,2.986h1.793L884.004,99.09z"
           id="path423" /><path
           fill="#FFFFFF"
           d="M892.195,104.48h-1.806l-2.424-7.074h1.883l1.464,5.029l1.452-5.029h1.886L892.195,104.48z"
           id="path425" /><path
           fill="#FFFFFF"
           d="M896.348,97.406h5.23v1.373h-3.467v1.281h3.235v1.344h-3.235v1.684h3.776v1.393h-5.541L896.348,97.406     L896.348,97.406z"
           id="path427" /></g></g></g><path
     id="path240"
     fill="#231F20"
     d="M559.576,10.496c-0.563,0.983-1.574,1.825-3.048,1.825c-1.874,0-3.389-1.363-3.389-3.759  c0-2.095,1.423-3.75,3.429-3.75c1.303,0,2.485,0.772,2.987,1.834l-1.403,0.702c-0.15-0.532-0.781-1.083-1.504-1.083  c-1.144,0-1.744,1.063-1.744,2.246c0,1.554,0.792,2.326,1.744,2.326c0.923,0,1.293-0.642,1.533-1.053L559.576,10.496z" /><path
     id="path242"
     fill="#231F20"
     d="M564.71,4.812c2.576,0,3.589,2.125,3.589,3.81c0,1.895-1.293,3.699-3.567,3.699  c-2.337,0-3.521-1.834-3.521-3.779C561.211,6.927,562.153,4.812,564.71,4.812z M564.74,10.816c1.313,0,1.784-1.223,1.784-2.215  c0-1.283-0.563-2.306-1.814-2.306c-1.343,0-1.755,1.273-1.755,2.226C562.955,9.654,563.467,10.816,564.74,10.816z" /><path
     id="path244"
     fill="#231F20"
     d="M574.615,12.11l-2.506-4.23v4.23h-1.705V5.032h1.733l2.518,4.311V5.032h1.693v7.078H574.615z" /><path
     id="path246"
     fill="#231F20"
     d="M579.137,5.032h2.427c2.736,0,3.909,1.213,3.909,3.539c0,1.685-0.73,3.539-3.549,3.539h-2.787  V5.032z M580.922,10.687h0.57c1.523,0,2.206-0.532,2.206-2.136c0-1.103-0.36-2.025-1.905-2.025h-0.871V10.687z" /><path
     id="path248"
     fill="#231F20"
     d="M587.869,12.11V5.032h1.765v7.078H587.869z" /><path
     id="path250"
     fill="#231F20"
     d="M595.037,6.426v5.684h-1.784V6.426h-1.845V5.032h5.464v1.394H595.037z" /><path
     id="path252"
     fill="#231F20"
     d="M598.646,12.11V5.032h1.766v7.078H598.646z" /><path
     id="path254"
     fill="#231F20"
     d="M606.246,4.812c2.576,0,3.59,2.125,3.59,3.81c0,1.895-1.294,3.699-3.569,3.699  c-2.336,0-3.519-1.834-3.519-3.779C602.748,6.927,603.689,4.812,606.246,4.812z M606.276,10.816c1.313,0,1.783-1.223,1.783-2.215  c0-1.283-0.561-2.306-1.813-2.306c-1.343,0-1.754,1.273-1.754,2.226C604.492,9.654,605.004,10.816,606.276,10.816z" /><path
     id="path256"
     fill="#231F20"
     d="M616.152,12.11l-2.506-4.23v4.23h-1.705V5.032h1.733l2.518,4.311V5.032h1.693v7.078H616.152z" /><path
     id="path258"
     fill="#231F20"
     d="M625.155,7.138c-0.511-0.532-1.093-0.882-1.854-0.882c-0.722,0-1.053,0.421-1.053,0.752  c0,0.381,0.301,0.561,0.902,0.651l0.78,0.11c1.847,0.261,2.607,0.822,2.607,2.035c0,1.494-1.193,2.466-3.219,2.466  c-1.654,0-2.506-0.592-3.229-1.434l1.343-0.853c0.473,0.572,1.283,0.893,2.045,0.893c0.521,0,1.305-0.231,1.305-0.822  c0-0.501-0.602-0.642-1.233-0.722l-0.812-0.11c-1.243-0.17-2.255-0.752-2.255-1.995c0-1.394,1.03-2.366,2.855-2.366  c1.493,0,2.426,0.682,3.118,1.343L625.155,7.138z" /><g
     id="g463"><g
       id="g461"><path
         fill="#231F20"
         d="M623.016,88.243v1.022h-2.753v1.113h2.535v1.031h-2.535v2.144h-1.324v-5.311H623.016z"
         id="path445" /><path
         fill="#231F20"
         d="M627.31,93.554l-0.264-0.85h-1.956l-0.264,0.85h-1.414l1.972-5.311h1.384l1.956,5.311H627.31z     M626.053,89.507l-0.654,2.241h1.347L626.053,89.507z"
         id="path447" /><path
         fill="#231F20"
         d="M633.362,89.822c-0.383-0.398-0.819-0.662-1.392-0.662c-0.541,0-0.79,0.316-0.79,0.564    c0,0.286,0.227,0.421,0.678,0.489l0.587,0.083c1.384,0.195,1.955,0.616,1.955,1.526c0,1.121-0.895,1.851-2.414,1.851    c-1.241,0-1.881-0.443-2.423-1.075l1.009-0.64c0.354,0.429,0.963,0.67,1.534,0.67c0.392,0,0.978-0.174,0.978-0.617    c0-0.376-0.451-0.481-0.925-0.542l-0.609-0.082c-0.933-0.128-1.692-0.564-1.692-1.497c0-1.046,0.774-1.775,2.144-1.775    c1.121,0,1.82,0.511,2.34,1.008L633.362,89.822z"
         id="path449" /><path
         fill="#231F20"
         d="M638.196,89.288v4.266h-1.339v-4.266h-1.384v-1.045h4.1v1.045H638.196z"
         id="path451" /><path
         fill="#231F20"
         d="M640.91,88.243h3.927v1.03h-2.603v0.963h2.43v1.008h-2.43v1.264h2.836v1.046h-4.16V88.243z"
         id="path453" /><path
         fill="#231F20"
         d="M649.987,93.554l-1.88-3.175v3.175h-1.279v-5.311h1.302l1.888,3.234v-3.234h1.271v5.311H649.987z"
         id="path455" /><path
         fill="#231F20"
         d="M653.385,88.243h3.927v1.03h-2.603v0.963h2.43v1.008h-2.43v1.264h2.836v1.046h-4.16V88.243z"
         id="path457" /><path
         fill="#231F20"
         d="M661.815,88.243c0.79,0,2.039,0.203,2.039,1.723c0,0.902-0.512,1.264-1.091,1.467l1.226,2.121h-1.459    l-1.061-1.896h-0.828v1.896h-1.339v-5.311H661.815z M660.635,90.673h1.098c0.76,0,0.798-0.572,0.798-0.737    c0-0.692-0.557-0.707-0.79-0.707h-1.105V90.673z"
         id="path459" /></g></g><g
     id="g507"><g
       id="g505"><path
         fill="#231F20"
         d="M700.665,89.822c-0.383-0.398-0.819-0.662-1.392-0.662c-0.541,0-0.79,0.316-0.79,0.564    c0,0.286,0.227,0.421,0.678,0.489l0.587,0.083c1.384,0.195,1.955,0.616,1.955,1.526c0,1.121-0.895,1.851-2.414,1.851    c-1.241,0-1.881-0.443-2.423-1.075l1.009-0.64c0.354,0.429,0.963,0.67,1.534,0.67c0.392,0,0.978-0.174,0.978-0.617    c0-0.376-0.451-0.481-0.925-0.542l-0.609-0.082c-0.933-0.128-1.692-0.564-1.692-1.497c0-1.046,0.774-1.775,2.144-1.775    c1.121,0,1.82,0.511,2.34,1.008L700.665,89.822z"
         id="path491" /><path
         fill="#231F20"
         d="M706.703,93.554l-1.88-3.175v3.175h-1.279v-5.311h1.302l1.888,3.234v-3.234h1.271v5.311H706.703z"
         id="path493" /><path
         fill="#231F20"
         d="M710.093,93.554v-5.311h1.324v5.311H710.093z"
         id="path495" /><path
         fill="#231F20"
         d="M717.103,89.897c-0.188-0.384-0.632-0.752-1.241-0.752c-0.85,0-1.384,0.632-1.384,1.715    c0,0.632,0.188,1.745,1.392,1.745c0.481,0,1.113-0.232,1.158-0.992h-1.188v-1.009h2.31v2.949h-1.038v-0.489    c-0.646,0.587-1.264,0.609-1.564,0.609c-1.647,0-2.393-1.429-2.393-2.775c0-1.264,0.737-2.836,2.618-2.836    c1.406,0,2.113,0.94,2.339,1.226L717.103,89.897z"
         id="path497" /><path
         fill="#231F20"
         d="M720.071,93.554v-5.311h1.324v4.189h2.076v1.121H720.071z"
         id="path499" /><path
         fill="#231F20"
         d="M724.899,88.243h3.927v1.03h-2.603v0.963h2.43v1.008h-2.43v1.264h2.836v1.046h-4.16V88.243z"
         id="path501" /><path
         fill="#231F20"
         d="M732.772,89.288v4.266h-1.339v-4.266h-1.384v-1.045h4.1v1.045H732.772z"
         id="path503" /></g></g><line
     fill="none"
     stroke="#231F20"
     stroke-width="4"
     stroke-miterlimit="10"
     x1="618.435"
     y1="61.57"
     x2="761.938"
     y2="61.57"
     id="line559" /><line
     fill="none"
     stroke="#231F20"
     stroke-width="4"
     stroke-miterlimit="10"
     x1="618.435"
     y1="76.552"
     x2="690.187"
     y2="76.552"
     id="line561" /><g
     id="g599"><g
       id="g597"><path
         fill="#231F20"
         d="M623.535,55.361c0,0,0-2.934,0.03-3.972l-1.106,3.972h-1.15l-1.099-3.972    c0.022,0.744,0.03,3.972,0.03,3.972h-1.294v-5.311h1.94l1.001,3.716l0.985-3.716h1.94v5.311H623.535z"
         id="path563" /><path
         fill="#231F20"
         d="M629.972,55.361l-0.264-0.85h-1.956l-0.264,0.85h-1.414l1.972-5.311h1.384l1.956,5.311H629.972z     M628.715,51.314l-0.654,2.241h1.347L628.715,51.314z"
         id="path565" /><path
         fill="#231F20"
         d="M634.316,51.096v4.266h-1.339v-4.266h-1.384v-1.045h4.1v1.045H634.316z"
         id="path567" /><path
         fill="#231F20"
         d="M637.03,50.051h3.927v1.03h-2.603v0.963h2.43v1.008h-2.43v1.264h2.836v1.046h-4.16V50.051z"
         id="path569" /><path
         fill="#231F20"
         d="M645.461,50.051c0.79,0,2.038,0.203,2.038,1.723c0,0.902-0.511,1.264-1.09,1.467l1.226,2.121h-1.459    l-1.061-1.896h-0.828v1.896h-1.339v-5.311H645.461z M644.28,52.48h1.098c0.76,0,0.798-0.572,0.798-0.737    c0-0.692-0.557-0.707-0.79-0.707h-1.105V52.48z"
         id="path571" /><path
         fill="#231F20"
         d="M649.34,55.361v-5.311h1.324v5.311H649.34z"
         id="path573" /><path
         fill="#231F20"
         d="M655.831,55.361l-0.264-0.85h-1.956l-0.264,0.85h-1.414l1.972-5.311h1.384l1.956,5.311H655.831z     M654.574,51.314l-0.654,2.241h1.347L654.574,51.314z"
         id="path575" /><path
         fill="#231F20"
         d="M658.528,55.361v-5.311h1.324v4.189h2.076v1.121H658.528z"
         id="path577" /><path
         fill="#231F20"
         d="M668.567,51.096v4.266h-1.339v-4.266h-1.384v-1.045h4.1v1.045H668.567z"
         id="path579" /><path
         fill="#231F20"
         d="M674.561,55.361v-2.265h-1.94v2.265h-1.339v-5.311h1.339v1.918h1.94v-1.918h1.332v5.311H674.561z"
         id="path581" /><path
         fill="#231F20"
         d="M677.98,55.361v-5.311h1.324v5.311H677.98z"
         id="path583" /><path
         fill="#231F20"
         d="M685.863,54.15c-0.422,0.737-1.182,1.369-2.287,1.369c-1.406,0-2.543-1.023-2.543-2.821    c0-1.572,1.068-2.813,2.573-2.813c0.978,0,1.865,0.579,2.241,1.377l-1.053,0.526c-0.113-0.398-0.587-0.813-1.128-0.813    c-0.858,0-1.31,0.798-1.31,1.686c0,1.166,0.595,1.745,1.31,1.745c0.691,0,0.97-0.481,1.15-0.79L685.863,54.15z"
         id="path585" /><path
         fill="#231F20"
         d="M690.78,55.361l-1.414-2.407l-0.82,0.85v1.558h-1.264v-5.311h1.264v2.166l1.986-2.166h1.602l-1.88,1.971    l2.023,3.34H690.78z"
         id="path587" /><path
         fill="#231F20"
         d="M696.668,55.361l-1.88-3.175v3.175h-1.279v-5.311h1.302l1.888,3.234v-3.234h1.271v5.311H696.668z"
         id="path589" /><path
         fill="#231F20"
         d="M700.065,50.051h3.927v1.03h-2.603v0.963h2.43v1.008h-2.43v1.264h2.836v1.046h-4.16V50.051z"
         id="path591" /><path
         fill="#231F20"
         d="M709.346,51.63c-0.383-0.398-0.819-0.662-1.392-0.662c-0.541,0-0.789,0.316-0.789,0.564    c0,0.286,0.226,0.421,0.677,0.489l0.587,0.083c1.384,0.195,1.955,0.616,1.955,1.526c0,1.121-0.895,1.851-2.414,1.851    c-1.241,0-1.881-0.443-2.423-1.075l1.009-0.64c0.354,0.429,0.963,0.67,1.534,0.67c0.392,0,0.978-0.174,0.978-0.617    c0-0.376-0.451-0.481-0.925-0.542l-0.609-0.083c-0.933-0.127-1.692-0.563-1.692-1.496c0-1.046,0.774-1.775,2.144-1.775    c1.121,0,1.82,0.511,2.34,1.008L709.346,51.63z"
         id="path593" /><path
         fill="#231F20"
         d="M715.429,51.63c-0.383-0.398-0.819-0.662-1.392-0.662c-0.541,0-0.79,0.316-0.79,0.564    c0,0.286,0.227,0.421,0.678,0.489l0.587,0.083c1.384,0.195,1.955,0.616,1.955,1.526c0,1.121-0.895,1.851-2.414,1.851    c-1.241,0-1.881-0.443-2.423-1.075l1.009-0.64c0.354,0.429,0.963,0.67,1.534,0.67c0.392,0,0.978-0.174,0.978-0.617    c0-0.376-0.451-0.481-0.925-0.542l-0.609-0.083c-0.933-0.127-1.692-0.563-1.692-1.496c0-1.046,0.774-1.775,2.144-1.775    c1.121,0,1.82,0.511,2.34,1.008L715.429,51.63z"
         id="path595" /></g></g><g
     id="g621"><g
       id="g619"><path
         fill="#231F20"
         d="M803.843,71.024h2.475c1.399,0,1.881,0.616,1.881,1.392c0,0.896-0.813,1.15-1.136,1.189    c0.512,0.045,1.339,0.308,1.339,1.24c0,0.979-0.873,1.49-1.956,1.49h-2.603V71.024z M806.106,73.123    c0.286,0,0.79-0.022,0.79-0.571c0-0.512-0.443-0.534-0.699-0.534h-1.091v1.105H806.106z M806.031,75.373    c0.429,0,1.023-0.023,1.023-0.633c0-0.639-0.534-0.654-0.805-0.654h-1.144v1.287H806.031z"
         id="path607" /><path
         fill="#231F20"
         d="M810.227,76.336v-5.312h1.324v5.312H810.227z"
         id="path609" /><path
         fill="#231F20"
         d="M817.153,76.336l-1.414-2.408l-0.82,0.851v1.558h-1.264v-5.312h1.264v2.167l1.986-2.167h1.602l-1.88,1.972    l2.023,3.34H817.153z"
         id="path611" /><path
         fill="#231F20"
         d="M819.881,76.336v-5.312h1.324v5.312H819.881z"
         id="path613" /><path
         fill="#231F20"
         d="M826.462,76.336l-1.88-3.175v3.175h-1.279v-5.312h1.302l1.888,3.235v-3.235h1.271v5.312H826.462z"
         id="path615" /><path
         fill="#231F20"
         d="M829.852,76.336v-5.312h1.324v5.312H829.852z"
         id="path617" /></g></g><path
     id="path495-6"
     d="m 179.51435,94.26211 c 0,1.316334 -0.92513,2.19296 -2.49057,2.19296 -1.35952,0 -2.4496,-0.653519 -2.4496,-2.103717 v -3.263876 h 1.45788 v 3.411685 c 0,0.69907 0.39341,0.870119 1.04089,0.870119 0.73663,0 0.9907,-0.333732 0.9907,-0.936122 v -3.345682 h 1.44968 v 3.174633 z"
     inkscape:connector-curvature="0"
     style="fill:#231f20;stroke-width:0.9759078" /><path
     id="path497-2"
     d="m 185.19524,96.336079 -2.04798,-3.136518 v 3.136518 h -1.39231 v -5.248602 h 1.41689 l 2.05619,3.196014 v -3.196014 h 1.38513 v 5.248602 z"
     inkscape:connector-curvature="0"
     style="fill:#231f20;stroke-width:0.9759078" /><path
     id="path499-3"
     d="m 188.89269,96.336079 v -5.248602 h 1.44148 v 5.248602 z"
     inkscape:connector-curvature="0"
     style="fill:#231f20;stroke-width:0.9759078" /><path
     id="path501-1"
     d="m 194.75184,92.121208 v 4.214871 h -1.45787 v -4.214871 h -1.50705 v -1.032801 h 4.46378 v 1.032801 z"
     inkscape:connector-curvature="0"
     style="fill:#231f20;stroke-width:0.9759078" /><g
     id="g511"
     transform="matrix(1.0298951,0,0,0.91405813,-83.841562,9.5013896)"><path
       style="fill:#231f20"
       inkscape:connector-curvature="0"
       d="m 255.982,116.202 c 0,0 0,-3.118 0.032,-4.222 l -1.175,4.222 h -1.224 l -1.167,-4.222 c 0.024,0.791 0.032,4.222 0.032,4.222 h -1.375 v -5.646 h 2.063 l 1.063,3.95 1.047,-3.95 h 2.063 v 5.646 z"
       id="path507" /><path
       style="fill:#231f20"
       inkscape:connector-curvature="0"
       d="m 264.454,116.202 c 0,0 0,-3.118 0.032,-4.222 l -1.175,4.222 h -1.224 l -1.167,-4.222 c 0.024,0.791 0.032,4.222 0.032,4.222 h -1.375 v -5.646 h 2.063 l 1.063,3.95 1.047,-3.95 h 2.063 v 5.646 z"
       id="path509" /></g><g
     id="g521"
     transform="matrix(1.02548,0,0,0.91898016,-84.662962,8.9430507)"><path
       style="fill:#231f20"
       inkscape:connector-curvature="0"
       d="m 279.847,116.202 v -5.646 h 1.407 v 5.646 z"
       id="path513" /><path
       style="fill:#231f20"
       inkscape:connector-curvature="0"
       d="m 286.845,116.202 -1.999,-3.374 v 3.374 h -1.359 v -5.646 h 1.383 l 2.007,3.438 v -3.438 h 1.352 v 5.646 z"
       id="path515" /><path
       style="fill:#231f20"
       inkscape:connector-curvature="0"
       d="m 295.196,114.915 c -0.448,0.783 -1.255,1.455 -2.431,1.455 -1.495,0 -2.702,-1.087 -2.702,-2.999 0,-1.67 1.135,-2.99 2.734,-2.99 1.04,0 1.983,0.616 2.383,1.464 l -1.12,0.56 c -0.12,-0.424 -0.624,-0.863 -1.199,-0.863 -0.912,0 -1.391,0.848 -1.391,1.791 0,1.239 0.631,1.854 1.391,1.854 0.735,0 1.031,-0.512 1.223,-0.839 z"
       id="path517" /><path
       style="fill:#231f20"
       inkscape:connector-curvature="0"
       d="m 300.196,116.202 v -2.407 h -2.063 v 2.407 h -1.423 v -5.646 h 1.423 v 2.039 h 2.063 v -2.039 h 1.415 v 5.646 z"
       id="path519" /></g><path
     style="fill:#231f20"
     inkscape:connector-curvature="0"
     d="m 200.74111,92.649229 c -0.384,-0.398 -0.82,-0.662 -1.392,-0.662 -0.542,0 -0.79,0.316 -0.79,0.564 0,0.286 0.226,0.421 0.677,0.489 l 0.586,0.083 c 1.384,0.196 1.956,0.617 1.956,1.527 0,1.121 -0.895,1.85 -2.415,1.85 -1.241,0 -1.88,-0.443 -2.422,-1.076 l 1.008,-0.639 c 0.354,0.429 0.963,0.669 1.535,0.669 0.391,0 0.978,-0.173 0.978,-0.617 0,-0.376 -0.452,-0.481 -0.925,-0.542 l -0.609,-0.083 c -0.933,-0.128 -1.693,-0.564 -1.693,-1.497 0,-1.045 0.775,-1.775 2.144,-1.775 1.121,0 1.821,0.512 2.34,1.008 z"
     id="path349-7" /></svg>