<?xml version="1.0" encoding="UTF-8" standalone="no"?>
<!-- Generator: Adobe Illustrator 15.1.0, SVG Export Plug-In . SVG Version: 6.00 Build 0)  -->

<svg
   xmlns:dc="http://purl.org/dc/elements/1.1/"
   xmlns:cc="http://creativecommons.org/ns#"
   xmlns:rdf="http://www.w3.org/1999/02/22-rdf-syntax-ns#"
   xmlns:svg="http://www.w3.org/2000/svg"
   xmlns="http://www.w3.org/2000/svg"
   xmlns:sodipodi="http://sodipodi.sourceforge.net/DTD/sodipodi-0.dtd"
   xmlns:inkscape="http://www.inkscape.org/namespaces/inkscape"
   version="1.1"
   id="Layer_1"
   sodipodi:docname="controlinch.svg"
   inkscape:version="0.92.1 r15371"
   x="0px"
   y="0px"
   width="916px"
   height="130px"
   viewBox="0 0 916 130"
   enable-background="new 0 0 916 130"
   xml:space="preserve"><metadata
     id="metadata618"><rdf:RDF><cc:Work
         rdf:about=""><dc:format>image/svg+xml</dc:format><dc:type
           rdf:resource="http://purl.org/dc/dcmitype/StillImage" /><dc:title /></cc:Work></rdf:RDF></metadata><defs
     id="defs616" /><sodipodi:namedview
     id="namedview585"
     pagecolor="#ffffff"
     showgrid="false"
     bordercolor="#666666"
     inkscape:zoom="12"
     inkscape:cx="250.00074"
     inkscape:cy="75.279899"
     borderopacity="1"
     objecttolerance="10"
     gridtolerance="10"
     guidetolerance="10"
     inkscape:window-maximized="1"
     inkscape:pageopacity="0"
     inkscape:pageshadow="2"
     inkscape:window-y="-8"
     inkscape:window-height="1017"
     inkscape:window-x="1912"
     inkscape:current-layer="Layer_1"
     inkscape:window-width="1920" /><path
     style="fill:#231f20"
     inkscape:connector-curvature="0"
     id="path79"
     d="m 426.662,44.258 c 0,1.166 -1.022,1.534 -1.806,1.534 -1.144,0 -1.805,-0.639 -1.805,-1.542 0,-0.857 0.616,-1.106 0.909,-1.219 -0.202,-0.12 -0.699,-0.421 -0.699,-1.151 0,-0.624 0.429,-1.361 1.609,-1.361 0.889,0 1.58,0.481 1.58,1.399 0,0.76 -0.474,0.985 -0.722,1.106 0.324,0.12 0.934,0.398 0.934,1.234 z m -1.798,-0.836 c -0.301,0 -0.594,0.241 -0.594,0.73 0,0.534 0.293,0.737 0.579,0.737 0.36,0 0.594,-0.226 0.594,-0.737 0,-0.338 -0.158,-0.73 -0.579,-0.73 z m 0.015,-2.015 c -0.346,0 -0.496,0.278 -0.496,0.594 0,0.383 0.166,0.647 0.488,0.647 0.338,0 0.475,-0.271 0.475,-0.58 -10e-4,-0.398 -0.174,-0.661 -0.467,-0.661 z" /><path
     style="fill:#231f20"
     inkscape:connector-curvature="0"
     id="path81"
     d="m 429.849,40.526 c 1.632,0 1.806,1.933 1.806,2.656 0,1.158 -0.384,2.64 -1.851,2.64 -1.204,0 -1.769,-1.053 -1.769,-2.701 10e-4,-1.436 0.565,-2.595 1.814,-2.595 z m 0,4.364 c 0.572,0 0.677,-0.873 0.677,-1.693 0,-0.827 -0.136,-1.73 -0.692,-1.73 -0.533,0 -0.677,0.745 -0.685,1.903 0,0.587 0.09,1.52 0.7,1.52 z" /><path
     style="fill:#231f20"
     inkscape:connector-curvature="0"
     id="path205"
     d="m 178.32572,84.691 c 0.12,-1.226 0.963,-1.541 1.783,-1.541 1.377,0 1.663,0.88 1.663,1.369 0,0.639 -0.369,0.971 -0.843,1.136 0.64,0.112 0.971,0.579 0.971,1.165 0,0.481 -0.316,1.611 -1.934,1.611 -1.128,0 -1.737,-0.679 -1.737,-1.693 v -0.113 l 1.173,-0.098 c 0,0 -0.007,0.144 -0.007,0.219 0,0.475 0.278,0.752 0.624,0.752 0.399,0 0.669,-0.277 0.669,-0.752 0,-0.579 -0.436,-0.654 -0.752,-0.654 -0.06,0 -0.166,0.008 -0.166,0.008 v -0.865 c 0,0 0.113,0.009 0.173,0.009 0.64,0 0.64,-0.55 0.64,-0.603 0,-0.414 -0.301,-0.58 -0.549,-0.58 -0.519,0 -0.519,0.521 -0.519,0.737 z" /><g
     id="g969"><path
       style="fill:#231f20"
       inkscape:connector-curvature="0"
       d="m 620.956,111.889 c 1.734,0 1.918,2.055 1.918,2.822 0,1.23 -0.407,2.807 -1.967,2.807 -1.279,0 -1.879,-1.12 -1.879,-2.871 0,-1.528 0.6,-2.758 1.928,-2.758 z m 0,4.636 c 0.607,0 0.719,-0.928 0.719,-1.799 0,-0.879 -0.144,-1.84 -0.734,-1.84 -0.568,0 -0.721,0.793 -0.729,2.023 0,0.625 0.096,1.616 0.744,1.616 z"
       id="path965" /><path
       style="fill:#231f20"
       inkscape:connector-curvature="0"
       d="m 626.251,111.889 c 1.736,0 1.92,2.055 1.92,2.822 0,1.23 -0.408,2.807 -1.967,2.807 -1.279,0 -1.879,-1.12 -1.879,-2.871 0,-1.528 0.6,-2.758 1.926,-2.758 z m 0,4.636 c 0.608,0 0.721,-0.928 0.721,-1.799 0,-0.879 -0.145,-1.84 -0.736,-1.84 -0.567,0 -0.719,0.793 -0.728,2.023 0,0.625 0.096,1.616 0.743,1.616 z"
       id="path967" /></g><g
     id="g975"><path
       style="fill:#231f20"
       inkscape:connector-curvature="0"
       d="m 699.39,111.889 c 1.734,0 1.918,2.055 1.918,2.822 0,1.23 -0.407,2.807 -1.967,2.807 -1.279,0 -1.879,-1.12 -1.879,-2.871 0,-1.528 0.6,-2.758 1.928,-2.758 z m 0,4.636 c 0.607,0 0.719,-0.928 0.719,-1.799 0,-0.879 -0.144,-1.84 -0.734,-1.84 -0.568,0 -0.721,0.793 -0.729,2.023 0,0.625 0.095,1.616 0.744,1.616 z"
       id="path971" /><path
       style="fill:#231f20"
       inkscape:connector-curvature="0"
       d="m 704.685,111.889 c 1.736,0 1.92,2.055 1.92,2.822 0,1.23 -0.408,2.807 -1.967,2.807 -1.279,0 -1.879,-1.12 -1.879,-2.871 0,-1.528 0.599,-2.758 1.926,-2.758 z m 0,4.636 c 0.608,0 0.721,-0.928 0.721,-1.799 0,-0.879 -0.145,-1.84 -0.736,-1.84 -0.567,0 -0.719,0.793 -0.728,2.023 -10e-4,0.625 0.096,1.616 0.743,1.616 z"
       id="path973" /></g><g
     id="g1007"><path
       style="fill:#231f20"
       inkscape:connector-curvature="0"
       d="m 636.209,111.881 c 1.734,0 1.918,2.055 1.918,2.822 0,1.231 -0.406,2.807 -1.967,2.807 -1.279,0 -1.879,-1.12 -1.879,-2.87 0,-1.528 0.6,-2.759 1.928,-2.759 z m 0,4.638 c 0.607,0 0.719,-0.928 0.719,-1.799 0,-0.88 -0.143,-1.84 -0.734,-1.84 -0.568,0 -0.721,0.792 -0.729,2.023 0,0.623 0.096,1.616 0.744,1.616 z"
       id="path1001" /><path
       style="fill:#231f20"
       inkscape:connector-curvature="0"
       d="m 639.617,117.39 v -1.336 h 1.264 v 1.336 z"
       id="path1003" /><path
       style="fill:#231f20"
       inkscape:connector-curvature="0"
       d="m 642.762,112.776 c 0.328,-0.024 0.6,-0.049 0.896,-0.2 0.352,-0.184 0.455,-0.392 0.559,-0.607 h 0.977 v 5.421 h -1.287 v -3.958 c -0.297,0.128 -0.369,0.16 -1.145,0.177 z"
       id="path1005" /></g><g
     id="g1015"><path
       style="fill:#231f20"
       inkscape:connector-curvature="0"
       d="m 655.511,111.896 c 1.734,0 1.918,2.055 1.918,2.822 0,1.231 -0.407,2.807 -1.967,2.807 -1.279,0 -1.879,-1.12 -1.879,-2.87 0,-1.528 0.6,-2.759 1.928,-2.759 z m 0,4.637 c 0.607,0 0.719,-0.928 0.719,-1.799 0,-0.88 -0.144,-1.84 -0.734,-1.84 -0.568,0 -0.721,0.792 -0.729,2.023 0,0.624 0.095,1.616 0.744,1.616 z"
       id="path1009" /><path
       style="fill:#231f20"
       inkscape:connector-curvature="0"
       d="m 658.919,117.404 v -1.336 h 1.264 v 1.336 z"
       id="path1011" /><path
       style="fill:#231f20"
       inkscape:connector-curvature="0"
       d="m 661.616,113.926 v -0.191 c 0,-1.279 0.823,-1.848 1.902,-1.848 1.111,0 1.839,0.608 1.839,1.656 0,0.943 -0.512,1.662 -2.095,2.87 0,0 1.887,-0.032 2.111,-0.032 v 1.023 h -3.719 v -0.943 c 0.416,-0.328 0.696,-0.544 1.256,-1.023 0.64,-0.56 1.104,-1.016 1.104,-1.871 0,-0.216 0,-0.744 -0.552,-0.744 -0.216,0 -0.592,0.097 -0.592,0.664 0,0.137 0.017,0.344 0.032,0.512 z"
       id="path1013" /></g><g
     id="g1023"><path
       style="fill:#231f20"
       inkscape:connector-curvature="0"
       d="m 674.903,111.896 c 1.734,0 1.918,2.055 1.918,2.822 0,1.231 -0.407,2.807 -1.967,2.807 -1.279,0 -1.879,-1.12 -1.879,-2.87 10e-4,-1.528 0.6,-2.759 1.928,-2.759 z m 0,4.637 c 0.607,0 0.719,-0.928 0.719,-1.799 0,-0.88 -0.144,-1.84 -0.734,-1.84 -0.568,0 -0.721,0.792 -0.729,2.023 0,0.624 0.096,1.616 0.744,1.616 z"
       id="path1017" /><path
       style="fill:#231f20"
       inkscape:connector-curvature="0"
       d="m 678.312,117.404 v -1.336 h 1.264 v 1.336 z"
       id="path1019" /><path
       style="fill:#231f20"
       inkscape:connector-curvature="0"
       d="m 681.104,113.526 c 0.128,-1.304 1.023,-1.64 1.895,-1.64 1.463,0 1.768,0.936 1.768,1.456 0,0.679 -0.393,1.031 -0.896,1.207 0.68,0.12 1.032,0.616 1.032,1.239 0,0.512 -0.336,1.711 -2.056,1.711 -1.199,0 -1.846,-0.719 -1.846,-1.799 v -0.12 l 1.246,-0.104 c 0,0 -0.008,0.151 -0.008,0.231 0,0.504 0.297,0.8 0.664,0.8 0.424,0 0.711,-0.296 0.711,-0.8 0,-0.615 -0.463,-0.695 -0.799,-0.695 -0.064,0 -0.176,0.008 -0.176,0.008 v -0.92 c 0,0 0.119,0.009 0.184,0.009 0.68,0 0.68,-0.584 0.68,-0.64 0,-0.439 -0.32,-0.615 -0.584,-0.615 -0.551,0 -0.551,0.551 -0.551,0.783 z"
       id="path1021" /></g><g
     id="g1031"><path
       style="fill:#231f20"
       inkscape:connector-curvature="0"
       d="m 714.273,111.881 c 1.734,0 1.918,2.055 1.918,2.822 0,1.231 -0.406,2.807 -1.967,2.807 -1.279,0 -1.879,-1.12 -1.879,-2.87 10e-4,-1.528 0.6,-2.759 1.928,-2.759 z m 0,4.638 c 0.607,0 0.719,-0.928 0.719,-1.799 0,-0.88 -0.143,-1.84 -0.734,-1.84 -0.568,0 -0.721,0.792 -0.729,2.023 0,0.623 0.096,1.616 0.744,1.616 z"
       id="path1025" /><path
       style="fill:#231f20"
       inkscape:connector-curvature="0"
       d="m 717.682,117.39 v -1.336 h 1.264 v 1.336 z"
       id="path1027" /><path
       style="fill:#231f20"
       inkscape:connector-curvature="0"
       d="m 720.826,112.776 c 0.328,-0.024 0.6,-0.049 0.896,-0.2 0.352,-0.184 0.455,-0.392 0.559,-0.607 h 0.977 v 5.421 h -1.287 v -3.958 c -0.297,0.128 -0.369,0.16 -1.145,0.177 z"
       id="path1029" /></g><g
     id="g1039"><path
       style="fill:#231f20"
       inkscape:connector-curvature="0"
       d="m 733.575,111.896 c 1.734,0 1.918,2.055 1.918,2.822 0,1.231 -0.407,2.807 -1.967,2.807 -1.279,0 -1.879,-1.12 -1.879,-2.87 0,-1.528 0.6,-2.759 1.928,-2.759 z m 0,4.637 c 0.607,0 0.719,-0.928 0.719,-1.799 0,-0.88 -0.144,-1.84 -0.734,-1.84 -0.568,0 -0.721,0.792 -0.729,2.023 0,0.624 0.096,1.616 0.744,1.616 z"
       id="path1033" /><path
       style="fill:#231f20"
       inkscape:connector-curvature="0"
       d="m 736.983,117.404 v -1.336 h 1.264 v 1.336 z"
       id="path1035" /><path
       style="fill:#231f20"
       inkscape:connector-curvature="0"
       d="m 739.681,113.926 v -0.191 c 0,-1.279 0.823,-1.848 1.902,-1.848 1.111,0 1.839,0.608 1.839,1.656 0,0.943 -0.512,1.662 -2.095,2.87 0,0 1.887,-0.032 2.111,-0.032 v 1.023 h -3.719 v -0.943 c 0.416,-0.328 0.696,-0.544 1.256,-1.023 0.64,-0.56 1.104,-1.016 1.104,-1.871 0,-0.216 0,-0.744 -0.552,-0.744 -0.216,0 -0.592,0.097 -0.592,0.664 0,0.137 0.017,0.344 0.032,0.512 z"
       id="path1037" /></g><g
     id="g1047"><path
       style="fill:#231f20"
       inkscape:connector-curvature="0"
       d="m 752.968,111.896 c 1.734,0 1.918,2.055 1.918,2.822 0,1.231 -0.407,2.807 -1.967,2.807 -1.279,0 -1.879,-1.12 -1.879,-2.87 0,-1.528 0.6,-2.759 1.928,-2.759 z m 0,4.637 c 0.607,0 0.719,-0.928 0.719,-1.799 0,-0.88 -0.144,-1.84 -0.734,-1.84 -0.568,0 -0.721,0.792 -0.729,2.023 0,0.624 0.095,1.616 0.744,1.616 z"
       id="path1041" /><path
       style="fill:#231f20"
       inkscape:connector-curvature="0"
       d="m 756.376,117.404 v -1.336 h 1.264 v 1.336 z"
       id="path1043" /><path
       style="fill:#231f20"
       inkscape:connector-curvature="0"
       d="m 759.169,113.526 c 0.128,-1.304 1.023,-1.64 1.895,-1.64 1.463,0 1.768,0.936 1.768,1.456 0,0.679 -0.393,1.031 -0.896,1.207 0.68,0.12 1.032,0.616 1.032,1.239 0,0.512 -0.336,1.711 -2.056,1.711 -1.199,0 -1.846,-0.719 -1.846,-1.799 v -0.12 l 1.246,-0.104 c 0,0 -0.008,0.151 -0.008,0.231 0,0.504 0.297,0.8 0.664,0.8 0.424,0 0.711,-0.296 0.711,-0.8 0,-0.615 -0.463,-0.695 -0.799,-0.695 -0.064,0 -0.176,0.008 -0.176,0.008 v -0.92 c 0,0 0.119,0.009 0.184,0.009 0.68,0 0.68,-0.584 0.68,-0.64 0,-0.439 -0.32,-0.615 -0.584,-0.615 -0.551,0 -0.551,0.551 -0.551,0.783 z"
       id="path1045" /></g><g
     id="g1067"><path
       style="fill:#231f20"
       inkscape:connector-curvature="0"
       d="m 620.36,66.204 c 1.736,0 1.92,2.055 1.92,2.822 0,1.231 -0.408,2.807 -1.967,2.807 -1.279,0 -1.879,-1.12 -1.879,-2.87 10e-4,-1.527 0.6,-2.759 1.926,-2.759 z m 0,4.638 c 0.608,0 0.721,-0.928 0.721,-1.799 0,-0.88 -0.145,-1.84 -0.736,-1.84 -0.567,0 -0.719,0.792 -0.728,2.023 0,0.624 0.097,1.616 0.743,1.616 z"
       id="path1061" /><path
       style="fill:#231f20"
       inkscape:connector-curvature="0"
       d="m 623.771,71.713 v -1.336 h 1.263 v 1.336 z"
       id="path1063" /><path
       style="fill:#231f20"
       inkscape:connector-curvature="0"
       d="m 629.761,70.457 v 1.256 h -1.264 v -1.247 h -2.199 c 0,-0.185 0.017,-0.976 0.017,-0.976 l 2.239,-3.198 h 1.207 v 3.286 h 0.719 v 0.879 z m -1.256,-2.79 -1.287,1.911 h 1.287 z"
       id="path1065" /></g><g
     id="g1075"><path
       style="fill:#231f20"
       inkscape:connector-curvature="0"
       d="m 750.531,67.108 c 0.328,-0.024 0.6,-0.049 0.896,-0.2 0.352,-0.184 0.455,-0.392 0.559,-0.607 h 0.977 v 5.421 h -1.287 v -3.958 c -0.297,0.128 -0.369,0.16 -1.145,0.177 z"
       id="path1069" /><path
       style="fill:#231f20"
       inkscape:connector-curvature="0"
       d="m 755.484,71.722 v -1.336 h 1.263 v 1.336 z"
       id="path1071" /><path
       style="fill:#231f20"
       inkscape:connector-curvature="0"
       d="m 758.18,68.243 v -0.191 c 0,-1.279 0.824,-1.848 1.903,-1.848 1.111,0 1.839,0.608 1.839,1.656 0,0.943 -0.512,1.662 -2.095,2.87 0,0 1.888,-0.032 2.11,-0.032 v 1.023 h -3.717 v -0.943 c 0.415,-0.328 0.695,-0.544 1.255,-1.023 0.64,-0.56 1.104,-1.016 1.104,-1.871 0,-0.216 0,-0.744 -0.552,-0.744 -0.216,0 -0.592,0.097 -0.592,0.664 0,0.137 0.016,0.344 0.031,0.512 z"
       id="path1073" /></g><g
     id="g1083"><path
       style="fill:#231f20"
       inkscape:connector-curvature="0"
       d="m 653.548,66.221 c 1.736,0 1.92,2.055 1.92,2.822 0,1.231 -0.408,2.807 -1.967,2.807 -1.279,0 -1.879,-1.12 -1.879,-2.87 0,-1.528 0.6,-2.759 1.926,-2.759 z m 0,4.637 c 0.608,0 0.721,-0.928 0.721,-1.799 0,-0.88 -0.145,-1.84 -0.736,-1.84 -0.567,0 -0.719,0.792 -0.728,2.023 0,0.624 0.096,1.616 0.743,1.616 z"
       id="path1077" /><path
       style="fill:#231f20"
       inkscape:connector-curvature="0"
       d="m 656.958,71.729 v -1.336 h 1.263 v 1.336 z"
       id="path1079" /><path
       style="fill:#231f20"
       inkscape:connector-curvature="0"
       d="m 662.236,67.819 v -0.104 c 0,-0.32 -0.208,-0.544 -0.495,-0.544 -0.696,0 -0.768,1.032 -0.792,1.711 0.136,-0.296 0.56,-0.632 1.175,-0.632 0.656,0 1.496,0.465 1.496,1.664 0,1.207 -0.8,1.902 -1.943,1.902 -0.951,0 -1.943,-0.607 -1.943,-2.67 0,-1.472 0.344,-2.943 2.111,-2.943 1.375,0 1.6,1.072 1.671,1.472 z m -0.504,3.055 c 0.664,0 0.664,-0.72 0.664,-0.871 0,-0.209 -0.032,-0.832 -0.647,-0.832 -0.368,0 -0.641,0.288 -0.641,0.832 0,0.295 0.073,0.871 0.624,0.871 z"
       id="path1081" /></g><g
     id="g1091"><path
       style="fill:#231f20"
       inkscape:connector-curvature="0"
       d="m 686.689,66.213 c 1.734,0 1.918,2.055 1.918,2.822 0,1.231 -0.406,2.807 -1.967,2.807 -1.279,0 -1.879,-1.12 -1.879,-2.87 10e-4,-1.528 0.6,-2.759 1.928,-2.759 z m 0,4.638 c 0.607,0 0.719,-0.928 0.719,-1.799 0,-0.88 -0.143,-1.84 -0.734,-1.84 -0.568,0 -0.721,0.792 -0.729,2.023 0,0.623 0.096,1.616 0.744,1.616 z"
       id="path1085" /><path
       style="fill:#231f20"
       inkscape:connector-curvature="0"
       d="m 690.098,71.722 v -1.336 h 1.264 v 1.336 z"
       id="path1087" /><path
       style="fill:#231f20"
       inkscape:connector-curvature="0"
       d="m 696.689,70.179 c 0,1.239 -1.088,1.631 -1.92,1.631 -1.215,0 -1.918,-0.68 -1.918,-1.639 0,-0.912 0.654,-1.176 0.967,-1.296 -0.217,-0.128 -0.744,-0.447 -0.744,-1.224 0,-0.663 0.457,-1.447 1.711,-1.447 0.943,0 1.68,0.512 1.68,1.488 0,0.807 -0.504,1.047 -0.768,1.175 0.344,0.128 0.992,0.424 0.992,1.312 z m -1.912,-0.888 c -0.32,0 -0.631,0.256 -0.631,0.775 0,0.567 0.311,0.784 0.615,0.784 0.383,0 0.631,-0.24 0.631,-0.784 10e-4,-0.359 -0.167,-0.775 -0.615,-0.775 z m 0.016,-2.143 c -0.367,0 -0.527,0.296 -0.527,0.632 0,0.407 0.176,0.688 0.52,0.688 0.359,0 0.504,-0.288 0.504,-0.616 -10e-4,-0.423 -0.185,-0.704 -0.497,-0.704 z"
       id="path1089" /></g><g
     id="g1099"><path
       style="fill:#231f20"
       inkscape:connector-curvature="0"
       d="m 717.831,67.1 c 0.327,-0.024 0.6,-0.049 0.895,-0.2 0.353,-0.184 0.456,-0.392 0.561,-0.607 h 0.975 v 5.421 h -1.287 v -3.958 c -0.295,0.128 -0.367,0.16 -1.143,0.177 V 67.1 Z"
       id="path1093" /><path
       style="fill:#231f20"
       inkscape:connector-curvature="0"
       d="m 722.782,71.713 v -1.336 h 1.264 v 1.336 z"
       id="path1095" /><path
       style="fill:#231f20"
       inkscape:connector-curvature="0"
       d="m 727.47,66.204 c 1.735,0 1.919,2.055 1.919,2.822 0,1.231 -0.407,2.807 -1.967,2.807 -1.279,0 -1.879,-1.12 -1.879,-2.87 0,-1.527 0.6,-2.759 1.927,-2.759 z m 0,4.638 c 0.607,0 0.72,-0.928 0.72,-1.799 0,-0.88 -0.144,-1.84 -0.735,-1.84 -0.568,0 -0.72,0.792 -0.728,2.023 0,0.624 0.095,1.616 0.743,1.616 z"
       id="path1097" /></g><g
     transform="translate(-42.932667,-0.089)"
     id="g993"><path
       style="fill:#231f20"
       inkscape:connector-curvature="0"
       d="m 344.794,42.128 v -0.104 c 0,-0.32 -0.208,-0.544 -0.496,-0.544 -0.696,0 -0.768,1.031 -0.792,1.711 0.136,-0.296 0.56,-0.632 1.175,-0.632 0.656,0 1.495,0.464 1.495,1.663 0,1.208 -0.8,1.903 -1.943,1.903 -0.952,0 -1.943,-0.607 -1.943,-2.671 0,-1.471 0.344,-2.942 2.111,-2.942 1.375,0 1.599,1.071 1.671,1.472 z m -0.503,3.055 c 0.664,0 0.664,-0.72 0.664,-0.872 0,-0.208 -0.032,-0.831 -0.648,-0.831 -0.368,0 -0.64,0.288 -0.64,0.831 0,0.295 0.072,0.872 0.624,0.872 z"
       id="path989" /><path
       style="fill:#231f20"
       inkscape:connector-curvature="0"
       d="m 349.499,40.529 c 1.735,0 1.919,2.055 1.919,2.822 0,1.231 -0.408,2.807 -1.967,2.807 -1.279,0 -1.879,-1.12 -1.879,-2.871 0,-1.527 0.599,-2.758 1.927,-2.758 z m 0,4.637 c 0.608,0 0.72,-0.927 0.72,-1.799 0,-0.879 -0.144,-1.839 -0.735,-1.839 -0.568,0 -0.72,0.792 -0.728,2.022 -10e-4,0.625 0.095,1.616 0.743,1.616 z"
       id="path991" /></g><g
     transform="translate(-84.351417,-0.13016667)"
     id="g999"><path
       style="fill:#231f20"
       inkscape:connector-curvature="0"
       d="m 262.615,44.774 v 1.255 h -1.263 v -1.247 h -2.199 c 0,-0.184 0.016,-0.976 0.016,-0.976 l 2.239,-3.198 h 1.207 v 3.286 h 0.72 v 0.879 h -0.72 z m -1.255,-2.79 -1.288,1.911 h 1.288 z"
       id="path995" /><path
       style="fill:#231f20"
       inkscape:connector-curvature="0"
       d="m 266.607,40.521 c 1.735,0 1.919,2.055 1.919,2.822 0,1.231 -0.408,2.807 -1.967,2.807 -1.279,0 -1.879,-1.12 -1.879,-2.871 10e-4,-1.527 0.6,-2.758 1.927,-2.758 z m 0,4.637 c 0.608,0 0.72,-0.927 0.72,-1.799 0,-0.879 -0.144,-1.839 -0.735,-1.839 -0.568,0 -0.72,0.792 -0.728,2.023 0,0.624 0.096,1.615 0.743,1.615 z"
       id="path997" /></g><g
     id="g1296"
     transform="translate(-40.916667,0.16666667)"><path
       style="fill:#231f20"
       inkscape:connector-curvature="0"
       d="m 275.486,40.623 h 2.934 l -0.075,0.963 h -1.926 l -0.12,0.933 c 0.113,-0.082 0.346,-0.263 0.805,-0.263 0.986,0 1.535,0.761 1.535,1.685 0,0.889 -0.557,1.865 -1.918,1.865 -1.249,0 -1.746,-0.826 -1.746,-1.699 l 1.196,-0.045 c 0,0.504 0.158,0.834 0.602,0.834 0.595,0 0.632,-0.668 0.632,-0.946 0,-0.625 -0.301,-0.881 -0.647,-0.881 -0.376,0 -0.481,0.249 -0.534,0.399 l -1.046,-0.174 z"
       id="path223-9" /><path
       style="fill:#231f20"
       inkscape:connector-curvature="0"
       d="m 281.855,40.525 c 1.632,0 1.806,1.933 1.806,2.655 0,1.157 -0.384,2.641 -1.851,2.641 -1.204,0 -1.768,-1.053 -1.768,-2.701 0,-1.436 0.565,-2.595 1.813,-2.595 z m 0,4.365 c 0.572,0 0.677,-0.873 0.677,-1.692 0,-0.828 -0.136,-1.729 -0.692,-1.729 -0.534,0 -0.677,0.743 -0.685,1.902 0.001,0.585 0.091,1.519 0.7,1.519 z"
       id="path225-1" /></g><g
     id="g1292"
     transform="matrix(1.063977,0,0,1.063977,52.426718,-47.411057)"><path
       style="fill:#231f20"
       inkscape:connector-curvature="0"
       d="m 298.30158,82.568571 c 1.632,0 1.805,1.933 1.805,2.655 0,1.158 -0.384,2.641 -1.851,2.641 -1.203,0 -1.768,-1.054 -1.768,-2.701 0,-1.437 0.565,-2.595 1.814,-2.595 z m 0,4.362 c 0.571,0 0.677,-0.872 0.677,-1.692 0,-0.827 -0.136,-1.73 -0.692,-1.73 -0.534,0 -0.677,0.745 -0.685,1.903 -0.001,0.586 0.09,1.519 0.7,1.519 z"
       id="path513" /><path
       style="fill:#231f20"
       inkscape:connector-curvature="0"
       d="m 291.84518,82.650571 h 3.604 v 0.918 c -0.73,0.88 -1.106,1.572 -1.414,2.527 -0.241,0.753 -0.294,1.136 -0.354,1.655 h -1.398 c 0.157,-0.707 0.549,-2.475 1.993,-4.115 h -2.43 v -0.985 z"
       id="path515" /></g><path
     id="path1093-8"
     d="m 173.97893,83.940986 c 0.31278,-0.02296 0.57391,-0.04687 0.85609,-0.191304 0.33765,-0.176 0.43617,-0.374956 0.5366,-0.580608 h 0.93261 v 5.185298 h -1.23104 v -3.785908 c -0.28217,0.122434 -0.35104,0.153043 -1.0933,0.169304 v -0.796782 z"
     inkscape:connector-curvature="0"
     style="fill:#231f20;stroke-width:0.9565205;font-variant-east_asian:normal;opacity:1;vector-effect:none;fill-opacity:1;stroke-linecap:butt;stroke-linejoin:miter;stroke-miterlimit:4;stroke-dasharray:none;stroke-dashoffset:0;stroke-opacity:1" /><path
     id="path515-6"
     d="m 242.31919,83.176269 h 3.70965 v 0.944911 c -0.7514,0.905797 -1.13842,1.618083 -1.45545,2.601078 -0.24807,0.775075 -0.30262,1.169302 -0.36438,1.703517 h -1.43898 c 0.16161,-0.727725 0.56509,-2.547555 2.05143,-4.235631 h -2.50124 v -1.013875 z"
     inkscape:connector-curvature="0"
     style="fill:#231f20;stroke-width:1.02931488" /><path
     id="path223-8"
     d="m 211.2289,83.227948 h 2.934 l -0.075,0.963 h -1.926 l -0.12,0.933 c 0.113,-0.082 0.346,-0.263 0.805,-0.263 0.986,0 1.535,0.761 1.535,1.685 0,0.889 -0.557,1.865 -1.918,1.865 -1.249,0 -1.746,-0.826 -1.746,-1.699 l 1.196,-0.045 c 0,0.504 0.158,0.834 0.602,0.834 0.595,0 0.632,-0.668 0.632,-0.946 0,-0.625 -0.301,-0.881 -0.647,-0.881 -0.376,0 -0.481,0.249 -0.534,0.399 l -1.046,-0.174 z"
     inkscape:connector-curvature="0"
     style="fill:#231f20" /><path
     id="path1093-8-4"
     d="m 206.62369,83.940986 c 0.31278,-0.02296 0.57391,-0.04687 0.85609,-0.191304 0.33765,-0.176 0.43617,-0.374956 0.5366,-0.580608 h 0.93261 v 5.185298 h -1.23104 v -3.785908 c -0.28217,0.122434 -0.35104,0.153043 -1.0933,0.169304 v -0.796782 z"
     inkscape:connector-curvature="0"
     style="opacity:1;vector-effect:none;fill:#231f20;fill-opacity:1;stroke-width:0.9565205;stroke-linecap:butt;stroke-linejoin:miter;stroke-miterlimit:4;stroke-dasharray:none;stroke-dashoffset:0;stroke-opacity:1" /><path
     id="path1093-8-4-5"
     d="m 238.32564,83.940986 c 0.31278,-0.02296 0.57391,-0.04687 0.85609,-0.191304 0.33765,-0.176 0.43617,-0.374956 0.5366,-0.580608 h 0.93261 v 5.185298 h -1.23104 v -3.785908 c -0.28217,0.122434 -0.35104,0.153043 -1.0933,0.169304 v -0.796782 z"
     inkscape:connector-curvature="0"
     style="opacity:1;vector-effect:none;fill:#231f20;fill-opacity:1;stroke-width:0.9565205;stroke-linecap:butt;stroke-linejoin:miter;stroke-miterlimit:4;stroke-dasharray:none;stroke-dashoffset:0;stroke-opacity:1" /></svg>