<?xml version="1.0" encoding="UTF-8" standalone="no"?>
<!-- Generator: Adobe Illustrator 15.1.0, SVG Export Plug-In . SVG Version: 6.00 Build 0)  -->

<svg
   xmlns:dc="http://purl.org/dc/elements/1.1/"
   xmlns:cc="http://creativecommons.org/ns#"
   xmlns:rdf="http://www.w3.org/1999/02/22-rdf-syntax-ns#"
   xmlns:svg="http://www.w3.org/2000/svg"
   xmlns="http://www.w3.org/2000/svg"
   xmlns:sodipodi="http://sodipodi.sourceforge.net/DTD/sodipodi-0.dtd"
   xmlns:inkscape="http://www.inkscape.org/namespaces/inkscape"
   version="1.1"
   id="Layer_1"
   sodipodi:docname="controlmm.svg"
   inkscape:version="0.92.1 r15371"
   x="0px"
   y="0px"
   width="916px"
   height="130px"
   viewBox="0 0 916 130"
   enable-background="new 0 0 916 130"
   xml:space="preserve"><metadata
     id="metadata618"><rdf:RDF><cc:Work
         rdf:about=""><dc:format>image/svg+xml</dc:format><dc:type
           rdf:resource="http://purl.org/dc/dcmitype/StillImage" /></cc:Work></rdf:RDF></metadata><defs
     id="defs616" /><sodipodi:namedview
     id="namedview585"
     pagecolor="#ffffff"
     showgrid="false"
     bordercolor="#666666"
     inkscape:zoom="1.5"
     inkscape:cx="593.30917"
     inkscape:cy="-159.05899"
     borderopacity="1"
     objecttolerance="10"
     gridtolerance="10"
     guidetolerance="10"
     inkscape:window-maximized="1"
     inkscape:pageopacity="0"
     inkscape:pageshadow="2"
     inkscape:window-y="-8"
     inkscape:window-height="1017"
     inkscape:window-x="1912"
     inkscape:current-layer="Layer_1"
     inkscape:window-width="1920" /><g
     id="g45"><path
       d="M174.473,41.369c0.308-0.023,0.564-0.045,0.842-0.188c0.331-0.173,0.429-0.368,0.527-0.571h0.917v5.1   h-1.211v-3.724c-0.278,0.12-0.346,0.15-1.076,0.166L174.473,41.369L174.473,41.369z"
       id="path37"
       fill="#231F20" /><path
       d="M180.902,40.526c1.632,0,1.806,1.933,1.806,2.656c0,1.158-0.384,2.64-1.851,2.64   c-1.204,0-1.768-1.053-1.768-2.701C179.089,41.685,179.654,40.526,180.902,40.526z M180.902,44.89c0.572,0,0.677-0.873,0.677-1.693   c0-0.827-0.136-1.73-0.692-1.73c-0.534,0-0.677,0.745-0.685,1.903C180.203,43.957,180.293,44.89,180.902,44.89z"
       id="path39"
       fill="#231F20" /><path
       d="M185.88,40.526c1.632,0,1.806,1.933,1.806,2.656c0,1.158-0.384,2.64-1.851,2.64   c-1.204,0-1.768-1.053-1.768-2.701C184.067,41.685,184.631,40.526,185.88,40.526z M185.88,44.89c0.572,0,0.677-0.873,0.677-1.693   c0-0.827-0.136-1.73-0.692-1.73c-0.534,0-0.677,0.745-0.685,1.903C185.18,43.957,185.271,44.89,185.88,44.89z"
       id="path41"
       fill="#231F20" /><path
       d="M190.858,40.526c1.632,0,1.806,1.933,1.806,2.656c0,1.158-0.384,2.64-1.851,2.64   c-1.204,0-1.768-1.053-1.768-2.701C189.045,41.685,189.609,40.526,190.858,40.526z M190.858,44.89c0.572,0,0.677-0.873,0.677-1.693   c0-0.827-0.136-1.73-0.692-1.73c-0.534,0-0.677,0.745-0.685,1.903C190.158,43.957,190.249,44.89,190.858,44.89z"
       id="path43"
       fill="#231F20" /></g><g
     id="g55"><path
       fill="#231F20"
       d="M270.448,41.369c0.308-0.023,0.564-0.045,0.842-0.188c0.331-0.173,0.429-0.368,0.527-0.571h0.917v5.1   h-1.211v-3.724c-0.278,0.12-0.346,0.15-1.076,0.166L270.448,41.369L270.448,41.369z"
       id="path47" /><path
       fill="#231F20"
       d="M278.104,44.528v1.181h-1.188v-1.173h-2.069c0-0.173,0.015-0.918,0.015-0.918l2.106-3.009h1.136v3.092   h0.677v0.827H278.104z M276.923,41.903l-1.211,1.798h1.211V41.903z"
       id="path49" /><path
       fill="#231F20"
       d="M281.855,40.526c1.632,0,1.806,1.933,1.806,2.656c0,1.158-0.384,2.64-1.851,2.64   c-1.204,0-1.768-1.053-1.768-2.701C280.042,41.685,280.606,40.526,281.855,40.526z M281.855,44.89c0.572,0,0.677-0.873,0.677-1.693   c0-0.827-0.136-1.73-0.692-1.73c-0.534,0-0.677,0.745-0.685,1.903C281.155,43.957,281.246,44.89,281.855,44.89z"
       id="path51" /><path
       fill="#231F20"
       d="M286.833,40.526c1.632,0,1.806,1.933,1.806,2.656c0,1.158-0.384,2.64-1.851,2.64   c-1.204,0-1.768-1.053-1.768-2.701C285.02,41.685,285.584,40.526,286.833,40.526z M286.833,44.89c0.572,0,0.677-0.873,0.677-1.693   c0-0.827-0.136-1.73-0.692-1.73c-0.534,0-0.677,0.745-0.685,1.903C286.133,43.957,286.224,44.89,286.833,44.89z"
       id="path53" /></g><g
     id="g65"><path
       fill="#231F20"
       d="M222.776,41.369c0.308-0.023,0.564-0.045,0.842-0.188c0.331-0.173,0.429-0.368,0.527-0.571h0.917v5.1   h-1.211v-3.724c-0.278,0.12-0.346,0.15-1.076,0.166L222.776,41.369L222.776,41.369z"
       id="path57" /><path
       fill="#231F20"
       d="M227.333,42.437v-0.18c0-1.204,0.775-1.738,1.791-1.738c1.045,0,1.73,0.572,1.73,1.557   c0,0.888-0.481,1.564-1.971,2.701c0,0,1.775-0.03,1.986-0.03v0.963h-3.498v-0.888c0.391-0.309,0.654-0.512,1.181-0.963   c0.602-0.526,1.038-0.956,1.038-1.76c0-0.203,0-0.7-0.519-0.7c-0.203,0-0.557,0.09-0.557,0.625c0,0.128,0.015,0.323,0.03,0.481   L227.333,42.437z"
       id="path59" /><path
       fill="#231F20"
       d="M234.183,40.526c1.632,0,1.806,1.933,1.806,2.656c0,1.158-0.384,2.64-1.851,2.64   c-1.204,0-1.768-1.053-1.768-2.701C232.37,41.685,232.935,40.526,234.183,40.526z M234.183,44.89c0.572,0,0.677-0.873,0.677-1.693   c0-0.827-0.136-1.73-0.692-1.73c-0.534,0-0.677,0.745-0.685,1.903C233.483,43.957,233.574,44.89,234.183,44.89z"
       id="path61" /><path
       fill="#231F20"
       d="M239.161,40.526c1.632,0,1.806,1.933,1.806,2.656c0,1.158-0.384,2.64-1.851,2.64   c-1.204,0-1.768-1.053-1.768-2.701C237.348,41.685,237.913,40.526,239.161,40.526z M239.161,44.89c0.572,0,0.677-0.873,0.677-1.693   c0-0.827-0.136-1.73-0.692-1.73c-0.534,0-0.677,0.745-0.685,1.903C238.461,43.957,238.552,44.89,239.161,44.89z"
       id="path63" /></g><g
     id="g75"><path
       fill="#231F20"
       d="M318.119,41.369c0.308-0.023,0.563-0.045,0.842-0.188c0.331-0.173,0.429-0.368,0.527-0.571h0.917v5.1   h-1.211v-3.724c-0.278,0.12-0.347,0.15-1.076,0.166L318.119,41.369L318.119,41.369z"
       id="path67" /><path
       fill="#231F20"
       d="M325.105,42.031v-0.098c0-0.301-0.195-0.512-0.467-0.512c-0.653,0-0.722,0.971-0.745,1.61   c0.129-0.278,0.526-0.594,1.106-0.594c0.617,0,1.406,0.437,1.406,1.565c0,1.136-0.752,1.79-1.828,1.79   c-0.896,0-1.828-0.571-1.828-2.512c0-1.384,0.324-2.769,1.986-2.769c1.294,0,1.505,1.008,1.571,1.384L325.105,42.031z    M324.632,44.905c0.624,0,0.624-0.677,0.624-0.82c0-0.195-0.03-0.782-0.609-0.782c-0.346,0-0.602,0.271-0.602,0.782   C324.045,44.363,324.113,44.905,324.632,44.905z"
       id="path69" /><path
       fill="#231F20"
       d="M329.526,40.526c1.632,0,1.806,1.933,1.806,2.656c0,1.158-0.384,2.64-1.851,2.64   c-1.204,0-1.769-1.053-1.769-2.701C327.713,41.685,328.278,40.526,329.526,40.526z M329.526,44.89c0.571,0,0.677-0.873,0.677-1.693   c0-0.827-0.136-1.73-0.692-1.73c-0.534,0-0.677,0.745-0.685,1.903C328.827,43.957,328.917,44.89,329.526,44.89z"
       id="path71" /><path
       fill="#231F20"
       d="M334.504,40.526c1.632,0,1.806,1.933,1.806,2.656c0,1.158-0.384,2.64-1.851,2.64   c-1.204,0-1.768-1.053-1.768-2.701C332.691,41.685,333.256,40.526,334.504,40.526z M334.504,44.89c0.572,0,0.677-0.873,0.677-1.693   c0-0.827-0.136-1.73-0.691-1.73c-0.534,0-0.677,0.745-0.686,1.903C333.805,43.957,333.895,44.89,334.504,44.89z"
       id="path73" /></g><g
     id="g85"><path
       fill="#231F20"
       d="M365.792,41.369c0.308-0.023,0.564-0.045,0.842-0.188c0.331-0.173,0.429-0.368,0.527-0.571h0.917v5.1   h-1.211v-3.724c-0.278,0.12-0.346,0.15-1.076,0.166L365.792,41.369L365.792,41.369z"
       id="path77" /><path
       fill="#231F20"
       d="M374.012,44.258c0,1.166-1.022,1.534-1.806,1.534c-1.144,0-1.805-0.639-1.805-1.542   c0-0.857,0.616-1.106,0.909-1.219c-0.202-0.12-0.699-0.421-0.699-1.151c0-0.624,0.429-1.361,1.609-1.361   c0.889,0,1.58,0.481,1.58,1.399c0,0.76-0.474,0.985-0.722,1.106C373.402,43.144,374.012,43.422,374.012,44.258z M372.214,43.422   c-0.301,0-0.594,0.241-0.594,0.73c0,0.534,0.293,0.737,0.579,0.737c0.36,0,0.594-0.226,0.594-0.737   C372.793,43.814,372.635,43.422,372.214,43.422z M372.229,41.407c-0.346,0-0.496,0.278-0.496,0.594   c0,0.383,0.166,0.647,0.488,0.647c0.338,0,0.475-0.271,0.475-0.58C372.695,41.67,372.522,41.407,372.229,41.407z"
       id="path79" /><path
       fill="#231F20"
       d="M377.199,40.526c1.632,0,1.806,1.933,1.806,2.656c0,1.158-0.384,2.64-1.851,2.64   c-1.204,0-1.769-1.053-1.769-2.701C375.386,41.685,375.95,40.526,377.199,40.526z M377.199,44.89c0.572,0,0.677-0.873,0.677-1.693   c0-0.827-0.136-1.73-0.692-1.73c-0.533,0-0.677,0.745-0.685,1.903C376.499,43.957,376.589,44.89,377.199,44.89z"
       id="path81" /><path
       fill="#231F20"
       d="M382.177,40.526c1.632,0,1.807,1.933,1.807,2.656c0,1.158-0.385,2.64-1.852,2.64   c-1.204,0-1.768-1.053-1.768-2.701C380.364,41.685,380.928,40.526,382.177,40.526z M382.177,44.89c0.572,0,0.677-0.873,0.677-1.693   c0-0.827-0.136-1.73-0.691-1.73c-0.534,0-0.677,0.745-0.686,1.903C381.477,43.957,381.567,44.89,382.177,44.89z"
       id="path83" /></g><g
     id="g95"><path
       fill="#231F20"
       d="M413.042,42.437v-0.18c0-1.204,0.775-1.738,1.791-1.738c1.045,0,1.729,0.572,1.729,1.557   c0,0.888-0.48,1.564-1.971,2.701c0,0,1.775-0.03,1.986-0.03v0.963h-3.498v-0.888c0.391-0.309,0.654-0.512,1.181-0.963   c0.603-0.526,1.038-0.956,1.038-1.76c0-0.203,0-0.7-0.519-0.7c-0.203,0-0.558,0.09-0.558,0.625c0,0.128,0.016,0.323,0.03,0.481   L413.042,42.437z"
       id="path87" /><path
       fill="#231F20"
       d="M419.893,40.526c1.633,0,1.807,1.933,1.807,2.656c0,1.158-0.384,2.64-1.852,2.64   c-1.204,0-1.768-1.053-1.768-2.701C418.08,41.685,418.645,40.526,419.893,40.526z M419.893,44.89c0.572,0,0.678-0.873,0.678-1.693   c0-0.827-0.137-1.73-0.692-1.73c-0.534,0-0.677,0.745-0.685,1.903C419.193,43.957,419.284,44.89,419.893,44.89z"
       id="path89" /><path
       fill="#231F20"
       d="M424.871,40.526c1.632,0,1.806,1.933,1.806,2.656c0,1.158-0.384,2.64-1.851,2.64   c-1.204,0-1.769-1.053-1.769-2.701C423.058,41.685,423.622,40.526,424.871,40.526z M424.871,44.89c0.572,0,0.677-0.873,0.677-1.693   c0-0.827-0.136-1.73-0.691-1.73c-0.534,0-0.678,0.745-0.686,1.903C424.171,43.957,424.261,44.89,424.871,44.89z"
       id="path91" /><path
       fill="#231F20"
       d="M429.849,40.526c1.633,0,1.807,1.933,1.807,2.656c0,1.158-0.384,2.64-1.852,2.64   c-1.204,0-1.768-1.053-1.768-2.701C428.036,41.685,428.6,40.526,429.849,40.526z M429.849,44.89c0.572,0,0.678-0.873,0.678-1.693   c0-0.827-0.137-1.73-0.692-1.73c-0.534,0-0.677,0.745-0.685,1.903C429.149,43.957,429.239,44.89,429.849,44.89z"
       id="path93" /></g><g
     id="g211"><path
       fill="#231F20"
       d="M174.142,84.691c0.12-1.226,0.963-1.541,1.783-1.541c1.377,0,1.663,0.88,1.663,1.369   c0,0.639-0.369,0.971-0.843,1.136c0.64,0.112,0.971,0.579,0.971,1.165c0,0.481-0.316,1.611-1.934,1.611   c-1.128,0-1.737-0.679-1.737-1.693v-0.113l1.173-0.098c0,0-0.007,0.144-0.007,0.219c0,0.475,0.278,0.752,0.624,0.752   c0.399,0,0.669-0.277,0.669-0.752c0-0.579-0.436-0.654-0.752-0.654c-0.06,0-0.166,0.008-0.166,0.008v-0.865   c0,0,0.113,0.009,0.173,0.009c0.64,0,0.64-0.55,0.64-0.603c0-0.414-0.301-0.58-0.549-0.58c-0.519,0-0.519,0.521-0.519,0.737   L174.142,84.691z"
       id="path205" /><path
       fill="#231F20"
       d="M179.511,83.256h2.934l-0.075,0.963h-1.926l-0.12,0.934c0.113-0.084,0.346-0.264,0.805-0.264   c0.986,0,1.535,0.76,1.535,1.686c0,0.888-0.557,1.865-1.918,1.865c-1.249,0-1.746-0.828-1.746-1.7l1.196-0.046   c0,0.505,0.158,0.836,0.602,0.836c0.595,0,0.632-0.67,0.632-0.948c0-0.624-0.301-0.88-0.647-0.88c-0.376,0-0.481,0.249-0.534,0.398   l-1.046-0.174L179.511,83.256z"
       id="path207" /><path
       fill="#231F20"
       d="M185.88,83.158c1.632,0,1.806,1.934,1.806,2.654c0,1.158-0.384,2.641-1.851,2.641   c-1.204,0-1.768-1.053-1.768-2.7C184.067,84.316,184.631,83.158,185.88,83.158z M185.88,87.521c0.572,0,0.677-0.873,0.677-1.693   c0-0.827-0.136-1.73-0.692-1.73c-0.534,0-0.677,0.745-0.685,1.904C185.18,86.588,185.271,87.521,185.88,87.521z"
       id="path209" /></g><g
     id="g219"><path
       fill="#231F20"
       d="M206.392,87.16v1.181h-1.188v-1.173h-2.069c0-0.174,0.015-0.918,0.015-0.918l2.106-3.01h1.136v3.092h0.677   v0.828H206.392z M205.211,84.534L204,86.332h1.211V84.534z"
       id="path213" /><path
       fill="#231F20"
       d="M210.144,83.158c1.632,0,1.806,1.934,1.806,2.654c0,1.158-0.384,2.641-1.851,2.641   c-1.204,0-1.768-1.053-1.768-2.7C208.331,84.316,208.896,83.158,210.144,83.158z M210.144,87.521c0.572,0,0.677-0.873,0.677-1.693   c0-0.827-0.136-1.73-0.692-1.73c-0.534,0-0.677,0.745-0.685,1.904C209.444,86.588,209.535,87.521,210.144,87.521z"
       id="path215" /><path
       fill="#231F20"
       d="M215.122,83.158c1.632,0,1.806,1.934,1.806,2.654c0,1.158-0.384,2.641-1.851,2.641   c-1.204,0-1.768-1.053-1.768-2.7C213.309,84.316,213.873,83.158,215.122,83.158z M215.122,87.521c0.572,0,0.677-0.873,0.677-1.693   c0-0.827-0.136-1.73-0.692-1.73c-0.534,0-0.677,0.745-0.685,1.904C214.422,86.588,214.512,87.521,215.122,87.521z"
       id="path217" /></g><g
     id="g227"><path
       fill="#231F20"
       d="M235.635,87.157v1.181h-1.188v-1.173h-2.069c0-0.173,0.015-0.918,0.015-0.918l2.106-3.009h1.136v3.092   h0.677v0.827H235.635z M234.454,84.531l-1.211,1.799h1.211V84.531z"
       id="path221" /><path
       fill="#231F20"
       d="M237.995,83.253h2.934l-0.075,0.963h-1.926l-0.12,0.933c0.113-0.082,0.346-0.263,0.805-0.263   c0.986,0,1.535,0.761,1.535,1.685c0,0.889-0.557,1.865-1.918,1.865c-1.249,0-1.746-0.826-1.746-1.699l1.196-0.045   c0,0.504,0.158,0.834,0.602,0.834c0.595,0,0.632-0.668,0.632-0.946c0-0.625-0.301-0.881-0.647-0.881   c-0.376,0-0.481,0.249-0.534,0.399l-1.046-0.174L237.995,83.253z"
       id="path223" /><path
       fill="#231F20"
       d="M244.364,83.155c1.632,0,1.806,1.933,1.806,2.655c0,1.157-0.384,2.641-1.851,2.641   c-1.204,0-1.768-1.053-1.768-2.701C242.551,84.314,243.116,83.155,244.364,83.155z M244.364,87.52c0.572,0,0.677-0.873,0.677-1.692   c0-0.828-0.136-1.729-0.692-1.729c-0.534,0-0.677,0.743-0.685,1.902C243.665,86.586,243.755,87.52,244.364,87.52z"
       id="path225" /></g><g
     id="g461"><path
       fill="#231F20"
       d="M637.26,112.055c1.632,0,1.805,1.933,1.805,2.655c0,1.158-0.384,2.641-1.851,2.641   c-1.203,0-1.768-1.054-1.768-2.701C635.446,113.213,636.011,112.055,637.26,112.055z M637.26,116.417   c0.571,0,0.677-0.872,0.677-1.692c0-0.827-0.136-1.73-0.692-1.73c-0.534,0-0.677,0.745-0.685,1.903   C636.56,115.484,636.65,116.417,637.26,116.417z"
       id="path457" /><path
       fill="#231F20"
       d="M640.454,113.589c0.12-1.227,0.963-1.542,1.783-1.542c1.376,0,1.662,0.88,1.662,1.369   c0,0.64-0.368,0.971-0.843,1.136c0.64,0.113,0.971,0.579,0.971,1.166c0,0.481-0.316,1.609-1.934,1.609   c-1.128,0-1.737-0.677-1.737-1.692v-0.112l1.173-0.098c0,0-0.007,0.143-0.007,0.218c0,0.474,0.278,0.752,0.624,0.752   c0.398,0,0.67-0.278,0.67-0.752c0-0.579-0.437-0.654-0.753-0.654c-0.06,0-0.165,0.007-0.165,0.007v-0.864   c0,0,0.112,0.007,0.173,0.007c0.64,0,0.64-0.549,0.64-0.602c0-0.414-0.301-0.579-0.549-0.579c-0.52,0-0.52,0.519-0.52,0.737   L640.454,113.589z"
       id="path459" /></g><g
     id="g467"><path
       fill="#231F20"
       d="M657.017,112.053c1.632,0,1.805,1.933,1.805,2.655c0,1.158-0.384,2.641-1.851,2.641   c-1.203,0-1.768-1.054-1.768-2.701C655.203,113.211,655.768,112.053,657.017,112.053z M657.017,116.415   c0.571,0,0.677-0.872,0.677-1.692c0-0.827-0.136-1.73-0.692-1.73c-0.534,0-0.677,0.745-0.685,1.903   C656.316,115.482,656.407,116.415,657.017,116.415z"
       id="path463" /><path
       fill="#231F20"
       d="M660.603,112.15h2.934l-0.075,0.963h-1.926l-0.121,0.933c0.113-0.083,0.347-0.264,0.806-0.264   c0.985,0,1.534,0.76,1.534,1.686c0,0.888-0.557,1.865-1.918,1.865c-1.249,0-1.745-0.827-1.745-1.7l1.195-0.045   c0,0.504,0.158,0.835,0.603,0.835c0.594,0,0.632-0.67,0.632-0.948c0-0.624-0.301-0.88-0.647-0.88c-0.376,0-0.481,0.248-0.534,0.398   l-1.045-0.173L660.603,112.15z"
       id="path465" /></g><g
     id="g473"><path
       fill="#231F20"
       d="M676.484,112.053c1.632,0,1.805,1.933,1.805,2.655c0,1.158-0.384,2.641-1.851,2.641   c-1.203,0-1.768-1.054-1.768-2.701C674.671,113.211,675.235,112.053,676.484,112.053z M676.484,116.415   c0.571,0,0.677-0.872,0.677-1.692c0-0.827-0.136-1.73-0.692-1.73c-0.534,0-0.677,0.745-0.685,1.903   C675.784,115.482,675.875,116.415,676.484,116.415z"
       id="path469" /><path
       fill="#231F20"
       d="M679.604,112.135h3.604v0.918c-0.729,0.88-1.106,1.572-1.414,2.527c-0.241,0.753-0.294,1.136-0.354,1.655   h-1.398c0.157-0.707,0.549-2.475,1.993-4.115h-2.43V112.135z"
       id="path471" /></g><g
     id="g481"><g
       id="g479"><path
         fill="#231F20"
         d="M621.115,112.055c1.632,0,1.805,1.933,1.805,2.655c0,1.158-0.384,2.641-1.851,2.641    c-1.203,0-1.768-1.054-1.768-2.701C619.302,113.213,619.866,112.055,621.115,112.055z M621.115,116.417    c0.571,0,0.677-0.872,0.677-1.692c0-0.827-0.136-1.73-0.692-1.73c-0.534,0-0.677,0.745-0.685,1.903    C620.415,115.484,620.506,116.417,621.115,116.417z"
         id="path475" /><path
         fill="#231F20"
         d="M626.093,112.055c1.632,0,1.805,1.933,1.805,2.655c0,1.158-0.384,2.641-1.851,2.641    c-1.203,0-1.768-1.054-1.768-2.701C624.279,113.213,624.844,112.055,626.093,112.055z M626.093,116.417    c0.571,0,0.677-0.872,0.677-1.692c0-0.827-0.136-1.73-0.692-1.73c-0.534,0-0.677,0.745-0.685,1.903    C625.393,115.484,625.483,116.417,626.093,116.417z"
         id="path477" /></g></g><g
     id="g505"><path
       fill="#231F20"
       d="M715.624,112.055c1.632,0,1.805,1.933,1.805,2.655c0,1.158-0.384,2.641-1.851,2.641   c-1.203,0-1.768-1.054-1.768-2.701C713.811,113.213,714.375,112.055,715.624,112.055z M715.624,116.417   c0.571,0,0.677-0.872,0.677-1.692c0-0.827-0.136-1.73-0.692-1.73c-0.534,0-0.677,0.745-0.685,1.903   C714.924,115.484,715.015,116.417,715.624,116.417z"
       id="path501" /><path
       fill="#231F20"
       d="M718.818,113.589c0.12-1.227,0.963-1.542,1.783-1.542c1.376,0,1.662,0.88,1.662,1.369   c0,0.64-0.368,0.971-0.843,1.136c0.64,0.113,0.971,0.579,0.971,1.166c0,0.481-0.316,1.609-1.934,1.609   c-1.128,0-1.737-0.677-1.737-1.692v-0.112l1.173-0.098c0,0-0.007,0.143-0.007,0.218c0,0.474,0.278,0.752,0.624,0.752   c0.398,0,0.67-0.278,0.67-0.752c0-0.579-0.437-0.654-0.753-0.654c-0.06,0-0.165,0.007-0.165,0.007v-0.864   c0,0,0.112,0.007,0.173,0.007c0.64,0,0.64-0.549,0.64-0.602c0-0.414-0.301-0.579-0.549-0.579c-0.52,0-0.52,0.519-0.52,0.737   L718.818,113.589z"
       id="path503" /></g><g
     id="g511"><path
       fill="#231F20"
       d="M735.381,112.053c1.632,0,1.805,1.933,1.805,2.655c0,1.158-0.384,2.641-1.851,2.641   c-1.203,0-1.768-1.054-1.768-2.701C733.567,113.211,734.132,112.053,735.381,112.053z M735.381,116.415   c0.571,0,0.677-0.872,0.677-1.692c0-0.827-0.136-1.73-0.692-1.73c-0.534,0-0.677,0.745-0.685,1.903   C734.681,115.482,734.771,116.415,735.381,116.415z"
       id="path507" /><path
       fill="#231F20"
       d="M738.966,112.15h2.935l-0.075,0.963h-1.926l-0.121,0.933c0.113-0.083,0.347-0.264,0.806-0.264   c0.985,0,1.534,0.76,1.534,1.686c0,0.888-0.557,1.865-1.918,1.865c-1.249,0-1.745-0.827-1.745-1.7l1.195-0.045   c0,0.504,0.158,0.835,0.603,0.835c0.594,0,0.632-0.67,0.632-0.948c0-0.624-0.301-0.88-0.647-0.88c-0.376,0-0.481,0.248-0.534,0.398   l-1.045-0.173L738.966,112.15z"
       id="path509" /></g><g
     id="g517"><path
       fill="#231F20"
       d="M754.849,112.053c1.632,0,1.805,1.933,1.805,2.655c0,1.158-0.384,2.641-1.851,2.641   c-1.203,0-1.768-1.054-1.768-2.701C753.035,113.211,753.6,112.053,754.849,112.053z M754.849,116.415   c0.571,0,0.677-0.872,0.677-1.692c0-0.827-0.136-1.73-0.692-1.73c-0.534,0-0.677,0.745-0.685,1.903   C754.148,115.482,754.239,116.415,754.849,116.415z"
       id="path513" /><path
       fill="#231F20"
       d="M757.968,112.135h3.604v0.918c-0.73,0.88-1.106,1.572-1.414,2.527c-0.241,0.753-0.294,1.136-0.354,1.655   h-1.398c0.157-0.707,0.549-2.475,1.993-4.115h-2.43V112.135z"
       id="path515" /></g><g
     id="g525"><g
       id="g523"><path
         fill="#231F20"
         d="M699.479,112.055c1.632,0,1.805,1.933,1.805,2.655c0,1.158-0.384,2.641-1.851,2.641    c-1.203,0-1.768-1.054-1.768-2.701C697.665,113.213,698.229,112.055,699.479,112.055z M699.479,116.417    c0.571,0,0.677-0.872,0.677-1.692c0-0.827-0.136-1.73-0.692-1.73c-0.534,0-0.677,0.745-0.685,1.903    C698.778,115.484,698.869,116.417,699.479,116.417z"
         id="path519" /><path
         fill="#231F20"
         d="M704.456,112.055c1.632,0,1.805,1.933,1.805,2.655c0,1.158-0.384,2.641-1.851,2.641    c-1.203,0-1.768-1.054-1.768-2.701C702.643,113.213,703.207,112.055,704.456,112.055z M704.456,116.417    c0.571,0,0.677-0.872,0.677-1.692c0-0.827-0.136-1.73-0.692-1.73c-0.534,0-0.677,0.745-0.685,1.903    C703.756,115.484,703.847,116.417,704.456,116.417z"
         id="path521" /></g></g><g
     id="g531"><path
       fill="#231F20"
       d="M619.097,67.221c0.309-0.022,0.564-0.045,0.843-0.188c0.331-0.173,0.429-0.369,0.526-0.572h0.918v5.101   h-1.212v-3.724c-0.278,0.12-0.346,0.15-1.075,0.165V67.221z"
       id="path527" /><path
       fill="#231F20"
       d="M625.526,66.379c1.632,0,1.805,1.933,1.805,2.655c0,1.158-0.384,2.641-1.851,2.641   c-1.203,0-1.768-1.054-1.768-2.701C623.713,67.537,624.277,66.379,625.526,66.379z M625.526,70.741   c0.571,0,0.677-0.872,0.677-1.692c0-0.827-0.136-1.73-0.692-1.73c-0.534,0-0.677,0.745-0.685,1.903   C624.826,69.809,624.917,70.741,625.526,70.741z"
       id="path529" /></g><g
     id="g537"><path
       fill="#231F20"
       d="M685.825,68.289v-0.181c0-1.203,0.775-1.737,1.791-1.737c1.046,0,1.73,0.571,1.73,1.557   c0,0.888-0.481,1.565-1.972,2.701c0,0,1.775-0.03,1.986-0.03v0.963h-3.498v-0.888c0.392-0.309,0.654-0.512,1.181-0.963   c0.603-0.526,1.038-0.955,1.038-1.761c0-0.202,0-0.699-0.519-0.699c-0.203,0-0.557,0.091-0.557,0.624   c0,0.128,0.015,0.324,0.03,0.481L685.825,68.289z"
       id="path533" /><path
       fill="#231F20"
       d="M692.677,66.379c1.632,0,1.805,1.933,1.805,2.655c0,1.158-0.384,2.641-1.851,2.641   c-1.203,0-1.768-1.054-1.768-2.701C690.863,67.537,691.428,66.379,692.677,66.379z M692.677,70.741   c0.571,0,0.677-0.872,0.677-1.692c0-0.827-0.136-1.73-0.692-1.73c-0.534,0-0.677,0.745-0.685,1.903   C691.977,69.809,692.067,70.741,692.677,70.741z"
       id="path535" /></g><g
     id="g543"><path
       fill="#231F20"
       d="M719.378,68.289v-0.181c0-1.203,0.775-1.737,1.791-1.737c1.046,0,1.73,0.571,1.73,1.557   c0,0.888-0.481,1.565-1.972,2.701c0,0,1.775-0.03,1.986-0.03v0.963h-3.498v-0.888c0.392-0.309,0.654-0.512,1.181-0.963   c0.603-0.526,1.038-0.955,1.038-1.761c0-0.202,0-0.699-0.519-0.699c-0.203,0-0.557,0.091-0.557,0.624   c0,0.128,0.015,0.324,0.03,0.481L719.378,68.289z"
       id="path539" /><path
       fill="#231F20"
       d="M724.837,66.477h2.935l-0.075,0.963h-1.926l-0.121,0.933c0.113-0.083,0.347-0.264,0.806-0.264   c0.985,0,1.534,0.76,1.534,1.686c0,0.888-0.557,1.865-1.918,1.865c-1.249,0-1.745-0.827-1.745-1.7l1.195-0.045   c0,0.504,0.158,0.835,0.603,0.835c0.594,0,0.632-0.67,0.632-0.948c0-0.624-0.301-0.88-0.647-0.88c-0.376,0-0.481,0.248-0.534,0.398   l-1.045-0.173L724.837,66.477z"
       id="path541" /></g><g
     id="g549"><path
       fill="#231F20"
       d="M753.065,67.913c0.12-1.227,0.963-1.542,1.783-1.542c1.376,0,1.662,0.88,1.662,1.369   c0,0.64-0.368,0.971-0.843,1.136c0.64,0.113,0.971,0.579,0.971,1.166c0,0.481-0.316,1.609-1.934,1.609   c-1.128,0-1.737-0.677-1.737-1.692v-0.112l1.173-0.098c0,0-0.007,0.143-0.007,0.218c0,0.474,0.278,0.752,0.624,0.752   c0.398,0,0.67-0.278,0.67-0.752c0-0.579-0.437-0.654-0.753-0.654c-0.06,0-0.165,0.007-0.165,0.007v-0.864   c0,0,0.112,0.007,0.173,0.007c0.64,0,0.64-0.549,0.64-0.602c0-0.414-0.301-0.579-0.549-0.579c-0.52,0-0.52,0.519-0.52,0.737   L753.065,67.913z"
       id="path545" /><path
       fill="#231F20"
       d="M759.826,66.379c1.632,0,1.805,1.933,1.805,2.655c0,1.158-0.384,2.641-1.851,2.641   c-1.203,0-1.768-1.054-1.768-2.701C758.013,67.537,758.577,66.379,759.826,66.379z M759.826,70.741   c0.571,0,0.677-0.872,0.677-1.692c0-0.827-0.136-1.73-0.692-1.73c-0.534,0-0.677,0.745-0.685,1.903   C759.126,69.809,759.217,70.741,759.826,70.741z"
       id="path547" /></g><g
     id="g597"><path
       fill="#231F20"
       d="M652.649,67.221c0.309-0.022,0.564-0.045,0.843-0.188c0.331-0.173,0.429-0.369,0.526-0.572h0.918v5.101   h-1.212v-3.724c-0.278,0.12-0.346,0.15-1.075,0.165V67.221z"
       id="path593" /><path
       fill="#231F20"
       d="M657.687,66.477h2.935l-0.075,0.963h-1.926l-0.121,0.933c0.113-0.083,0.347-0.264,0.806-0.264   c0.985,0,1.534,0.76,1.534,1.686c0,0.888-0.557,1.865-1.918,1.865c-1.249,0-1.745-0.827-1.745-1.7l1.195-0.045   c0,0.504,0.158,0.835,0.603,0.835c0.594,0,0.632-0.67,0.632-0.948c0-0.624-0.301-0.88-0.647-0.88c-0.376,0-0.481,0.248-0.534,0.398   l-1.045-0.173L657.687,66.477z"
       id="path595" /></g></svg>