<?xml version="1.0" encoding="UTF-8"?>
<!DOCTYPE svg PUBLIC "-//W3C//DTD SVG 1.1//EN" "http://www.w3.org/Graphics/SVG/1.1/DTD/svg11.dtd">
<!-- Creator: CorelDRAW -->
<svg xmlns="http://www.w3.org/2000/svg" xml:space="preserve" width="2300mm" height="1200mm" style="shape-rendering:geometricPrecision; text-rendering:geometricPrecision; image-rendering:optimizeQuality; fill-rule:evenodd; clip-rule:evenodd"
viewBox="0 0 2300 1200"
 xmlns:xlink="http://www.w3.org/1999/xlink">
 <defs>
  <style type="text/css">
   <![CDATA[
    .str0 {stroke:#1F1A17;stroke-width:0.15;stroke-linejoin:bevel}
    .fil0 {fill:none}
   ]]>
  </style>
 </defs>
 <g id="layer_x0020_1">
  <metadata id="CorelCorpID_0Corel-Layer"/>
  <path class="fil0 str0" d="M1110.93 9.9388c0,0 -334,0 -334,0 -11.0457,0 -20,8.9543 -20,19.9998 0,0 0,38.824 0,38.824 0,5.0853 3.2053,9.6186 8,11.3137 1.562,0.5524 3.2761,-0.2663 3.8284,-1.8285 0.1135,-0.3211 0.1715,-0.6592 0.1715,-0.9999 0,0 0,-4.4853 0,-4.4853 0,-1.6571 1.3431,-3 3,-3 1.6569,0 3,1.3429 3,3 0,0 6,0 6,0 1.6569,0 2.9998,1.343 2.9998,2.9999 0,1.657 -1.3429,3 -2.9998,3 0,0 0,142.046 0,142.046 1.6569,0 2.9998,1.3431 2.9998,3 0,1.6569 -1.3429,3.0002 -2.9998,3.0002 0,0 -12,0 -12,0 -6.6275,0 -11.9999,5.3722 -11.9999,11.9997 0,0 0,20.3271 0,20.3271 0,5.0853 3.2053,9.6184 8,11.3137 1.562,0.5523 3.2761,-0.2663 3.8284,-1.8283 0.1135,-0.3211 0.1715,-0.6594 0.1715,-1.0001 0,0 0,-8.4853 0,-8.4853 0,-1.6567 1.3431,-2.9999 3,-2.9999 1.6569,0 3,1.3432 3,2.9999 0,0 6,0 6,0 1.6569,0 2.9998,1.3433 2.9998,3.0004 0,1.6567 -1.3429,3 -2.9998,3 0,0 0,45.5641 0,45.5641 0,6.6277 5.3726,12.0003 12.0001,12.0003 0,0 302,0 302,0 6.6276,0 11.9999,-5.3726 11.9999,-12.0003 0,0 0,-45.5641 0,-45.5641 -1.6567,0 -3,-1.3433 -3,-3 0,-1.6571 1.3433,-3.0004 3,-3.0004 0,0 6,0 6,0 0,-1.6567 1.3432,-2.9999 3,-2.9999 1.6571,0 3,1.3432 3,2.9999 0,0 0,8.4853 0,8.4853 0,1.6568 1.3432,3.0003 3.0003,3.0003 0.3404,0 0.6787,-0.0585 0.9998,-0.1719 4.7945,-1.6953 8.0002,-6.2284 8.0002,-11.3137 0,0 0,-20.3271 0,-20.3271 0,-6.6275 -5.3727,-11.9997 -12.0003,-11.9997 0,0 -12,0 -12,0 -1.6567,0 -3,-1.3433 -3,-3.0002 0,-1.6569 1.3433,-3 3,-3 0,0 0,-142.046 0,-142.046 -1.6567,0 -3,-1.343 -3,-3 0,-1.6569 1.3433,-2.9999 3,-2.9999 0,0 6,0 6,0 0,-1.6571 1.3432,-3 3,-3 1.6571,0 3,1.3429 3,3 0,0 0,4.4853 0,4.4853 0,1.6567 1.3432,2.9998 3.0003,2.9998 0.3404,0 0.6787,-0.0577 0.9998,-0.1714 4.7945,-1.6951 8.0002,-6.2284 8.0002,-11.3137 0,0 0,-38.824 0,-38.824 0,-11.0455 -8.9545,-19.9998 -20.0002,-19.9998z"/>
  <path class="fil0 str0" d="M745.93 62.3113c0,0 0,-22.9999 0,-22.9999 0,-1.1047 -0.8954,-2.0001 -2.0001,-2.0001 0,0 -9.9999,0 -9.9999,0 -1.6567,0 -3.0001,-1.3432 -3.0001,-3 0,-1.6569 1.3434,-3 3.0001,-3 0,0 0,-1.3723 0,-1.3723 0,-11.0457 -8.9541,-20.0002 -19.9999,-20.0002 0,0 -636,0 -636,0 -11.0456,0 -20.0001,8.9545 -20.0001,20.0002 0,0 0,1.3723 0,1.3723 1.657,0 2.9999,1.3431 2.9999,3 0,1.6568 -1.3429,3 -2.9999,3 0,0 -9.9998,0 -9.9998,0 -1.1052,0 -2.0002,0.8954 -2.0002,2.0001 0,0 0,22.9999 0,22.9999 0,1.1045 0.895,1.9997 2.0002,1.9997 0,0 9.9998,0 9.9998,0 1.657,0 2.9999,1.3435 2.9999,3.0004 0,1.6567 -1.3429,3 -2.9999,3 0,0 0,9.7804 0,9.7804 1.657,0 2.9999,1.3431 2.9999,3 0,1.6569 -1.3429,3 -2.9999,3 0,0 -4.9999,0 -4.9999,0 -6.6273,0 -12,5.3726 -12,12 0,0 0,493.124 0,493.124 0,11.0461 8.9542,19.9999 19.9998,19.9999 0,0 670,0 670,0 11.046,0 20.0003,-8.9538 20.0003,-19.9999 0,0 0,-493.124 0,-493.124 0,-6.6274 -5.3726,-12 -12.0001,-12 0,0 -5.0001,0 -5.0001,0 -1.6567,0 -3.0001,-1.3431 -3.0001,-3 0,-1.6569 1.3434,-3 3.0001,-3 0,0 0,-9.7804 0,-9.7804 -1.6567,0 -3.0001,-1.3433 -3.0001,-3 0,-1.6569 1.3434,-3.0004 3.0001,-3.0004 0,0 9.9999,0 9.9999,0 1.1047,0 2.0001,-0.8952 2.0001,-1.9997z"/>
  <path class="fil0 str0" d="M1203.08 896.586c0,0 -0.7103,-4.4273 -0.7103,-4.4273 -0.9343,-5.8184 -5.9552,-10.0976 -11.8484,-10.0976 0,0 -255.476,0 -255.476,0 -5.7064,0 -10.6233,-4.0177 -11.7595,-9.6091 0,0 -44.6753,-219.762 -44.6753,-219.762 0,0 -0.042,-0.1836 -0.042,-0.1836 -1.6592,-7.2802 -8.1332,-12.4447 -15.6001,-12.4447 0,0 -3.7524,0 -3.7524,0 0,0 6.1867,33.4322 6.1867,33.4322 1.6289,-0.3014 3.1943,0.7748 3.4954,2.4044 0.3018,1.6292 -0.7745,3.1943 -2.404,3.4954 0,0 -11.7994,2.1835 -11.7994,2.1835 -1.6296,0.3018 -3.1943,-0.7745 -3.4961,-2.404 -0.3011,-1.6289 0.7751,-3.1943 2.404,-3.4958 0,0 -6.5905,-35.6157 -6.5905,-35.6157 0,0 -2.5053,0 -2.5053,0 -8.8366,0 -16.0004,7.1637 -16.0004,15.9997 0,0.8499 0.0682,1.6981 0.2026,2.537 0,0 34.8864,217.245 34.8864,217.245 0.4493,2.7982 0.4996,5.6459 0.1502,8.4578 0,0 -35.7787,287.786 -35.7787,287.786 -1.09,8.7691 5.1346,16.7617 13.9037,17.8517 0.6553,0.0817 1.314,0.1223 1.9741,0.1223 0,0 26.7284,0 26.7284,0 3.3542,0 6.6242,-1.0542 9.3466,-3.0137 0,0 203.157,-146.224 203.157,-146.224 3.3755,-2.4294 7.0645,-4.39 10.9672,-5.828 23.8379,-8.784 50.2832,3.4196 59.0674,27.2576 0,0 43.2387,117.34 43.2387,117.34 2.3179,6.289 8.3103,10.4675 15.0137,10.4675 0,0 20.0698,0 20.0698,0 8.8366,0 15.9995,-7.1633 15.9995,-16 0,-0.8496 -0.0675,-1.6978 -0.2019,-2.5363 0,0 -41.2603,-256.939 -41.2603,-256.939 -0.2336,-1.4546 -1.489,-2.5243 -2.9621,-2.5243 0,0 -21.0289,0 -21.0289,0 -1.6571,0 -3,1.3433 -3,3 0,0.1592 0.0124,0.3184 0.0379,0.4758 0,0 8.7781,54.6616 8.7781,54.6616 1.6358,-0.2625 3.175,0.8509 3.4375,2.4867 0.2626,1.6357 -0.8509,3.175 -2.4866,3.4375 0,0 -11.8484,1.9027 -11.8484,1.9027 -1.6357,0.2629 -3.175,-0.8506 -3.4375,-2.4863 -0.2625,-1.6361 0.8509,-3.175 2.4867,-3.4375 0,0 -10.6116,-66.0783 -10.6116,-66.0783 -0.1571,0.0251 -0.3163,0.0379 -0.4755,0.0379 -1.657,0 -2.9999,-1.3433 -2.9999,-3 0,-1.6571 1.3429,-3 2.9999,-3 0,0 35.2578,0 35.2578,0 1.6564,0 3,-1.3429 3,-3 0,-0.1592 -0.0131,-0.3183 -0.0386,-0.4754z"/>
  <path class="fil0 str0" d="M913.854 967.594c1.245,-10.0149 9.7551,-17.5328 19.8472,-17.5328 0,0 110.746,0 110.746,0 6.4341,0 12.4747,3.0948 16.2326,8.3165 6.4527,8.9648 4.4159,21.4636 -4.5489,27.9159 0,0 -121.631,87.5444 -121.631,87.5444 -4.0927,2.9456 -9.1467,4.2368 -14.151,3.6146 -10.961,-1.3629 -18.7421,-11.3533 -17.3792,-22.3146 0,0 10.8838,-87.544 10.8838,-87.544z"/>
  <path class="fil0 str0" d="M929.519 861.536c0,0 0.711,4.4272 0.711,4.4272 0.9343,5.8181 5.9552,10.0976 11.8477,10.0976 0,0 255.476,0 255.476,0 5.7057,0 10.6226,4.0177 11.7595,9.6091 0,0 44.6748,219.762 44.6748,219.762 0,0 0.042,0.184 0.042,0.184 1.6592,7.2802 8.1332,12.4444 15.6001,12.4444 0,0 0.146,0 0.146,0 1.6571,0 3,-1.3429 3,-3 0,-0.1833 -0.0165,-0.3659 -0.0503,-0.5457 0,0 -5.53,-29.8862 -5.53,-29.8862 -1.6296,0.3011 -3.1943,-0.7752 -3.4961,-2.4047 -0.3011,-1.6288 0.7751,-3.1943 2.404,-3.4954 0,0 11.8001,-2.1835 11.8001,-2.1835 1.6289,-0.3018 3.1943,0.7745 3.4954,2.404 0.3018,1.6288 -0.7744,3.1943 -2.404,3.4961 0,0 6.1364,33.1611 6.1364,33.1611 0.2632,1.4221 1.5035,2.4543 2.9497,2.4543 0,0 0.0104,0 0.0104,0 8.8366,0 15.9997,-7.1638 15.9997,-15.9997 0,-0.8496 -0.0676,-1.6978 -0.2026,-2.537 0,0 -34.8857,-217.245 -34.8857,-217.245 -0.4493,-2.7981 -0.5003,-5.6454 -0.1502,-8.4577 0,0 35.7787,-287.786 35.7787,-287.786 1.09,-8.7692 -5.1353,-16.7618 -13.9045,-17.8519 -0.6545,-0.0815 -1.3139,-0.1222 -1.9733,-0.1222 0,0 -26.7284,0 -26.7284,0 -3.3549,0 -6.6243,1.0542 -9.3473,3.0138 0,0 -203.157,146.223 -203.157,146.223 -3.3755,2.4295 -7.0645,4.3905 -10.9665,5.8284 -23.8386,8.7837 -50.2839,-3.4196 -59.0682,-27.2576 0,0 -43.2387,-117.34 -43.2387,-117.34 -2.3178,-6.289 -8.3102,-10.4676 -15.013,-10.4676 0,0 -20.0698,0 -20.0698,0 -8.8366,0 -16.0004,7.1633 -16.0004,16.0001 0,0.8494 0.0675,1.6977 0.2026,2.5362 0,0 41.2605,256.939 41.2605,256.939 0.2336,1.4545 1.4883,2.5238 2.9621,2.5238 0,0 21.0282,0 21.0282,0 1.6571,0 3,-1.3429 3,-2.9999 0,-0.1592 -0.0124,-0.3184 -0.0379,-0.4755 0,0 -8.7774,-54.6619 -8.7774,-54.6619 -1.6358,0.2625 -3.175,-0.851 -3.4382,-2.4867 -0.2625,-1.6357 0.8509,-3.175 2.4866,-3.4375 0,0 11.8484,-1.9024 11.8484,-1.9024 1.6357,-0.2632 3.175,0.8503 3.4375,2.486 0.2625,1.6364 -0.8502,3.175 -2.486,3.4375 0,0 10.6109,66.0783 10.6109,66.0783 0.1571,-0.0248 0.3163,-0.0379 0.4755,-0.0379 1.6571,0 3,1.3436 3,3 0,1.6571 -1.3429,3 -3,3 0,0 -35.2571,0 -35.2571,0 -1.6571,0 -3,1.3432 -3,3 0,0.1595 0.0124,0.3187 0.0379,0.4758z"/>
  <path class="fil0 str0" d="M1115.93 334.253c0,11.0457 8.9544,20.0002 20.0001,20.0002 0,0 333.999,0 333.999,0 11.0456,0 20.0001,-8.9545 20.0001,-20.0002 0,0 0,-42.0343 0,-42.0343 0,-6.6277 -5.3729,-12 -11.9999,-12 0,0 0,17.4577 0,17.4577 0,1.6564 -1.3436,3 -3,3 -1.6571,0 -3,-1.3436 -3,-3 0,0 -6,0 -6,0 -1.6571,0 -3.0007,-1.3436 -3.0007,-3 0,-1.6571 1.3436,-3 3.0007,-3 0,0 0,-248.529 0,-248.529 0,0 -76.9999,0 -76.9999,0 -1.6571,0 -3.0007,-1.343 -3.0007,-2.9999 0,0 0,-18.2089 0,-18.2089 0,-6.6274 -5.3723,-12 -12,-12 0,0 -142,0 -142,0 -6.6269,0 -11.9997,5.3726 -11.9997,12 0,0 0,18.2089 0,18.2089 0,1.6569 -1.3426,2.9999 -2.9995,2.9999 0,0 -76.9988,0 -76.9988,0 0,0 0,248.529 0,248.529 1.6571,0 3,1.3429 3,3 0,1.6564 -1.3429,3 -3,3 0,0 -6,0 -6,0 0,1.6564 -1.3429,3 -3,3 -1.6571,0 -3,-1.3436 -3,-3 0,0 0,-17.4577 0,-17.4577 -6.6273,0 -11.9999,5.3723 -11.9999,12 0,0 0,42.0343 0,42.0343z"/>
  <path class="fil0 str0" d="M2191.74 85.0319c0,0 0,-39 0,-39 0,0 -56.275,0 -56.275,0 -1.9547,4.2655 -6.2163,7.0002 -10.9085,7.0002 0,0 -379.066,0 -379.066,0 -4.6923,0 -8.9538,-2.7347 -10.9086,-7.0002 0,0 -19.6487,0 -19.6487,0 0,0.3674 -0.0676,0.7315 -0.1985,1.0745 -0.5939,1.5469 -2.3289,2.3201 -3.8757,1.7265 -1.5469,-0.5934 -2.3199,-2.3285 -1.7267,-3.8755 2.7203,-16.3436 -8.3233,-31.7981 -24.6669,-34.5182 -16.3442,-2.7204 -31.7982,8.3235 -34.5185,24.6674 -0.1481,0.8887 -0.2563,1.7842 -0.3231,2.6827 0,0 -38.6333,515.346 -38.6333,515.346 -0.4954,6.6091 4.4606,12.3679 11.0691,12.8633 0.2983,0.0228 0.598,0.0338 0.8971,0.0338 0,0 63.376,0 63.376,0 2.4046,0 4.7542,-0.7228 6.7441,-2.0747 0,0 387.752,-263.468 387.752,-263.468 4.8968,-3.3272 10.471,-5.5259 16.3201,-6.4378 21.8281,-3.402 42.281,11.5349 45.6833,33.3626 0,0 35.6092,228.466 35.6092,228.466 0.9109,5.8435 5.9428,10.152 11.8567,10.152 0,0 56.7669,0 56.7669,0 6.6276,0 11.9999,-5.373 11.9999,-12.0001 0,-0.3072 -0.0117,-0.6138 -0.0351,-0.9205 0,0 -39.0061,-507.08 -39.0061,-507.08 0,0 -16.2836,0 -16.2836,0 0,0 0,39 0,39 1.6571,0 3,1.3431 3,3 0,1.6569 -1.3429,3.0002 -3,3.0002 0,0 -11.9999,0 -11.9999,0 -1.6564,0 -3,-1.3433 -3,-3.0002 0,-1.6569 1.3436,-3 3,-3z"/>
  <path class="fil0 str0" d="M780.93 362.253c0,0 0,61.9046 0,61.9046 1.6569,0 3,1.3432 3,3 0,1.6567 -1.3431,3 -3,3 0,0 -12,0 -12,0 -6.6273,0 -11.9999,5.3726 -11.9999,11.9999 0,0 0,66.0001 0,66.0001 0,5.7023 4.0128,10.6171 9.5999,11.7574 1.0823,0.2212 2.1387,-0.4774 2.3596,-1.5595 0.0268,-0.1317 0.0404,-0.2658 0.0404,-0.4001 0,0 0,-27.7977 0,-27.7977 0,-1.6571 1.3431,-3.0001 3,-3.0001 1.6569,0 3,1.343 3,3.0001 0,0 6,0 6,0 1.6569,0 3,1.3429 3,3 0,1.6566 -1.3431,3 -3,3 0,0 0,108 0,108 1.6569,0 3,1.3436 3,3 0,1.6571 -1.3431,3 -3,3 0,0 -12,0 -12,0 -6.6273,0 -11.9999,5.373 -11.9999,12 0,0 0,66.0004 0,66.0004 0,5.7024 4.0128,10.6171 9.5999,11.7575 1.0823,0.2204 2.1387,-0.4775 2.3596,-1.56 0.0268,-0.1316 0.0404,-0.2653 0.0404,-0.3996 0,0 0,-27.7978 0,-27.7978 0,-1.6571 1.3431,-3 3,-3 1.6569,0 3,1.3429 3,3 0,0 6,0 6,0 1.6569,0 3,1.3429 3,3 0,1.6564 -1.3431,3 -3,3 0,0 0,21.9997 0,21.9997 0,1.1045 0.8954,2.0002 2,2.0002 0,0 4.469,0 4.469,0 14.3855,0 26.7462,-10.212 29.4609,-24.3389 0,0 35.8376,-186.497 35.8376,-186.497 4.5245,-23.5452 25.1256,-40.5644 49.1016,-40.5644 0,0 434.262,0 434.262,0 23.9758,0 44.5768,17.0192 49.1015,40.5644 0,0 35.8373,186.497 35.8373,186.497 2.7147,14.1269 15.0757,24.3389 29.4611,24.3389 0,0 4.469,0 4.469,0 1.1045,0 2.0002,-0.8957 2.0002,-2.0002 0,0 0,-21.9997 0,-21.9997 -1.6571,0 -3,-1.3436 -3,-3 0,-1.6571 1.3429,-3 3,-3 0,0 6,0 6,0 0,-1.6571 1.3429,-3 2.9999,-3 1.6564,0 3,1.3429 3,3 0,0 0,27.7978 0,27.7978 0,1.1045 0.8951,1.9995 1.9996,1.9995 0.1343,0 0.2687,-0.0131 0.4003,-0.0399 5.5872,-1.1404 9.6001,-6.0551 9.6001,-11.7575 0,0 0,-66.0004 0,-66.0004 0,-6.627 -5.373,-12 -12,-12 0,0 -11.9999,0 -11.9999,0 -1.6571,0 -3,-1.3429 -3,-3 0,-1.6564 1.3429,-3 3,-3 0,0 0,-108 0,-108 -1.6571,0 -3,-1.3434 -3,-3 0,-1.6571 1.3429,-3 3,-3 0,0 6,0 6,0 0,-1.6571 1.3429,-3.0001 2.9999,-3.0001 1.6564,0 3,1.343 3,3.0001 0,0 0,27.7977 0,27.7977 0,1.1045 0.8951,2.0003 1.9996,2.0003 0.1343,0 0.2687,-0.0138 0.4003,-0.0407 5.5872,-1.1403 9.6001,-6.0551 9.6001,-11.7574 0,0 0,-66.0001 0,-66.0001 0,-6.6273 -5.373,-11.9999 -12,-11.9999 0,0 -11.9999,0 -11.9999,0 -1.6571,0 -3,-1.3433 -3,-3 0,-1.6568 1.3429,-3 3,-3 0,0 0,-61.9046 0,-61.9046 0,-1.1045 -0.8957,-1.9999 -2.0002,-1.9999 0,0 -672,0 -672,0 -1.1046,0 -2,0.8954 -2,1.9999z"/>
  <path class="fil0 str0" d="M1311.51 992.007c0,0 0,-36.7977 0,-36.7977 -1.657,0 -2.9999,-1.3429 -2.9999,-3 0,-1.6571 1.3429,-3 2.9999,-3 0,0 12,0 12,0 1.6567,0 3,1.3429 3,3 0,1.6571 -1.3433,3 -3,3 0,0 0,38.9998 0,38.9998 0,0 676,0 676,0 0,0 0,-38.9998 0,-38.9998 -1.6571,0 -3,-1.3429 -3,-3 0,-1.6571 1.3429,-3 3,-3 0,0 11.9999,0 11.9999,0 1.6564,0 3,1.3429 3,3 0,1.6571 -1.3436,3 -3,3 0,0 0,36.7977 0,36.7977 0,1.1045 0.8951,2.0003 1.9996,2.0003 0.1343,0 0.2686,-0.0138 0.4003,-0.0407 5.5872,-1.1403 9.6001,-6.0551 9.6001,-11.7574 0,0 0,-65.9998 0,-65.9998 0,-6.6276 -5.373,-11.9999 -12,-11.9999 0,0 -700,0 -700,0 -6.6276,0 -11.9999,5.3723 -11.9999,11.9999 0,0 0,65.9998 0,65.9998 0,5.7023 4.0128,10.6171 9.5997,11.7574 1.0821,0.2212 2.1388,-0.4768 2.3596,-1.5592 0.0269,-0.1316 0.0406,-0.266 0.0406,-0.4004z"/>
  <path class="fil0 str0" d="M66.7972 649.393c-5.5231,0 -10.0004,-4.4772 -10.0004,-9.9997 0,-5.5225 4.4773,-9.9997 10.0004,-9.9997 0,0 600,0 600,0 5.5229,0 9.9998,4.4772 9.9998,9.9997 0,5.5225 -4.4769,9.9997 -9.9998,9.9997 0,0 -600,0 -600,0z"/>
  <path class="fil0 str0" d="M52.9304 886.424c0,-1.1048 -0.8954,-1.9999 -1.9999,-1.9999 -0.1343,0 -0.2684,0.0135 -0.4,0.0403 -5.5872,1.1404 -9.6001,6.0551 -9.6001,11.7575 0,0 0,66.0001 0,66.0001 0,6.6276 5.3727,11.9999 12,11.9999 0,0 11.9999,0 11.9999,0 0,0 0,211.716 0,211.716 0,0 282.343,0 282.343,0 2.5432,0 4.8094,1.6034 5.6569,4.0004 0,0 100,0 100,0 0.8475,-2.397 3.1143,-4.0004 5.6568,-4.0004 0,0 282.343,0 282.343,0 0,0 0,-211.716 0,-211.716 0,0 12,0 12,0 6.6269,0 11.9999,-5.3723 11.9999,-11.9999 0,0 0,-66.0001 0,-66.0001 0,-5.7024 -4.0128,-10.6171 -9.6001,-11.7575 -1.0824,-0.2208 -2.1387,0.4772 -2.3599,1.5596 -0.0269,0.1316 -0.0399,0.2657 -0.0399,0.4 0,0 0,21.7982 0,21.7982 1.6564,0 2.9999,1.3429 2.9999,3 0,1.6564 -1.3435,2.9999 -2.9999,2.9999 0,0 -12,0 -12,0 -1.6571,0 -3,-1.3435 -3,-2.9999 0,-1.6571 1.3429,-3 3,-3 0,0 0,-219.753 0,-219.753 0,0 -220,0 -220,0 0,1.6568 -1.3428,3 -2.9999,3 -1.6571,0 -3,-1.3432 -3,-3 0,-6.6273 -5.3723,-12.0003 -12,-12.0003 0,0 -200,0 -200,0 -6.627,0 -11.9999,5.373 -11.9999,12.0003 0,1.6568 -1.3429,3 -3,3 -1.6564,0 -3,-1.3432 -3,-3 0,0 -220,0 -220,0 0,0 0,219.753 0,219.753 1.6571,0 3,1.3429 3,3 0,1.6564 -1.3429,2.9999 -3,2.9999 0,0 -11.9999,0 -11.9999,0 -1.6568,0 -3,-1.3435 -3,-2.9999 0,-1.6571 1.3432,-3 3,-3 0,0 0,-21.7982 0,-21.7982z"/>
  <path class="fil0 str0" d="M1543.45 844.414c-1.6571,0 -3,1.3432 -3,3 0,1.6567 1.3429,3 3,3 0,0 0,39.0002 0,39.0002 0,0 -16.2836,0 -16.2836,0 0,0 -39.0061,-507.08 -39.0061,-507.08 -0.0234,-0.3063 -0.0351,-0.6133 -0.0351,-0.9206 0,-6.6273 5.3723,-11.9999 11.9999,-11.9999 0,0 56.7669,0 56.7669,0 5.9139,0 10.9458,4.3087 11.8568,10.152 0,0 35.6092,228.465 35.6092,228.465 3.4022,21.8278 23.8552,36.7647 45.6833,33.3623 5.8491,-0.9116 11.4233,-3.1102 16.3201,-6.4375 0,0 387.752,-263.468 387.752,-263.468 1.9899,-1.3519 4.3395,-2.0746 6.7441,-2.0746 0,0 63.376,0 63.376,0 0.2991,0 0.5988,0.0113 0.8971,0.0337 6.6084,0.4954 11.5645,6.2546 11.0691,12.8633 0,0 -38.6333,515.346 -38.6333,515.346 -0.0668,0.8988 -0.175,1.7938 -0.3231,2.683 -2.7203,16.3435 -18.1743,27.3875 -34.5185,24.6672 -16.3436,-2.7202 -27.3871,-18.1746 -24.6669,-34.5185 0.5932,-1.5468 -0.1798,-3.2818 -1.7267,-3.8753 -1.5468,-0.5936 -3.2818,0.1794 -3.8757,1.7263 -0.1309,0.3431 -0.1985,0.7073 -0.1985,1.0749 0,0 -19.6488,0 -19.6488,0 -1.9547,-4.2658 -6.2162,-7.0001 -10.9085,-7.0001 0,0 -379.066,0 -379.066,0 -4.6922,0 -8.9538,2.7343 -10.9085,7.0001 0,0 -56.2751,0 -56.2751,0 0,0 0,-39.0002 0,-39.0002 1.6564,0 3,-1.3433 3,-3 0,-1.6568 -1.3436,-3 -3,-3 0,0 -11.9999,0 -11.9999,0z"/>
  <path class="fil0 str0" d="M1220.9 543.949c0,0 -318,0 -318,0 0,3.3135 -2.6863,5.9999 -6,5.9999 0,0 0,0 0,0 -3.3136,0 -6,-2.6864 -6,-5.9999 0,0 0,-59.9998 0,-59.9998 0,-3.3135 2.6864,-5.9999 6,-5.9999 0,0 0,0 0,0 3.3137,0 6,2.6864 6,5.9999 0,0 318,0 318,0 0,-3.3135 2.6865,-5.9999 6,-5.9999 0,0 0,0 0,0 3.3135,0 6,2.6864 6,5.9999 0,0 0,59.9998 0,59.9998 0,3.3135 -2.6865,5.9999 -6,5.9999 0,0 0,0 0,0 -3.3135,0 -6,-2.6864 -6,-5.9999z"/>
  <path class="fil0 str0" d="M870.93 182.499c0,0 146,0 146,0 13.8072,0 25,11.193 25,25.0001 0,13.807 -11.1928,25 -25,25 0,0 -146,0 -146,0 -13.8071,0 -25,-11.193 -25,-25 0,-13.8071 11.1929,-25.0001 25,-25.0001z"/>
  <path class="fil0 str0" d="M860.93 309.513c0,0 0,-8.9996 0,-8.9996 -1.6569,0 -3,-1.3436 -3,-3.0004 0,-1.6567 1.3431,-3 3,-3 0,0 166,0 166,0 1.6571,0 3,1.3433 3,3 0,1.6568 -1.3429,3.0004 -3,3.0004 0,0 0,8.9996 0,8.9996 0,1.6567 -1.3429,3.0003 -3,3.0003 -1.6568,0 -3,-1.3436 -3,-3.0003 0,0 -154,0 -154,0 0,1.6567 -1.3433,3.0003 -3,3.0003 -1.6569,0 -3,-1.3436 -3,-3.0003z"/>
  <path class="fil0 str0" d="M870.93 77.5335c0,0 146,0 146,0 13.8072,0 25,11.1929 25,25.0002 0,13.8069 -11.1928,24.9998 -25,24.9998 0,0 -146,0 -146,0 -13.8071,0 -25,-11.1929 -25,-24.9998 0,-13.8073 11.1929,-25.0002 25,-25.0002z"/>
  <path class="fil0 str0" d="M395.931 53.8533c1.6564,0 2.9997,-1.3433 2.9997,-3 0,-1.6569 -1.3433,-3 -2.9997,-3 -1.657,0 -3.0006,1.3431 -3.0006,3 0,1.6567 1.3436,3 3.0006,3 0,0 0,0 0,0z"/>
  <path class="fil0 str0" d="M95.9304 53.8533c1.6567,0 2.9999,-1.3433 2.9999,-3 0,-1.6569 -1.3432,-3 -2.9999,-3 -1.6568,0 -3,1.3431 -3,3 0,1.6567 1.3432,3 3,3 0,0 0,0 0,0z"/>
  <path class="fil0 str0" d="M695.93 53.8533c1.6569,0 3,-1.3433 3,-3 0,-1.6569 -1.3431,-3 -3,-3 -1.6569,0 -3,1.3431 -3,3 0,1.6567 1.3431,3 3,3 0,0 0,0 0,0z"/>
  <path class="fil0 str0" d="M913.854 967.594c1.245,-10.0149 9.7551,-17.5328 19.8472,-17.5328 0,0 110.746,0 110.746,0 6.4341,0 12.4747,3.0948 16.2326,8.3165 6.4527,8.9648 4.4159,21.4636 -4.5489,27.9159 0,0 -121.631,87.5444 -121.631,87.5444 -4.0927,2.9456 -9.1467,4.2368 -14.151,3.6146 -10.961,-1.3629 -18.7421,-11.3533 -17.3792,-22.3146 0,0 10.8838,-87.544 10.8838,-87.544z"/>
  <path class="fil0 str0" d="M888.608 864.84c-1.6295,0.3011 -3.1943,-0.7751 -3.4961,-2.404 -0.3011,-1.6295 0.7752,-3.195 2.404,-3.4964 0,0 -5.8821,-31.7876 -5.8821,-31.7876 -1.6289,0.3018 -3.1943,-0.7744 -3.4954,-2.4036 -0.3018,-1.6292 0.7744,-3.1939 2.404,-3.4957 0,0 11.7994,-2.1835 11.7994,-2.1835 1.6295,-0.3018 3.1943,0.7748 3.4961,2.4039 0.3011,1.6296 -0.7752,3.1943 -2.404,3.4958 0,0 5.8822,31.7875 5.8822,31.7875 1.6288,-0.3014 3.1942,0.7752 3.4953,2.404 0.3018,1.6292 -0.7744,3.1943 -2.4039,3.4958 0,0 -11.7995,2.1838 -11.7995,2.1838z"/>
  <path class="fil0 str0" d="M1229.63 702.984c0,0 -10.8834,87.5443 -10.8834,87.5443 -1.245,10.0146 -9.7558,17.5324 -19.8472,17.5324 0,0 -110.747,0 -110.747,0 -6.4334,0 -12.4747,-3.0943 -16.2326,-8.3164 -6.4527,-8.9648 -4.4159,-21.4636 4.5489,-27.9156 0,0 121.63,-87.5447 121.63,-87.5447 4.0928,-2.9456 9.1474,-4.2368 14.1511,-3.6146 10.9612,1.3629 18.7423,11.3536 17.3794,22.3146z"/>
  <path class="fil0 str0" d="M1232.19 895.467c0,0 11.8,-2.1839 11.8,-2.1839 1.6288,-0.3014 3.1943,0.7748 3.4954,2.404 0.3018,1.6292 -0.7745,3.1946 -2.404,3.4964 0,0 5.8821,31.7872 5.8821,31.7872 1.6296,-0.3018 3.1943,0.7745 3.4961,2.404 0.3011,1.6289 -0.7751,3.1936 -2.404,3.4954 0,0 -11.7999,2.1835 -11.7999,2.1835 -1.6289,0.3018 -3.1943,-0.7744 -3.4954,-2.404 -0.3018,-1.6295 0.7744,-3.1943 2.404,-3.4954 0,0 -5.8822,-31.7879 -5.8822,-31.7879 -1.6295,0.3018 -3.1943,-0.7751 -3.4961,-2.404 -0.3011,-1.6288 0.7752,-3.1942 2.404,-3.4953z"/>
  <path class="fil0 str0" d="M2011.03 112.032c0,0 0,11.9996 0,11.9996 0,1.6571 -1.3428,3.0001 -2.9999,3.0001 -1.6564,0 -3,-1.343 -3,-3.0001 0,0 -78.9995,0 -78.9995,0 0,1.6571 -1.3436,3.0001 -3,3.0001 -1.6571,0 -3,-1.343 -3,-3.0001 0,0 0,-11.9996 0,-11.9996 0,-1.657 1.3429,-3 3,-3 1.6564,0 3,1.343 3,3 0,0 78.9995,0 78.9995,0 0,-1.657 1.3436,-3 3,-3 1.6571,0 2.9999,1.343 2.9999,3z"/>
  <path class="fil0 str0" d="M1683.5 94.3419c0,0 11.9668,0.8971 11.9668,0.8971 1.6523,0.1237 2.8912,1.5636 2.7671,3.2157 -0.124,1.6521 -1.5633,2.8911 -3.2156,2.7674 0,0 -5.9063,78.7789 -5.9063,78.7789 1.6523,0.1238 2.8918,1.5637 2.7678,3.2156 -0.124,1.6526 -1.5641,2.8915 -3.2163,2.7675 0,0 -11.9662,-0.897 -11.9662,-0.897 -1.6523,-0.1238 -2.8911,-1.5635 -2.7671,-3.2156 0.124,-1.6523 1.5634,-2.8915 3.2156,-2.7676 0,0 5.9056,-78.7789 5.9056,-78.7789 -1.6523,-0.124 -2.8911,-1.5635 -2.7671,-3.216 0.124,-1.6522 1.5634,-2.8911 3.2157,-2.7671z"/>
  <path class="fil0 str0" d="M1670.04 273.838c0,0 11.9662,0.897 11.9662,0.897 1.6523,0.1236 2.8911,1.5637 2.7678,3.216 -0.124,1.6522 -1.5641,2.8911 -3.2163,2.7672 0,0 -5.9056,78.779 -5.9056,78.779 1.6522,0.1237 2.8911,1.5638 2.7678,3.2157 -0.1241,1.6523 -1.5641,2.8918 -3.2164,2.7678 0,0 -11.9662,-0.8975 -11.9662,-0.8975 -1.6522,-0.1237 -2.8911,-1.5637 -2.7671,-3.2156 0.1234,-1.6523 1.5634,-2.8915 3.2157,-2.7675 0,0 5.9056,-78.779 5.9056,-78.779 -1.6523,-0.1238 -2.8912,-1.5634 -2.7671,-3.2156 0.1233,-1.6523 1.5633,-2.8915 3.2156,-2.7675z"/>
  <path class="fil0 str0" d="M1772.13 181.614c0,0 200.345,0 200.345,0 13.2492,0 25.6391,6.5606 33.0854,17.5195 12.4154,18.2726 7.6674,43.1501 -10.6047,55.5656 0,0 -218.357,148.368 -218.357,148.368 -8.0002,5.4363 -17.6988,7.7893 -27.301,6.6235 -21.9301,-2.6624 -37.5501,-22.5985 -34.8878,-44.5292 0,0 18.011,-148.368 18.011,-148.368 2.4377,-20.0796 19.4813,-35.1796 39.7088,-35.1796z"/>
  <path class="fil0 str0" d="M1694.54 40.0319c0,-8.2841 -6.7159,-14.9998 -15,-14.9998 -8.2841,0 -14.9999,6.7157 -14.9999,14.9998 0,8.2843 6.7158,15.0001 14.9999,15.0001 8.2841,0 15,-6.7158 15,-15.0001 0,0 0,0 0,0z"/>
  <path class="fil0 str0" d="M1230.93 429.374c0,1.6567 -1.3429,3 -3,3 -1.6571,0 -3,-1.3433 -3,-3 0,0 -212,0 -212,0 0,1.6567 -1.3431,3 -3,3 -1.6568,0 -3,-1.3433 -3,-3 0,0 0,-13.7328 0,-13.7328 0,-1.6571 1.3432,-3 3,-3 1.6569,0 3,1.3429 3,3 0,0 212,0 212,0 0,-1.6571 1.3429,-3 3,-3 1.6571,0 3,1.3429 3,3 0,0 0,13.7328 0,13.7328z"/>
  <path class="fil0 str0" d="M1736.16 823.414c0,0 0,-12.0003 0,-12.0003 0,-1.6564 1.3429,-3 3,-3 1.6564,0 3,1.3436 3,3 0,0 78.9995,0 78.9995,0 0,-1.6564 1.3436,-3 3,-3 1.6571,0 3,1.3436 3,3 0,0 0,12.0003 0,12.0003 0,1.6567 -1.3429,3 -3,3 -1.6564,0 -3,-1.3433 -3,-3 0,0 -78.9995,0 -78.9995,0 0,1.6567 -1.3436,3 -3,3 -1.6571,0 -3,-1.3433 -3,-3z"/>
  <path class="fil0 str0" d="M2063.7 841.104c0,0 -11.9668,-0.8971 -11.9668,-0.8971 -1.6523,-0.124 -2.8913,-1.5638 -2.7671,-3.216 0.124,-1.6519 1.5632,-2.8911 3.2156,-2.7675 0,0 5.9063,-78.779 5.9063,-78.779 -1.6523,-0.1236 -2.8918,-1.5633 -2.7678,-3.2156 0.124,-1.6523 1.5641,-2.8911 3.2163,-2.7671 0,0 11.9662,0.8971 11.9662,0.8971 1.6523,0.1237 2.8911,1.5634 2.7671,3.2156 -0.124,1.6523 -1.5634,2.8912 -3.2156,2.7671 0,0 -5.9056,78.779 -5.9056,78.779 1.6523,0.1241 2.8911,1.5638 2.7671,3.216 -0.124,1.6523 -1.5634,2.8912 -3.2157,2.7675z"/>
  <path class="fil0 str0" d="M2077.15 661.608c0,0 -11.9662,-0.8971 -11.9662,-0.8971 -1.6523,-0.1237 -2.8911,-1.5637 -2.7679,-3.216 0.124,-1.6523 1.5642,-2.8911 3.2165,-2.7671 0,0 5.9055,-78.7789 5.9055,-78.7789 -1.6522,-0.124 -2.8911,-1.5638 -2.7678,-3.216 0.1241,-1.6522 1.5641,-2.8912 3.2164,-2.7674 0,0 11.9662,0.897 11.9662,0.897 1.6523,0.124 2.8911,1.5638 2.7671,3.2161 -0.1233,1.6522 -1.5634,2.8911 -3.2157,2.7674 0,0 -5.9056,78.7789 -5.9056,78.7789 1.6523,0.1237 2.8912,1.5634 2.7672,3.2157 -0.1234,1.6522 -1.5634,2.8911 -3.2157,2.7674z"/>
  <path class="fil0 str0" d="M2052.65 895.414c0,8.2841 6.7159,15 15,15 8.2841,0 14.9999,-6.7159 14.9999,-15 0,-8.2844 -6.7158,-14.9999 -14.9999,-14.9999 -8.2841,0 -15,6.7155 -15,14.9999 0,0 0,0 0,0z"/>
  <path class="fil0 str0" d="M2014.77 718.652c-2.4378,20.0794 -19.4813,35.1792 -39.7088,35.1792 0,0 -200.345,0 -200.345,0 -13.2492,0 -25.6391,-6.5605 -33.0854,-17.5193 -12.4154,-18.2724 -7.6674,-43.1502 10.6047,-55.5656 0,0 218.357,-148.368 218.357,-148.368 8.0002,-5.436 17.6988,-7.7891 27.301,-6.6235 21.9301,2.6623 37.5501,22.5987 34.8878,44.5288 0,0 -18.011,148.368 -18.011,148.368z"/>
  <path class="fil0 str0" d="M366.797 636.393c-1.6567,0 -2.9999,1.3429 -2.9999,3 0,1.6571 1.3432,3 2.9999,3 1.6571,0 3.0004,-1.3429 3.0004,-3 0,-1.6571 -1.3433,-3 -3.0004,-3 0,0 0,0 0,0z"/>
  <path class="fil0 str0" d="M666.797 636.393c-1.657,0 -2.9999,1.3429 -2.9999,3 0,1.6571 1.3429,3 2.9999,3 1.6568,0 3,-1.3429 3,-3 0,-1.6571 -1.3432,-3 -3,-3 0,0 0,0 0,0z"/>
  <path class="fil0 str0" d="M66.7972 636.393c-1.657,0 -3.0003,1.3429 -3.0003,3 0,1.6571 1.3433,3 3.0003,3 1.6564,0 3,-1.3429 3,-3 0,-1.6571 -1.3436,-3 -3,-3 0,0 0,0 0,0z"/>
  <path class="fil0 str0" d="M365.931 553.343c-4.1424,0 -7.5004,-3.3581 -7.5004,-7.5 0,-4.1425 3.358,-7.5 7.5004,-7.5 0,0 59.9996,0 59.9996,0 4.1422,0 7.4998,3.3575 7.4998,7.5 0,4.1419 -3.3576,7.5 -7.4998,7.5 0,0 -59.9996,0 -59.9996,0z"/>
  <path class="fil0 str0" d="M365.931 523.343c-4.1424,0 -7.5004,-3.358 -7.5004,-7.5 0,-4.1424 3.358,-7.5 7.5004,-7.5 0,0 59.9996,0 59.9996,0 4.1422,0 7.4998,3.3576 7.4998,7.5 0,4.142 -3.3576,7.5 -7.4998,7.5 0,0 -59.9996,0 -59.9996,0z"/>
  <path class="fil0 str0" d="M365.931 493.343c-4.1424,0 -7.5004,-3.3578 -7.5004,-7.4998 0,-4.1421 3.358,-7.5 7.5004,-7.5 0,0 59.9996,0 59.9996,0 4.1422,0 7.4998,3.3579 7.4998,7.5 0,4.142 -3.3576,7.4998 -7.4998,7.4998 0,0 -59.9996,0 -59.9996,0z"/>
  <path class="fil0 str0" d="M365.931 463.343c-4.1424,0 -7.5004,-3.358 -7.5004,-7.4999 0,-4.1421 3.358,-7.5 7.5004,-7.5 0,0 59.9996,0 59.9996,0 4.1422,0 7.4998,3.3579 7.4998,7.5 0,4.1419 -3.3576,7.4999 -7.4998,7.4999 0,0 -59.9996,0 -59.9996,0z"/>
  <path class="fil0 str0" d="M365.931 433.343c-4.1424,0 -7.5004,-3.3576 -7.5004,-7.5 0,-4.1417 3.358,-7.4999 7.5004,-7.4999 0,0 59.9996,0 59.9996,0 4.1422,0 7.4998,3.3582 7.4998,7.4999 0,4.1424 -3.3576,7.5 -7.4998,7.5 0,0 -59.9996,0 -59.9996,0z"/>
  <path class="fil0 str0" d="M365.931 373.343c-4.1424,0 -7.5004,-3.3579 -7.5004,-7.4999 0,-4.1424 3.358,-7.5 7.5004,-7.5 0,0 59.9996,0 59.9996,0 4.1422,0 7.4998,3.3576 7.4998,7.5 0,4.142 -3.3576,7.4999 -7.4998,7.4999 0,0 -59.9996,0 -59.9996,0z"/>
  <path class="fil0 str0" d="M365.931 343.343c-4.1424,0 -7.5004,-3.3579 -7.5004,-7.4999 0,-4.1424 3.358,-7.5 7.5004,-7.5 0,0 59.9996,0 59.9996,0 4.1422,0 7.4998,3.3576 7.4998,7.5 0,4.142 -3.3576,7.4999 -7.4998,7.4999 0,0 -59.9996,0 -59.9996,0z"/>
  <path class="fil0 str0" d="M365.931 313.343c-4.1424,0 -7.5004,-3.3582 -7.5004,-7.5001 0,-4.1424 3.358,-7.5001 7.5004,-7.5001 0,0 59.9996,0 59.9996,0 4.1422,0 7.4998,3.3577 7.4998,7.5001 0,4.1419 -3.3576,7.5001 -7.4998,7.5001 0,0 -59.9996,0 -59.9996,0z"/>
  <path class="fil0 str0" d="M365.931 283.343c-4.1424,0 -7.5004,-3.3579 -7.5004,-7.5 0,-4.1422 3.358,-7.4999 7.5004,-7.4999 0,0 59.9996,0 59.9996,0 4.1422,0 7.4998,3.3577 7.4998,7.4999 0,4.1421 -3.3576,7.5 -7.4998,7.5 0,0 -59.9996,0 -59.9996,0z"/>
  <path class="fil0 str0" d="M365.931 403.343c-4.1424,0 -7.5004,-3.3576 -7.5004,-7.5 0,-4.142 3.358,-7.4999 7.5004,-7.4999 0,0 59.9996,0 59.9996,0 4.1422,0 7.4998,3.3579 7.4998,7.4999 0,4.1424 -3.3576,7.5 -7.4998,7.5 0,0 -59.9996,0 -59.9996,0z"/>
  <path class="fil0 str0" d="M1715.51 970.213c0,-1.6568 1.3429,-3 3,-3 1.6564,0 3,1.3432 3,3 0,0 0,11.9999 0,11.9999 0,1.6571 -1.3436,3 -3,3 -1.6571,0 -3,-1.3429 -3,-3 0,0 -108,0 -108,0 0,1.6571 -1.3433,3 -3,3 -1.6572,0 -3.0001,-1.3429 -3.0001,-3 0,0 0,-11.9999 0,-11.9999 0,-1.6568 1.3429,-3 3.0001,-3 1.6567,0 3,1.3432 3,3 0,0 108,0 108,0z"/>
  <path class="fil0 str0" d="M432.93 1086.27c0,0 -59.9998,0 -59.9998,0 -4.1417,0 -7.4999,-3.3576 -7.4999,-7.4999 0,-4.1424 3.3582,-7.5 7.4999,-7.5 0,0 59.9998,0 59.9998,0 4.1424,0 7.5,3.3576 7.5,7.5 0,4.1423 -3.3576,7.4999 -7.5,7.4999z"/>
  <path class="fil0 str0" d="M432.93 1146.27c0,0 -59.9998,0 -59.9998,0 -4.1417,0 -7.4999,-3.3576 -7.4999,-7.5 0,-4.1417 3.3582,-7.4999 7.4999,-7.4999 0,0 59.9998,0 59.9998,0 4.1424,0 7.5,3.3582 7.5,7.4999 0,4.1424 -3.3576,7.5 -7.5,7.5z"/>
  <path class="fil0 str0" d="M432.93 1026.02c0,0 -59.9998,0 -59.9998,0 -4.0728,0 -7.3752,-3.3018 -7.3752,-7.3752 0,-4.0728 3.3024,-7.3746 7.3752,-7.3746 0,0 59.9998,0 59.9998,0 4.0735,0 7.3753,3.3018 7.3753,7.3746 0,4.0734 -3.3018,7.3752 -7.3753,7.3752z"/>
  <path class="fil0 str0" d="M432.93 966.27c0,0 -59.9998,0 -59.9998,0 -4.0238,0 -7.2857,-3.2618 -7.2857,-7.2857 0,-4.0246 3.2619,-7.2864 7.2857,-7.2864 0,0 59.9998,0 59.9998,0 4.0246,0 7.2864,3.2618 7.2864,7.2864 0,4.0239 -3.2618,7.2857 -7.2864,7.2857z"/>
  <path class="fil0 str0" d="M432.93 906.27c0,0 -59.9998,0 -59.9998,0 -3.9598,0 -7.1706,-3.2102 -7.1706,-7.1706 0,-3.9598 3.2108,-7.1703 7.1706,-7.1703 0,0 59.9998,0 59.9998,0 3.9605,0 7.1706,3.2105 7.1706,7.1703 0,3.9604 -3.2101,7.1706 -7.1706,7.1706z"/>
 </g>
</svg>
