  0
SECTION
  2
HEADER
  9
$ACADVER
  1
AC1018
  9
$ACADMAINTVER
 70
     0
  9
$DWGCODEPAGE
  3
UNDEFINED
  9
$INSBASE
 10
0.0
 20
0.0
 30
0.0
  9
$EXTMIN
 10
0.0
 20
-9.750000000000057
 30
0.0
  9
$EXTMAX
 10
853.2499999999743
 20
214.8371272704959
 30
0.0
  9
$LIMMIN
 10
0.0
 20
0.0
  9
$LIMMAX
 10
12.0
 20
9.0
  9
$ORTHOMODE
 70
     0
  9
$REGENMODE
 70
     1
  9
$FILLMODE
 70
     1
  9
$QTEXTMODE
 70
     0
  9
$MIRRTEXT
 70
     1
  9
$LTSCALE
 40
1.0
  9
$ATTMODE
 70
     1
  9
$TEXTSIZE
 40
0.2
  9
$TRACEWID
 40
0.05
  9
$TEXTSTYLE
  7
Standard
  9
$CLAYER
  8
Inside Cut
  9
$CELTYPE
  6
ByLayer
  9
$CECOLOR
 62
   256
  9
$CELTSCALE
 40
1.0
  9
$DISPSILH
 70
     0
  9
$DIMSCALE
 40
1.0
  9
$DIMASZ
 40
0.18
  9
$DIMEXO
 40
0.0625
  9
$DIMDLI
 40
0.38
  9
$DIMRND
 40
0.0
  9
$DIMDLE
 40
0.0
  9
$DIMEXE
 40
0.18
  9
$DIMTP
 40
0.0
  9
$DIMTM
 40
0.0
  9
$DIMTXT
 40
0.18
  9
$DIMCEN
 40
0.09
  9
$DIMTSZ
 40
0.0
  9
$DIMTOL
 70
     0
  9
$DIMLIM
 70
     0
  9
$DIMTIH
 70
     1
  9
$DIMTOH
 70
     1
  9
$DIMSE1
 70
     0
  9
$DIMSE2
 70
     0
  9
$DIMTAD
 70
     0
  9
$DIMZIN
 70
     0
  9
$DIMBLK
  1

  9
$DIMASO
 70
     1
  9
$DIMSHO
 70
     1
  9
$DIMPOST
  1

  9
$DIMAPOST
  1

  9
$DIMALT
 70
     0
  9
$DIMALTD
 70
     2
  9
$DIMALTF
 40
25.4
  9
$DIMLFAC
 40
1.0
  9
$DIMTOFL
 70
     0
  9
$DIMTVP
 40
0.0
  9
$DIMTIX
 70
     0
  9
$DIMSOXD
 70
     0
  9
$DIMSAH
 70
     0
  9
$DIMBLK1
  1

  9
$DIMBLK2
  1

  9
$DIMSTYLE
  2
Standard
  9
$DIMCLRD
 70
     0
  9
$DIMCLRE
 70
     0
  9
$DIMCLRT
 70
     0
  9
$DIMTFAC
 40
1.0
  9
$DIMGAP
 40
0.09
  9
$DIMJUST
 70
     0
  9
$DIMSD1
 70
     0
  9
$DIMSD2
 70
     0
  9
$DIMTOLJ
 70
     1
  9
$DIMTZIN
 70
     0
  9
$DIMALTZ
 70
     0
  9
$DIMALTTZ
 70
     0
  9
$DIMUPT
 70
     0
  9
$DIMDEC
 70
     4
  9
$DIMTDEC
 70
     4
  9
$DIMALTU
 70
     2
  9
$DIMALTTD
 70
     2
  9
$DIMTXSTY
  7
Standard
  9
$DIMAUNIT
 70
     0
  9
$DIMADEC
 70
     0
  9
$DIMALTRND
 40
0.0
  9
$DIMAZIN
 70
     0
  9
$DIMDSEP
 70
    46
  9
$DIMATFIT
 70
     3
  9
$DIMFRAC
 70
     0
  9
$DIMLDRBLK
  1

  9
$DIMLUNIT
 70
     2
  9
$DIMLWD
 70
    -2
  9
$DIMLWE
 70
    -2
  9
$DIMTMOVE
 70
     2
  9
$LUNITS
 70
     2
  9
$LUPREC
 70
     3
  9
$SKETCHINC
 40
0.1
  9
$FILLETRAD
 40
0.5
  9
$AUNITS
 70
     0
  9
$AUPREC
 70
     0
  9
$MENU
  1
.
  9
$ELEVATION
 40
0.0
  9
$PELEVATION
 40
0.0
  9
$THICKNESS
 40
0.0
  9
$LIMCHECK
 70
     0
  9
$CHAMFERA
 40
0.5
  9
$CHAMFERB
 40
0.5
  9
$CHAMFERC
 40
1.0
  9
$CHAMFERD
 40
0.0
  9
$SKPOLY
 70
     0
  9
$TDCREATE
 40
2455805.512407396
  9
$TDUCREATE
 40
2455805.720740741
  9
$TDUPDATE
 40
2455805.51241897
  9
$TDUUPDATE
 40
2455805.720752315
  9
$TDINDWG
 40
0.0000000116
  9
$TDUSRTIMER
 40
0.0000000116
  9
$USRTIMER
 70
     1
  9
$ANGBASE
 50
0.0
  9
$ANGDIR
 70
     0
  9
$PDMODE
 70
     0
  9
$PDSIZE
 40
0.0
  9
$PLINEWID
 40
0.0
  9
$SPLFRAME
 70
     0
  9
$SPLINETYPE
 70
     6
  9
$SPLINESEGS
 70
     8
  9
$HANDSEED
  5
F8
  9
$SURFTAB1
 70
     6
  9
$SURFTAB2
 70
     6
  9
$SURFTYPE
 70
     6
  9
$SURFU
 70
     6
  9
$SURFV
 70
     6
  9
$UCSBASE
  2

  9
$UCSNAME
  2

  9
$UCSORG
 10
0.0
 20
0.0
 30
0.0
  9
$UCSXDIR
 10
1.0
 20
0.0
 30
0.0
  9
$UCSYDIR
 10
0.0
 20
1.0
 30
0.0
  9
$UCSORTHOREF
  2

  9
$UCSORTHOVIEW
 70
     0
  9
$UCSORGTOP
 10
0.0
 20
0.0
 30
0.0
  9
$UCSORGBOTTOM
 10
0.0
 20
0.0
 30
0.0
  9
$UCSORGLEFT
 10
0.0
 20
0.0
 30
0.0
  9
$UCSORGRIGHT
 10
0.0
 20
0.0
 30
0.0
  9
$UCSORGFRONT
 10
0.0
 20
0.0
 30
0.0
  9
$UCSORGBACK
 10
0.0
 20
0.0
 30
0.0
  9
$PUCSBASE
  2

  9
$PUCSNAME
  2

  9
$PUCSORG
 10
0.0
 20
0.0
 30
0.0
  9
$PUCSXDIR
 10
1.0
 20
0.0
 30
0.0
  9
$PUCSYDIR
 10
0.0
 20
1.0
 30
0.0
  9
$PUCSORTHOREF
  2

  9
$PUCSORTHOVIEW
 70
     0
  9
$PUCSORGTOP
 10
0.0
 20
0.0
 30
0.0
  9
$PUCSORGBOTTOM
 10
0.0
 20
0.0
 30
0.0
  9
$PUCSORGLEFT
 10
0.0
 20
0.0
 30
0.0
  9
$PUCSORGRIGHT
 10
0.0
 20
0.0
 30
0.0
  9
$PUCSORGFRONT
 10
0.0
 20
0.0
 30
0.0
  9
$PUCSORGBACK
 10
0.0
 20
0.0
 30
0.0
  9
$USERI1
 70
     0
  9
$USERI2
 70
     0
  9
$USERI3
 70
     0
  9
$USERI4
 70
     0
  9
$USERI5
 70
     0
  9
$USERR1
 40
0.0
  9
$USERR2
 40
0.0
  9
$USERR3
 40
0.0
  9
$USERR4
 40
0.0
  9
$USERR5
 40
0.0
  9
$WORLDVIEW
 70
     1
  9
$SHADEDGE
 70
     3
  9
$SHADEDIF
 70
    70
  9
$TILEMODE
 70
     1
  9
$MAXACTVP
 70
    64
  9
$PINSBASE
 10
0.0
 20
0.0
 30
0.0
  9
$PLIMCHECK
 70
     0
  9
$PEXTMIN
 10
1.000000000000000E+20
 20
1.000000000000000E+20
 30
1.000000000000000E+20
  9
$PEXTMAX
 10
-1.000000000000000E+20
 20
-1.000000000000000E+20
 30
-1.000000000000000E+20
  9
$PLIMMIN
 10
0.0
 20
0.0
  9
$PLIMMAX
 10
12.0
 20
9.0
  9
$UNITMODE
 70
     0
  9
$VISRETAIN
 70
     1
  9
$PLINEGEN
 70
     0
  9
$PSLTSCALE
 70
     1
  9
$TREEDEPTH
 70
  3020
  9
$CMLSTYLE
  2
Standard
  9
$CMLJUST
 70
     0
  9
$CMLSCALE
 40
1.0
  9
$PROXYGRAPHICS
 70
     1
  9
$MEASUREMENT
 70
     0
  9
$CELWEIGHT
370
    -1
  9
$ENDCAPS
280
     0
  9
$JOINSTYLE
280
     0
  9
$LWDISPLAY
290
     0
  9
$INSUNITS
 70
     4
  9
$HYPERLINKBASE
  1

  9
$STYLESHEET
  1

  9
$XEDIT
290
     1
  9
$CEPSNTYPE
380
     0
  9
$PSTYLEMODE
290
     1
  9
$FINGERPRINTGUID
  2
{55812B27-A9B2-C3AC-EFEC-B0229C228D4F}
  9
$VERSIONGUID
  2
{FAEB1C32-E019-11D5-929B-00C0DF256EC4}
  9
$EXTNAMES
290
     1
  9
$PSVPSCALE
 40
0.0
  9
$OLESTARTUP
290
     0
  9
$SORTENTS
280
   127
  9
$INDEXCTL
280
     0
  9
$HIDETEXT
280
     1
  9
$XCLIPFRAME
290
     0
  9
$HALOGAP
280
     0
  9
$OBSCOLOR
 70
   257
  9
$OBSLTYPE
280
     0
  9
$INTERSECTIONDISPLAY
280
     0
  9
$INTERSECTIONCOLOR
 70
   257
  9
$DIMASSOC
280
     2
  9
$PROJECTNAME
  1

  0
ENDSEC
  0
SECTION
  2
CLASSES
  0
CLASS
  1
ACDBDICTIONARYWDFLT
  2
AcDbDictionaryWithDefault
  3
ObjectDBX Classes
 90
        0
 91
        4
280
     0
281
     0
  0
CLASS
  1
VISUALSTYLE
  2
AcDbVisualStyle
  3
ObjectDBX Classes
 90
     4095
 91
        4
280
     0
281
     0
  0
CLASS
  1
MATERIAL
  2
AcDbMaterial
  3
ObjectDBX Classes
 90
     1153
 91
        4
280
     0
281
     0
  0
ENDSEC
  0
SECTION
  2
TABLES
  0
TABLE
  2
VPORT
  5
8
330
0
100
AcDbSymbolTable
 70
     1
  0
VPORT
  5
29
330
8
100
AcDbSymbolTableRecord
100
AcDbViewportTableRecord
  2
*Active
 70
     0
 10
0.0
 20
0.0
 11
1.0
 21
1.0
 12
0.0
 22
0.0
 13
0.0
 23
0.0
 14
0.5
 24
0.5
 15
0.5
 25
0.5
 16
0.0
 26
0.0
 36
1.0
 17
0.0
 27
0.0
 37
0.0
 40
10.0
 41
1.6
 42
50.0
 43
0.0
 44
0.0
 50
0.0
 51
0.0
 71
     0
 72
   100
 73
     1
 74
     3
 75
     0
 76
     0
 77
     0
 78
     0
281
     0
 65
     1
110
0.0
120
0.0
130
0.0
111
1.0
121
0.0
131
0.0
112
0.0
122
1.0
132
0.0
 79
     0
146
0.0
  0
ENDTAB
  0
TABLE
  2
LTYPE
  5
5
330
0
100
AcDbSymbolTable
 70
     1
  0
LTYPE
  5
14
330
5
100
AcDbSymbolTableRecord
100
AcDbLinetypeTableRecord
  2
ByBlock
 70
     0
  3

 72
    65
 73
     0
 40
0.0
  0
LTYPE
  5
15
330
5
100
AcDbSymbolTableRecord
100
AcDbLinetypeTableRecord
  2
ByLayer
 70
     0
  3

 72
    65
 73
     0
 40
0.0
  0
LTYPE
  5
16
330
5
100
AcDbSymbolTableRecord
100
AcDbLinetypeTableRecord
  2
Continuous
 70
     0
  3
Solid line
 72
    65
 73
     0
 40
0.0
  0
ENDTAB
  0
TABLE
  2
LAYER
  5
2
330
0
100
AcDbSymbolTable
 70
     3
  0
LAYER
  5
10
330
2
100
AcDbSymbolTableRecord
100
AcDbLayerTableRecord
  2
0
 70
     0
 62
     7
  6
Continuous
370
    -3
390
F
  0
LAYER
  5
3F
330
2
100
AcDbSymbolTableRecord
100
AcDbLayerTableRecord
  2
Inside Cut
 70
     0
 62
     4
  6
Continuous
370
    -3
390
F
  0
LAYER
  5
64
330
2
100
AcDbSymbolTableRecord
100
AcDbLayerTableRecord
  2
Outside Cut
 70
     0
 62
     1
  6
Continuous
370
    -3
390
F
  0
ENDTAB
  0
TABLE
  2
STYLE
  5
3
330
0
100
AcDbSymbolTable
 70
     1
  0
STYLE
  5
11
330
3
100
AcDbSymbolTableRecord
100
AcDbTextStyleTableRecord
  2
Standard
 70
     0
 40
0.0
 41
1.0
 50
0.0
 71
     0
 42
0.2
  3
txt
  4

  0
ENDTAB
  0
TABLE
  2
VIEW
  5
6
330
0
100
AcDbSymbolTable
 70
     0
  0
ENDTAB
  0
TABLE
  2
UCS
  5
7
330
0
100
AcDbSymbolTable
 70
     0
  0
ENDTAB
  0
TABLE
  2
APPID
  5
9
330
0
100
AcDbSymbolTable
 70
     1
  0
APPID
  5
12
330
9
100
AcDbSymbolTableRecord
100
AcDbRegAppTableRecord
  2
ACAD
 70
     0
  0
ENDTAB
  0
TABLE
  2
DIMSTYLE
  5
A
330
0
100
AcDbSymbolTable
 70
     1
100
AcDbDimStyleTable
  0
DIMSTYLE
105
27
330
A
100
AcDbSymbolTableRecord
100
AcDbDimStyleTableRecord
  2
Standard
 70
     0
178
     0
340
11
  0
ENDTAB
  0
TABLE
  2
BLOCK_RECORD
  5
1
330
0
100
AcDbSymbolTable
 70
     1
  0
BLOCK_RECORD
  5
1F
330
1
100
AcDbSymbolTableRecord
100
AcDbBlockTableRecord
  2
*Model_Space
340
22
  0
BLOCK_RECORD
  5
1B
330
1
100
AcDbSymbolTableRecord
100
AcDbBlockTableRecord
  2
*Paper_Space
340
1E
  0
BLOCK_RECORD
  5
23
330
1
100
AcDbSymbolTableRecord
100
AcDbBlockTableRecord
  2
*Paper_Space0
340
26
  0
ENDTAB
  0
ENDSEC
  0
SECTION
  2
BLOCKS
  0
BLOCK
  5
20
330
1F
100
AcDbEntity
  8
0
100
AcDbBlockBegin
  2
*Model_Space
 70
     0
 10
0.0
 20
0.0
 30
0.0
  3
*Model_Space
  1

  0
ENDBLK
  5
21
330
1F
100
AcDbEntity
  8
0
100
AcDbBlockEnd
  0
BLOCK
  5
1C
330
1B
100
AcDbEntity
 67
     1
  8
0
100
AcDbBlockBegin
  2
*Paper_Space
 70
     0
 10
0.0
 20
0.0
 30
0.0
  3
*Paper_Space
  1

  0
ENDBLK
  5
1D
330
1B
100
AcDbEntity
 67
     1
  8
0
100
AcDbBlockEnd
  0
BLOCK
  5
24
330
23
100
AcDbEntity
  8
0
100
AcDbBlockBegin
  2
*Paper_Space0
 70
     0
 10
0.0
 20
0.0
 30
0.0
  3
*Paper_Space0
  1

  0
ENDBLK
  5
25
330
23
100
AcDbEntity
  8
0
100
AcDbBlockEnd
  0
ENDSEC
  0
SECTION
  2
ENTITIES
  0
LINE
  5
40
330
1F
100
AcDbEntity
  8
Inside Cut
  6
Continuous
370
     0
100
AcDbLine
 10
109.7499999999964
 20
90.25000000000193
 30
0.0
 11
134.9999999999964
 21
90.25000000000193
 31
0.0
  0
SPLINE
  5
41
330
1F
100
AcDbEntity
  8
Inside Cut
  6
Continuous
370
     0
100
AcDbSpline
210
0.0
220
0.0
230
1.0
 70
    12
 71
     2
 72
     6
 73
     3
 74
     0
 42
0.0000000001
 43
0.0000000001
 12
1.0
 22
0.0
 32
0.0
 13
1.0
 23
0.0
 33
0.0
 40
0.0
 40
0.0
 40
0.0
 40
1.308473340220085
 40
1.308473340220085
 40
1.308473340220085
 10
134.9999999999955
 20
90.25000000000196
 30
0.0
 41
1.0
 10
139.9999999999932
 20
90.24999999999743
 30
0.0
 41
0.7071067811869336
 10
139.9999999999941
 20
85.24999999999977
 30
0.0
 41
1.0
  0
SPLINE
  5
42
330
1F
100
AcDbEntity
  8
Inside Cut
  6
Continuous
370
     0
100
AcDbSpline
210
0.0
220
0.0
230
1.0
 70
    12
 71
     2
 72
     6
 73
     3
 74
     0
 42
0.0000000001
 43
0.0000000001
 12
1.0
 22
0.0
 32
0.0
 13
1.0
 23
0.0
 33
0.0
 40
0.0
 40
0.0
 40
0.0
 40
1.308473340220475
 40
1.308473340220475
 40
1.308473340220475
 10
139.9999999999941
 20
85.24999999999886
 30
0.0
 41
1.0
 10
139.9999999999939
 20
80.24999999999577
 30
0.0
 41
0.7071067811861615
 10
144.9999999999973
 20
80.25000000000122
 30
0.0
 41
1.0
  0
SPLINE
  5
43
330
1F
100
AcDbEntity
  8
Inside Cut
  6
Continuous
370
     0
100
AcDbSpline
210
0.0
220
0.0
230
1.0
 70
    12
 71
     2
 72
     6
 73
     3
 74
     0
 42
0.0000000001
 43
0.0000000001
 12
1.0
 22
0.0
 32
0.0
 13
1.0
 23
0.0
 33
0.0
 40
0.0
 40
0.0
 40
0.0
 40
1.308473340219566
 40
1.308473340219566
 40
1.308473340219566
 10
144.9999999999973
 20
80.25000000000122
 30
0.0
 41
1.0
 10
149.9999999999948
 20
80.25000000000122
 30
0.0
 41
0.7071067811865475
 10
149.999999999995
 20
85.24999999999886
 30
0.0
 41
1.0
  0
LINE
  5
44
330
1F
100
AcDbEntity
  8
Inside Cut
  6
Continuous
370
     0
100
AcDbLine
 10
149.9999999999945
 20
85.24999999999886
 30
0.0
 11
149.9999999999945
 21
114.7499999999997
 31
0.0
  0
SPLINE
  5
45
330
1F
100
AcDbEntity
  8
Inside Cut
  6
Continuous
370
     0
100
AcDbSpline
210
0.0
220
0.0
230
1.0
 70
    12
 71
     2
 72
     6
 73
     3
 74
     0
 42
0.0000000001
 43
0.0000000001
 12
1.0
 22
0.0
 32
0.0
 13
1.0
 23
0.0
 33
0.0
 40
0.0
 40
0.0
 40
0.0
 40
1.308473340219566
 40
1.308473340219566
 40
1.308473340219566
 10
149.999999999995
 20
114.7499999999997
 30
0.0
 41
1.0
 10
149.9999999999948
 20
119.7499999999973
 30
0.0
 41
0.7071067811865475
 10
144.9999999999973
 20
119.7499999999973
 30
0.0
 41
1.0
  0
SPLINE
  5
46
330
1F
100
AcDbEntity
  8
Inside Cut
  6
Continuous
370
     0
100
AcDbSpline
210
0.0
220
0.0
230
1.0
 70
    12
 71
     2
 72
     6
 73
     3
 74
     0
 42
0.0000000001
 43
0.0000000001
 12
1.0
 22
0.0
 32
0.0
 13
1.0
 23
0.0
 33
0.0
 40
0.0
 40
0.0
 40
0.0
 40
1.308473340220085
 40
1.308473340220085
 40
1.308473340220085
 10
144.9999999999973
 20
119.7499999999973
 30
0.0
 41
1.0
 10
139.9999999999999
 20
119.7499999999973
 30
0.0
 41
0.7071067811869336
 10
139.9999999999941
 20
114.7499999999997
 30
0.0
 41
1.0
  0
SPLINE
  5
47
330
1F
100
AcDbEntity
  8
Inside Cut
  6
Continuous
370
     0
100
AcDbSpline
210
0.0
220
0.0
230
1.0
 70
    12
 71
     2
 72
     6
 73
     3
 74
     0
 42
0.0000000001
 43
0.0000000001
 12
1.0
 22
0.0
 32
0.0
 13
1.0
 23
0.0
 33
0.0
 40
0.0
 40
0.0
 40
0.0
 40
1.308473340220475
 40
1.308473340220475
 40
1.308473340220475
 10
139.9999999999941
 20
114.7500000000002
 30
0.0
 41
1.0
 10
139.9999999999997
 20
109.7499999999971
 30
0.0
 41
0.7071067811861615
 10
134.9999999999968
 20
109.7499999999966
 30
0.0
 41
1.0
  0
LINE
  5
48
330
1F
100
AcDbEntity
  8
Inside Cut
  6
Continuous
370
     0
100
AcDbLine
 10
134.9999999999964
 20
109.7499999999966
 30
0.0
 11
109.7499999999964
 21
109.7499999999966
 31
0.0
  0
LINE
  5
49
330
1F
100
AcDbEntity
  8
Inside Cut
  6
Continuous
370
     0
100
AcDbLine
 10
109.7499999999964
 20
109.7499999999966
 30
0.0
 11
109.7499999999964
 21
134.9999999999964
 31
0.0
  0
SPLINE
  5
4A
330
1F
100
AcDbEntity
  8
Inside Cut
  6
Continuous
370
     0
100
AcDbSpline
210
0.0
220
0.0
230
1.0
 70
    12
 71
     2
 72
     6
 73
     3
 74
     0
 42
0.0000000001
 43
0.0000000001
 12
1.0
 22
0.0
 32
0.0
 13
1.0
 23
0.0
 33
0.0
 40
0.0
 40
0.0
 40
0.0
 40
1.308473340220475
 40
1.308473340220475
 40
1.308473340220475
 10
109.7499999999968
 20
134.999999999997
 30
0.0
 41
1.0
 10
109.7499999999916
 20
140.0000000000001
 30
0.0
 41
0.7071067811861615
 10
114.749999999995
 20
139.9999999999995
 30
0.0
 41
1.0
  0
SPLINE
  5
4B
330
1F
100
AcDbEntity
  8
Inside Cut
  6
Continuous
370
     0
100
AcDbSpline
210
0.0
220
0.0
230
1.0
 70
    12
 71
     2
 72
     6
 73
     3
 74
     0
 42
0.0000000001
 43
0.0000000001
 12
1.0
 22
0.0
 32
0.0
 13
1.0
 23
0.0
 33
0.0
 40
0.0
 40
0.0
 40
0.0
 40
1.308473340220085
 40
1.308473340220085
 40
1.308473340220085
 10
114.7499999999945
 20
139.9999999999995
 30
0.0
 41
1.0
 10
119.7499999999921
 20
139.9999999999995
 30
0.0
 41
0.7071067811869336
 10
119.7499999999977
 20
144.9999999999972
 30
0.0
 41
1.0
  0
SPLINE
  5
4C
330
1F
100
AcDbEntity
  8
Inside Cut
  6
Continuous
370
     0
100
AcDbSpline
210
0.0
220
0.0
230
1.0
 70
    12
 71
     2
 72
     6
 73
     3
 74
     0
 42
0.0000000001
 43
0.0000000001
 12
1.0
 22
0.0
 32
0.0
 13
1.0
 23
0.0
 33
0.0
 40
0.0
 40
0.0
 40
0.0
 40
1.308473340220995
 40
1.308473340220995
 40
1.308473340220995
 10
119.7499999999977
 20
144.9999999999972
 30
0.0
 41
1.0
 10
119.749999999998
 20
150.0000000000002
 30
0.0
 41
0.7071067811865475
 10
114.7499999999945
 20
150.0000000000003
 30
0.0
 41
1.0
  0
LINE
  5
4D
330
1F
100
AcDbEntity
  8
Inside Cut
  6
Continuous
370
     0
100
AcDbLine
 10
114.7499999999945
 20
150.0000000000002
 30
0.0
 11
85.24999999999909
 21
150.0000000000002
 31
0.0
  0
SPLINE
  5
4E
330
1F
100
AcDbEntity
  8
Inside Cut
  6
Continuous
370
     0
100
AcDbSpline
210
0.0
220
0.0
230
1.0
 70
    12
 71
     2
 72
     6
 73
     3
 74
     0
 42
0.0000000001
 43
0.0000000001
 12
1.0
 22
0.0
 32
0.0
 13
1.0
 23
0.0
 33
0.0
 40
0.0
 40
0.0
 40
0.0
 40
1.308473340220995
 40
1.308473340220995
 40
1.308473340220995
 10
85.24999999999909
 20
150.0000000000003
 30
0.0
 41
1.0
 10
80.24999999999555
 20
150.0000000000002
 30
0.0
 41
0.7071067811865475
 10
80.24999999999591
 20
144.9999999999972
 30
0.0
 41
1.0
  0
SPLINE
  5
4F
330
1F
100
AcDbEntity
  8
Inside Cut
  6
Continuous
370
     0
100
AcDbSpline
210
0.0
220
0.0
230
1.0
 70
    12
 71
     2
 72
     6
 73
     3
 74
     0
 42
0.0000000001
 43
0.0000000001
 12
1.0
 22
0.0
 32
0.0
 13
1.0
 23
0.0
 33
0.0
 40
0.0
 40
0.0
 40
0.0
 40
1.308473340220475
 40
1.308473340220475
 40
1.308473340220475
 10
80.24999999999591
 20
144.9999999999972
 30
0.0
 41
1.0
 10
80.24999999999561
 20
139.9999999999941
 30
0.0
 41
0.7071067811861615
 10
85.24999999999909
 20
139.9999999999995
 30
0.0
 41
1.0
  0
SPLINE
  5
50
330
1F
100
AcDbEntity
  8
Inside Cut
  6
Continuous
370
     0
100
AcDbSpline
210
0.0
220
0.0
230
1.0
 70
    12
 71
     2
 72
     6
 73
     3
 74
     0
 42
0.0000000001
 43
0.0000000001
 12
1.0
 22
0.0
 32
0.0
 13
1.0
 23
0.0
 33
0.0
 40
0.0
 40
0.0
 40
0.0
 40
1.308473340220085
 40
1.308473340220085
 40
1.308473340220085
 10
85.24999999999818
 20
139.9999999999995
 30
0.0
 41
1.0
 10
90.24999999999586
 20
139.9999999999949
 30
0.0
 41
0.7071067811869336
 10
90.24999999999682
 20
134.9999999999973
 30
0.0
 41
1.0
  0
LINE
  5
51
330
1F
100
AcDbEntity
  8
Inside Cut
  6
Continuous
370
     0
100
AcDbLine
 10
90.24999999999636
 20
134.9999999999964
 30
0.0
 11
90.24999999999636
 21
109.7499999999966
 31
0.0
  0
LINE
  5
52
330
1F
100
AcDbEntity
  8
Inside Cut
  6
Continuous
370
     0
100
AcDbLine
 10
90.24999999999636
 20
109.7499999999966
 30
0.0
 11
64.99999999999636
 21
109.7499999999966
 31
0.0
  0
SPLINE
  5
53
330
1F
100
AcDbEntity
  8
Inside Cut
  6
Continuous
370
     0
100
AcDbSpline
210
0.0
220
0.0
230
1.0
 70
    12
 71
     2
 72
     6
 73
     3
 74
     0
 42
0.0000000001
 43
0.0000000001
 12
1.0
 22
0.0
 32
0.0
 13
1.0
 23
0.0
 33
0.0
 40
0.0
 40
0.0
 40
0.0
 40
1.308473340220085
 40
1.308473340220085
 40
1.308473340220085
 10
64.99999999999727
 20
109.7499999999966
 30
0.0
 41
1.0
 10
59.99999999999988
 20
109.7500000000011
 30
0.0
 41
0.7071067811869336
 10
59.99999999999864
 20
114.7499999999987
 30
0.0
 41
1.0
  0
SPLINE
  5
54
330
1F
100
AcDbEntity
  8
Inside Cut
  6
Continuous
370
     0
100
AcDbSpline
210
0.0
220
0.0
230
1.0
 70
    12
 71
     2
 72
     6
 73
     3
 74
     0
 42
0.0000000001
 43
0.0000000001
 12
1.0
 22
0.0
 32
0.0
 13
1.0
 23
0.0
 33
0.0
 40
0.0
 40
0.0
 40
0.0
 40
1.308473340220475
 40
1.308473340220475
 40
1.308473340220475
 10
59.99999999999909
 20
114.7499999999997
 30
0.0
 41
1.0
 10
59.99999999999915
 20
119.7500000000027
 30
0.0
 41
0.7071067811861615
 10
54.99999999999591
 20
119.7499999999973
 30
0.0
 41
1.0
  0
SPLINE
  5
55
330
1F
100
AcDbEntity
  8
Inside Cut
  6
Continuous
370
     0
100
AcDbSpline
210
0.0
220
0.0
230
1.0
 70
    12
 71
     2
 72
     6
 73
     3
 74
     0
 42
0.0000000001
 43
0.0000000001
 12
1.0
 22
0.0
 32
0.0
 13
1.0
 23
0.0
 33
0.0
 40
0.0
 40
0.0
 40
0.0
 40
1.308473340219566
 40
1.308473340219566
 40
1.308473340219566
 10
54.99999999999591
 20
119.7499999999973
 30
0.0
 41
1.0
 10
49.99999999999816
 20
119.7499999999973
 30
0.0
 41
0.7071067811865475
 10
49.99999999999818
 20
114.7499999999997
 30
0.0
 41
1.0
  0
LINE
  5
56
330
1F
100
AcDbEntity
  8
Inside Cut
  6
Continuous
370
     0
100
AcDbLine
 10
49.99999999999818
 20
114.7499999999997
 30
0.0
 11
49.99999999999818
 21
85.24999999999886
 31
0.0
  0
SPLINE
  5
57
330
1F
100
AcDbEntity
  8
Inside Cut
  6
Continuous
370
     0
100
AcDbSpline
210
0.0
220
0.0
230
1.0
 70
    12
 71
     2
 72
     6
 73
     3
 74
     0
 42
0.0000000001
 43
0.0000000001
 12
1.0
 22
0.0
 32
0.0
 13
1.0
 23
0.0
 33
0.0
 40
0.0
 40
0.0
 40
0.0
 40
1.308473340219566
 40
1.308473340219566
 40
1.308473340219566
 10
49.99999999999818
 20
85.24999999999886
 30
0.0
 41
1.0
 10
49.99999999999816
 20
80.25000000000122
 30
0.0
 41
0.7071067811865475
 10
54.99999999999591
 20
80.25000000000122
 30
0.0
 41
1.0
  0
SPLINE
  5
58
330
1F
100
AcDbEntity
  8
Inside Cut
  6
Continuous
370
     0
100
AcDbSpline
210
0.0
220
0.0
230
1.0
 70
    12
 71
     2
 72
     6
 73
     3
 74
     0
 42
0.0000000001
 43
0.0000000001
 12
1.0
 22
0.0
 32
0.0
 13
1.0
 23
0.0
 33
0.0
 40
0.0
 40
0.0
 40
0.0
 40
1.308473340220085
 40
1.308473340220085
 40
1.308473340220085
 10
54.99999999999591
 20
80.25000000000122
 30
0.0
 41
1.0
 10
59.99999999999345
 20
80.25000000000124
 30
0.0
 41
0.7071067811869336
 10
59.99999999999909
 20
85.24999999999886
 30
0.0
 41
1.0
  0
SPLINE
  5
59
330
1F
100
AcDbEntity
  8
Inside Cut
  6
Continuous
370
     0
100
AcDbSpline
210
0.0
220
0.0
230
1.0
 70
    12
 71
     2
 72
     6
 73
     3
 74
     0
 42
0.0000000001
 43
0.0000000001
 12
1.0
 22
0.0
 32
0.0
 13
1.0
 23
0.0
 33
0.0
 40
0.0
 40
0.0
 40
0.0
 40
1.308473340220475
 40
1.308473340220475
 40
1.308473340220475
 10
59.99999999999864
 20
85.24999999999835
 30
0.0
 41
1.0
 10
59.99999999999272
 20
90.25000000000146
 30
0.0
 41
0.7071067811861615
 10
64.99999999999591
 20
90.25000000000196
 30
0.0
 41
1.0
  0
LINE
  5
5A
330
1F
100
AcDbEntity
  8
Inside Cut
  6
Continuous
370
     0
100
AcDbLine
 10
64.99999999999636
 20
90.25000000000193
 30
0.0
 11
90.24999999999636
 21
90.25000000000193
 31
0.0
  0
LINE
  5
5B
330
1F
100
AcDbEntity
  8
Inside Cut
  6
Continuous
370
     0
100
AcDbLine
 10
90.24999999999636
 20
90.25000000000193
 30
0.0
 11
90.24999999999636
 21
65.0000000000021
 31
0.0
  0
SPLINE
  5
5C
330
1F
100
AcDbEntity
  8
Inside Cut
  6
Continuous
370
     0
100
AcDbSpline
210
0.0
220
0.0
230
1.0
 70
    12
 71
     2
 72
     6
 73
     3
 74
     0
 42
0.0000000001
 43
0.0000000001
 12
1.0
 22
0.0
 32
0.0
 13
1.0
 23
0.0
 33
0.0
 40
0.0
 40
0.0
 40
0.0
 40
1.308473340220475
 40
1.308473340220475
 40
1.308473340220475
 10
90.24999999999682
 20
65.00000000000261
 30
0.0
 41
1.0
 10
90.25000000000276
 20
59.99999999999952
 30
0.0
 41
0.7071067811861615
 10
85.24999999999955
 20
59.99999999999901
 30
0.0
 41
1.0
  0
SPLINE
  5
5D
330
1F
100
AcDbEntity
  8
Inside Cut
  6
Continuous
370
     0
100
AcDbSpline
210
0.0
220
0.0
230
1.0
 70
    12
 71
     2
 72
     6
 73
     3
 74
     0
 42
0.0000000001
 43
0.0000000001
 12
1.0
 22
0.0
 32
0.0
 13
1.0
 23
0.0
 33
0.0
 40
0.0
 40
0.0
 40
0.0
 40
1.308473340220085
 40
1.308473340220085
 40
1.308473340220085
 10
85.24999999999909
 20
59.99999999999901
 30
0.0
 41
1.0
 10
80.25000000000156
 20
59.99999999999901
 30
0.0
 41
0.7071067811869336
 10
80.24999999999591
 20
55.00000000000136
 30
0.0
 41
1.0
  0
SPLINE
  5
5E
330
1F
100
AcDbEntity
  8
Inside Cut
  6
Continuous
370
     0
100
AcDbSpline
210
0.0
220
0.0
230
1.0
 70
    12
 71
     2
 72
     6
 73
     3
 74
     0
 42
0.0000000001
 43
0.0000000001
 12
1.0
 22
0.0
 32
0.0
 13
1.0
 23
0.0
 33
0.0
 40
0.0
 40
0.0
 40
0.0
 40
1.308473340220995
 40
1.308473340220995
 40
1.308473340220995
 10
80.24999999999591
 20
55.00000000000136
 30
0.0
 41
1.0
 10
80.24999999999555
 20
49.99999999999827
 30
0.0
 41
0.7071067811865475
 10
85.24999999999909
 20
49.99999999999827
 30
0.0
 41
1.0
  0
LINE
  5
5F
330
1F
100
AcDbEntity
  8
Inside Cut
  6
Continuous
370
     0
100
AcDbLine
 10
85.24999999999909
 20
49.99999999999824
 30
0.0
 11
114.7499999999945
 21
49.99999999999824
 31
0.0
  0
SPLINE
  5
60
330
1F
100
AcDbEntity
  8
Inside Cut
  6
Continuous
370
     0
100
AcDbSpline
210
0.0
220
0.0
230
1.0
 70
    12
 71
     2
 72
     6
 73
     3
 74
     0
 42
0.0000000001
 43
0.0000000001
 12
1.0
 22
0.0
 32
0.0
 13
1.0
 23
0.0
 33
0.0
 40
0.0
 40
0.0
 40
0.0
 40
1.308473340220995
 40
1.308473340220995
 40
1.308473340220995
 10
114.7499999999945
 20
49.99999999999827
 30
0.0
 41
1.0
 10
119.749999999998
 20
49.99999999999827
 30
0.0
 41
0.7071067811865475
 10
119.7499999999977
 20
55.00000000000136
 30
0.0
 41
1.0
  0
SPLINE
  5
61
330
1F
100
AcDbEntity
  8
Inside Cut
  6
Continuous
370
     0
100
AcDbSpline
210
0.0
220
0.0
230
1.0
 70
    12
 71
     2
 72
     6
 73
     3
 74
     0
 42
0.0000000001
 43
0.0000000001
 12
1.0
 22
0.0
 32
0.0
 13
1.0
 23
0.0
 33
0.0
 40
0.0
 40
0.0
 40
0.0
 40
1.308473340220475
 40
1.308473340220475
 40
1.308473340220475
 10
119.7499999999977
 20
55.00000000000136
 30
0.0
 41
1.0
 10
119.7499999999975
 20
60.00000000000445
 30
0.0
 41
0.7071067811861615
 10
114.7499999999945
 20
59.99999999999901
 30
0.0
 41
1.0
  0
SPLINE
  5
62
330
1F
100
AcDbEntity
  8
Inside Cut
  6
Continuous
370
     0
100
AcDbSpline
210
0.0
220
0.0
230
1.0
 70
    12
 71
     2
 72
     6
 73
     3
 74
     0
 42
0.0000000001
 43
0.0000000001
 12
1.0
 22
0.0
 32
0.0
 13
1.0
 23
0.0
 33
0.0
 40
0.0
 40
0.0
 40
0.0
 40
1.308473340220085
 40
1.308473340220085
 40
1.308473340220085
 10
114.7499999999955
 20
59.99999999999901
 30
0.0
 41
1.0
 10
109.7499999999982
 20
60.00000000000355
 30
0.0
 41
0.7071067811869336
 10
109.7499999999968
 20
65.0000000000012
 30
0.0
 41
1.0
  0
LINE
  5
63
330
1F
100
AcDbEntity
  8
Inside Cut
  6
Continuous
370
     0
100
AcDbLine
 10
109.7499999999964
 20
65.0000000000021
 30
0.0
 11
109.7499999999964
 21
90.25000000000193
 31
0.0
  0
LINE
  5
65
330
1F
100
AcDbEntity
  8
Outside Cut
  6
Continuous
370
     0
100
AcDbLine
 10
578.2499999999836
 20
139.337127270497
 30
0.0
 11
578.2499999999836
 21
114.8371272704994
 31
0.0
  0
LINE
  5
66
330
1F
100
AcDbEntity
  8
Outside Cut
  6
Continuous
370
     0
100
AcDbLine
 10
578.2499999999836
 20
114.8371272704994
 30
0.0
 11
478.2499999999873
 21
114.8371272704994
 31
0.0
  0
LINE
  5
67
330
1F
100
AcDbEntity
  8
Outside Cut
  6
Continuous
370
     0
100
AcDbLine
 10
478.2499999999873
 20
114.8371272704994
 30
0.0
 11
478.2499999999873
 21
139.337127270497
 31
0.0
  0
SPLINE
  5
68
330
1F
100
AcDbEntity
  8
Outside Cut
  6
Continuous
370
     0
100
AcDbSpline
210
0.0
220
0.0
230
1.0
 70
    12
 71
     2
 72
     6
 73
     3
 74
     0
 42
0.0000000001
 43
0.0000000001
 12
1.0
 22
0.0
 32
0.0
 13
1.0
 23
0.0
 33
0.0
 40
0.0
 40
0.0
 40
0.0
 40
1.308473340219566
 40
1.308473340219566
 40
1.308473340219566
 10
478.2499999999877
 20
139.337127270497
 30
0.0
 41
1.0
 10
478.2499999999876
 20
144.3371272704947
 30
0.0
 41
0.7071067811865475
 10
473.24999999999
 20
144.3371272704947
 30
0.0
 41
1.0
  0
SPLINE
  5
69
330
1F
100
AcDbEntity
  8
Outside Cut
  6
Continuous
370
     0
100
AcDbSpline
210
0.0
220
0.0
230
1.0
 70
    12
 71
     2
 72
     6
 73
     3
 74
     0
 42
0.0000000001
 43
0.0000000001
 12
1.0
 22
0.0
 32
0.0
 13
1.0
 23
0.0
 33
0.0
 40
0.0
 40
0.0
 40
0.0
 40
1.308473340220085
 40
1.308473340220085
 40
1.308473340220085
 10
473.24999999999
 20
144.3371272704948
 30
0.0
 41
1.0
 10
468.2499999999926
 20
144.3371272704948
 30
0.0
 41
0.7071067811869336
 10
468.2499999999868
 20
139.3371272704971
 30
0.0
 41
1.0
  0
SPLINE
  5
6A
330
1F
100
AcDbEntity
  8
Outside Cut
  6
Continuous
370
     0
100
AcDbSpline
210
0.0
220
0.0
230
1.0
 70
    12
 71
     2
 72
     6
 73
     3
 74
     0
 42
0.0000000001
 43
0.0000000001
 12
1.0
 22
0.0
 32
0.0
 13
1.0
 23
0.0
 33
0.0
 40
0.0
 40
0.0
 40
0.0
 40
1.308473340220475
 40
1.308473340220475
 40
1.308473340220475
 10
468.2499999999868
 20
139.3371272704965
 30
0.0
 41
1.0
 10
468.2499999999919
 20
134.3371272704934
 30
0.0
 41
0.7071067811861615
 10
463.2499999999886
 20
134.3371272704941
 30
0.0
 41
1.0
  0
LINE
  5
6B
330
1F
100
AcDbEntity
  8
Outside Cut
  6
Continuous
370
     0
100
AcDbLine
 10
463.2499999999891
 20
134.337127270494
 30
0.0
 11
428.2499999999891
 21
134.337127270494
 31
0.0
  0
LINE
  5
6C
330
1F
100
AcDbEntity
  8
Outside Cut
  6
Continuous
370
     0
100
AcDbLine
 10
428.2499999999891
 20
134.337127270494
 30
0.0
 11
428.2499999999891
 21
214.8371272704959
 31
0.0
  0
LINE
  5
6D
330
1F
100
AcDbEntity
  8
Outside Cut
  6
Continuous
370
     0
100
AcDbLine
 10
428.2499999999891
 20
214.8371272704959
 30
0.0
 11
518.4999999999854
 21
214.8371272704959
 31
0.0
  0
LINE
  5
6E
330
1F
100
AcDbEntity
  8
Outside Cut
  6
Continuous
370
     0
100
AcDbLine
 10
518.4999999999854
 20
214.8371272704959
 30
0.0
 11
518.4999999999854
 21
189.5871272704961
 31
0.0
  0
SPLINE
  5
6F
330
1F
100
AcDbEntity
  8
Outside Cut
  6
Continuous
370
     0
100
AcDbSpline
210
0.0
220
0.0
230
1.0
 70
    12
 71
     2
 72
     6
 73
     3
 74
     0
 42
0.0000000001
 43
0.0000000001
 12
1.0
 22
0.0
 32
0.0
 13
1.0
 23
0.0
 33
0.0
 40
0.0
 40
0.0
 40
0.0
 40
1.308473340220475
 40
1.308473340220475
 40
1.308473340220475
 10
518.4999999999859
 20
189.5871272704965
 30
0.0
 41
1.0
 10
518.4999999999918
 20
184.5871272704935
 30
0.0
 41
0.7071067811861615
 10
513.4999999999886
 20
184.5871272704929
 30
0.0
 41
1.0
  0
SPLINE
  5
70
330
1F
100
AcDbEntity
  8
Outside Cut
  6
Continuous
370
     0
100
AcDbSpline
210
0.0
220
0.0
230
1.0
 70
    12
 71
     2
 72
     6
 73
     3
 74
     0
 42
0.0000000001
 43
0.0000000001
 12
1.0
 22
0.0
 32
0.0
 13
1.0
 23
0.0
 33
0.0
 40
0.0
 40
0.0
 40
0.0
 40
1.308473340220085
 40
1.308473340220085
 40
1.308473340220085
 10
513.4999999999882
 20
184.587127270493
 30
0.0
 41
1.0
 10
508.4999999999906
 20
184.587127270493
 30
0.0
 41
0.7071067811869336
 10
508.499999999985
 20
179.5871272704953
 30
0.0
 41
1.0
  0
SPLINE
  5
71
330
1F
100
AcDbEntity
  8
Outside Cut
  6
Continuous
370
     0
100
AcDbSpline
210
0.0
220
0.0
230
1.0
 70
    12
 71
     2
 72
     6
 73
     3
 74
     0
 42
0.0000000001
 43
0.0000000001
 12
1.0
 22
0.0
 32
0.0
 13
1.0
 23
0.0
 33
0.0
 40
0.0
 40
0.0
 40
0.0
 40
1.308473340220475
 40
1.308473340220475
 40
1.308473340220475
 10
508.499999999985
 20
179.5871272704953
 30
0.0
 41
1.0
 10
508.4999999999847
 20
174.5871272704922
 30
0.0
 41
0.7071067811861615
 10
513.4999999999882
 20
174.5871272704977
 30
0.0
 41
1.0
  0
LINE
  5
72
330
1F
100
AcDbEntity
  8
Outside Cut
  6
Continuous
370
     0
100
AcDbLine
 10
513.4999999999882
 20
174.5871272704977
 30
0.0
 11
542.9999999999836
 21
174.5871272704977
 31
0.0
  0
SPLINE
  5
73
330
1F
100
AcDbEntity
  8
Outside Cut
  6
Continuous
370
     0
100
AcDbSpline
210
0.0
220
0.0
230
1.0
 70
    12
 71
     2
 72
     6
 73
     3
 74
     0
 42
0.0000000001
 43
0.0000000001
 12
1.0
 22
0.0
 32
0.0
 13
1.0
 23
0.0
 33
0.0
 40
0.0
 40
0.0
 40
0.0
 40
1.308473340220085
 40
1.308473340220085
 40
1.308473340220085
 10
542.9999999999836
 20
174.5871272704977
 30
0.0
 41
1.0
 10
547.9999999999811
 20
174.5871272704977
 30
0.0
 41
0.7071067811869336
 10
547.9999999999868
 20
179.5871272704953
 30
0.0
 41
1.0
  0
SPLINE
  5
74
330
1F
100
AcDbEntity
  8
Outside Cut
  6
Continuous
370
     0
100
AcDbSpline
210
0.0
220
0.0
230
1.0
 70
    12
 71
     2
 72
     6
 73
     3
 74
     0
 42
0.0000000001
 43
0.0000000001
 12
1.0
 22
0.0
 32
0.0
 13
1.0
 23
0.0
 33
0.0
 40
0.0
 40
0.0
 40
0.0
 40
1.308473340220475
 40
1.308473340220475
 40
1.308473340220475
 10
547.9999999999868
 20
179.5871272704953
 30
0.0
 41
1.0
 10
547.9999999999868
 20
184.5871272704984
 30
0.0
 41
0.7071067811861615
 10
542.9999999999836
 20
184.587127270493
 30
0.0
 41
1.0
  0
SPLINE
  5
75
330
1F
100
AcDbEntity
  8
Outside Cut
  6
Continuous
370
     0
100
AcDbSpline
210
0.0
220
0.0
230
1.0
 70
    12
 71
     2
 72
     6
 73
     3
 74
     0
 42
0.0000000001
 43
0.0000000001
 12
1.0
 22
0.0
 32
0.0
 13
1.0
 23
0.0
 33
0.0
 40
0.0
 40
0.0
 40
0.0
 40
1.308473340220085
 40
1.308473340220085
 40
1.308473340220085
 10
542.9999999999845
 20
184.587127270493
 30
0.0
 41
1.0
 10
537.9999999999872
 20
184.5871272704975
 30
0.0
 41
0.7071067811869336
 10
537.9999999999859
 20
189.5871272704952
 30
0.0
 41
1.0
  0
LINE
  5
76
330
1F
100
AcDbEntity
  8
Outside Cut
  6
Continuous
370
     0
100
AcDbLine
 10
537.9999999999854
 20
189.5871272704961
 30
0.0
 11
537.9999999999854
 21
214.8371272704959
 31
0.0
  0
LINE
  5
77
330
1F
100
AcDbEntity
  8
Outside Cut
  6
Continuous
370
     0
100
AcDbLine
 10
537.9999999999854
 20
214.8371272704959
 30
0.0
 11
628.249999999982
 21
214.8371272704959
 31
0.0
  0
LINE
  5
78
330
1F
100
AcDbEntity
  8
Outside Cut
  6
Continuous
370
     0
100
AcDbLine
 10
628.249999999982
 20
214.8371272704959
 30
0.0
 11
628.249999999982
 21
134.337127270494
 31
0.0
  0
LINE
  5
79
330
1F
100
AcDbEntity
  8
Outside Cut
  6
Continuous
370
     0
100
AcDbLine
 10
628.249999999982
 20
134.337127270494
 30
0.0
 11
593.249999999982
 21
134.337127270494
 31
0.0
  0
SPLINE
  5
7A
330
1F
100
AcDbEntity
  8
Outside Cut
  6
Continuous
370
     0
100
AcDbSpline
210
0.0
220
0.0
230
1.0
 70
    12
 71
     2
 72
     6
 73
     3
 74
     0
 42
0.0000000001
 43
0.0000000001
 12
1.0
 22
0.0
 32
0.0
 13
1.0
 23
0.0
 33
0.0
 40
0.0
 40
0.0
 40
0.0
 40
1.308473340220085
 40
1.308473340220085
 40
1.308473340220085
 10
593.249999999983
 20
134.3371272704939
 30
0.0
 41
1.0
 10
588.2499999999852
 20
134.3371272704985
 30
0.0
 41
0.7071067811869336
 10
588.2499999999843
 20
139.3371272704961
 30
0.0
 41
1.0
  0
SPLINE
  5
7B
330
1F
100
AcDbEntity
  8
Outside Cut
  6
Continuous
370
     0
100
AcDbSpline
210
0.0
220
0.0
230
1.0
 70
    12
 71
     2
 72
     6
 73
     3
 74
     0
 42
0.0000000001
 43
0.0000000001
 12
1.0
 22
0.0
 32
0.0
 13
1.0
 23
0.0
 33
0.0
 40
0.0
 40
0.0
 40
0.0
 40
1.308473340220475
 40
1.308473340220475
 40
1.308473340220475
 10
588.249999999985
 20
139.337127270497
 30
0.0
 41
1.0
 10
588.249999999985
 20
144.3371272705001
 30
0.0
 41
0.7071067811861615
 10
583.2499999999818
 20
144.3371272704947
 30
0.0
 41
1.0
  0
SPLINE
  5
7C
330
1F
100
AcDbEntity
  8
Outside Cut
  6
Continuous
370
     0
100
AcDbSpline
210
0.0
220
0.0
230
1.0
 70
    12
 71
     2
 72
     6
 73
     3
 74
     0
 42
0.0000000001
 43
0.0000000001
 12
1.0
 22
0.0
 32
0.0
 13
1.0
 23
0.0
 33
0.0
 40
0.0
 40
0.0
 40
0.0
 40
1.308473340219566
 40
1.308473340219566
 40
1.308473340219566
 10
583.2499999999818
 20
144.3371272704947
 30
0.0
 41
1.0
 10
578.2499999999842
 20
144.3371272704947
 30
0.0
 41
0.7071067811865475
 10
578.2499999999841
 20
139.337127270497
 30
0.0
 41
1.0
  0
SPLINE
  5
7D
330
1F
100
AcDbEntity
  8
Outside Cut
  6
Continuous
370
     0
100
AcDbSpline
210
0.0
220
0.0
230
1.0
 70
    12
 71
     2
 72
     6
 73
     3
 74
     0
 42
0.0000000001
 43
0.0000000001
 12
1.0
 22
0.0
 32
0.0
 13
1.0
 23
0.0
 33
0.0
 40
0.0
 40
0.0
 40
0.0
 40
1.308473340220995
 40
1.308473340220995
 40
1.308473340220995
 10
813.2499999999766
 20
139.337127270497
 30
0.0
 41
1.0
 10
813.2499999999766
 20
134.3371272704939
 30
0.0
 41
0.7071067811865475
 10
818.2499999999798
 20
134.3371272704939
 30
0.0
 41
1.0
  0
LINE
  5
7E
330
1F
100
AcDbEntity
  8
Outside Cut
  6
Continuous
370
     0
100
AcDbLine
 10
818.2499999999798
 20
134.337127270494
 30
0.0
 11
853.2499999999743
 21
134.337127270494
 31
0.0
  0
LINE
  5
7F
330
1F
100
AcDbEntity
  8
Outside Cut
  6
Continuous
370
     0
100
AcDbLine
 10
853.2499999999743
 20
134.337127270494
 30
0.0
 11
853.2499999999743
 21
214.8371272704959
 31
0.0
  0
LINE
  5
80
330
1F
100
AcDbEntity
  8
Outside Cut
  6
Continuous
370
     0
100
AcDbLine
 10
853.2499999999743
 20
214.8371272704959
 30
0.0
 11
653.2499999999811
 21
214.8371272704959
 31
0.0
  0
LINE
  5
81
330
1F
100
AcDbEntity
  8
Outside Cut
  6
Continuous
370
     0
100
AcDbLine
 10
653.2499999999811
 20
214.8371272704959
 30
0.0
 11
653.2499999999811
 21
134.337127270494
 31
0.0
  0
LINE
  5
82
330
1F
100
AcDbEntity
  8
Outside Cut
  6
Continuous
370
     0
100
AcDbLine
 10
653.2499999999811
 20
134.337127270494
 30
0.0
 11
688.2499999999807
 21
134.337127270494
 31
0.0
  0
SPLINE
  5
83
330
1F
100
AcDbEntity
  8
Outside Cut
  6
Continuous
370
     0
100
AcDbSpline
210
0.0
220
0.0
230
1.0
 70
    12
 71
     2
 72
     6
 73
     3
 74
     0
 42
0.0000000001
 43
0.0000000001
 12
1.0
 22
0.0
 32
0.0
 13
1.0
 23
0.0
 33
0.0
 40
0.0
 40
0.0
 40
0.0
 40
1.308473340220995
 40
1.308473340220995
 40
1.308473340220995
 10
688.2499999999807
 20
134.3371272704939
 30
0.0
 41
1.0
 10
693.2499999999836
 20
134.3371272704939
 30
0.0
 41
0.7071067811865475
 10
693.2499999999839
 20
139.337127270497
 30
0.0
 41
1.0
  0
SPLINE
  5
84
330
1F
100
AcDbEntity
  8
Outside Cut
  6
Continuous
370
     0
100
AcDbSpline
210
0.0
220
0.0
230
1.0
 70
    12
 71
     2
 72
     6
 73
     3
 74
     0
 42
0.0000000001
 43
0.0000000001
 12
1.0
 22
0.0
 32
0.0
 13
1.0
 23
0.0
 33
0.0
 40
0.0
 40
0.0
 40
0.0
 40
1.308473340219566
 40
1.308473340219566
 40
1.308473340219566
 10
693.2499999999839
 20
139.337127270497
 30
0.0
 41
1.0
 10
693.2499999999836
 20
144.3371272704947
 30
0.0
 41
0.7071067811865475
 10
698.2499999999816
 20
144.3371272704947
 30
0.0
 41
1.0
  0
SPLINE
  5
85
330
1F
100
AcDbEntity
  8
Outside Cut
  6
Continuous
370
     0
100
AcDbSpline
210
0.0
220
0.0
230
1.0
 70
    12
 71
     2
 72
     6
 73
     3
 74
     0
 42
0.0000000001
 43
0.0000000001
 12
1.0
 22
0.0
 32
0.0
 13
1.0
 23
0.0
 33
0.0
 40
0.0
 40
0.0
 40
0.0
 40
1.308473340219566
 40
1.308473340219566
 40
1.308473340219566
 10
698.2499999999816
 20
144.3371272704947
 30
0.0
 41
1.0
 10
703.249999999979
 20
144.3371272704947
 30
0.0
 41
0.7071067811865475
 10
703.2499999999793
 20
139.337127270497
 30
0.0
 41
1.0
  0
LINE
  5
86
330
1F
100
AcDbEntity
  8
Outside Cut
  6
Continuous
370
     0
100
AcDbLine
 10
703.2499999999793
 20
139.337127270497
 30
0.0
 11
703.2499999999793
 21
114.8371272704994
 31
0.0
  0
LINE
  5
87
330
1F
100
AcDbEntity
  8
Outside Cut
  6
Continuous
370
     0
100
AcDbLine
 10
703.2499999999793
 20
114.8371272704994
 30
0.0
 11
743.4999999999775
 21
114.8371272704994
 31
0.0
  0
LINE
  5
88
330
1F
100
AcDbEntity
  8
Outside Cut
  6
Continuous
370
     0
100
AcDbLine
 10
743.4999999999775
 20
114.8371272704994
 30
0.0
 11
743.4999999999775
 21
159.5871272704939
 31
0.0
  0
SPLINE
  5
89
330
1F
100
AcDbEntity
  8
Outside Cut
  6
Continuous
370
     0
100
AcDbSpline
210
0.0
220
0.0
230
1.0
 70
    12
 71
     2
 72
     6
 73
     3
 74
     0
 42
0.0000000001
 43
0.0000000001
 12
1.0
 22
0.0
 32
0.0
 13
1.0
 23
0.0
 33
0.0
 40
0.0
 40
0.0
 40
0.0
 40
1.308473340220085
 40
1.308473340220085
 40
1.308473340220085
 10
743.4999999999775
 20
159.5871272704939
 30
0.0
 41
1.0
 10
743.4999999999778
 20
164.5871272704915
 30
0.0
 41
0.7071067811869336
 10
738.4999999999798
 20
164.5871272704969
 30
0.0
 41
1.0
  0
SPLINE
  5
8A
330
1F
100
AcDbEntity
  8
Outside Cut
  6
Continuous
370
     0
100
AcDbSpline
210
0.0
220
0.0
230
1.0
 70
    12
 71
     2
 72
     6
 73
     3
 74
     0
 42
0.0000000001
 43
0.0000000001
 12
1.0
 22
0.0
 32
0.0
 13
1.0
 23
0.0
 33
0.0
 40
0.0
 40
0.0
 40
0.0
 40
1.308473340219566
 40
1.308473340219566
 40
1.308473340219566
 10
738.4999999999798
 20
164.5871272704969
 30
0.0
 41
1.0
 10
733.4999999999822
 20
164.5871272704969
 30
0.0
 41
0.7071067811865475
 10
733.499999999982
 20
169.5871272704945
 30
0.0
 41
1.0
  0
SPLINE
  5
8B
330
1F
100
AcDbEntity
  8
Outside Cut
  6
Continuous
370
     0
100
AcDbSpline
210
0.0
220
0.0
230
1.0
 70
    12
 71
     2
 72
     6
 73
     3
 74
     0
 42
0.0000000001
 43
0.0000000001
 12
1.0
 22
0.0
 32
0.0
 13
1.0
 23
0.0
 33
0.0
 40
0.0
 40
0.0
 40
0.0
 40
1.308473340220475
 40
1.308473340220475
 40
1.308473340220475
 10
733.499999999982
 20
169.5871272704952
 30
0.0
 41
1.0
 10
733.4999999999769
 20
174.5871272704983
 30
0.0
 41
0.7071067811861615
 10
738.4999999999804
 20
174.5871272704976
 30
0.0
 41
1.0
  0
LINE
  5
8C
330
1F
100
AcDbEntity
  8
Outside Cut
  6
Continuous
370
     0
100
AcDbLine
 10
738.4999999999798
 20
174.5871272704977
 30
0.0
 11
767.9999999999807
 21
174.5871272704977
 31
0.0
  0
SPLINE
  5
8D
330
1F
100
AcDbEntity
  8
Outside Cut
  6
Continuous
370
     0
100
AcDbSpline
210
0.0
220
0.0
230
1.0
 70
    12
 71
     2
 72
     6
 73
     3
 74
     0
 42
0.0000000001
 43
0.0000000001
 12
1.0
 22
0.0
 32
0.0
 13
1.0
 23
0.0
 33
0.0
 40
0.0
 40
0.0
 40
0.0
 40
1.308473340220085
 40
1.308473340220085
 40
1.308473340220085
 10
767.9999999999843
 20
174.5871272704976
 30
0.0
 41
1.0
 10
772.9999999999822
 20
174.5871272704886
 30
0.0
 41
0.7071067811869336
 10
772.9999999999784
 20
169.5871272704909
 30
0.0
 41
1.0
  0
SPLINE
  5
8E
330
1F
100
AcDbEntity
  8
Outside Cut
  6
Continuous
370
     0
100
AcDbSpline
210
0.0
220
0.0
230
1.0
 70
    12
 71
     2
 72
     6
 73
     3
 74
     0
 42
0.0000000001
 43
0.0000000001
 12
1.0
 22
0.0
 32
0.0
 13
1.0
 23
0.0
 33
0.0
 40
0.0
 40
0.0
 40
0.0
 40
1.308473340219566
 40
1.308473340219566
 40
1.308473340219566
 10
772.9999999999784
 20
169.5871272704945
 30
0.0
 41
1.0
 10
772.9999999999782
 20
164.5871272704969
 30
0.0
 41
0.7071067811865475
 10
767.9999999999807
 20
164.5871272704969
 30
0.0
 41
1.0
  0
SPLINE
  5
8F
330
1F
100
AcDbEntity
  8
Outside Cut
  6
Continuous
370
     0
100
AcDbSpline
210
0.0
220
0.0
230
1.0
 70
    12
 71
     2
 72
     6
 73
     3
 74
     0
 42
0.0000000001
 43
0.0000000001
 12
1.0
 22
0.0
 32
0.0
 13
1.0
 23
0.0
 33
0.0
 40
0.0
 40
0.0
 40
0.0
 40
1.308473340220995
 40
1.308473340220995
 40
1.308473340220995
 10
767.9999999999807
 20
164.5871272704969
 30
0.0
 41
1.0
 10
762.9999999999775
 20
164.5871272704969
 30
0.0
 41
0.7071067811865475
 10
762.9999999999775
 20
159.5871272704939
 30
0.0
 41
1.0
  0
LINE
  5
90
330
1F
100
AcDbEntity
  8
Outside Cut
  6
Continuous
370
     0
100
AcDbLine
 10
762.999999999978
 20
159.5871272704939
 30
0.0
 11
762.999999999978
 21
114.8371272704994
 31
0.0
  0
LINE
  5
91
330
1F
100
AcDbEntity
  8
Outside Cut
  6
Continuous
370
     0
100
AcDbLine
 10
762.999999999978
 20
114.8371272704994
 30
0.0
 11
803.2499999999761
 21
114.8371272704994
 31
0.0
  0
LINE
  5
92
330
1F
100
AcDbEntity
  8
Outside Cut
  6
Continuous
370
     0
100
AcDbLine
 10
803.2499999999761
 20
114.8371272704994
 30
0.0
 11
803.2499999999761
 21
139.337127270497
 31
0.0
  0
SPLINE
  5
93
330
1F
100
AcDbEntity
  8
Outside Cut
  6
Continuous
370
     0
100
AcDbSpline
210
0.0
220
0.0
230
1.0
 70
    12
 71
     2
 72
     6
 73
     3
 74
     0
 42
0.0000000001
 43
0.0000000001
 12
1.0
 22
0.0
 32
0.0
 13
1.0
 23
0.0
 33
0.0
 40
0.0
 40
0.0
 40
0.0
 40
1.308473340220085
 40
1.308473340220085
 40
1.308473340220085
 10
803.2499999999757
 20
139.3371272704965
 30
0.0
 41
1.0
 10
803.2499999999803
 20
144.3371272704941
 30
0.0
 41
0.7071067811869336
 10
808.2499999999782
 20
144.3371272704948
 30
0.0
 41
1.0
  0
SPLINE
  5
94
330
1F
100
AcDbEntity
  8
Outside Cut
  6
Continuous
370
     0
100
AcDbSpline
210
0.0
220
0.0
230
1.0
 70
    12
 71
     2
 72
     6
 73
     3
 74
     0
 42
0.0000000001
 43
0.0000000001
 12
1.0
 22
0.0
 32
0.0
 13
1.0
 23
0.0
 33
0.0
 40
0.0
 40
0.0
 40
0.0
 40
1.308473340219566
 40
1.308473340219566
 40
1.308473340219566
 10
808.2499999999789
 20
144.3371272704947
 30
0.0
 41
1.0
 10
813.2499999999762
 20
144.3371272704947
 30
0.0
 41
0.7071067811865475
 10
813.2499999999766
 20
139.337127270497
 30
0.0
 41
1.0
  0
SPLINE
  5
95
330
1F
100
AcDbEntity
  8
Outside Cut
  6
Continuous
370
     0
100
AcDbSpline
210
0.0
220
0.0
230
1.0
 70
    12
 71
     2
 72
     6
 73
     3
 74
     0
 42
0.0000000001
 43
0.0000000001
 12
1.0
 22
0.0
 32
0.0
 13
1.0
 23
0.0
 33
0.0
 40
0.0
 40
0.0
 40
0.0
 40
1.308473340220995
 40
1.308473340220995
 40
1.308473340220995
 10
806.9999999999811
 20
30.50000000000361
 30
0.0
 41
1.0
 10
801.999999999978
 20
30.5000000000036
 30
0.0
 41
0.7071067811865475
 10
801.999999999978
 20
25.50000000000051
 30
0.0
 41
1.0
  0
SPLINE
  5
96
330
1F
100
AcDbEntity
  8
Outside Cut
  6
Continuous
370
     0
100
AcDbSpline
210
0.0
220
0.0
230
1.0
 70
    12
 71
     2
 72
     6
 73
     3
 74
     0
 42
0.0000000001
 43
0.0000000001
 12
1.0
 22
0.0
 32
0.0
 13
1.0
 23
0.0
 33
0.0
 40
0.0
 40
0.0
 40
0.0
 40
1.308473340220475
 40
1.308473340220475
 40
1.308473340220475
 10
801.999999999978
 20
25.50000000000051
 30
0.0
 41
1.0
 10
801.9999999999776
 20
20.49999999999742
 30
0.0
 41
0.7071067811861615
 10
806.9999999999811
 20
20.50000000000287
 30
0.0
 41
1.0
  0
SPLINE
  5
97
330
1F
100
AcDbEntity
  8
Outside Cut
  6
Continuous
370
     0
100
AcDbSpline
210
0.0
220
0.0
230
1.0
 70
    12
 71
     2
 72
     6
 73
     3
 74
     0
 42
0.0000000001
 43
0.0000000001
 12
1.0
 22
0.0
 32
0.0
 13
1.0
 23
0.0
 33
0.0
 40
0.0
 40
0.0
 40
0.0
 40
1.308473340220085
 40
1.308473340220085
 40
1.308473340220085
 10
806.9999999999757
 20
20.50000000000287
 30
0.0
 41
1.0
 10
811.9999999999735
 20
20.50000000000287
 30
0.0
 41
0.7071067811869336
 10
811.9999999999789
 20
15.50000000000523
 30
0.0
 41
1.0
  0
LINE
  5
98
330
1F
100
AcDbEntity
  8
Outside Cut
  6
Continuous
370
     0
100
AcDbLine
 10
811.9999999999789
 20
15.49999999999977
 30
0.0
 11
811.9999999999789
 21
-9.750000000000057
 31
0.0
  0
LINE
  5
99
330
1F
100
AcDbEntity
  8
Outside Cut
  6
Continuous
370
     0
100
AcDbLine
 10
811.9999999999789
 20
-9.750000000000057
 30
0.0
 11
428.2499999999891
 21
-9.750000000000057
 31
0.0
  0
LINE
  5
9A
330
1F
100
AcDbEntity
  8
Outside Cut
  6
Continuous
370
     0
100
AcDbLine
 10
428.2499999999891
 20
-9.750000000000057
 30
0.0
 11
428.2499999999891
 21
70.75000000000188
 31
0.0
  0
LINE
  5
9B
330
1F
100
AcDbEntity
  8
Outside Cut
  6
Continuous
370
     0
100
AcDbLine
 10
428.2499999999891
 20
70.75000000000188
 30
0.0
 11
463.2499999999891
 21
70.75000000000188
 31
0.0
  0
SPLINE
  5
9C
330
1F
100
AcDbEntity
  8
Outside Cut
  6
Continuous
370
     0
100
AcDbSpline
210
0.0
220
0.0
230
1.0
 70
    12
 71
     2
 72
     6
 73
     3
 74
     0
 42
0.0000000001
 43
0.0000000001
 12
1.0
 22
0.0
 32
0.0
 13
1.0
 23
0.0
 33
0.0
 40
0.0
 40
0.0
 40
0.0
 40
1.308473340220085
 40
1.308473340220085
 40
1.308473340220085
 10
463.2499999999882
 20
70.75000000000185
 30
0.0
 41
1.0
 10
468.2499999999858
 20
70.7499999999973
 30
0.0
 41
0.7071067811869336
 10
468.2499999999868
 20
65.74999999999966
 30
0.0
 41
1.0
  0
SPLINE
  5
9D
330
1F
100
AcDbEntity
  8
Outside Cut
  6
Continuous
370
     0
100
AcDbSpline
210
0.0
220
0.0
230
1.0
 70
    12
 71
     2
 72
     6
 73
     3
 74
     0
 42
0.0000000001
 43
0.0000000001
 12
1.0
 22
0.0
 32
0.0
 13
1.0
 23
0.0
 33
0.0
 40
0.0
 40
0.0
 40
0.0
 40
1.308473340220475
 40
1.308473340220475
 40
1.308473340220475
 10
468.2499999999868
 20
65.74999999999875
 30
0.0
 41
1.0
 10
468.2499999999868
 20
60.74999999999566
 30
0.0
 41
0.7071067811861615
 10
473.24999999999
 20
60.75000000000111
 30
0.0
 41
1.0
  0
SPLINE
  5
9E
330
1F
100
AcDbEntity
  8
Outside Cut
  6
Continuous
370
     0
100
AcDbSpline
210
0.0
220
0.0
230
1.0
 70
    12
 71
     2
 72
     6
 73
     3
 74
     0
 42
0.0000000001
 43
0.0000000001
 12
1.0
 22
0.0
 32
0.0
 13
1.0
 23
0.0
 33
0.0
 40
0.0
 40
0.0
 40
0.0
 40
1.308473340219566
 40
1.308473340219566
 40
1.308473340219566
 10
473.24999999999
 20
60.75000000000111
 30
0.0
 41
1.0
 10
478.2499999999876
 20
60.75000000000111
 30
0.0
 41
0.7071067811865475
 10
478.2499999999877
 20
65.74999999999875
 30
0.0
 41
1.0
  0
LINE
  5
9F
330
1F
100
AcDbEntity
  8
Outside Cut
  6
Continuous
370
     0
100
AcDbLine
 10
478.2499999999873
 20
65.74999999999875
 30
0.0
 11
478.2499999999873
 21
90.25000000000193
 31
0.0
  0
LINE
  5
A0
330
1F
100
AcDbEntity
  8
Outside Cut
  6
Continuous
370
     0
100
AcDbLine
 10
478.2499999999873
 20
90.25000000000193
 30
0.0
 11
518.4999999999854
 21
90.25000000000193
 31
0.0
  0
LINE
  5
A1
330
1F
100
AcDbEntity
  8
Outside Cut
  6
Continuous
370
     0
100
AcDbLine
 10
518.4999999999854
 20
90.25000000000193
 30
0.0
 11
518.4999999999854
 21
45.50000000000205
 31
0.0
  0
SPLINE
  5
A2
330
1F
100
AcDbEntity
  8
Outside Cut
  6
Continuous
370
     0
100
AcDbSpline
210
0.0
220
0.0
230
1.0
 70
    12
 71
     2
 72
     6
 73
     3
 74
     0
 42
0.0000000001
 43
0.0000000001
 12
1.0
 22
0.0
 32
0.0
 13
1.0
 23
0.0
 33
0.0
 40
0.0
 40
0.0
 40
0.0
 40
1.308473340220475
 40
1.308473340220475
 40
1.308473340220475
 10
518.4999999999859
 20
45.50000000000142
 30
0.0
 41
1.0
 10
518.4999999999911
 20
40.49999999999833
 30
0.0
 41
0.7071067811861615
 10
513.4999999999877
 20
40.49999999999895
 30
0.0
 41
1.0
  0
SPLINE
  5
A3
330
1F
100
AcDbEntity
  8
Outside Cut
  6
Continuous
370
     0
100
AcDbSpline
210
0.0
220
0.0
230
1.0
 70
    12
 71
     2
 72
     6
 73
     3
 74
     0
 42
0.0000000001
 43
0.0000000001
 12
1.0
 22
0.0
 32
0.0
 13
1.0
 23
0.0
 33
0.0
 40
0.0
 40
0.0
 40
0.0
 40
1.308473340220085
 40
1.308473340220085
 40
1.308473340220085
 10
513.4999999999882
 20
40.49999999999889
 30
0.0
 41
1.0
 10
508.4999999999906
 20
40.49999999999889
 30
0.0
 41
0.7071067811869336
 10
508.499999999985
 20
35.50000000000125
 30
0.0
 41
1.0
  0
SPLINE
  5
A4
330
1F
100
AcDbEntity
  8
Outside Cut
  6
Continuous
370
     0
100
AcDbSpline
210
0.0
220
0.0
230
1.0
 70
    12
 71
     2
 72
     6
 73
     3
 74
     0
 42
0.0000000001
 43
0.0000000001
 12
1.0
 22
0.0
 32
0.0
 13
1.0
 23
0.0
 33
0.0
 40
0.0
 40
0.0
 40
0.0
 40
1.308473340220475
 40
1.308473340220475
 40
1.308473340220475
 10
508.499999999985
 20
35.50000000000125
 30
0.0
 41
1.0
 10
508.4999999999847
 20
30.49999999999815
 30
0.0
 41
0.7071067811861615
 10
513.4999999999882
 20
30.50000000000361
 30
0.0
 41
1.0
  0
LINE
  5
A5
330
1F
100
AcDbEntity
  8
Outside Cut
  6
Continuous
370
     0
100
AcDbLine
 10
513.4999999999882
 20
30.50000000000364
 30
0.0
 11
542.9999999999836
 21
30.50000000000364
 31
0.0
  0
SPLINE
  5
A6
330
1F
100
AcDbEntity
  8
Outside Cut
  6
Continuous
370
     0
100
AcDbSpline
210
0.0
220
0.0
230
1.0
 70
    12
 71
     2
 72
     6
 73
     3
 74
     0
 42
0.0000000001
 43
0.0000000001
 12
1.0
 22
0.0
 32
0.0
 13
1.0
 23
0.0
 33
0.0
 40
0.0
 40
0.0
 40
0.0
 40
1.308473340220085
 40
1.308473340220085
 40
1.308473340220085
 10
542.9999999999836
 20
30.50000000000367
 30
0.0
 41
1.0
 10
547.9999999999811
 20
30.50000000000367
 30
0.0
 41
0.7071067811869336
 10
547.9999999999868
 20
35.50000000000131
 30
0.0
 41
1.0
  0
SPLINE
  5
A7
330
1F
100
AcDbEntity
  8
Outside Cut
  6
Continuous
370
     0
100
AcDbSpline
210
0.0
220
0.0
230
1.0
 70
    12
 71
     2
 72
     6
 73
     3
 74
     0
 42
0.0000000001
 43
0.0000000001
 12
1.0
 22
0.0
 32
0.0
 13
1.0
 23
0.0
 33
0.0
 40
0.0
 40
0.0
 40
0.0
 40
1.308473340220475
 40
1.308473340220475
 40
1.308473340220475
 10
547.9999999999868
 20
35.50000000000125
 30
0.0
 41
1.0
 10
547.9999999999868
 20
40.50000000000433
 30
0.0
 41
0.7071067811861615
 10
542.9999999999836
 20
40.49999999999889
 30
0.0
 41
1.0
  0
SPLINE
  5
A8
330
1F
100
AcDbEntity
  8
Outside Cut
  6
Continuous
370
     0
100
AcDbSpline
210
0.0
220
0.0
230
1.0
 70
    12
 71
     2
 72
     6
 73
     3
 74
     0
 42
0.0000000001
 43
0.0000000001
 12
1.0
 22
0.0
 32
0.0
 13
1.0
 23
0.0
 33
0.0
 40
0.0
 40
0.0
 40
0.0
 40
1.308473340220085
 40
1.308473340220085
 40
1.308473340220085
 10
542.9999999999845
 20
40.49999999999895
 30
0.0
 41
1.0
 10
537.9999999999872
 20
40.50000000000349
 30
0.0
 41
0.7071067811869336
 10
537.9999999999859
 20
45.50000000000114
 30
0.0
 41
1.0
  0
LINE
  5
A9
330
1F
100
AcDbEntity
  8
Outside Cut
  6
Continuous
370
     0
100
AcDbLine
 10
537.9999999999854
 20
45.50000000000205
 30
0.0
 11
537.9999999999854
 21
90.25000000000193
 31
0.0
  0
LINE
  5
AA
330
1F
100
AcDbEntity
  8
Outside Cut
  6
Continuous
370
     0
100
AcDbLine
 10
537.9999999999854
 20
90.25000000000193
 30
0.0
 11
578.2499999999836
 21
90.25000000000193
 31
0.0
  0
LINE
  5
AB
330
1F
100
AcDbEntity
  8
Outside Cut
  6
Continuous
370
     0
100
AcDbLine
 10
578.2499999999836
 20
90.25000000000193
 30
0.0
 11
578.2499999999836
 21
65.74999999999875
 31
0.0
  0
SPLINE
  5
AC
330
1F
100
AcDbEntity
  8
Outside Cut
  6
Continuous
370
     0
100
AcDbSpline
210
0.0
220
0.0
230
1.0
 70
    12
 71
     2
 72
     6
 73
     3
 74
     0
 42
0.0000000001
 43
0.0000000001
 12
1.0
 22
0.0
 32
0.0
 13
1.0
 23
0.0
 33
0.0
 40
0.0
 40
0.0
 40
0.0
 40
1.308473340219566
 40
1.308473340219566
 40
1.308473340219566
 10
578.2499999999841
 20
65.74999999999875
 30
0.0
 41
1.0
 10
578.2499999999842
 20
60.75000000000111
 30
0.0
 41
0.7071067811865475
 10
583.2499999999818
 20
60.75000000000111
 30
0.0
 41
1.0
  0
SPLINE
  5
AD
330
1F
100
AcDbEntity
  8
Outside Cut
  6
Continuous
370
     0
100
AcDbSpline
210
0.0
220
0.0
230
1.0
 70
    12
 71
     2
 72
     6
 73
     3
 74
     0
 42
0.0000000001
 43
0.0000000001
 12
1.0
 22
0.0
 32
0.0
 13
1.0
 23
0.0
 33
0.0
 40
0.0
 40
0.0
 40
0.0
 40
1.308473340220085
 40
1.308473340220085
 40
1.308473340220085
 10
583.2499999999818
 20
60.75000000000111
 30
0.0
 41
1.0
 10
588.2499999999798
 20
60.75000000000112
 30
0.0
 41
0.7071067811869336
 10
588.249999999985
 20
65.74999999999875
 30
0.0
 41
1.0
  0
SPLINE
  5
AE
330
1F
100
AcDbEntity
  8
Outside Cut
  6
Continuous
370
     0
100
AcDbSpline
210
0.0
220
0.0
230
1.0
 70
    12
 71
     2
 72
     6
 73
     3
 74
     0
 42
0.0000000001
 43
0.0000000001
 12
1.0
 22
0.0
 32
0.0
 13
1.0
 23
0.0
 33
0.0
 40
0.0
 40
0.0
 40
0.0
 40
1.308473340220995
 40
1.308473340220995
 40
1.308473340220995
 10
588.2499999999843
 20
65.74999999999875
 30
0.0
 41
1.0
 10
588.2499999999842
 20
70.75000000000183
 30
0.0
 41
0.7071067811865475
 10
593.2499999999875
 20
70.75000000000185
 30
0.0
 41
1.0
  0
LINE
  5
AF
330
1F
100
AcDbEntity
  8
Outside Cut
  6
Continuous
370
     0
100
AcDbLine
 10
593.2499999999875
 20
70.75000000000188
 30
0.0
 11
756.749999999982
 21
70.75000000000188
 31
0.0
  0
SPLINE
  5
B0
330
1F
100
AcDbEntity
  8
Outside Cut
  6
Continuous
370
     0
100
AcDbSpline
210
0.0
220
0.0
230
1.0
 70
    12
 71
     2
 72
     6
 73
     3
 74
     0
 42
0.0000000001
 43
0.0000000001
 12
1.0
 22
0.0
 32
0.0
 13
1.0
 23
0.0
 33
0.0
 40
0.0
 40
0.0
 40
0.0
 40
1.308473340220085
 40
1.308473340220085
 40
1.308473340220085
 10
756.7499999999766
 20
70.75000000000185
 30
0.0
 41
1.0
 10
761.7499999999744
 20
70.75000000000185
 30
0.0
 41
0.7071067811869336
 10
761.7499999999798
 20
65.7500000000042
 30
0.0
 41
1.0
  0
SPLINE
  5
B1
330
1F
100
AcDbEntity
  8
Outside Cut
  6
Continuous
370
     0
100
AcDbSpline
210
0.0
220
0.0
230
1.0
 70
    12
 71
     2
 72
     6
 73
     3
 74
     0
 42
0.0000000001
 43
0.0000000001
 12
1.0
 22
0.0
 32
0.0
 13
1.0
 23
0.0
 33
0.0
 40
0.0
 40
0.0
 40
0.0
 40
1.308473340220475
 40
1.308473340220475
 40
1.308473340220475
 10
761.7499999999793
 20
65.74999999999875
 30
0.0
 41
1.0
 10
761.7499999999791
 20
60.74999999999566
 30
0.0
 41
0.7071067811861615
 10
766.7499999999825
 20
60.75000000000111
 30
0.0
 41
1.0
  0
SPLINE
  5
B2
330
1F
100
AcDbEntity
  8
Outside Cut
  6
Continuous
370
     0
100
AcDbSpline
210
0.0
220
0.0
230
1.0
 70
    12
 71
     2
 72
     6
 73
     3
 74
     0
 42
0.0000000001
 43
0.0000000001
 12
1.0
 22
0.0
 32
0.0
 13
1.0
 23
0.0
 33
0.0
 40
0.0
 40
0.0
 40
0.0
 40
1.308473340219566
 40
1.308473340219566
 40
1.308473340219566
 10
766.7499999999825
 20
60.75000000000111
 30
0.0
 41
1.0
 10
771.7499999999802
 20
60.75000000000111
 30
0.0
 41
0.7071067811865475
 10
771.7499999999802
 20
65.74999999999875
 30
0.0
 41
1.0
  0
LINE
  5
B3
330
1F
100
AcDbEntity
  8
Outside Cut
  6
Continuous
370
     0
100
AcDbLine
 10
771.7499999999802
 20
65.74999999999875
 30
0.0
 11
771.7499999999802
 21
90.25000000000193
 31
0.0
  0
LINE
  5
B4
330
1F
100
AcDbEntity
  8
Outside Cut
  6
Continuous
370
     0
100
AcDbLine
 10
771.7499999999802
 20
90.25000000000193
 30
0.0
 11
831.4999999999789
 21
90.25000000000193
 31
0.0
  0
LINE
  5
B5
330
1F
100
AcDbEntity
  8
Outside Cut
  6
Continuous
370
     0
100
AcDbLine
 10
831.4999999999789
 20
90.25000000000193
 30
0.0
 11
831.4999999999789
 21
30.50000000000364
 31
0.0
  0
LINE
  5
B6
330
1F
100
AcDbEntity
  8
Outside Cut
  6
Continuous
370
     0
100
AcDbLine
 10
831.4999999999789
 20
30.50000000000364
 30
0.0
 11
811.9999999999789
 21
30.50000000000364
 31
0.0
  0
LINE
  5
B7
330
1F
100
AcDbEntity
  8
Outside Cut
  6
Continuous
370
     0
100
AcDbLine
 10
811.9999999999789
 20
30.50000000000364
 30
0.0
 11
807.0000000152338
 21
30.50039059449159
 31
0.0
  0
LINE
  5
B8
330
1F
100
AcDbEntity
  8
Outside Cut
  6
Continuous
370
     0
100
AcDbLine
 10
378.7499999999864
 20
49.99999999999824
 30
0.0
 11
403.24999999999
 21
49.99999999999824
 31
0.0
  0
LINE
  5
B9
330
1F
100
AcDbEntity
  8
Outside Cut
  6
Continuous
370
     0
100
AcDbLine
 10
403.24999999999
 20
49.99999999999824
 30
0.0
 11
403.24999999999
 21
0.0
 31
0.0
  0
LINE
  5
BA
330
1F
100
AcDbEntity
  8
Outside Cut
  6
Continuous
370
     0
100
AcDbLine
 10
403.24999999999
 20
0.0
 30
0.0
 11
0.0
 21
0.0
 31
0.0
  0
LINE
  5
BB
330
1F
100
AcDbEntity
  8
Outside Cut
  6
Continuous
370
     0
100
AcDbLine
 10
0.0
 20
0.0
 30
0.0
 11
0.0
 21
199.9999999999985
 31
0.0
  0
LINE
  5
BC
330
1F
100
AcDbEntity
  8
Outside Cut
  6
Continuous
370
     0
100
AcDbLine
 10
0.0
 20
199.9999999999985
 30
0.0
 11
403.24999999999
 21
199.9999999999985
 31
0.0
  0
LINE
  5
BD
330
1F
100
AcDbEntity
  8
Outside Cut
  6
Continuous
370
     0
100
AcDbLine
 10
403.24999999999
 20
199.9999999999985
 30
0.0
 11
403.24999999999
 21
150.0000000000002
 31
0.0
  0
LINE
  5
BE
330
1F
100
AcDbEntity
  8
Outside Cut
  6
Continuous
370
     0
100
AcDbLine
 10
403.24999999999
 20
150.0000000000002
 30
0.0
 11
378.7499999999864
 21
150.0000000000002
 31
0.0
  0
SPLINE
  5
BF
330
1F
100
AcDbEntity
  8
Outside Cut
  6
Continuous
370
     0
100
AcDbSpline
210
0.0
220
0.0
230
1.0
 70
    12
 71
     2
 72
     6
 73
     3
 74
     0
 42
0.0000000001
 43
0.0000000001
 12
1.0
 22
0.0
 32
0.0
 13
1.0
 23
0.0
 33
0.0
 40
0.0
 40
0.0
 40
0.0
 40
1.308473340220475
 40
1.308473340220475
 40
1.308473340220475
 10
378.7499999999864
 20
150.0000000000003
 30
0.0
 41
1.0
 10
373.7499999999835
 20
150.0000000000003
 30
0.0
 41
0.7071067811861615
 10
373.7499999999886
 20
144.9999999999972
 30
0.0
 41
1.0
  0
SPLINE
  5
C0
330
1F
100
AcDbEntity
  8
Outside Cut
  6
Continuous
370
     0
100
AcDbSpline
210
0.0
220
0.0
230
1.0
 70
    12
 71
     2
 72
     6
 73
     3
 74
     0
 42
0.0000000001
 43
0.0000000001
 12
1.0
 22
0.0
 32
0.0
 13
1.0
 23
0.0
 33
0.0
 40
0.0
 40
0.0
 40
0.0
 40
1.308473340219566
 40
1.308473340219566
 40
1.308473340219566
 10
373.7499999999886
 20
144.9999999999972
 30
0.0
 41
1.0
 10
373.7499999999889
 20
139.9999999999995
 30
0.0
 41
0.7071067811865475
 10
378.7499999999864
 20
139.9999999999995
 30
0.0
 41
1.0
  0
SPLINE
  5
C1
330
1F
100
AcDbEntity
  8
Outside Cut
  6
Continuous
370
     0
100
AcDbSpline
210
0.0
220
0.0
230
1.0
 70
    12
 71
     2
 72
     6
 73
     3
 74
     0
 42
0.0000000001
 43
0.0000000001
 12
1.0
 22
0.0
 32
0.0
 13
1.0
 23
0.0
 33
0.0
 40
0.0
 40
0.0
 40
0.0
 40
1.308473340220995
 40
1.308473340220995
 40
1.308473340220995
 10
378.7499999999864
 20
139.9999999999995
 30
0.0
 41
1.0
 10
383.7499999999899
 20
139.9999999999995
 30
0.0
 41
0.7071067811865475
 10
383.7499999999895
 20
134.9999999999964
 30
0.0
 41
1.0
  0
LINE
  5
C2
330
1F
100
AcDbEntity
  8
Outside Cut
  6
Continuous
370
     0
100
AcDbLine
 10
383.74999999999
 20
134.9999999999964
 30
0.0
 11
383.74999999999
 21
109.7499999999966
 31
0.0
  0
LINE
  5
C3
330
1F
100
AcDbEntity
  8
Outside Cut
  6
Continuous
370
     0
100
AcDbLine
 10
383.74999999999
 20
109.7499999999966
 30
0.0
 11
358.49999999999
 21
109.7499999999966
 31
0.0
  0
SPLINE
  5
C4
330
1F
100
AcDbEntity
  8
Outside Cut
  6
Continuous
370
     0
100
AcDbSpline
210
0.0
220
0.0
230
1.0
 70
    12
 71
     2
 72
     6
 73
     3
 74
     0
 42
0.0000000001
 43
0.0000000001
 12
1.0
 22
0.0
 32
0.0
 13
1.0
 23
0.0
 33
0.0
 40
0.0
 40
0.0
 40
0.0
 40
1.308473340220085
 40
1.308473340220085
 40
1.308473340220085
 10
358.4999999999909
 20
109.7499999999966
 30
0.0
 41
1.0
 10
353.4999999999937
 20
109.7500000000011
 30
0.0
 41
0.7071067811869336
 10
353.4999999999923
 20
114.7499999999987
 30
0.0
 41
1.0
  0
SPLINE
  5
C5
330
1F
100
AcDbEntity
  8
Outside Cut
  6
Continuous
370
     0
100
AcDbSpline
210
0.0
220
0.0
230
1.0
 70
    12
 71
     2
 72
     6
 73
     3
 74
     0
 42
0.0000000001
 43
0.0000000001
 12
1.0
 22
0.0
 32
0.0
 13
1.0
 23
0.0
 33
0.0
 40
0.0
 40
0.0
 40
0.0
 40
1.308473340220475
 40
1.308473340220475
 40
1.308473340220475
 10
353.4999999999923
 20
114.7499999999997
 30
0.0
 41
1.0
 10
353.4999999999922
 20
119.7500000000027
 30
0.0
 41
0.7071067811861615
 10
348.4999999999891
 20
119.7499999999973
 30
0.0
 41
1.0
  0
SPLINE
  5
C6
330
1F
100
AcDbEntity
  8
Outside Cut
  6
Continuous
370
     0
100
AcDbSpline
210
0.0
220
0.0
230
1.0
 70
    12
 71
     2
 72
     6
 73
     3
 74
     0
 42
0.0000000001
 43
0.0000000001
 12
1.0
 22
0.0
 32
0.0
 13
1.0
 23
0.0
 33
0.0
 40
0.0
 40
0.0
 40
0.0
 40
1.308473340219566
 40
1.308473340219566
 40
1.308473340219566
 10
348.4999999999891
 20
119.7499999999973
 30
0.0
 41
1.0
 10
343.4999999999915
 20
119.7499999999973
 30
0.0
 41
0.7071067811865475
 10
343.4999999999914
 20
114.7499999999997
 30
0.0
 41
1.0
  0
LINE
  5
C7
330
1F
100
AcDbEntity
  8
Outside Cut
  6
Continuous
370
     0
100
AcDbLine
 10
343.4999999999918
 20
114.7499999999997
 30
0.0
 11
343.4999999999918
 21
85.24999999999886
 31
0.0
  0
SPLINE
  5
C8
330
1F
100
AcDbEntity
  8
Outside Cut
  6
Continuous
370
     0
100
AcDbSpline
210
0.0
220
0.0
230
1.0
 70
    12
 71
     2
 72
     6
 73
     3
 74
     0
 42
0.0000000001
 43
0.0000000001
 12
1.0
 22
0.0
 32
0.0
 13
1.0
 23
0.0
 33
0.0
 40
0.0
 40
0.0
 40
0.0
 40
1.308473340219566
 40
1.308473340219566
 40
1.308473340219566
 10
343.4999999999914
 20
85.24999999999886
 30
0.0
 41
1.0
 10
343.4999999999915
 20
80.25000000000122
 30
0.0
 41
0.7071067811865475
 10
348.4999999999891
 20
80.25000000000122
 30
0.0
 41
1.0
  0
SPLINE
  5
C9
330
1F
100
AcDbEntity
  8
Outside Cut
  6
Continuous
370
     0
100
AcDbSpline
210
0.0
220
0.0
230
1.0
 70
    12
 71
     2
 72
     6
 73
     3
 74
     0
 42
0.0000000001
 43
0.0000000001
 12
1.0
 22
0.0
 32
0.0
 13
1.0
 23
0.0
 33
0.0
 40
0.0
 40
0.0
 40
0.0
 40
1.308473340220085
 40
1.308473340220085
 40
1.308473340220085
 10
348.4999999999891
 20
80.25000000000122
 30
0.0
 41
1.0
 10
353.4999999999866
 20
80.25000000000124
 30
0.0
 41
0.7071067811869336
 10
353.4999999999923
 20
85.24999999999886
 30
0.0
 41
1.0
  0
SPLINE
  5
CA
330
1F
100
AcDbEntity
  8
Outside Cut
  6
Continuous
370
     0
100
AcDbSpline
210
0.0
220
0.0
230
1.0
 70
    12
 71
     2
 72
     6
 73
     3
 74
     0
 42
0.0000000001
 43
0.0000000001
 12
1.0
 22
0.0
 32
0.0
 13
1.0
 23
0.0
 33
0.0
 40
0.0
 40
0.0
 40
0.0
 40
1.308473340220475
 40
1.308473340220475
 40
1.308473340220475
 10
353.4999999999923
 20
85.24999999999835
 30
0.0
 41
1.0
 10
353.4999999999864
 20
90.25000000000146
 30
0.0
 41
0.7071067811861615
 10
358.4999999999895
 20
90.25000000000196
 30
0.0
 41
1.0
  0
LINE
  5
CB
330
1F
100
AcDbEntity
  8
Outside Cut
  6
Continuous
370
     0
100
AcDbLine
 10
358.49999999999
 20
90.25000000000193
 30
0.0
 11
383.74999999999
 21
90.25000000000193
 31
0.0
  0
LINE
  5
CC
330
1F
100
AcDbEntity
  8
Outside Cut
  6
Continuous
370
     0
100
AcDbLine
 10
383.74999999999
 20
90.25000000000193
 30
0.0
 11
383.74999999999
 21
65.0000000000021
 31
0.0
  0
SPLINE
  5
CD
330
1F
100
AcDbEntity
  8
Outside Cut
  6
Continuous
370
     0
100
AcDbSpline
210
0.0
220
0.0
230
1.0
 70
    12
 71
     2
 72
     6
 73
     3
 74
     0
 42
0.0000000001
 43
0.0000000001
 12
1.0
 22
0.0
 32
0.0
 13
1.0
 23
0.0
 33
0.0
 40
0.0
 40
0.0
 40
0.0
 40
1.308473340220995
 40
1.308473340220995
 40
1.308473340220995
 10
383.7499999999895
 20
65.0000000000021
 30
0.0
 41
1.0
 10
383.7499999999899
 20
59.99999999999901
 30
0.0
 41
0.7071067811865475
 10
378.7499999999864
 20
59.99999999999901
 30
0.0
 41
1.0
  0
SPLINE
  5
CE
330
1F
100
AcDbEntity
  8
Outside Cut
  6
Continuous
370
     0
100
AcDbSpline
210
0.0
220
0.0
230
1.0
 70
    12
 71
     2
 72
     6
 73
     3
 74
     0
 42
0.0000000001
 43
0.0000000001
 12
1.0
 22
0.0
 32
0.0
 13
1.0
 23
0.0
 33
0.0
 40
0.0
 40
0.0
 40
0.0
 40
1.308473340219566
 40
1.308473340219566
 40
1.308473340219566
 10
378.7499999999864
 20
59.99999999999901
 30
0.0
 41
1.0
 10
373.7499999999889
 20
59.99999999999901
 30
0.0
 41
0.7071067811865475
 10
373.7499999999886
 20
55.00000000000136
 30
0.0
 41
1.0
  0
SPLINE
  5
CF
330
1F
100
AcDbEntity
  8
Outside Cut
  6
Continuous
370
     0
100
AcDbSpline
210
0.0
220
0.0
230
1.0
 70
    12
 71
     2
 72
     6
 73
     3
 74
     0
 42
0.0000000001
 43
0.0000000001
 12
1.0
 22
0.0
 32
0.0
 13
1.0
 23
0.0
 33
0.0
 40
0.0
 40
0.0
 40
0.0
 40
1.308473340220085
 40
1.308473340220085
 40
1.308473340220085
 10
373.7499999999886
 20
55.00000000000136
 30
0.0
 41
1.0
 10
373.7499999999886
 20
50.00000000000374
 30
0.0
 41
0.7071067811869336
 10
378.7499999999864
 20
49.99999999999827
 30
0.0
 41
1.0
  0
ENDSEC
  0
SECTION
  2
OBJECTS
  0
DICTIONARY
  5
C
330
0
100
AcDbDictionary
281
     1
  3
ACAD_GROUP
350
D
  3
ACAD_LAYOUT
350
1A
  3
ACAD_MATERIAL
350
3B
  3
ACAD_MLEADERSTYLE
350
F7
  3
ACAD_MLINESTYLE
350
17
  3
ACAD_PLOTSETTINGS
350
19
  3
ACAD_PLOTSTYLENAME
350
E
  3
ACAD_TABLESTYLE
350
F6
  3
ACAD_VISUALSTYLE
350
2A
  0
DICTIONARY
  5
D
102
{ACAD_REACTORS
330
C
102
}
330
C
100
AcDbDictionary
281
     1
  0
DICTIONARY
  5
1A
102
{ACAD_REACTORS
330
C
102
}
330
C
100
AcDbDictionary
281
     1
  3
Layout1
350
1E
  3
Layout2
350
26
  3
Model
350
22
  0
DICTIONARY
  5
3B
102
{ACAD_REACTORS
330
C
102
}
330
C
100
AcDbDictionary
281
     1
  3
ByBlock
350
3D
  3
ByLayer
350
3C
  3
Global
350
3E
  0
DICTIONARY
  5
F7
102
{ACAD_REACTORS
330
C
102
}
330
C
100
AcDbDictionary
281
     1
  0
DICTIONARY
  5
17
102
{ACAD_REACTORS
330
C
102
}
330
C
100
AcDbDictionary
281
     1
  3
Standard
350
18
  0
DICTIONARY
  5
19
102
{ACAD_REACTORS
330
C
102
}
330
C
100
AcDbDictionary
281
     1
  0
ACDBDICTIONARYWDFLT
  5
E
102
{ACAD_REACTORS
330
C
102
}
330
C
100
AcDbDictionary
281
     1
  3
Normal
350
F
100
AcDbDictionaryWithDefault
340
F
  0
DICTIONARY
  5
F6
102
{ACAD_REACTORS
330
C
102
}
330
C
100
AcDbDictionary
281
     1
  0
DICTIONARY
  5
2A
102
{ACAD_REACTORS
330
C
102
}
330
C
100
AcDbDictionary
281
     1
  3
2dWireframe
350
2F
  3
3D Hidden
350
31
  3
3dWireframe
350
30
  3
Basic
350
32
  3
Brighten
350
36
  3
ColorChange
350
3A
  3
Conceptual
350
34
  3
Dim
350
35
  3
Facepattern
350
39
  3
Flat
350
2B
  3
FlatWithEdges
350
2C
  3
Gouraud
350
2D
  3
GouraudWithEdges
350
2E
  3
Linepattern
350
38
  3
Realistic
350
33
  3
Thicken
350
37
  0
LAYOUT
  5
1E
102
{ACAD_REACTORS
330
1A
102
}
330
1A
100
AcDbPlotSettings
  1

  2
none_device
  4

  6

 40
0.0
 41
0.0
 42
0.0
 43
0.0
 44
0.0
 45
0.0
 46
0.0
 47
0.0
 48
0.0
 49
0.0
140
0.0
141
0.0
142
1.0
143
1.0
 70
   688
 72
     0
 73
     0
 74
     5
  7

 75
    16
 76
     0
 77
     2
 78
   300
147
1.0
148
0.0
149
0.0
100
AcDbLayout
  1
Layout1
 70
     1
 71
     1
 10
0.0
 20
0.0
 11
12.0
 21
9.0
 12
0.0
 22
0.0
 32
0.0
 14
1.000000000000000E+20
 24
1.000000000000000E+20
 34
1.000000000000000E+20
 15
-1.000000000000000E+20
 25
-1.000000000000000E+20
 35
-1.000000000000000E+20
146
0.0
 13
0.0
 23
0.0
 33
0.0
 16
1.0
 26
0.0
 36
0.0
 17
0.0
 27
1.0
 37
0.0
 76
     0
330
1B
  0
LAYOUT
  5
26
102
{ACAD_REACTORS
330
1A
102
}
330
1A
100
AcDbPlotSettings
  1

  2
none_device
  4

  6

 40
0.0
 41
0.0
 42
0.0
 43
0.0
 44
0.0
 45
0.0
 46
0.0
 47
0.0
 48
0.0
 49
0.0
140
0.0
141
0.0
142
1.0
143
1.0
 70
   688
 72
     0
 73
     0
 74
     5
  7

 75
    16
 76
     0
 77
     2
 78
   300
147
1.0
148
0.0
149
0.0
100
AcDbLayout
  1
Layout2
 70
     1
 71
     2
 10
0.0
 20
0.0
 11
0.0
 21
0.0
 12
0.0
 22
0.0
 32
0.0
 14
0.0
 24
0.0
 34
0.0
 15
0.0
 25
0.0
 35
0.0
146
0.0
 13
0.0
 23
0.0
 33
0.0
 16
1.0
 26
0.0
 36
0.0
 17
0.0
 27
1.0
 37
0.0
 76
     0
330
23
  0
LAYOUT
  5
22
102
{ACAD_REACTORS
330
1A
102
}
330
1A
100
AcDbPlotSettings
  1

  2
none_device
  4

  6

 40
0.0
 41
0.0
 42
0.0
 43
0.0
 44
0.0
 45
0.0
 46
0.0
 47
0.0
 48
0.0
 49
0.0
140
0.0
141
0.0
142
1.0
143
1.0
 70
  1712
 72
     0
 73
     0
 74
     0
  7

 75
     0
 76
     0
 77
     2
 78
   300
147
1.0
148
0.0
149
0.0
100
AcDbLayout
  1
Model
 70
     1
 71
     0
 10
0.0
 20
0.0
 11
12.0
 21
9.0
 12
0.0
 22
0.0
 32
0.0
 14
0.0
 24
-9.750000000000057
 34
0.0
 15
853.2499999999743
 25
214.8371272704959
 35
0.0
146
0.0
 13
0.0
 23
0.0
 33
0.0
 16
1.0
 26
0.0
 36
0.0
 17
0.0
 27
1.0
 37
0.0
 76
     0
330
1F
331
29
  0
MATERIAL
  5
3D
102
{ACAD_REACTORS
330
3B
102
}
102
{ACAD_XDICTIONARY
360
F2
102
}
330
3B
100
AcDbMaterial
  1
ByBlock
  0
MATERIAL
  5
3C
102
{ACAD_REACTORS
330
3B
102
}
102
{ACAD_XDICTIONARY
360
F0
102
}
330
3B
100
AcDbMaterial
  1
ByLayer
  0
MATERIAL
  5
3E
102
{ACAD_REACTORS
330
3B
102
}
102
{ACAD_XDICTIONARY
360
F4
102
}
330
3B
100
AcDbMaterial
  1
Global
  0
MLINESTYLE
  5
18
102
{ACAD_REACTORS
330
17
102
}
330
17
100
AcDbMlineStyle
  2
Standard
 70
     0
  3

 62
   256
 51
90.0
 52
90.0
 71
     2
 49
0.5
 62
   256
  6
BYLAYER
 49
-0.5
 62
   256
  6
BYLAYER
  0
ACDBPLACEHOLDER
  5
F
102
{ACAD_REACTORS
330
E
102
}
330
E
  0
VISUALSTYLE
  5
2F
102
{ACAD_REACTORS
330
2A
102
}
102
{ACAD_XDICTIONARY
360
D8
102
}
330
2A
100
AcDbVisualStyle
  2
2dWireframe
 70
     4
 71
     0
 72
     2
 73
     0
 90
        0
 40
-0.6
 41
-30.0
 62
     5
 63
     7
421
 16777215
 74
     1
 91
        4
 64
     7
 65
   257
 75
     1
175
     1
 42
1.0
 92
        0
 66
   257
 43
1.0
 76
     1
 77
     6
 78
     2
 67
     7
 79
     5
170
     0
171
     0
290
     0
174
     0
 93
        1
 44
0.0
173
     0
291
     0
 45
0.0
1001
ACAD
1000
AcDbSavedByObjectVersion
1070
     0
  0
VISUALSTYLE
  5
31
102
{ACAD_REACTORS
330
2A
102
}
102
{ACAD_XDICTIONARY
360
DC
102
}
330
2A
100
AcDbVisualStyle
  2
3D Hidden
 70
     6
 71
     1
 72
     2
 73
     2
 90
        0
 40
-0.6
 41
-30.0
 62
     5
 63
     7
421
 16777215
 74
     2
 91
        2
 64
     7
 65
   257
 75
     2
175
     1
 42
40.0
 92
        0
 66
   257
 43
1.0
 76
     1
 77
     6
 78
     2
 67
     7
 79
     3
170
     0
171
     0
290
     0
174
     0
 93
        1
 44
0.0
173
     0
291
     0
 45
0.0
1001
ACAD
1000
AcDbSavedByObjectVersion
1070
     0
  0
VISUALSTYLE
  5
30
102
{ACAD_REACTORS
330
2A
102
}
102
{ACAD_XDICTIONARY
360
DA
102
}
330
2A
100
AcDbVisualStyle
  2
3dWireframe
 70
     5
 71
     0
 72
     2
 73
     0
 90
        0
 40
-0.6
 41
-30.0
 62
     5
 63
     7
421
 16777215
 74
     1
 91
        4
 64
     7
 65
   257
 75
     1
175
     1
 42
1.0
 92
        0
 66
   257
 43
1.0
 76
     1
 77
     6
 78
     2
 67
     7
 79
     5
170
     0
171
     0
290
     0
174
     0
 93
        1
 44
0.0
173
     0
291
     0
 45
0.0
1001
ACAD
1000
AcDbSavedByObjectVersion
1070
     0
  0
VISUALSTYLE
  5
32
102
{ACAD_REACTORS
330
2A
102
}
102
{ACAD_XDICTIONARY
360
DE
102
}
330
2A
100
AcDbVisualStyle
  2
Basic
 70
     7
 71
     1
 72
     0
 73
     1
 90
        0
 40
-0.6
 41
-30.0
 62
     5
 63
     7
421
 16777215
 74
     0
 91
        4
 64
     7
 65
   257
 75
     1
175
     1
 42
1.0
 92
        8
 66
     7
 43
1.0
 76
     1
 77
     6
 78
     2
 67
     7
 79
     5
170
     0
171
     0
290
     0
174
     0
 93
        1
 44
0.0
173
     0
291
     1
 45
0.0
1001
ACAD
1000
AcDbSavedByObjectVersion
1070
     0
  0
VISUALSTYLE
  5
36
102
{ACAD_REACTORS
330
2A
102
}
102
{ACAD_XDICTIONARY
360
E6
102
}
330
2A
100
AcDbVisualStyle
  2
Brighten
 70
    12
 71
     2
 72
     2
 73
     0
 90
        0
 40
-0.6
 41
-30.0
 62
     5
 63
     7
421
 16777215
 74
     1
 91
        4
 64
     7
 65
   257
 75
     1
175
     1
 42
1.0
 92
        8
 66
     7
 43
1.0
 76
     1
 77
     6
 78
     2
 67
     7
 79
     5
170
     0
171
     0
290
     0
174
     0
 93
        1
 44
50.0
173
     0
291
     1
 45
0.0
1001
ACAD
1000
AcDbSavedByObjectVersion
1070
     0
  0
VISUALSTYLE
  5
3A
102
{ACAD_REACTORS
330
2A
102
}
102
{ACAD_XDICTIONARY
360
EE
102
}
330
2A
100
AcDbVisualStyle
  2
ColorChange
 70
    16
 71
     2
 72
     2
 73
     3
 90
        0
 40
-0.6
 41
-30.0
 62
     5
 63
     8
421
  8421504
 74
     1
 91
        4
 64
     7
 65
   257
 75
     1
175
     1
 42
1.0
 92
        8
 66
     8
424
  8421504
 43
1.0
 76
     1
 77
     6
 78
     2
 67
     7
 79
     5
170
     0
171
     0
290
     0
174
     0
 93
        1
 44
0.0
173
     0
291
     1
 45
0.0
1001
ACAD
1000
AcDbSavedByObjectVersion
1070
     0
  0
VISUALSTYLE
  5
34
102
{ACAD_REACTORS
330
2A
102
}
102
{ACAD_XDICTIONARY
360
E2
102
}
330
2A
100
AcDbVisualStyle
  2
Conceptual
 70
     9
 71
     3
 72
     2
 73
     0
 90
        0
 40
-0.6
 41
-30.0
 62
     5
 63
     7
421
 16777215
 74
     2
 91
        2
 64
     7
 65
   257
 75
     1
175
     1
 42
40.0
 92
        8
 66
     7
 43
1.0
 76
     1
 77
     6
 78
     2
 67
     7
 79
     3
170
     0
171
     0
290
     0
174
     0
 93
        1
 44
0.0
173
     0
291
     0
 45
0.0
1001
ACAD
1000
AcDbSavedByObjectVersion
1070
     0
  0
VISUALSTYLE
  5
35
102
{ACAD_REACTORS
330
2A
102
}
102
{ACAD_XDICTIONARY
360
E4
102
}
330
2A
100
AcDbVisualStyle
  2
Dim
 70
    11
 71
     2
 72
     2
 73
     0
 90
        0
 40
-0.6
 41
-30.0
 62
     5
 63
     7
421
 16777215
 74
     1
 91
        4
 64
     7
 65
   257
 75
     1
175
     1
 42
1.0
 92
        8
 66
     7
 43
1.0
 76
     1
 77
     6
 78
     2
 67
     7
 79
     5
170
     0
171
     0
290
     0
174
     0
 93
        1
 44
-50.0
173
     0
291
     1
 45
0.0
1001
ACAD
1000
AcDbSavedByObjectVersion
1070
     0
  0
VISUALSTYLE
  5
39
102
{ACAD_REACTORS
330
2A
102
}
102
{ACAD_XDICTIONARY
360
EC
102
}
330
2A
100
AcDbVisualStyle
  2
Facepattern
 70
    15
 71
     2
 72
     2
 73
     0
 90
        0
 40
-0.6
 41
-30.0
 62
     5
 63
     7
421
 16777215
 74
     1
 91
        4
 64
     7
 65
   257
 75
     1
175
     1
 42
1.0
 92
        8
 66
     7
 43
1.0
 76
     1
 77
     6
 78
     2
 67
     7
 79
     5
170
     0
171
     0
290
     0
174
     0
 93
        1
 44
0.0
173
     0
291
     1
 45
0.0
1001
ACAD
1000
AcDbSavedByObjectVersion
1070
     0
  0
VISUALSTYLE
  5
2B
102
{ACAD_REACTORS
330
2A
102
}
102
{ACAD_XDICTIONARY
360
D0
102
}
330
2A
100
AcDbVisualStyle
  2
Flat
 70
     0
 71
     2
 72
     1
 73
     1
 90
        2
 40
-0.6
 41
30.0
 62
     5
 63
     7
421
 16777215
 74
     0
 91
        4
 64
     7
 65
   257
 75
     1
175
     1
 42
1.0
 92
        8
 66
     7
 43
1.0
 76
     1
 77
     6
 78
     2
 67
     7
 79
     5
170
     0
171
     0
290
     0
174
     0
 93
       13
 44
0.0
173
     0
291
     1
 45
0.0
1001
ACAD
1000
AcDbSavedByObjectVersion
1070
     0
  0
VISUALSTYLE
  5
2C
102
{ACAD_REACTORS
330
2A
102
}
102
{ACAD_XDICTIONARY
360
D2
102
}
330
2A
100
AcDbVisualStyle
  2
FlatWithEdges
 70
     1
 71
     2
 72
     1
 73
     1
 90
        2
 40
-0.6
 41
30.0
 62
     5
 63
     7
421
 16777215
 74
     1
 91
        4
 64
     7
 65
   257
 75
     1
175
     1
 42
1.0
 92
        0
 66
   257
 43
1.0
 76
     1
 77
     6
 78
     2
 67
     7
 79
     5
170
     0
171
     0
290
     0
174
     0
 93
       13
 44
0.0
173
     0
291
     1
 45
0.0
1001
ACAD
1000
AcDbSavedByObjectVersion
1070
     0
  0
VISUALSTYLE
  5
2D
102
{ACAD_REACTORS
330
2A
102
}
102
{ACAD_XDICTIONARY
360
D4
102
}
330
2A
100
AcDbVisualStyle
  2
Gouraud
 70
     2
 71
     2
 72
     2
 73
     1
 90
        2
 40
-0.6
 41
30.0
 62
     5
 63
     7
421
 16777215
 74
     0
 91
        4
 64
     7
 65
   257
 75
     1
175
     1
 42
1.0
 92
        0
 66
     7
 43
1.0
 76
     1
 77
     6
 78
     2
 67
     7
 79
     5
170
     0
171
     0
290
     0
174
     0
 93
       13
 44
0.0
173
     0
291
     1
 45
0.0
1001
ACAD
1000
AcDbSavedByObjectVersion
1070
     0
  0
VISUALSTYLE
  5
2E
102
{ACAD_REACTORS
330
2A
102
}
102
{ACAD_XDICTIONARY
360
D6
102
}
330
2A
100
AcDbVisualStyle
  2
GouraudWithEdges
 70
     3
 71
     2
 72
     2
 73
     1
 90
        2
 40
-0.6
 41
30.0
 62
     5
 63
     7
421
 16777215
 74
     1
 91
        4
 64
     7
 65
   257
 75
     1
175
     1
 42
1.0
 92
        0
 66
   257
 43
1.0
 76
     1
 77
     6
 78
     2
 67
     7
 79
     5
170
     0
171
     0
290
     0
174
     0
 93
       13
 44
0.0
173
     0
291
     1
 45
0.0
1001
ACAD
1000
AcDbSavedByObjectVersion
1070
     0
  0
VISUALSTYLE
  5
38
102
{ACAD_REACTORS
330
2A
102
}
102
{ACAD_XDICTIONARY
360
EA
102
}
330
2A
100
AcDbVisualStyle
  2
Linepattern
 70
    14
 71
     2
 72
     2
 73
     0
 90
        0
 40
-0.6
 41
-30.0
 62
     5
 63
     7
421
 16777215
 74
     1
 91
        4
 64
     7
 65
   257
 75
     7
175
     7
 42
1.0
 92
        8
 66
     7
 43
1.0
 76
     1
 77
     6
 78
     2
 67
     7
 79
     5
170
     0
171
     0
290
     0
174
     0
 93
        1
 44
0.0
173
     0
291
     1
 45
0.0
1001
ACAD
1000
AcDbSavedByObjectVersion
1070
     0
  0
VISUALSTYLE
  5
33
102
{ACAD_REACTORS
330
2A
102
}
102
{ACAD_XDICTIONARY
360
E0
102
}
330
2A
100
AcDbVisualStyle
  2
Realistic
 70
     8
 71
     2
 72
     2
 73
     0
 90
        0
 40
-0.6
 41
-30.0
 62
     5
 63
     7
421
 16777215
 74
     1
 91
        0
 64
     7
 65
   257
 75
     1
175
     1
 42
1.0
 92
        8
 66
     8
424
  7895160
 43
1.0
 76
     1
 77
     6
 78
     2
 67
     7
 79
     5
170
     0
171
     0
290
     0
174
     0
 93
       13
 44
0.0
173
     0
291
     0
 45
0.0
1001
ACAD
1000
AcDbSavedByObjectVersion
1070
     0
  0
VISUALSTYLE
  5
37
102
{ACAD_REACTORS
330
2A
102
}
102
{ACAD_XDICTIONARY
360
E8
102
}
330
2A
100
AcDbVisualStyle
  2
Thicken
 70
    13
 71
     2
 72
     2
 73
     0
 90
        0
 40
-0.6
 41
-30.0
 62
     5
 63
     7
421
 16777215
 74
     1
 91
        4
 64
     7
 65
   257
 75
     1
175
     1
 42
1.0
 92
       12
 66
     7
 43
1.0
 76
     1
 77
     6
 78
     2
 67
     7
 79
     5
170
     0
171
     0
290
     0
174
     0
 93
        1
 44
0.0
173
     0
291
     1
 45
0.0
1001
ACAD
1000
AcDbSavedByObjectVersion
1070
     0
  0
DICTIONARY
  5
F2
330
3D
100
AcDbDictionary
280
     1
281
     1
  3
ACAD_XREC_ROUNDTRIP
360
F3
  0
DICTIONARY
  5
F0
330
3C
100
AcDbDictionary
280
     1
281
     1
  3
ACAD_XREC_ROUNDTRIP
360
F1
  0
DICTIONARY
  5
F4
330
3E
100
AcDbDictionary
280
     1
281
     1
  3
ACAD_XREC_ROUNDTRIP
360
F5
  0
DICTIONARY
  5
D8
330
2F
100
AcDbDictionary
280
     1
281
     1
  3
ACAD_XREC_ROUNDTRIP
360
D9
  0
DICTIONARY
  5
DC
330
31
100
AcDbDictionary
280
     1
281
     1
  3
ACAD_XREC_ROUNDTRIP
360
DD
  0
DICTIONARY
  5
DA
330
30
100
AcDbDictionary
280
     1
281
     1
  3
ACAD_XREC_ROUNDTRIP
360
DB
  0
DICTIONARY
  5
DE
330
32
100
AcDbDictionary
280
     1
281
     1
  3
ACAD_XREC_ROUNDTRIP
360
DF
  0
DICTIONARY
  5
E6
330
36
100
AcDbDictionary
280
     1
281
     1
  3
ACAD_XREC_ROUNDTRIP
360
E7
  0
DICTIONARY
  5
EE
330
3A
100
AcDbDictionary
280
     1
281
     1
  3
ACAD_XREC_ROUNDTRIP
360
EF
  0
DICTIONARY
  5
E2
330
34
100
AcDbDictionary
280
     1
281
     1
  3
ACAD_XREC_ROUNDTRIP
360
E3
  0
DICTIONARY
  5
E4
330
35
100
AcDbDictionary
280
     1
281
     1
  3
ACAD_XREC_ROUNDTRIP
360
E5
  0
DICTIONARY
  5
EC
330
39
100
AcDbDictionary
280
     1
281
     1
  3
ACAD_XREC_ROUNDTRIP
360
ED
  0
DICTIONARY
  5
D0
330
2B
100
AcDbDictionary
280
     1
281
     1
  3
ACAD_XREC_ROUNDTRIP
360
D1
  0
DICTIONARY
  5
D2
330
2C
100
AcDbDictionary
280
     1
281
     1
  3
ACAD_XREC_ROUNDTRIP
360
D3
  0
DICTIONARY
  5
D4
330
2D
100
AcDbDictionary
280
     1
281
     1
  3
ACAD_XREC_ROUNDTRIP
360
D5
  0
DICTIONARY
  5
D6
330
2E
100
AcDbDictionary
280
     1
281
     1
  3
ACAD_XREC_ROUNDTRIP
360
D7
  0
DICTIONARY
  5
EA
330
38
100
AcDbDictionary
280
     1
281
     1
  3
ACAD_XREC_ROUNDTRIP
360
EB
  0
DICTIONARY
  5
E0
330
33
100
AcDbDictionary
280
     1
281
     1
  3
ACAD_XREC_ROUNDTRIP
360
E1
  0
DICTIONARY
  5
E8
330
37
100
AcDbDictionary
280
     1
281
     1
  3
ACAD_XREC_ROUNDTRIP
360
E9
  0
XRECORD
  5
F3
102
{ACAD_REACTORS
330
F2
102
}
330
F2
100
AcDbXrecord
280
     1
102
MATERIAL
148
0.0
149
0.0
149
0.0
 93
        0
 94
      127
282
     0
 72
     1
 77
     1
171
     1
175
     1
179
     1
273
     0
  0
XRECORD
  5
F1
102
{ACAD_REACTORS
330
F0
102
}
330
F0
100
AcDbXrecord
280
     1
102
MATERIAL
148
0.0
149
0.0
149
0.0
 93
        0
 94
      127
282
     0
 72
     1
 77
     1
171
     1
175
     1
179
     1
273
     0
  0
XRECORD
  5
F5
102
{ACAD_REACTORS
330
F4
102
}
330
F4
100
AcDbXrecord
280
     1
102
MATERIAL
148
0.0
149
0.0
149
0.0
 93
        0
 94
      127
282
     0
 72
     1
 77
     1
171
     1
175
     1
179
     1
273
     0
  0
XRECORD
  5
D9
102
{ACAD_REACTORS
330
D8
102
}
330
D8
100
AcDbXrecord
280
     1
102
RTVSPropertyOp0
 70
     1
102
RTVSPropertyOp1
 70
     1
102
RTVSPropertyOp2
 70
     1
102
RTVSPropertyOp3
 70
     1
102
RTVSPropertyOp4
 70
     1
102
RTVSPropertyOp5
 70
     1
102
RTVSPropertyOp6
 70
     1
102
RTVSPropertyOp7
 70
     1
102
RTVSPropertyOp8
 70
     1
102
RTVSPropertyOp9
 70
     1
102
RTVSPropertyOp10
 70
     1
102
RTVSPropertyOp11
 70
     1
102
RTVSPropertyOp12
 70
     1
102
RTVSPropertyOp13
 70
     1
102
RTVSPropertyOp14
 70
     1
102
RTVSPropertyOp15
 70
     1
102
RTVSPropertyOp16
 70
     1
102
RTVSPropertyOp17
 70
     1
102
RTVSPropertyOp18
 70
     1
102
RTVSPropertyOp19
 70
     1
102
RTVSPropertyOp20
 70
     1
102
RTVSPropertyOp21
 70
     1
102
RTVSPropertyOp22
 70
     1
102
RTVSPropertyOp23
 70
     1
102
RTVSPropertyOp24
 70
     1
102
RTVSPropertyOp25
 70
     1
102
RTVSPropertyOp26
 70
     1
102
RTVSPropertyOp27
 70
     1
102
RTVSPropertyOp28
 70
     1
102
RTVSPropertyOp29
 70
     1
102
RTVSPropertyOp30
 70
     1
102
RTVSPropertyOp31
 70
     1
102
RTVSPropertyOp32
 70
     1
  0
XRECORD
  5
DD
102
{ACAD_REACTORS
330
DC
102
}
330
DC
100
AcDbXrecord
280
     1
102
RTVSPropertyOp0
 70
     1
102
RTVSPropertyOp1
 70
     1
102
RTVSPropertyOp2
 70
     1
102
RTVSPropertyOp3
 70
     1
102
RTVSPropertyOp4
 70
     1
102
RTVSPropertyOp5
 70
     1
102
RTVSPropertyOp6
 70
     1
102
RTVSPropertyOp7
 70
     1
102
RTVSPropertyOp8
 70
     1
102
RTVSPropertyOp9
 70
     1
102
RTVSPropertyOp10
 70
     1
102
RTVSPropertyOp11
 70
     1
102
RTVSPropertyOp12
 70
     1
102
RTVSPropertyOp13
 70
     1
102
RTVSPropertyOp14
 70
     1
102
RTVSPropertyOp15
 70
     1
102
RTVSPropertyOp16
 70
     1
102
RTVSPropertyOp17
 70
     1
102
RTVSPropertyOp18
 70
     1
102
RTVSPropertyOp19
 70
     1
102
RTVSPropertyOp20
 70
     1
102
RTVSPropertyOp21
 70
     1
102
RTVSPropertyOp22
 70
     1
102
RTVSPropertyOp23
 70
     1
102
RTVSPropertyOp24
 70
     1
102
RTVSPropertyOp25
 70
     1
102
RTVSPropertyOp26
 70
     1
102
RTVSPropertyOp27
 70
     1
102
RTVSPropertyOp28
 70
     1
102
RTVSPropertyOp29
 70
     1
102
RTVSPropertyOp30
 70
     1
102
RTVSPropertyOp31
 70
     1
102
RTVSPropertyOp32
 70
     1
  0
XRECORD
  5
DB
102
{ACAD_REACTORS
330
DA
102
}
330
DA
100
AcDbXrecord
280
     1
102
RTVSPropertyOp0
 70
     1
102
RTVSPropertyOp1
 70
     1
102
RTVSPropertyOp2
 70
     1
102
RTVSPropertyOp3
 70
     1
102
RTVSPropertyOp4
 70
     1
102
RTVSPropertyOp5
 70
     1
102
RTVSPropertyOp6
 70
     1
102
RTVSPropertyOp7
 70
     1
102
RTVSPropertyOp8
 70
     1
102
RTVSPropertyOp9
 70
     1
102
RTVSPropertyOp10
 70
     1
102
RTVSPropertyOp11
 70
     1
102
RTVSPropertyOp12
 70
     1
102
RTVSPropertyOp13
 70
     1
102
RTVSPropertyOp14
 70
     1
102
RTVSPropertyOp15
 70
     1
102
RTVSPropertyOp16
 70
     1
102
RTVSPropertyOp17
 70
     1
102
RTVSPropertyOp18
 70
     1
102
RTVSPropertyOp19
 70
     1
102
RTVSPropertyOp20
 70
     1
102
RTVSPropertyOp21
 70
     1
102
RTVSPropertyOp22
 70
     1
102
RTVSPropertyOp23
 70
     1
102
RTVSPropertyOp24
 70
     1
102
RTVSPropertyOp25
 70
     1
102
RTVSPropertyOp26
 70
     1
102
RTVSPropertyOp27
 70
     1
102
RTVSPropertyOp28
 70
     1
102
RTVSPropertyOp29
 70
     1
102
RTVSPropertyOp30
 70
     1
102
RTVSPropertyOp31
 70
     1
102
RTVSPropertyOp32
 70
     1
  0
XRECORD
  5
DF
102
{ACAD_REACTORS
330
DE
102
}
330
DE
100
AcDbXrecord
280
     1
102
RTVSPropertyOp0
 70
     1
102
RTVSPropertyOp1
 70
     1
102
RTVSPropertyOp2
 70
     1
102
RTVSPropertyOp3
 70
     1
102
RTVSPropertyOp4
 70
     1
102
RTVSPropertyOp5
 70
     1
102
RTVSPropertyOp6
 70
     1
102
RTVSPropertyOp7
 70
     1
102
RTVSPropertyOp8
 70
     1
102
RTVSPropertyOp9
 70
     1
102
RTVSPropertyOp10
 70
     1
102
RTVSPropertyOp11
 70
     1
102
RTVSPropertyOp12
 70
     1
102
RTVSPropertyOp13
 70
     1
102
RTVSPropertyOp14
 70
     1
102
RTVSPropertyOp15
 70
     1
102
RTVSPropertyOp16
 70
     1
102
RTVSPropertyOp17
 70
     1
102
RTVSPropertyOp18
 70
     1
102
RTVSPropertyOp19
 70
     1
102
RTVSPropertyOp20
 70
     1
102
RTVSPropertyOp21
 70
     1
102
RTVSPropertyOp22
 70
     1
102
RTVSPropertyOp23
 70
     1
102
RTVSPropertyOp24
 70
     1
102
RTVSPropertyOp25
 70
     1
102
RTVSPropertyOp26
 70
     1
102
RTVSPropertyOp27
 70
     1
102
RTVSPropertyOp28
 70
     1
102
RTVSPropertyOp29
 70
     1
102
RTVSPropertyOp30
 70
     1
102
RTVSPropertyOp31
 70
     1
102
RTVSPropertyOp32
 70
     1
  0
XRECORD
  5
E7
102
{ACAD_REACTORS
330
E6
102
}
330
E6
100
AcDbXrecord
280
     1
102
RTVSPropertyOp0
 70
     1
102
RTVSPropertyOp1
 70
     1
102
RTVSPropertyOp2
 70
     1
102
RTVSPropertyOp3
 70
     1
102
RTVSPropertyOp4
 70
     1
102
RTVSPropertyOp5
 70
     1
102
RTVSPropertyOp6
 70
     1
102
RTVSPropertyOp7
 70
     1
102
RTVSPropertyOp8
 70
     1
102
RTVSPropertyOp9
 70
     1
102
RTVSPropertyOp10
 70
     1
102
RTVSPropertyOp11
 70
     1
102
RTVSPropertyOp12
 70
     1
102
RTVSPropertyOp13
 70
     1
102
RTVSPropertyOp14
 70
     1
102
RTVSPropertyOp15
 70
     1
102
RTVSPropertyOp16
 70
     1
102
RTVSPropertyOp17
 70
     1
102
RTVSPropertyOp18
 70
     1
102
RTVSPropertyOp19
 70
     1
102
RTVSPropertyOp20
 70
     1
102
RTVSPropertyOp21
 70
     1
102
RTVSPropertyOp22
 70
     1
102
RTVSPropertyOp23
 70
     1
102
RTVSPropertyOp24
 70
     1
102
RTVSPropertyOp25
 70
     1
102
RTVSPropertyOp26
 70
     1
102
RTVSPropertyOp27
 70
     1
102
RTVSPropertyOp28
 70
     1
102
RTVSPropertyOp29
 70
     1
102
RTVSPropertyOp30
 70
     1
102
RTVSPropertyOp31
 70
     1
102
RTVSPropertyOp32
 70
     1
  0
XRECORD
  5
EF
102
{ACAD_REACTORS
330
EE
102
}
330
EE
100
AcDbXrecord
280
     1
102
RTVSPropertyOp0
 70
     1
102
RTVSPropertyOp1
 70
     1
102
RTVSPropertyOp2
 70
     1
102
RTVSPropertyOp3
 70
     1
102
RTVSPropertyOp4
 70
     1
102
RTVSPropertyOp5
 70
     1
102
RTVSPropertyOp6
 70
     1
102
RTVSPropertyOp7
 70
     1
102
RTVSPropertyOp8
 70
     1
102
RTVSPropertyOp9
 70
     1
102
RTVSPropertyOp10
 70
     1
102
RTVSPropertyOp11
 70
     1
102
RTVSPropertyOp12
 70
     1
102
RTVSPropertyOp13
 70
     1
102
RTVSPropertyOp14
 70
     1
102
RTVSPropertyOp15
 70
     1
102
RTVSPropertyOp16
 70
     1
102
RTVSPropertyOp17
 70
     1
102
RTVSPropertyOp18
 70
     1
102
RTVSPropertyOp19
 70
     1
102
RTVSPropertyOp20
 70
     1
102
RTVSPropertyOp21
 70
     1
102
RTVSPropertyOp22
 70
     1
102
RTVSPropertyOp23
 70
     1
102
RTVSPropertyOp24
 70
     1
102
RTVSPropertyOp25
 70
     1
102
RTVSPropertyOp26
 70
     1
102
RTVSPropertyOp27
 70
     1
102
RTVSPropertyOp28
 70
     1
102
RTVSPropertyOp29
 70
     1
102
RTVSPropertyOp30
 70
     1
102
RTVSPropertyOp31
 70
     1
102
RTVSPropertyOp32
 70
     1
  0
XRECORD
  5
E3
102
{ACAD_REACTORS
330
E2
102
}
330
E2
100
AcDbXrecord
280
     1
102
RTVSPropertyOp0
 70
     1
102
RTVSPropertyOp1
 70
     1
102
RTVSPropertyOp2
 70
     1
102
RTVSPropertyOp3
 70
     1
102
RTVSPropertyOp4
 70
     1
102
RTVSPropertyOp5
 70
     1
102
RTVSPropertyOp6
 70
     1
102
RTVSPropertyOp7
 70
     1
102
RTVSPropertyOp8
 70
     1
102
RTVSPropertyOp9
 70
     1
102
RTVSPropertyOp10
 70
     1
102
RTVSPropertyOp11
 70
     1
102
RTVSPropertyOp12
 70
     1
102
RTVSPropertyOp13
 70
     1
102
RTVSPropertyOp14
 70
     1
102
RTVSPropertyOp15
 70
     1
102
RTVSPropertyOp16
 70
     1
102
RTVSPropertyOp17
 70
     1
102
RTVSPropertyOp18
 70
     1
102
RTVSPropertyOp19
 70
     1
102
RTVSPropertyOp20
 70
     1
102
RTVSPropertyOp21
 70
     1
102
RTVSPropertyOp22
 70
     1
102
RTVSPropertyOp23
 70
     1
102
RTVSPropertyOp24
 70
     1
102
RTVSPropertyOp25
 70
     1
102
RTVSPropertyOp26
 70
     1
102
RTVSPropertyOp27
 70
     1
102
RTVSPropertyOp28
 70
     1
102
RTVSPropertyOp29
 70
     1
102
RTVSPropertyOp30
 70
     1
102
RTVSPropertyOp31
 70
     1
102
RTVSPropertyOp32
 70
     1
  0
XRECORD
  5
E5
102
{ACAD_REACTORS
330
E4
102
}
330
E4
100
AcDbXrecord
280
     1
102
RTVSPropertyOp0
 70
     1
102
RTVSPropertyOp1
 70
     1
102
RTVSPropertyOp2
 70
     1
102
RTVSPropertyOp3
 70
     1
102
RTVSPropertyOp4
 70
     1
102
RTVSPropertyOp5
 70
     1
102
RTVSPropertyOp6
 70
     1
102
RTVSPropertyOp7
 70
     1
102
RTVSPropertyOp8
 70
     1
102
RTVSPropertyOp9
 70
     1
102
RTVSPropertyOp10
 70
     1
102
RTVSPropertyOp11
 70
     1
102
RTVSPropertyOp12
 70
     1
102
RTVSPropertyOp13
 70
     1
102
RTVSPropertyOp14
 70
     1
102
RTVSPropertyOp15
 70
     1
102
RTVSPropertyOp16
 70
     1
102
RTVSPropertyOp17
 70
     1
102
RTVSPropertyOp18
 70
     1
102
RTVSPropertyOp19
 70
     1
102
RTVSPropertyOp20
 70
     1
102
RTVSPropertyOp21
 70
     1
102
RTVSPropertyOp22
 70
     1
102
RTVSPropertyOp23
 70
     1
102
RTVSPropertyOp24
 70
     1
102
RTVSPropertyOp25
 70
     1
102
RTVSPropertyOp26
 70
     1
102
RTVSPropertyOp27
 70
     1
102
RTVSPropertyOp28
 70
     1
102
RTVSPropertyOp29
 70
     1
102
RTVSPropertyOp30
 70
     1
102
RTVSPropertyOp31
 70
     1
102
RTVSPropertyOp32
 70
     1
  0
XRECORD
  5
ED
102
{ACAD_REACTORS
330
EC
102
}
330
EC
100
AcDbXrecord
280
     1
102
RTVSPropertyOp0
 70
     1
102
RTVSPropertyOp1
 70
     1
102
RTVSPropertyOp2
 70
     1
102
RTVSPropertyOp3
 70
     1
102
RTVSPropertyOp4
 70
     1
102
RTVSPropertyOp5
 70
     1
102
RTVSPropertyOp6
 70
     1
102
RTVSPropertyOp7
 70
     1
102
RTVSPropertyOp8
 70
     1
102
RTVSPropertyOp9
 70
     1
102
RTVSPropertyOp10
 70
     1
102
RTVSPropertyOp11
 70
     1
102
RTVSPropertyOp12
 70
     1
102
RTVSPropertyOp13
 70
     1
102
RTVSPropertyOp14
 70
     1
102
RTVSPropertyOp15
 70
     1
102
RTVSPropertyOp16
 70
     1
102
RTVSPropertyOp17
 70
     1
102
RTVSPropertyOp18
 70
     1
102
RTVSPropertyOp19
 70
     1
102
RTVSPropertyOp20
 70
     1
102
RTVSPropertyOp21
 70
     1
102
RTVSPropertyOp22
 70
     1
102
RTVSPropertyOp23
 70
     1
102
RTVSPropertyOp24
 70
     1
102
RTVSPropertyOp25
 70
     1
102
RTVSPropertyOp26
 70
     1
102
RTVSPropertyOp27
 70
     1
102
RTVSPropertyOp28
 70
     1
102
RTVSPropertyOp29
 70
     1
102
RTVSPropertyOp30
 70
     1
102
RTVSPropertyOp31
 70
     1
102
RTVSPropertyOp32
 70
     1
  0
XRECORD
  5
D1
102
{ACAD_REACTORS
330
D0
102
}
330
D0
100
AcDbXrecord
280
     1
102
RTVSPropertyOp0
 70
     1
102
RTVSPropertyOp1
 70
     1
102
RTVSPropertyOp2
 70
     1
102
RTVSPropertyOp3
 70
     1
102
RTVSPropertyOp4
 70
     1
102
RTVSPropertyOp5
 70
     1
102
RTVSPropertyOp6
 70
     1
102
RTVSPropertyOp7
 70
     1
102
RTVSPropertyOp8
 70
     1
102
RTVSPropertyOp9
 70
     1
102
RTVSPropertyOp10
 70
     1
102
RTVSPropertyOp11
 70
     1
102
RTVSPropertyOp12
 70
     1
102
RTVSPropertyOp13
 70
     1
102
RTVSPropertyOp14
 70
     1
102
RTVSPropertyOp15
 70
     1
102
RTVSPropertyOp16
 70
     1
102
RTVSPropertyOp17
 70
     1
102
RTVSPropertyOp18
 70
     1
102
RTVSPropertyOp19
 70
     1
102
RTVSPropertyOp20
 70
     1
102
RTVSPropertyOp21
 70
     1
102
RTVSPropertyOp22
 70
     1
102
RTVSPropertyOp23
 70
     1
102
RTVSPropertyOp24
 70
     1
102
RTVSPropertyOp25
 70
     1
102
RTVSPropertyOp26
 70
     1
102
RTVSPropertyOp27
 70
     1
102
RTVSPropertyOp28
 70
     1
102
RTVSPropertyOp29
 70
     1
102
RTVSPropertyOp30
 70
     1
102
RTVSPropertyOp31
 70
     1
102
RTVSPropertyOp32
 70
     1
  0
XRECORD
  5
D3
102
{ACAD_REACTORS
330
D2
102
}
330
D2
100
AcDbXrecord
280
     1
102
RTVSPropertyOp0
 70
     1
102
RTVSPropertyOp1
 70
     1
102
RTVSPropertyOp2
 70
     1
102
RTVSPropertyOp3
 70
     1
102
RTVSPropertyOp4
 70
     1
102
RTVSPropertyOp5
 70
     1
102
RTVSPropertyOp6
 70
     1
102
RTVSPropertyOp7
 70
     1
102
RTVSPropertyOp8
 70
     1
102
RTVSPropertyOp9
 70
     1
102
RTVSPropertyOp10
 70
     1
102
RTVSPropertyOp11
 70
     1
102
RTVSPropertyOp12
 70
     1
102
RTVSPropertyOp13
 70
     1
102
RTVSPropertyOp14
 70
     1
102
RTVSPropertyOp15
 70
     1
102
RTVSPropertyOp16
 70
     1
102
RTVSPropertyOp17
 70
     1
102
RTVSPropertyOp18
 70
     1
102
RTVSPropertyOp19
 70
     1
102
RTVSPropertyOp20
 70
     1
102
RTVSPropertyOp21
 70
     1
102
RTVSPropertyOp22
 70
     1
102
RTVSPropertyOp23
 70
     1
102
RTVSPropertyOp24
 70
     1
102
RTVSPropertyOp25
 70
     1
102
RTVSPropertyOp26
 70
     1
102
RTVSPropertyOp27
 70
     1
102
RTVSPropertyOp28
 70
     1
102
RTVSPropertyOp29
 70
     1
102
RTVSPropertyOp30
 70
     1
102
RTVSPropertyOp31
 70
     1
102
RTVSPropertyOp32
 70
     1
  0
XRECORD
  5
D5
102
{ACAD_REACTORS
330
D4
102
}
330
D4
100
AcDbXrecord
280
     1
102
RTVSPropertyOp0
 70
     1
102
RTVSPropertyOp1
 70
     1
102
RTVSPropertyOp2
 70
     1
102
RTVSPropertyOp3
 70
     1
102
RTVSPropertyOp4
 70
     1
102
RTVSPropertyOp5
 70
     1
102
RTVSPropertyOp6
 70
     1
102
RTVSPropertyOp7
 70
     1
102
RTVSPropertyOp8
 70
     1
102
RTVSPropertyOp9
 70
     1
102
RTVSPropertyOp10
 70
     1
102
RTVSPropertyOp11
 70
     1
102
RTVSPropertyOp12
 70
     1
102
RTVSPropertyOp13
 70
     1
102
RTVSPropertyOp14
 70
     1
102
RTVSPropertyOp15
 70
     1
102
RTVSPropertyOp16
 70
     1
102
RTVSPropertyOp17
 70
     1
102
RTVSPropertyOp18
 70
     1
102
RTVSPropertyOp19
 70
     1
102
RTVSPropertyOp20
 70
     1
102
RTVSPropertyOp21
 70
     1
102
RTVSPropertyOp22
 70
     1
102
RTVSPropertyOp23
 70
     1
102
RTVSPropertyOp24
 70
     1
102
RTVSPropertyOp25
 70
     1
102
RTVSPropertyOp26
 70
     1
102
RTVSPropertyOp27
 70
     1
102
RTVSPropertyOp28
 70
     1
102
RTVSPropertyOp29
 70
     1
102
RTVSPropertyOp30
 70
     1
102
RTVSPropertyOp31
 70
     1
102
RTVSPropertyOp32
 70
     1
  0
XRECORD
  5
D7
102
{ACAD_REACTORS
330
D6
102
}
330
D6
100
AcDbXrecord
280
     1
102
RTVSPropertyOp0
 70
     1
102
RTVSPropertyOp1
 70
     1
102
RTVSPropertyOp2
 70
     1
102
RTVSPropertyOp3
 70
     1
102
RTVSPropertyOp4
 70
     1
102
RTVSPropertyOp5
 70
     1
102
RTVSPropertyOp6
 70
     1
102
RTVSPropertyOp7
 70
     1
102
RTVSPropertyOp8
 70
     1
102
RTVSPropertyOp9
 70
     1
102
RTVSPropertyOp10
 70
     1
102
RTVSPropertyOp11
 70
     1
102
RTVSPropertyOp12
 70
     1
102
RTVSPropertyOp13
 70
     1
102
RTVSPropertyOp14
 70
     1
102
RTVSPropertyOp15
 70
     1
102
RTVSPropertyOp16
 70
     1
102
RTVSPropertyOp17
 70
     1
102
RTVSPropertyOp18
 70
     1
102
RTVSPropertyOp19
 70
     1
102
RTVSPropertyOp20
 70
     1
102
RTVSPropertyOp21
 70
     1
102
RTVSPropertyOp22
 70
     1
102
RTVSPropertyOp23
 70
     1
102
RTVSPropertyOp24
 70
     1
102
RTVSPropertyOp25
 70
     1
102
RTVSPropertyOp26
 70
     1
102
RTVSPropertyOp27
 70
     1
102
RTVSPropertyOp28
 70
     1
102
RTVSPropertyOp29
 70
     1
102
RTVSPropertyOp30
 70
     1
102
RTVSPropertyOp31
 70
     1
102
RTVSPropertyOp32
 70
     1
  0
XRECORD
  5
EB
102
{ACAD_REACTORS
330
EA
102
}
330
EA
100
AcDbXrecord
280
     1
102
RTVSPropertyOp0
 70
     1
102
RTVSPropertyOp1
 70
     1
102
RTVSPropertyOp2
 70
     1
102
RTVSPropertyOp3
 70
     1
102
RTVSPropertyOp4
 70
     1
102
RTVSPropertyOp5
 70
     1
102
RTVSPropertyOp6
 70
     1
102
RTVSPropertyOp7
 70
     1
102
RTVSPropertyOp8
 70
     1
102
RTVSPropertyOp9
 70
     1
102
RTVSPropertyOp10
 70
     1
102
RTVSPropertyOp11
 70
     1
102
RTVSPropertyOp12
 70
     1
102
RTVSPropertyOp13
 70
     1
102
RTVSPropertyOp14
 70
     1
102
RTVSPropertyOp15
 70
     1
102
RTVSPropertyOp16
 70
     1
102
RTVSPropertyOp17
 70
     1
102
RTVSPropertyOp18
 70
     1
102
RTVSPropertyOp19
 70
     1
102
RTVSPropertyOp20
 70
     1
102
RTVSPropertyOp21
 70
     1
102
RTVSPropertyOp22
 70
     1
102
RTVSPropertyOp23
 70
     1
102
RTVSPropertyOp24
 70
     1
102
RTVSPropertyOp25
 70
     1
102
RTVSPropertyOp26
 70
     1
102
RTVSPropertyOp27
 70
     1
102
RTVSPropertyOp28
 70
     1
102
RTVSPropertyOp29
 70
     1
102
RTVSPropertyOp30
 70
     1
102
RTVSPropertyOp31
 70
     1
102
RTVSPropertyOp32
 70
     1
  0
XRECORD
  5
E1
102
{ACAD_REACTORS
330
E0
102
}
330
E0
100
AcDbXrecord
280
     1
102
RTVSPropertyOp0
 70
     1
102
RTVSPropertyOp1
 70
     1
102
RTVSPropertyOp2
 70
     1
102
RTVSPropertyOp3
 70
     1
102
RTVSPropertyOp4
 70
     1
102
RTVSPropertyOp5
 70
     1
102
RTVSPropertyOp6
 70
     1
102
RTVSPropertyOp7
 70
     1
102
RTVSPropertyOp8
 70
     1
102
RTVSPropertyOp9
 70
     1
102
RTVSPropertyOp10
 70
     1
102
RTVSPropertyOp11
 70
     1
102
RTVSPropertyOp12
 70
     1
102
RTVSPropertyOp13
 70
     1
102
RTVSPropertyOp14
 70
     1
102
RTVSPropertyOp15
 70
     1
102
RTVSPropertyOp16
 70
     1
102
RTVSPropertyOp17
 70
     1
102
RTVSPropertyOp18
 70
     1
102
RTVSPropertyOp19
 70
     1
102
RTVSPropertyOp20
 70
     1
102
RTVSPropertyOp21
 70
     1
102
RTVSPropertyOp22
 70
     1
102
RTVSPropertyOp23
 70
     1
102
RTVSPropertyOp24
 70
     1
102
RTVSPropertyOp25
 70
     1
102
RTVSPropertyOp26
 70
     1
102
RTVSPropertyOp27
 70
     1
102
RTVSPropertyOp28
 70
     1
102
RTVSPropertyOp29
 70
     1
102
RTVSPropertyOp30
 70
     1
102
RTVSPropertyOp31
 70
     1
102
RTVSPropertyOp32
 70
     1
  0
XRECORD
  5
E9
102
{ACAD_REACTORS
330
E8
102
}
330
E8
100
AcDbXrecord
280
     1
102
RTVSPropertyOp0
 70
     1
102
RTVSPropertyOp1
 70
     1
102
RTVSPropertyOp2
 70
     1
102
RTVSPropertyOp3
 70
     1
102
RTVSPropertyOp4
 70
     1
102
RTVSPropertyOp5
 70
     1
102
RTVSPropertyOp6
 70
     1
102
RTVSPropertyOp7
 70
     1
102
RTVSPropertyOp8
 70
     1
102
RTVSPropertyOp9
 70
     1
102
RTVSPropertyOp10
 70
     1
102
RTVSPropertyOp11
 70
     1
102
RTVSPropertyOp12
 70
     1
102
RTVSPropertyOp13
 70
     1
102
RTVSPropertyOp14
 70
     1
102
RTVSPropertyOp15
 70
     1
102
RTVSPropertyOp16
 70
     1
102
RTVSPropertyOp17
 70
     1
102
RTVSPropertyOp18
 70
     1
102
RTVSPropertyOp19
 70
     1
102
RTVSPropertyOp20
 70
     1
102
RTVSPropertyOp21
 70
     1
102
RTVSPropertyOp22
 70
     1
102
RTVSPropertyOp23
 70
     1
102
RTVSPropertyOp24
 70
     1
102
RTVSPropertyOp25
 70
     1
102
RTVSPropertyOp26
 70
     1
102
RTVSPropertyOp27
 70
     1
102
RTVSPropertyOp28
 70
     1
102
RTVSPropertyOp29
 70
     1
102
RTVSPropertyOp30
 70
     1
102
RTVSPropertyOp31
 70
     1
102
RTVSPropertyOp32
 70
     1
  0
ENDSEC
  0
EOF
